<?xml version="1.0" encoding="UTF-8" standalone="no"?>
<svg
   width="53.323"
   height="62.135"
   viewBox="0 0 53.323 62.135"
   version="1.1"
   id="svg16"
   sodipodi:docname="anteater.svg"
   xmlns:inkscape="http://www.inkscape.org/namespaces/inkscape"
   xmlns:sodipodi="http://sodipodi.sourceforge.net/DTD/sodipodi-0.dtd"
   xmlns="http://www.w3.org/2000/svg"
   xmlns:svg="http://www.w3.org/2000/svg">
  <sodipodi:namedview
     id="namedview16"
     pagecolor="#ffffff"
     bordercolor="#666666"
     borderopacity="1.0"
     inkscape:showpageshadow="2"
     inkscape:pageopacity="0.0"
     inkscape:pagecheckerboard="0"
     inkscape:deskcolor="#d1d1d1" />
  <defs
     id="defs1">
    <clipPath
       id="clip-0">
      <path
         clip-rule="nonzero"
         d="M 0.03125 24 L 42 24 L 42 47 L 0.03125 47 Z M 0.03125 24 "
         id="path1" />
    </clipPath>
  </defs>
  <path
     id="path2"
     d="M 5.7910156 0.88867188 C 5.2903051 0.90227889 4.9277344 1.0090332 4.7695312 1.2382812 C 4.6092761 1.4708378 4.6748706 1.8131907 4.8984375 2.2246094 C 5.5159213 4.0634514 8.5496086 7.6642793 9.8867188 8.7617188 C 10.683278 9.4154982 11.585691 9.8346149 12.416016 9.9921875 C 11.257907 11.460143 10.800042 13.136459 11.501953 14.701172 C 11.493608 15.099655 11.495884 16.978156 12.109375 18.966797 C 11.142509 20.466597 10.283645 22.196934 9.5546875 24.123047 C 7.6254511 24.097161 4.5906718 28.292125 2.5195312 33.980469 C 0.30078125 40.074219 0.03124975 45.574219 1.9179688 46.257812 C 3.1596367 46.710263 5.0239281 44.958569 6.7871094 41.976562 C 6.9289798 49.077177 8.3861439 53.148306 10.761719 55.462891 C 8.9543627 55.908819 7.75 56.694479 7.75 57.589844 C 7.75 58.980469 10.628906 60.105469 14.183594 60.105469 C 16.996295 60.105469 19.385289 59.39874 20.257812 58.414062 C 20.60692 58.421123 20.954947 58.429688 21.3125 58.429688 C 21.670338 58.429688 22.017802 58.421142 22.367188 58.414062 C 23.239711 59.39874 25.628705 60.105469 28.441406 60.105469 C 31.992188 60.105469 34.871094 58.980469 34.871094 57.589844 C 34.871094 56.694479 33.667633 55.908819 31.861328 55.462891 C 32.180939 55.15133 32.484164 54.80796 32.769531 54.429688 C 49.220816 51.674246 45.303982 28.363194 51.765625 19.066406 C 43.979858 18.19727 39.658927 21.764599 36.556641 26.951172 C 35.290156 25.174705 34.039108 24.111435 33.068359 24.123047 C 32.339603 22.197183 31.48017 20.466464 30.513672 18.966797 C 31.126993 16.978347 31.127485 15.099618 31.119141 14.701172 C 31.821234 13.13607 31.365513 11.458451 30.207031 9.9902344 C 31.03674 9.8323307 31.938532 9.4149103 32.734375 8.7617188 C 34.071485 7.6642793 37.1082 4.0634514 37.724609 2.2246094 C 37.948664 1.8131907 38.014979 1.4708378 37.855469 1.2382812 C 37.007812 0.01562525 30.324219 2.2890617 28.136719 3.4804688 C 26.572722 4.3294957 25.569342 5.5720826 25.431641 6.6582031 C 24.122675 6.1621441 22.710775 5.8710938 21.3125 5.8710938 C 19.913505 5.8710938 18.50077 6.1622534 17.191406 6.6582031 C 17.052526 5.5720719 16.049507 4.3295075 14.488281 3.4804688 C 12.707764 2.5124506 7.9607611 0.82970813 5.7910156 0.88867188 z " />
  <g
     clip-path="url(#clip-0)"
     id="g5" />
</svg>
