<?xml version="1.0" encoding="UTF-8"?>
<svg xmlns="http://www.w3.org/2000/svg" xmlns:xlink="http://www.w3.org/1999/xlink" width="92.41" height="62.135" viewBox="0 0 92.41 62.135">
<path fill-rule="nonzero" fill="rgb(45.179749%, 39.69574%, 33.924866%)" fill-opacity="1" d="M 45.214844 57.589844 C 45.214844 56.203125 42.335938 55.074219 38.785156 55.074219 C 35.234375 55.074219 32.355469 56.203125 32.355469 57.589844 C 32.355469 58.980469 35.234375 60.105469 38.785156 60.105469 C 42.335938 60.105469 45.214844 58.980469 45.214844 57.589844 Z M 45.214844 57.589844 "/>
<path fill-rule="nonzero" fill="rgb(45.179749%, 39.69574%, 33.924866%)" fill-opacity="1" d="M 59.472656 57.589844 C 59.472656 56.203125 56.59375 55.074219 53.042969 55.074219 C 49.492188 55.074219 46.613281 56.203125 46.613281 57.589844 C 46.613281 58.980469 49.492188 60.105469 53.042969 60.105469 C 56.59375 60.105469 59.472656 58.980469 59.472656 57.589844 Z M 59.472656 57.589844 "/>
<path fill-rule="nonzero" fill="rgb(45.179749%, 39.69574%, 33.924866%)" fill-opacity="1" d="M 76.367188 19.066406 C 55.511719 16.738281 59.507812 46.234375 45.234375 53.453125 C 75.746094 61.28125 68.652344 30.171875 76.367188 19.066406 Z M 76.367188 19.066406 "/>
<path fill-rule="nonzero" fill="rgb(83.422852%, 78.805542%, 73.838806%)" fill-opacity="1" d="M 34.554688 24.191406 C 32.667969 23.503906 29.339844 27.886719 27.121094 33.980469 C 24.902344 40.074219 24.636719 45.574219 26.519531 46.257812 C 28.40625 46.945312 31.734375 42.5625 33.953125 36.46875 C 36.171875 30.375 36.441406 24.878906 34.554688 24.191406 Z M 65.308594 46.257812 C 67.191406 45.574219 66.925781 40.074219 64.707031 33.980469 C 62.488281 27.886719 59.160156 23.503906 57.273438 24.191406 C 55.386719 24.878906 55.65625 30.375 57.875 36.46875 C 60.09375 42.5625 63.421875 46.945312 65.308594 46.257812 Z M 65.308594 46.257812 "/>
<path fill-rule="nonzero" fill="rgb(61.225891%, 56.272888%, 50.498962%)" fill-opacity="1" d="M 60.453125 40.816406 C 60.453125 56.753906 54.300781 58.429688 45.914062 58.429688 C 37.527344 58.429688 31.375 56.753906 31.375 40.816406 C 31.375 25.441406 37.527344 12.859375 45.914062 12.859375 C 54.300781 12.859375 60.453125 25.441406 60.453125 40.816406 Z M 60.453125 40.816406 "/>
<path fill-rule="nonzero" fill="rgb(83.422852%, 78.805542%, 73.838806%)" fill-opacity="1" d="M 55.140625 19.847656 L 36.6875 19.847656 C 31.933594 33.828125 43.117188 36.621094 45.914062 46.40625 C 48.710938 36.621094 59.894531 33.828125 55.140625 19.847656 Z M 55.140625 19.847656 "/>
<path fill-rule="nonzero" fill="rgb(45.179749%, 39.69574%, 33.924866%)" fill-opacity="1" d="M 55.140625 19.847656 L 36.6875 19.847656 C 33.332031 32.429688 43.117188 35.226562 45.914062 43.613281 C 48.710938 35.226562 58.496094 32.429688 55.140625 19.847656 Z M 55.140625 19.847656 "/>
<path fill-rule="nonzero" fill="rgb(45.179749%, 39.69574%, 33.924866%)" fill-opacity="1" d="M 55.785156 7.902344 C 57.976562 6.714844 63.296875 2.457031 62.457031 1.238281 C 61.613281 0.015625 54.925781 2.289062 52.738281 3.480469 C 50.550781 4.667969 49.460938 6.625 50.300781 7.847656 C 51.140625 9.066406 53.597656 9.09375 55.785156 7.902344 Z M 55.785156 7.902344 "/>
<path fill-rule="nonzero" fill="rgb(45.179749%, 39.69574%, 33.924866%)" fill-opacity="1" d="M 36.042969 7.902344 C 33.851562 6.714844 28.53125 2.457031 29.371094 1.238281 C 30.214844 0.015625 36.902344 2.289062 39.089844 3.480469 C 41.277344 4.667969 42.367188 6.625 41.527344 7.847656 C 40.6875 9.066406 38.230469 9.09375 36.042969 7.902344 Z M 36.042969 7.902344 "/>
<path fill-rule="nonzero" fill="rgb(83.422852%, 78.805542%, 73.838806%)" fill-opacity="1" d="M 57.335938 8.761719 C 58.996094 7.402344 63.261719 2.199219 62.300781 1.265625 C 61.339844 0.34375 55.515625 4.046875 53.855469 5.40625 C 52.203125 6.773438 51.640625 8.621094 52.597656 9.546875 C 53.5625 10.472656 55.683594 10.121094 57.339844 8.761719 Z M 34.492188 8.761719 C 32.832031 7.402344 28.566406 2.199219 29.527344 1.265625 C 30.488281 0.34375 36.3125 4.046875 37.972656 5.40625 C 39.625 6.773438 40.1875 8.621094 39.230469 9.546875 C 38.265625 10.472656 36.144531 10.121094 34.488281 8.761719 Z M 34.492188 8.761719 "/>
<path fill-rule="nonzero" fill="rgb(61.225891%, 56.272888%, 50.498962%)" fill-opacity="1" d="M 55.140625 15.375 C 50.386719 20.6875 48.710938 21.246094 48.152344 33.828125 C 47.871094 35.226562 43.957031 35.226562 43.675781 33.828125 C 43.117188 21.246094 41.441406 20.6875 36.6875 15.65625 C 33.332031 11.460938 39.761719 5.871094 45.914062 5.871094 C 52.066406 5.871094 58.496094 11.460938 55.140625 15.65625 Z M 55.140625 15.375 "/>
<path fill-rule="nonzero" fill="rgb(83.422852%, 78.805542%, 73.838806%)" fill-opacity="1" d="M 55.722656 14.5625 C 55.722656 14.5625 53.914062 11.492188 50.304688 13.796875 C 46.695312 16.101562 47.667969 33.761719 47.667969 33.761719 C 47.667969 33.761719 49.578125 24.679688 52.382812 22.921875 C 55.976562 20.671875 55.722656 14.5625 55.722656 14.5625 Z M 36.105469 14.5625 C 36.105469 14.5625 37.914062 11.492188 41.523438 13.796875 C 45.132812 16.101562 44.160156 33.761719 44.160156 33.761719 C 44.160156 33.761719 42.25 24.679688 39.445312 22.921875 C 35.851562 20.671875 36.105469 14.5625 36.105469 14.5625 Z M 36.105469 14.5625 "/>
<path fill-rule="nonzero" fill="rgb(45.179749%, 39.69574%, 33.924866%)" fill-opacity="1" d="M 48.152344 32.988281 C 48.152344 32.214844 47.148438 31.589844 45.914062 31.589844 C 44.679688 31.589844 43.675781 32.214844 43.675781 32.988281 C 43.675781 33.761719 44.679688 34.386719 45.914062 34.386719 C 47.148438 34.386719 48.152344 33.761719 48.152344 32.988281 Z M 48.152344 32.988281 "/>
<path fill-rule="nonzero" fill="rgb(45.179749%, 39.69574%, 33.924866%)" fill-opacity="1" d="M 53.742188 15.65625 C 53.742188 14.882812 53.117188 14.257812 52.34375 14.257812 C 51.570312 14.257812 50.945312 14.882812 50.945312 15.65625 C 50.945312 16.425781 51.570312 17.050781 52.34375 17.050781 C 53.117188 17.050781 53.742188 16.425781 53.742188 15.65625 Z M 53.742188 15.65625 "/>
<path fill-rule="nonzero" fill="rgb(45.179749%, 39.69574%, 33.924866%)" fill-opacity="1" d="M 40.882812 15.65625 C 40.882812 14.882812 40.257812 14.257812 39.484375 14.257812 C 38.710938 14.257812 38.085938 14.882812 38.085938 15.65625 C 38.085938 16.425781 38.710938 17.050781 39.484375 17.050781 C 40.257812 17.050781 40.882812 16.425781 40.882812 15.65625 Z M 40.882812 15.65625 "/>
</svg>
