<?xml version="1.0" encoding="UTF-8"?>
<svg xmlns="http://www.w3.org/2000/svg" xmlns:xlink="http://www.w3.org/1999/xlink" width="92.41" height="61.532" viewBox="0 0 92.41 61.532">
<path fill-rule="nonzero" fill="rgb(75%, 75%, 75%)" fill-opacity="1" d="M 68.417969 32.914062 C 68.417969 28.253906 64.640625 24.476562 59.980469 24.476562 C 55.316406 24.476562 51.539062 28.253906 51.539062 32.914062 C 51.539062 37.578125 55.316406 41.355469 59.980469 41.355469 C 64.640625 41.355469 68.417969 37.578125 68.417969 32.914062 Z M 68.417969 32.914062 "/>
<path fill-rule="nonzero" fill="rgb(75%, 75%, 75%)" fill-opacity="1" d="M 40.285156 32.914062 C 40.285156 28.253906 36.507812 24.476562 31.847656 24.476562 C 27.183594 24.476562 23.40625 28.253906 23.40625 32.914062 C 23.40625 37.578125 27.183594 41.355469 31.847656 41.355469 C 36.507812 41.355469 40.285156 37.578125 40.285156 32.914062 Z M 40.285156 32.914062 "/>
<path fill-rule="nonzero" fill="rgb(62.998962%, 33.999634%, 16.999817%)" fill-opacity="1" d="M 59.980469 41.355469 C 59.980469 52.609375 55.757812 59.078125 45.914062 59.078125 C 36.066406 59.078125 31.847656 52.609375 31.847656 41.355469 C 20.59375 18.847656 34.660156 17.441406 45.914062 17.441406 C 57.164062 17.441406 71.230469 18.847656 59.980469 41.355469 Z M 59.980469 41.355469 "/>
<path fill-rule="nonzero" fill="rgb(62.998962%, 33.999634%, 16.999817%)" fill-opacity="1" d="M 57.164062 14.347656 C 57.164062 6.578125 52.128906 0.28125 45.914062 0.28125 C 39.699219 0.28125 34.660156 6.578125 34.660156 14.347656 C 34.660156 22.117188 39.699219 28.414062 45.914062 28.414062 C 52.128906 28.414062 57.164062 22.117188 57.164062 14.347656 Z M 57.164062 14.347656 "/>
<path fill-rule="nonzero" fill="rgb(56.498718%, 41.999817%, 33.49762%)" fill-opacity="1" d="M 54.914062 14.347656 C 54.914062 8.132812 50.882812 3.09375 45.914062 3.09375 C 40.941406 3.09375 36.910156 8.132812 36.910156 14.347656 C 36.910156 20.5625 40.941406 25.601562 45.914062 25.601562 C 50.882812 25.601562 54.914062 20.5625 54.914062 14.347656 Z M 54.914062 14.347656 "/>
<path fill-rule="nonzero" fill="rgb(25.19989%, 13.598633%, 6.799316%)" fill-opacity="1" d="M 44.785156 10.410156 C 44.785156 9.789062 44.28125 9.285156 43.660156 9.285156 C 43.039062 9.285156 42.535156 9.789062 42.535156 10.410156 C 42.535156 11.03125 43.039062 11.535156 43.660156 11.535156 C 44.28125 11.535156 44.785156 11.03125 44.785156 10.410156 Z M 44.785156 10.410156 "/>
<path fill-rule="nonzero" fill="rgb(25.19989%, 13.598633%, 6.799316%)" fill-opacity="1" d="M 49.289062 10.410156 C 49.289062 9.789062 48.785156 9.285156 48.164062 9.285156 C 47.542969 9.285156 47.039062 9.789062 47.039062 10.410156 C 47.039062 11.03125 47.542969 11.535156 48.164062 11.535156 C 48.785156 11.535156 49.289062 11.03125 49.289062 10.410156 Z M 49.289062 10.410156 "/>
<path fill-rule="nonzero" fill="rgb(65.200806%, 53.599548%, 46.798706%)" fill-opacity="1" d="M 53.789062 20.253906 C 53.789062 17.148438 50.261719 14.628906 45.914062 14.628906 C 41.5625 14.628906 38.035156 17.148438 38.035156 20.253906 C 38.035156 23.363281 41.5625 25.882812 45.914062 25.882812 C 50.261719 25.882812 53.789062 23.363281 53.789062 20.253906 Z M 53.789062 20.253906 "/>
<path fill="none" stroke-width="0.3985" stroke-linecap="butt" stroke-linejoin="miter" stroke="rgb(28.248596%, 20.99762%, 16.749573%)" stroke-opacity="1" stroke-miterlimit="10" d="M 3.544214 42.522101 C 1.434539 40.750919 -1.639446 40.750919 -3.745184 42.522101 " transform="matrix(0.992452, 0, 0, -0.992452, 45.912227, 63.861284)"/>
<path fill-rule="nonzero" fill="rgb(33.898926%, 25.19989%, 20.098877%)" fill-opacity="1" d="M 45.675781 17.652344 C 45.40625 17.183594 44.914062 16.957031 44.574219 17.152344 C 44.238281 17.347656 44.1875 17.886719 44.460938 18.355469 C 44.730469 18.828125 45.222656 19.050781 45.5625 18.859375 C 45.898438 18.664062 45.949219 18.125 45.675781 17.652344 Z M 45.675781 17.652344 "/>
<path fill-rule="nonzero" fill="rgb(33.898926%, 25.19989%, 20.098877%)" fill-opacity="1" d="M 47.363281 18.355469 C 47.636719 17.886719 47.585938 17.347656 47.25 17.152344 C 46.914062 16.957031 46.417969 17.183594 46.148438 17.652344 C 45.875 18.125 45.925781 18.664062 46.265625 18.859375 C 46.601562 19.050781 47.09375 18.828125 47.363281 18.355469 Z M 47.363281 18.355469 "/>
<path fill-rule="nonzero" fill="rgb(56.498718%, 41.999817%, 33.49762%)" fill-opacity="1" d="M 72.210938 59.640625 C 74.542969 58.296875 73.160156 56.574219 69.121094 55.796875 C 65.085938 55.019531 59.921875 55.484375 57.59375 56.828125 C 56.085938 57.699219 56.085938 58.769531 57.59375 59.640625 C 58.667969 60.242188 61.1875 60.824219 63.214844 60.945312 C 65.242188 61.066406 66.015625 60.679688 64.9375 60.078125 C 64.59375 59.890625 64.089844 59.691406 63.46875 59.507812 Z M 72.210938 59.640625 "/>
<path fill-rule="nonzero" fill="rgb(56.498718%, 41.999817%, 33.49762%)" fill-opacity="1" d="M 19.613281 59.640625 C 17.28125 58.296875 18.667969 56.574219 22.703125 55.796875 C 26.738281 55.019531 31.902344 55.484375 34.230469 56.828125 C 35.738281 57.699219 35.738281 58.769531 34.230469 59.640625 C 33.15625 60.242188 30.636719 60.824219 28.609375 60.945312 C 26.582031 61.066406 25.808594 60.679688 26.886719 60.078125 C 27.230469 59.890625 27.738281 59.691406 28.355469 59.507812 Z M 19.613281 59.640625 "/>
<path fill-rule="nonzero" fill="rgb(56.698608%, 30.599976%, 15.299988%)" fill-opacity="1" d="M 63.523438 47.714844 C 71.214844 40.023438 76.113281 32.453125 74.464844 30.804688 C 72.820312 29.160156 65.25 34.058594 57.558594 41.746094 C 49.867188 49.4375 44.96875 57.007812 46.617188 58.65625 C 48.265625 60.304688 55.835938 55.40625 63.523438 47.714844 Z M 63.523438 47.714844 "/>
<path fill-rule="nonzero" fill="rgb(56.698608%, 30.599976%, 15.299988%)" fill-opacity="1" d="M 69.257812 47.121094 C 73.921875 39.046875 76.0625 31.558594 74.046875 30.394531 C 72.027344 29.230469 66.613281 34.828125 61.949219 42.902344 C 57.289062 50.976562 55.148438 58.464844 57.164062 59.628906 C 59.183594 60.796875 64.597656 55.195312 69.257812 47.121094 Z M 69.257812 47.121094 "/>
<path fill-rule="nonzero" fill="rgb(56.698608%, 30.599976%, 15.299988%)" fill-opacity="1" d="M 34.265625 41.746094 C 26.578125 34.058594 19.007812 29.160156 17.359375 30.804688 C 15.710938 32.453125 20.609375 40.023438 28.300781 47.714844 C 35.988281 55.40625 43.558594 60.304688 45.207031 58.65625 C 46.855469 57.007812 41.957031 49.4375 34.265625 41.746094 Z M 34.265625 41.746094 "/>
<path fill-rule="nonzero" fill="rgb(56.698608%, 30.599976%, 15.299988%)" fill-opacity="1" d="M 29.875 42.902344 C 25.210938 34.828125 19.796875 29.230469 17.78125 30.394531 C 15.761719 31.558594 17.902344 39.046875 22.566406 47.121094 C 27.226562 55.195312 32.640625 60.796875 34.660156 59.628906 C 36.675781 58.464844 34.535156 50.976562 29.875 42.902344 Z M 29.875 42.902344 "/>
<path fill-rule="nonzero" fill="rgb(59.849548%, 32.299805%, 16.149902%)" fill-opacity="1" d="M 22.703125 32.351562 C 30.777344 27.6875 36.375 22.273438 35.210938 20.253906 C 34.046875 18.238281 26.554688 20.378906 18.484375 25.039062 C 10.410156 29.703125 4.808594 35.117188 5.972656 37.136719 C 7.140625 39.152344 14.628906 37.011719 22.703125 32.351562 Z M 22.703125 32.351562 "/>
<path fill-rule="nonzero" fill="rgb(60.848999%, 47.799683%, 40.148926%)" fill-opacity="1" d="M 44.078125 32.914062 C 46.410156 34.261719 45.027344 35.980469 40.988281 36.757812 C 36.953125 37.535156 31.789062 37.074219 29.460938 35.726562 C 27.953125 34.859375 27.953125 33.785156 29.460938 32.914062 C 30.535156 32.316406 33.054688 31.730469 35.082031 31.609375 C 37.109375 31.488281 37.882812 31.878906 36.804688 32.476562 C 36.460938 32.667969 35.957031 32.863281 35.335938 33.050781 Z M 44.078125 32.914062 "/>
<path fill-rule="nonzero" fill="rgb(59.849548%, 32.299805%, 16.149902%)" fill-opacity="1" d="M 31 32.492188 C 27.710938 30.660156 19.710938 30.445312 13.132812 32.007812 C 6.554688 33.570312 3.890625 36.324219 7.183594 38.15625 C 10.472656 39.988281 18.472656 40.207031 25.050781 38.644531 C 27.851562 37.976562 30.070312 37.058594 31.3125 36.046875 Z M 31 32.492188 "/>
<path fill-rule="nonzero" fill="rgb(59.849548%, 32.299805%, 16.149902%)" fill-opacity="1" d="M 73.339844 25.039062 C 65.269531 20.378906 57.777344 18.238281 56.613281 20.253906 C 55.449219 22.273438 61.046875 27.6875 69.121094 32.351562 C 77.195312 37.011719 84.683594 39.152344 85.851562 37.136719 C 87.015625 35.117188 81.414062 29.703125 73.339844 25.039062 Z M 73.339844 25.039062 "/>
<path fill-rule="nonzero" fill="rgb(60.848999%, 47.799683%, 40.148926%)" fill-opacity="1" d="M 47.746094 32.914062 C 45.414062 34.261719 46.800781 35.980469 50.835938 36.757812 C 54.871094 37.535156 60.035156 37.074219 62.363281 35.726562 C 63.871094 34.859375 63.871094 33.785156 62.363281 32.914062 C 61.289062 32.316406 58.769531 31.730469 56.742188 31.609375 C 54.714844 31.488281 53.941406 31.878906 55.019531 32.476562 C 55.363281 32.667969 55.871094 32.863281 56.488281 33.050781 Z M 47.746094 32.914062 "/>
<path fill-rule="nonzero" fill="rgb(59.849548%, 32.299805%, 16.149902%)" fill-opacity="1" d="M 60.824219 32.492188 C 64.113281 30.660156 72.113281 30.445312 78.691406 32.007812 C 85.269531 33.570312 87.933594 36.324219 84.640625 38.15625 C 81.351562 39.988281 73.351562 40.207031 66.773438 38.644531 C 63.972656 37.976562 61.753906 37.058594 60.511719 36.046875 Z M 60.824219 32.492188 "/>
</svg>
