<?xml version="1.0" encoding="UTF-8" standalone="no"?>
<svg
   width="84.68"
   height="61.532"
   viewBox="0 0 84.68 61.532"
   version="1.1"
   id="svg23"
   sodipodi:docname="ape.svg"
   xmlns:inkscape="http://www.inkscape.org/namespaces/inkscape"
   xmlns:sodipodi="http://sodipodi.sourceforge.net/DTD/sodipodi-0.dtd"
   xmlns="http://www.w3.org/2000/svg"
   xmlns:svg="http://www.w3.org/2000/svg">
  <defs
     id="defs23" />
  <sodipodi:namedview
     id="namedview23"
     pagecolor="#ffffff"
     bordercolor="#666666"
     borderopacity="1.0"
     inkscape:showpageshadow="2"
     inkscape:pageopacity="0.0"
     inkscape:pagecheckerboard="0"
     inkscape:deskcolor="#d1d1d1" />
  <path
     id="path1"
     d="M 42.179688 0.28125 C 35.964844 0.28125 30.929688 6.5781252 30.929688 14.347656 C 30.929688 15.802265 31.105918 17.205676 31.433594 18.525391 C 30.512669 18.789815 29.642223 19.115928 28.84375 19.521484 C 25.728479 19.764871 20.38318 21.788471 14.753906 25.039062 C 8.4459234 28.682862 3.6468539 32.784128 2.4042969 35.367188 C 2.0460162 35.875236 1.9482846 36.384648 2.1367188 36.869141 C 2.1619958 36.963088 2.1944517 37.053902 2.2421875 37.136719 C 2.3086523 37.251421 2.3975635 37.351368 2.5039062 37.439453 C 2.7326669 37.689589 3.0468356 37.930212 3.453125 38.15625 C 5.7463511 39.433593 10.330212 39.922325 15.125 39.574219 C 16.05362 41.893779 17.303687 44.473073 18.832031 47.121094 C 20.734144 50.413946 22.758434 53.283993 24.628906 55.462891 C 22.750724 55.353814 20.751754 55.454145 18.972656 55.796875 C 14.933594 56.574219 13.550782 58.296875 15.882812 59.640625 L 24.625 59.507812 C 24.003906 59.691406 23.5 59.890625 23.15625 60.078125 C 22.078125 60.679688 22.851562 61.066406 24.878906 60.945312 C 26.751996 60.833433 29.038663 60.328029 30.226562 59.777344 C 30.491519 59.791319 30.728196 59.745436 30.929688 59.628906 C 31.937882 59.046654 31.907701 56.882176 31.041016 53.853516 C 33.307336 57.252396 36.950195 59.078125 42.179688 59.078125 C 47.411255 59.078125 51.05457 57.252396 53.320312 53.853516 C 52.453139 56.882174 52.423445 59.046655 53.433594 59.628906 C 53.635037 59.745408 53.871844 59.793239 54.136719 59.779297 C 55.322348 60.329793 57.611837 60.833466 59.484375 60.945312 C 61.511719 61.066406 62.28125 60.679688 61.207031 60.078125 C 60.863281 59.890625 60.355469 59.691406 59.738281 59.507812 L 68.480469 59.640625 C 70.808594 58.296875 69.425781 56.574219 65.390625 55.796875 C 63.611528 55.454145 61.612557 55.353814 59.734375 55.462891 C 61.604289 53.283993 63.626825 50.413946 65.527344 47.121094 C 67.057006 44.47301 68.309214 41.893822 69.238281 39.574219 C 74.033069 39.922325 78.616931 39.433593 80.910156 38.15625 C 81.32813 37.923712 81.648702 37.67589 81.878906 37.417969 C 81.973975 37.334859 82.056111 37.242476 82.117188 37.136719 C 82.162157 37.058962 82.193606 36.974303 82.21875 36.886719 C 82.417454 36.394485 82.320295 35.876162 81.953125 35.359375 C 80.706695 32.775876 75.911192 28.679299 69.609375 25.039062 C 63.977377 21.788471 58.633902 19.764871 55.519531 19.521484 C 54.721458 19.116141 53.850155 18.789749 52.929688 18.525391 C 53.257586 17.205676 53.433594 15.802265 53.433594 14.347656 C 53.433594 6.5781252 48.394531 0.28125 42.179688 0.28125 z " />
</svg>
