<?xml version="1.0" encoding="UTF-8"?>
<svg xmlns="http://www.w3.org/2000/svg" xmlns:xlink="http://www.w3.org/1999/xlink" width="92.937" height="64.287" viewBox="0 0 92.937 64.287">
<defs>
<clipPath id="clip-0">
<path clip-rule="nonzero" d="M 50 57 L 53 57 L 53 63.582031 L 50 63.582031 Z M 50 57 "/>
</clipPath>
<clipPath id="clip-1">
<path clip-rule="nonzero" d="M 51 57 L 54 57 L 54 63.582031 L 51 63.582031 Z M 51 57 "/>
</clipPath>
<clipPath id="clip-2">
<path clip-rule="nonzero" d="M 40 57 L 43 57 L 43 63.582031 L 40 63.582031 Z M 40 57 "/>
</clipPath>
<clipPath id="clip-3">
<path clip-rule="nonzero" d="M 38 57 L 42 57 L 42 63.582031 L 38 63.582031 Z M 38 57 "/>
</clipPath>
</defs>
<path fill-rule="nonzero" fill="rgb(25%, 25%, 25%)" fill-opacity="1" d="M 3.335938 45.703125 C 0.476562 31.308594 15.730469 20.585938 25.246094 18.574219 C 28.316406 22.25 33.613281 27.109375 36.625 28.914062 L 36.625 47.921875 C 33.3125 44.257812 29.964844 43.023438 26.808594 45.703125 C 23.453125 40.003906 18.398438 40.175781 15.507812 45.703125 C 13.109375 40.011719 5.878906 39.601562 3.335938 45.703125 Z M 3.335938 45.703125 "/>
<path fill-rule="nonzero" fill="rgb(25%, 25%, 25%)" fill-opacity="1" d="M 89.539062 45.703125 C 92.398438 31.308594 77.144531 20.585938 67.628906 18.574219 C 64.558594 22.25 59.261719 27.109375 56.25 28.914062 L 56.25 47.921875 C 59.5625 44.257812 62.914062 43.023438 66.066406 45.703125 C 69.421875 40.003906 74.480469 40.175781 77.367188 45.703125 C 79.769531 40.011719 86.996094 39.601562 89.539062 45.703125 Z M 89.539062 45.703125 "/>
<path fill-rule="nonzero" fill="rgb(25%, 25%, 25%)" fill-opacity="1" d="M 36.632812 14.820312 C 36.632812 14.820312 33.195312 9.679688 35.515625 2.546875 C 39.257812 0 43.765625 9.058594 47.09375 9.207031 Z M 36.632812 14.820312 "/>
<path fill-rule="nonzero" fill="rgb(25%, 25%, 25%)" fill-opacity="1" d="M 56.246094 14.820312 C 56.246094 14.820312 59.683594 9.679688 57.359375 2.546875 C 53.617188 0 49.109375 9.058594 45.78125 9.207031 Z M 56.246094 14.820312 "/>
<path fill-rule="nonzero" fill="rgb(25%, 25%, 25%)" fill-opacity="1" d="M 59.054688 41.152344 C 59.054688 30.3125 53.40625 21.527344 46.4375 21.527344 C 39.46875 21.527344 33.820312 30.3125 33.820312 41.152344 C 33.820312 51.992188 39.46875 60.777344 46.4375 60.777344 C 53.40625 60.777344 59.054688 51.992188 59.054688 41.152344 Z M 59.054688 41.152344 "/>
<path fill-rule="nonzero" fill="rgb(25%, 25%, 25%)" fill-opacity="1" d="M 58.492188 20.125 C 58.492188 13.46875 53.097656 8.070312 46.4375 8.070312 C 39.78125 8.070312 34.382812 13.46875 34.382812 20.125 C 34.382812 26.785156 39.78125 32.179688 46.4375 32.179688 C 53.097656 32.179688 58.492188 26.785156 58.492188 20.125 Z M 58.492188 20.125 "/>
<g clip-path="url(#clip-0)">
<path fill-rule="nonzero" fill="rgb(100%, 50%, 0%)" fill-opacity="1" d="M 52.183594 60.777344 C 52.183594 59.230469 51.808594 57.972656 51.34375 57.972656 C 50.878906 57.972656 50.503906 59.230469 50.503906 60.777344 C 50.503906 62.328125 50.878906 63.582031 51.34375 63.582031 C 51.808594 63.582031 52.183594 62.328125 52.183594 60.777344 Z M 52.183594 60.777344 "/>
</g>
<g clip-path="url(#clip-1)">
<path fill-rule="nonzero" fill="rgb(100%, 50%, 0%)" fill-opacity="1" d="M 53.535156 60.210938 C 53.007812 58.753906 52.222656 57.703125 51.789062 57.863281 C 51.351562 58.023438 51.425781 59.332031 51.957031 60.785156 C 52.484375 62.242188 53.269531 63.292969 53.703125 63.132812 C 54.140625 62.972656 54.066406 61.664062 53.535156 60.210938 Z M 53.535156 60.210938 "/>
</g>
<path fill-rule="nonzero" fill="rgb(100%, 50%, 0%)" fill-opacity="1" d="M 54.792969 59.394531 C 53.796875 58.210938 52.699219 57.492188 52.34375 57.789062 C 51.988281 58.085938 52.507812 59.292969 53.503906 60.476562 C 54.5 61.664062 55.59375 62.382812 55.949219 62.085938 C 56.304688 61.785156 55.789062 60.582031 54.792969 59.394531 Z M 54.792969 59.394531 "/>
<g clip-path="url(#clip-2)">
<path fill-rule="nonzero" fill="rgb(100%, 50%, 0%)" fill-opacity="1" d="M 42.371094 60.777344 C 42.371094 59.230469 41.996094 57.972656 41.53125 57.972656 C 41.066406 57.972656 40.691406 59.230469 40.691406 60.777344 C 40.691406 62.328125 41.066406 63.582031 41.53125 63.582031 C 41.996094 63.582031 42.371094 62.328125 42.371094 60.777344 Z M 42.371094 60.777344 "/>
</g>
<g clip-path="url(#clip-3)">
<path fill-rule="nonzero" fill="rgb(100%, 50%, 0%)" fill-opacity="1" d="M 40.917969 60.785156 C 41.449219 59.332031 41.523438 58.023438 41.089844 57.863281 C 40.652344 57.703125 39.867188 58.753906 39.339844 60.210938 C 38.808594 61.664062 38.734375 62.972656 39.171875 63.132812 C 39.605469 63.292969 40.390625 62.242188 40.917969 60.785156 Z M 40.917969 60.785156 "/>
</g>
<path fill-rule="nonzero" fill="rgb(100%, 50%, 0%)" fill-opacity="1" d="M 39.371094 60.476562 C 40.367188 59.292969 40.886719 58.085938 40.53125 57.789062 C 40.175781 57.492188 39.078125 58.210938 38.082031 59.394531 C 37.089844 60.582031 36.570312 61.785156 36.925781 62.085938 C 37.28125 62.382812 38.378906 61.664062 39.371094 60.476562 Z M 39.371094 60.476562 "/>
<path fill-rule="nonzero" fill="rgb(100%, 100%, 100%)" fill-opacity="1" d="M 44.152344 16.554688 C 43.75 14.269531 42.1875 12.632812 40.660156 12.902344 C 39.136719 13.167969 38.226562 15.242188 38.628906 17.527344 C 39.035156 19.816406 40.597656 21.453125 42.121094 21.183594 C 43.648438 20.914062 44.554688 18.84375 44.152344 16.554688 Z M 44.152344 16.554688 "/>
<path fill-rule="nonzero" fill="rgb(0%, 0%, 0%)" fill-opacity="1" d="M 43.230469 17.410156 C 43.175781 16.304688 42.679688 15.433594 42.128906 15.464844 C 41.574219 15.492188 41.175781 16.410156 41.234375 17.515625 C 41.289062 18.617188 41.785156 19.492188 42.335938 19.460938 C 42.890625 19.433594 43.289062 18.515625 43.230469 17.410156 Z M 43.230469 17.410156 "/>
<path fill-rule="nonzero" fill="rgb(100%, 100%, 100%)" fill-opacity="1" d="M 54.246094 17.527344 C 54.648438 15.242188 53.738281 13.167969 52.214844 12.902344 C 50.6875 12.632812 49.125 14.269531 48.722656 16.554688 C 48.320312 18.84375 49.230469 20.914062 50.753906 21.183594 C 52.277344 21.453125 53.84375 19.816406 54.246094 17.527344 Z M 54.246094 17.527344 "/>
<path fill-rule="nonzero" fill="rgb(0%, 0%, 0%)" fill-opacity="1" d="M 51.644531 17.515625 C 51.699219 16.410156 51.300781 15.492188 50.746094 15.464844 C 50.195312 15.433594 49.703125 16.304688 49.644531 17.410156 C 49.585938 18.515625 49.984375 19.433594 50.539062 19.460938 C 51.089844 19.492188 51.585938 18.617188 51.644531 17.515625 Z M 51.644531 17.515625 "/>
<path fill="none" stroke-width="0.3985" stroke-linecap="butt" stroke-linejoin="miter" stroke="rgb(0%, 0%, 0%)" stroke-opacity="1" stroke-miterlimit="10" d="M 5.102506 40.253844 C 3.605617 38.468636 1.267469 37.619478 -1.023283 38.022334 C -2.532021 38.286956 -3.902523 39.076871 -4.885967 40.253844 " transform="matrix(0.989031, 0, 0, -0.989031, 46.43784, 63.581821)"/>
</svg>
