<?xml version="1.0" encoding="UTF-8" standalone="no"?>
<svg
   width="139.221"
   height="64.287"
   viewBox="0 0 139.221 64.287"
   version="1.1"
   id="svg21"
   sodipodi:docname="bat.svg"
   xmlns:inkscape="http://www.inkscape.org/namespaces/inkscape"
   xmlns:sodipodi="http://sodipodi.sourceforge.net/DTD/sodipodi-0.dtd"
   xmlns="http://www.w3.org/2000/svg"
   xmlns:svg="http://www.w3.org/2000/svg">
  <sodipodi:namedview
     id="namedview21"
     pagecolor="#ffffff"
     bordercolor="#666666"
     borderopacity="1.0"
     inkscape:showpageshadow="2"
     inkscape:pageopacity="0.0"
     inkscape:pagecheckerboard="0"
     inkscape:deskcolor="#d1d1d1" />
  <defs
     id="defs4">
    <clipPath
       id="clip-0">
      <path
         clip-rule="nonzero"
         d="M 73 57 L 75 57 L 75 63.582031 L 73 63.582031 Z M 73 57 "
         id="path1" />
    </clipPath>
    <clipPath
       id="clip-1">
      <path
         clip-rule="nonzero"
         d="M 74 57 L 77 57 L 77 63.582031 L 74 63.582031 Z M 74 57 "
         id="path2" />
    </clipPath>
    <clipPath
       id="clip-2">
      <path
         clip-rule="nonzero"
         d="M 63 57 L 66 57 L 66 63.582031 L 63 63.582031 Z M 63 57 "
         id="path3" />
    </clipPath>
    <clipPath
       id="clip-3">
      <path
         clip-rule="nonzero"
         d="M 61 57 L 65 57 L 65 63.582031 L 61 63.582031 Z M 61 57 "
         id="path4" />
    </clipPath>
  </defs>
  <path
     id="path5"
     d="M 59.736328 2.0957031 C 59.248321 2.0914612 58.768555 2.2285156 58.300781 2.546875 C 56.566823 7.8771941 58.048713 12.093454 58.908203 13.884766 C 57.80407 15.70529 57.167969 17.840984 57.167969 20.125 C 57.167969 23.059287 58.21702 25.748025 59.958984 27.837891 C 59.755959 28.179583 59.562169 28.532954 59.375 28.896484 C 55.553728 27.080341 46.763627 22.240154 41.65625 18.574219 C 25.800781 20.585938 0.378906 31.308594 5.140625 45.703125 C 9.375 39.601562 21.425781 40.011719 25.425781 45.703125 C 30.242188 40.175781 38.664062 40.003906 44.257812 45.703125 C 48.598944 43.492275 53.15691 43.950307 57.039062 46.234375 C 57.881354 51.133378 59.910222 55.275855 62.619141 57.871094 C 62.127845 58.120707 61.481201 58.669581 60.871094 59.394531 C 59.875 60.582031 59.355469 61.785156 59.710938 62.085938 C 60.04674 62.36334 61.023504 61.753083 61.962891 60.703125 C 61.587721 61.94901 61.5696 62.990985 61.957031 63.132812 C 62.338518 63.272465 62.981621 62.490547 63.492188 61.322266 C 63.568595 62.611726 63.911335 63.582031 64.320312 63.582031 C 64.78125 63.582031 65.160156 62.328125 65.160156 60.777344 C 65.160156 60.393539 65.135868 60.02873 65.09375 59.695312 C 66.388902 60.393508 67.778579 60.777344 69.226562 60.777344 C 70.673167 60.777344 72.061259 60.392984 73.355469 59.695312 C 73.313291 60.02873 73.289062 60.393539 73.289062 60.777344 C 73.289062 62.328125 73.667969 63.582031 74.132812 63.582031 C 74.538354 63.582031 74.880674 62.611726 74.957031 61.322266 C 75.467598 62.490547 76.1107 63.272465 76.492188 63.132812 C 76.879618 62.990985 76.861497 61.94901 76.486328 60.703125 C 77.426146 61.753083 78.406127 62.36334 78.738281 62.085938 C 79.09375 61.785156 78.574219 60.582031 77.578125 59.394531 C 76.968017 58.669581 76.321374 58.120707 75.830078 57.871094 C 78.538183 55.275855 80.567915 51.133378 81.410156 46.234375 C 85.292309 43.950307 89.850276 43.492275 94.191406 45.703125 C 99.785156 40.003906 108.20703 40.175781 113.02344 45.703125 C 117.02344 40.011719 129.07422 39.601562 133.30859 45.703125 C 138.07422 31.308594 112.64844 20.585938 96.796875 18.574219 C 91.685602 22.240154 82.895492 27.080341 79.074219 28.896484 C 78.887083 28.532954 78.69322 28.179583 78.490234 27.837891 C 80.231865 25.748025 81.28125 23.059287 81.28125 20.125 C 81.28125 17.840984 80.644992 15.70529 79.541016 13.884766 C 80.400506 12.093454 81.882396 7.8771941 80.148438 2.546875 C 77.171729 0.52097356 73.712589 5.8351034 70.746094 8.1699219 C 70.248063 8.1072048 69.741571 8.0703125 69.226562 8.0703125 C 68.711252 8.0703125 68.205319 8.1072048 67.707031 8.1699219 C 65.205853 6.2020074 62.353785 2.1184551 59.736328 2.0957031 z " />
  <g
     clip-path="url(#clip-0)"
     id="g11" />
  <g
     clip-path="url(#clip-1)"
     id="g12" />
  <g
     clip-path="url(#clip-2)"
     id="g14" />
  <g
     clip-path="url(#clip-3)"
     id="g15" />
</svg>
