<?xml version="1.0" encoding="UTF-8"?>
<svg xmlns="http://www.w3.org/2000/svg" xmlns:xlink="http://www.w3.org/1999/xlink" width="92.41" height="64.063" viewBox="0 0 92.41 64.063">
<path fill-rule="nonzero" fill="rgb(52.49939%, 34.999084%, 17.498779%)" fill-opacity="1" d="M 66.867188 45.484375 C 68.640625 44 67.261719 39.4375 63.792969 35.300781 C 60.320312 31.164062 56.070312 29.015625 54.296875 30.503906 C 52.523438 31.992188 53.898438 36.550781 57.371094 40.6875 C 60.84375 44.824219 65.09375 46.972656 66.867188 45.484375 Z M 66.867188 45.484375 "/>
<path fill-rule="nonzero" fill="rgb(52.49939%, 34.999084%, 17.498779%)" fill-opacity="1" d="M 37.53125 30.503906 C 35.757812 29.015625 31.507812 31.164062 28.035156 35.300781 C 24.566406 39.4375 23.1875 44 24.960938 45.484375 C 26.734375 46.972656 30.984375 44.824219 34.457031 40.6875 C 37.929688 36.550781 39.304688 31.992188 37.53125 30.503906 Z M 37.53125 30.503906 "/>
<path fill-rule="nonzero" fill="rgb(52.49939%, 34.999084%, 17.498779%)" fill-opacity="1" d="M 61.28125 42.1875 C 61.28125 32.15625 54.402344 24.027344 45.914062 24.027344 C 37.425781 24.027344 30.546875 32.15625 30.546875 42.1875 C 30.546875 52.214844 37.425781 60.34375 45.914062 60.34375 C 54.402344 60.34375 61.28125 52.214844 61.28125 42.1875 Z M 61.28125 42.1875 "/>
<path fill-rule="nonzero" fill="rgb(87.5%, 74.95575%, 62.414551%)" fill-opacity="1" d="M 55.691406 43.582031 C 55.691406 37.410156 51.316406 32.40625 45.914062 32.40625 C 40.515625 32.40625 36.136719 37.410156 36.136719 43.582031 C 36.136719 49.753906 40.515625 54.757812 45.914062 54.757812 C 51.316406 54.757812 55.691406 49.753906 55.691406 43.582031 Z M 55.691406 43.582031 "/>
<path fill-rule="nonzero" fill="rgb(52.49939%, 34.999084%, 17.498779%)" fill-opacity="1" d="M 65.609375 54.757812 C 65.609375 50.4375 62.109375 46.933594 57.789062 46.933594 C 53.46875 46.933594 49.964844 50.4375 49.964844 54.757812 C 49.964844 59.078125 53.46875 62.582031 57.789062 62.582031 C 62.109375 62.582031 65.609375 59.078125 65.609375 54.757812 Z M 65.609375 54.757812 "/>
<path fill-rule="nonzero" fill="rgb(52.49939%, 34.999084%, 17.498779%)" fill-opacity="1" d="M 41.863281 54.757812 C 41.863281 50.4375 38.359375 46.933594 34.039062 46.933594 C 29.71875 46.933594 26.21875 50.4375 26.21875 54.757812 C 26.21875 59.078125 29.71875 62.582031 34.039062 62.582031 C 38.359375 62.582031 41.863281 59.078125 41.863281 54.757812 Z M 41.863281 54.757812 "/>
<path fill-rule="nonzero" fill="rgb(87.5%, 74.95575%, 62.414551%)" fill-opacity="1" d="M 62.539062 54.757812 C 62.539062 52.136719 60.410156 50.007812 57.789062 50.007812 C 55.164062 50.007812 53.039062 52.136719 53.039062 54.757812 C 53.039062 57.382812 55.164062 59.507812 57.789062 59.507812 C 60.410156 59.507812 62.539062 57.382812 62.539062 54.757812 Z M 62.539062 54.757812 "/>
<path fill-rule="nonzero" fill="rgb(87.5%, 74.95575%, 62.414551%)" fill-opacity="1" d="M 38.789062 54.757812 C 38.789062 52.136719 36.664062 50.007812 34.039062 50.007812 C 31.417969 50.007812 29.289062 52.136719 29.289062 54.757812 C 29.289062 57.382812 31.417969 59.507812 34.039062 59.507812 C 36.664062 59.507812 38.789062 57.382812 38.789062 54.757812 Z M 38.789062 54.757812 "/>
<path fill-rule="nonzero" fill="rgb(52.49939%, 34.999084%, 17.498779%)" fill-opacity="1" d="M 60.582031 8.660156 C 60.582031 6.347656 58.707031 4.46875 56.390625 4.46875 C 54.078125 4.46875 52.199219 6.347656 52.199219 8.660156 C 52.199219 10.972656 54.078125 12.851562 56.390625 12.851562 C 58.707031 12.851562 60.582031 10.972656 60.582031 8.660156 Z M 60.582031 8.660156 "/>
<path fill-rule="nonzero" fill="rgb(52.49939%, 34.999084%, 17.498779%)" fill-opacity="1" d="M 39.628906 8.660156 C 39.628906 6.347656 37.75 4.46875 35.4375 4.46875 C 33.125 4.46875 31.246094 6.347656 31.246094 8.660156 C 31.246094 10.972656 33.125 12.851562 35.4375 12.851562 C 37.75 12.851562 39.628906 10.972656 39.628906 8.660156 Z M 39.628906 8.660156 "/>
<path fill-rule="nonzero" fill="rgb(87.5%, 74.95575%, 62.414551%)" fill-opacity="1" d="M 59.183594 8.660156 C 59.183594 7.117188 57.933594 5.867188 56.390625 5.867188 C 54.847656 5.867188 53.597656 7.117188 53.597656 8.660156 C 53.597656 10.203125 54.847656 11.453125 56.390625 11.453125 C 57.933594 11.453125 59.183594 10.203125 59.183594 8.660156 Z M 59.183594 8.660156 "/>
<path fill-rule="nonzero" fill="rgb(87.5%, 74.95575%, 62.414551%)" fill-opacity="1" d="M 38.230469 8.660156 C 38.230469 7.117188 36.980469 5.867188 35.4375 5.867188 C 33.894531 5.867188 32.644531 7.117188 32.644531 8.660156 C 32.644531 10.203125 33.894531 11.453125 35.4375 11.453125 C 36.980469 11.453125 38.230469 10.203125 38.230469 8.660156 Z M 38.230469 8.660156 "/>
<path fill-rule="nonzero" fill="rgb(52.49939%, 34.999084%, 17.498779%)" fill-opacity="1" d="M 59.882812 19.835938 C 59.882812 12.121094 53.628906 5.867188 45.914062 5.867188 C 38.199219 5.867188 31.945312 12.121094 31.945312 19.835938 C 31.945312 27.550781 38.199219 33.804688 45.914062 33.804688 C 53.628906 33.804688 59.882812 27.550781 59.882812 19.835938 Z M 59.882812 19.835938 "/>
<path fill-rule="nonzero" fill="rgb(87.5%, 74.95575%, 62.414551%)" fill-opacity="1" d="M 53.738281 24.027344 C 53.738281 20.941406 50.234375 18.4375 45.914062 18.4375 C 41.59375 18.4375 38.089844 20.941406 38.089844 24.027344 C 38.089844 27.113281 41.59375 29.613281 45.914062 29.613281 C 50.234375 29.613281 53.738281 27.113281 53.738281 24.027344 Z M 53.738281 24.027344 "/>
<path fill-rule="nonzero" fill="rgb(92.498779%, 55.462646%, 39.588928%)" fill-opacity="1" d="M 50.105469 21.230469 C 50.105469 19.996094 48.230469 18.996094 45.914062 18.996094 C 43.601562 18.996094 41.722656 19.996094 41.722656 21.230469 C 41.722656 22.464844 43.601562 23.46875 45.914062 23.46875 C 48.230469 23.46875 50.105469 22.464844 50.105469 21.230469 Z M 50.105469 21.230469 "/>
<path fill-rule="nonzero" fill="rgb(22.04895%, 14.698792%, 7.348633%)" fill-opacity="1" d="M 42.980469 15.644531 C 42.980469 14.875 42.355469 14.246094 41.582031 14.246094 C 40.8125 14.246094 40.1875 14.875 40.1875 15.644531 C 40.1875 16.417969 40.8125 17.042969 41.582031 17.042969 C 42.355469 17.042969 42.980469 16.417969 42.980469 15.644531 Z M 42.980469 15.644531 "/>
<path fill-rule="nonzero" fill="rgb(22.04895%, 14.698792%, 7.348633%)" fill-opacity="1" d="M 51.640625 15.644531 C 51.640625 14.875 51.015625 14.246094 50.246094 14.246094 C 49.472656 14.246094 48.847656 14.875 48.847656 15.644531 C 48.847656 16.417969 49.472656 17.042969 50.246094 17.042969 C 51.015625 17.042969 51.640625 16.417969 51.640625 15.644531 Z M 51.640625 15.644531 "/>
<path fill="none" stroke-width="0.3985" stroke-linecap="butt" stroke-linejoin="miter" stroke="rgb(22.04895%, 14.698792%, 7.348633%)" stroke-opacity="1" stroke-miterlimit="10" d="M 4.109836 39.117463 C 3.253745 36.763213 0.649802 35.550418 -1.704448 36.406509 C -2.96084 36.866261 -3.95565 37.86107 -4.415402 39.117463 " transform="matrix(0.985585, 0, 0, -0.985585, 45.914253, 63.139507)"/>
</svg>
