<?xml version="1.0" encoding="UTF-8" standalone="no"?>
<svg
   width="46.116"
   height="60.378"
   viewBox="0 0 46.116 60.378"
   version="1.1"
   id="svg18"
   sodipodi:docname="bear.svg"
   xmlns:inkscape="http://www.inkscape.org/namespaces/inkscape"
   xmlns:sodipodi="http://sodipodi.sourceforge.net/DTD/sodipodi-0.dtd"
   xmlns="http://www.w3.org/2000/svg"
   xmlns:svg="http://www.w3.org/2000/svg">
  <defs
     id="defs18" />
  <sodipodi:namedview
     id="namedview18"
     pagecolor="#ffffff"
     bordercolor="#666666"
     borderopacity="1.0"
     inkscape:showpageshadow="2"
     inkscape:pageopacity="0.0"
     inkscape:pagecheckerboard="0"
     inkscape:deskcolor="#d1d1d1" />
  <path
     id="path1"
     d="M 12.195312 1.0976562 C 9.8906255 1.0976562 8.0234375 2.9648443 8.0234375 5.2695312 C 8.0234375 7.0610835 9.1513117 8.5864962 10.736328 9.1777344 C 9.4564521 11.28163 8.71875 13.752118 8.71875 16.394531 C 8.71875 19.880866 10.00516 23.065055 12.125 25.505859 C 11.713583 25.965252 11.321383 26.448557 10.955078 26.958984 C 9.0678405 27.703012 6.8187044 29.417334 4.828125 31.792969 C 1.371094 35.910156 0 40.449219 1.765625 41.929688 C 2.9105763 42.889724 5.0928362 42.327189 7.4277344 40.691406 C 7.533036 41.79501 7.7225983 42.86808 7.9882812 43.902344 C 5.0795452 45.030837 3.015625 47.852929 3.015625 51.160156 C 3.015625 55.460938 6.5039055 58.949219 10.804688 58.949219 C 13.472602 58.949219 15.82385 57.606475 17.226562 55.560547 C 18.905632 56.30929 20.724048 56.722656 22.625 56.722656 C 24.524448 56.722656 26.341567 56.310115 28.019531 55.5625 C 29.423492 57.607688 31.77797 58.949219 34.445312 58.949219 C 38.746094 58.949219 42.234375 55.460938 42.234375 51.160156 C 42.234375 47.852929 40.170455 45.030837 37.261719 43.902344 C 37.527402 42.86808 37.716964 41.79501 37.822266 40.691406 C 40.157164 42.327189 42.339424 42.889724 43.484375 41.929688 C 45.25 40.449219 43.878906 35.910156 40.421875 31.792969 C 38.429874 29.418324 36.18098 27.705465 34.294922 26.960938 C 33.92835 26.450042 33.536762 25.965637 33.125 25.505859 C 35.24484 23.065055 36.53125 19.880866 36.53125 16.394531 C 36.53125 13.752118 35.793548 11.28163 34.513672 9.1777344 C 36.098688 8.5864962 37.226562 7.0610835 37.226562 5.2695312 C 37.226562 2.9648443 35.359375 1.0976562 33.054688 1.0976562 C 31.168666 1.0976562 29.577086 2.3490707 29.060547 4.0664062 C 27.135941 3.059576 24.947394 2.4882812 22.625 2.4882812 C 20.302606 2.4882812 18.114059 3.059576 16.189453 4.0664062 C 15.672914 2.3490707 14.081334 1.0976562 12.195312 1.0976562 z " />
</svg>
