<?xml version="1.0" encoding="UTF-8"?>
<svg xmlns="http://www.w3.org/2000/svg" xmlns:xlink="http://www.w3.org/1999/xlink" width="92.41" height="65.196" viewBox="0 0 92.41 65.196">
<path fill-rule="nonzero" fill="rgb(75%, 75%, 75%)" fill-opacity="1" d="M 40.597656 13.453125 L 37.914062 3.445312 L 41.699219 2.433594 L 44.382812 12.441406 Z M 40.597656 13.453125 "/>
<path fill-rule="nonzero" fill="rgb(75%, 75%, 75%)" fill-opacity="1" d="M 51.230469 13.453125 L 53.914062 3.445312 L 50.125 2.433594 L 47.445312 12.441406 Z M 51.230469 13.453125 "/>
<path fill-rule="nonzero" fill="rgb(69.999695%, 93.998718%, 100%)" fill-opacity="1" d="M 68.316406 32.199219 C 68.316406 26.789062 63.925781 22.398438 58.515625 22.398438 C 53.101562 22.398438 48.714844 26.789062 48.714844 32.199219 C 48.714844 37.613281 53.101562 42 58.515625 42 C 63.925781 42 68.316406 37.613281 68.316406 32.199219 Z M 69.714844 44.800781 C 69.714844 39.386719 65.328125 35 59.914062 35 C 54.5 35 50.113281 39.386719 50.113281 44.800781 C 50.113281 50.214844 54.5 54.601562 59.914062 54.601562 C 65.328125 54.601562 69.714844 50.214844 69.714844 44.800781 Z M 69.714844 44.800781 "/>
<path fill-rule="nonzero" fill="rgb(69.999695%, 93.998718%, 100%)" fill-opacity="1" d="M 43.113281 32.199219 C 43.113281 26.789062 38.726562 22.398438 33.3125 22.398438 C 27.898438 22.398438 23.511719 26.789062 23.511719 32.199219 C 23.511719 37.613281 27.898438 42 33.3125 42 C 38.726562 42 43.113281 37.613281 43.113281 32.199219 Z M 41.714844 44.800781 C 41.714844 39.386719 37.324219 35 31.914062 35 C 26.5 35 22.113281 39.386719 22.113281 44.800781 C 22.113281 50.214844 26.5 54.601562 31.914062 54.601562 C 37.324219 54.601562 41.714844 50.214844 41.714844 44.800781 Z M 41.714844 44.800781 "/>
<path fill-rule="nonzero" fill="rgb(98.94104%, 82.312012%, 2.116394%)" fill-opacity="1" d="M 45.914062 8.398438 C 37.089844 8.398438 30.753906 19.527344 37.511719 25.199219 C 31.292969 42.289062 27.726562 63.003906 45.914062 63.003906 C 64.097656 63.003906 62 41.679688 54.3125 25.199219 C 61.074219 19.527344 54.738281 8.398438 45.914062 8.398438 Z M 45.914062 8.398438 "/>
<path fill-rule="nonzero" fill="rgb(0%, 0%, 0%)" fill-opacity="1" d="M 35.148438 32.40625 C 34.773438 33.691406 34.425781 34.976562 34.117188 36.257812 C 36.421875 37.171875 41.144531 37.800781 46.613281 37.800781 C 51.582031 37.800781 55.933594 37.28125 58.417969 36.5 C 58.078125 35.207031 57.691406 33.910156 57.261719 32.617188 C 54.695312 33.21875 50.882812 33.601562 46.613281 33.601562 C 41.867188 33.601562 37.679688 33.128906 35.148438 32.40625 Z M 33.300781 40.0625 C 33.066406 41.324219 32.882812 42.5625 32.742188 43.777344 C 33.664062 45.144531 39.519531 46.199219 46.613281 46.199219 C 52.726562 46.199219 57.914062 45.417969 59.820312 44.324219 C 59.703125 43.039062 59.515625 41.722656 59.277344 40.390625 C 57.039062 41.339844 52.214844 42 46.613281 42 C 40.390625 42 35.117188 41.1875 33.300781 40.0625 Z M 32.613281 49 L 32.613281 50.96875 C 32.71875 52.015625 32.894531 53.015625 33.136719 53.960938 C 34.789062 55.136719 40.195312 56 46.613281 56 C 51.910156 56 56.511719 55.414062 58.890625 54.546875 C 59.378906 53.121094 59.691406 51.570312 59.84375 49.910156 C 57.953125 51.011719 52.75 51.800781 46.613281 51.800781 C 38.882812 51.800781 32.613281 50.550781 32.613281 49 Z M 35.753906 59.167969 C 37.875 61.578125 41.144531 63.003906 45.914062 63.003906 C 50.402344 63.003906 53.65625 61.699219 55.894531 59.492188 C 53.421875 59.933594 50.179688 60.203125 46.613281 60.203125 C 42.230469 60.203125 38.324219 59.796875 35.753906 59.167969 Z M 35.753906 59.167969 "/>
<path fill-rule="nonzero" fill="rgb(0%, 0%, 0%)" fill-opacity="1" d="M 43.113281 16.800781 C 43.113281 16.027344 42.488281 15.398438 41.714844 15.398438 C 40.941406 15.398438 40.3125 16.027344 40.3125 16.800781 C 40.3125 17.574219 40.941406 18.199219 41.714844 18.199219 C 42.488281 18.199219 43.113281 17.574219 43.113281 16.800781 Z M 43.113281 16.800781 "/>
<path fill-rule="nonzero" fill="rgb(0%, 0%, 0%)" fill-opacity="1" d="M 51.515625 16.800781 C 51.515625 16.027344 50.886719 15.398438 50.113281 15.398438 C 49.339844 15.398438 48.714844 16.027344 48.714844 16.800781 C 48.714844 17.574219 49.339844 18.199219 50.113281 18.199219 C 50.886719 18.199219 51.515625 17.574219 51.515625 16.800781 Z M 51.515625 16.800781 "/>
<path fill-rule="nonzero" fill="rgb(0%, 0%, 0%)" fill-opacity="1" d="M 40.691406 41.730469 C 39.382812 38.929688 37.527344 37.027344 36.546875 37.484375 C 35.566406 37.941406 35.828125 40.585938 37.136719 43.390625 C 38.445312 46.191406 40.296875 48.09375 41.28125 47.636719 C 42.261719 47.179688 41.996094 44.535156 40.691406 41.730469 Z M 40.691406 41.730469 "/>
<path fill-rule="nonzero" fill="rgb(0%, 0%, 0%)" fill-opacity="1" d="M 54.691406 43.390625 C 55.996094 40.585938 56.261719 37.941406 55.28125 37.484375 C 54.300781 37.027344 52.445312 38.929688 51.136719 41.730469 C 49.832031 44.535156 49.566406 47.179688 50.546875 47.636719 C 51.527344 48.09375 53.382812 46.191406 54.691406 43.390625 Z M 54.691406 43.390625 "/>
<path fill="none" stroke-width="0.3985" stroke-linecap="butt" stroke-linejoin="miter" stroke="rgb(0%, 0%, 0%)" stroke-opacity="1" stroke-miterlimit="10" d="M 3.258918 45.356344 C 2.218905 44.114655 0.593638 43.521492 -0.999994 43.802256 C -2.05187 43.988114 -3.004886 44.537779 -3.689001 45.356344 " transform="matrix(0.987818, 0, 0, -0.987818, 45.913594, 67.202259)"/>
<path fill-rule="nonzero" fill="rgb(0%, 0%, 0%)" fill-opacity="1" d="M 41.679688 13.164062 L 38.996094 3.15625 L 40.347656 2.792969 L 43.03125 12.800781 Z M 41.679688 13.164062 "/>
<path fill-rule="nonzero" fill="rgb(0%, 0%, 0%)" fill-opacity="1" d="M 50.148438 13.164062 L 52.832031 3.15625 L 51.476562 2.792969 L 48.796875 12.800781 Z M 50.148438 13.164062 "/>
<path fill-rule="nonzero" fill="rgb(0%, 0%, 0%)" fill-opacity="1" d="M 41.714844 2.796875 C 41.714844 1.714844 40.835938 0.839844 39.753906 0.839844 C 38.671875 0.839844 37.792969 1.714844 37.792969 2.796875 C 37.792969 3.882812 38.671875 4.757812 39.753906 4.757812 C 40.835938 4.757812 41.714844 3.882812 41.714844 2.796875 Z M 41.714844 2.796875 "/>
<path fill-rule="nonzero" fill="rgb(0%, 0%, 0%)" fill-opacity="1" d="M 54.035156 2.796875 C 54.035156 1.714844 53.15625 0.839844 52.074219 0.839844 C 50.992188 0.839844 50.113281 1.714844 50.113281 2.796875 C 50.113281 3.882812 50.992188 4.757812 52.074219 4.757812 C 53.15625 4.757812 54.035156 3.882812 54.035156 2.796875 Z M 54.035156 2.796875 "/>
</svg>
