<?xml version="1.0" encoding="UTF-8" standalone="no"?>
<svg
   width="49.89"
   height="65.196"
   viewBox="0 0 49.89 65.196"
   version="1.1"
   id="svg13"
   sodipodi:docname="bee.svg"
   xmlns:inkscape="http://www.inkscape.org/namespaces/inkscape"
   xmlns:sodipodi="http://sodipodi.sourceforge.net/DTD/sodipodi-0.dtd"
   xmlns="http://www.w3.org/2000/svg"
   xmlns:svg="http://www.w3.org/2000/svg">
  <defs
     id="defs13" />
  <sodipodi:namedview
     id="namedview13"
     pagecolor="#ffffff"
     bordercolor="#666666"
     borderopacity="1.0"
     inkscape:showpageshadow="2"
     inkscape:pageopacity="0.0"
     inkscape:pagecheckerboard="0"
     inkscape:deskcolor="#d1d1d1" />
  <path
     id="path1"
     d="M 18.730469 0.83984375 C 17.648438 0.83984375 16.769531 1.714844 16.769531 2.796875 C 16.769531 3.767858 17.472264 4.5695294 18.394531 4.7285156 L 19.736328 9.734375 C 14.963714 12.323287 12.216162 18.166642 14.447266 22.640625 C 13.752285 22.484261 13.03132 22.398438 12.289062 22.398438 C 6.8789065 22.398438 2.4882812 26.789062 2.4882812 32.199219 C 2.4882812 34.228902 3.1055811 36.113824 4.1621094 37.677734 C 2.2714016 39.464288 1.0898438 41.993322 1.0898438 44.800781 C 1.0898438 50.214844 5.476562 54.601562 10.890625 54.601562 C 11.355067 54.601562 11.810612 54.566349 12.257812 54.503906 C 12.907229 56.705074 13.97376 58.583263 15.560547 60.007812 C 15.58043 60.025676 15.601048 60.042825 15.621094 60.060547 C 15.756766 60.180395 15.895863 60.296895 16.039062 60.410156 C 16.045578 60.415314 16.052062 60.420638 16.058594 60.425781 C 16.213368 60.547575 16.373432 60.665354 16.537109 60.779297 C 16.541689 60.782488 16.546194 60.785878 16.550781 60.789062 C 16.704316 60.895572 16.861962 60.998202 17.023438 61.097656 C 17.062074 61.121473 17.101529 61.144562 17.140625 61.167969 C 17.260318 61.239566 17.381831 61.309236 17.505859 61.376953 C 17.576678 61.415658 17.648457 61.452811 17.720703 61.490234 C 17.84619 61.555173 17.97369 61.61866 18.103516 61.679688 C 18.169964 61.710951 18.237092 61.741258 18.304688 61.771484 C 18.412505 61.819652 18.522058 61.866606 18.632812 61.912109 C 18.736511 61.954753 18.840966 61.996831 18.947266 62.037109 C 19.055091 62.077929 19.164872 62.11789 19.275391 62.15625 C 19.366622 62.187946 19.457697 62.22 19.550781 62.25 C 19.692096 62.295501 19.836809 62.337355 19.982422 62.378906 C 20.057308 62.400291 20.130998 62.423032 20.207031 62.443359 C 20.364245 62.485363 20.52535 62.523107 20.6875 62.560547 C 20.761027 62.577535 20.833651 62.595289 20.908203 62.611328 C 21.061821 62.644354 21.21896 62.674166 21.376953 62.703125 C 21.46796 62.719824 21.557917 62.736619 21.650391 62.751953 C 21.816523 62.779468 21.987312 62.803106 22.158203 62.826172 C 22.241172 62.837379 22.322149 62.849228 22.40625 62.859375 C 22.563961 62.878393 22.72696 62.892945 22.888672 62.908203 C 22.998064 62.91853 23.105555 62.930866 23.216797 62.939453 C 23.310962 62.94672 23.408412 62.951019 23.503906 62.957031 C 23.686242 62.968517 23.867458 62.981418 24.054688 62.988281 C 24.328261 62.998303 24.606506 63.003906 24.890625 63.003906 C 25.170771 63.003906 25.446225 62.998309 25.716797 62.988281 C 25.849271 62.983345 25.977222 62.974111 26.107422 62.966797 C 26.243569 62.959186 26.381953 62.953536 26.515625 62.943359 C 26.522902 62.942803 26.52984 62.94197 26.537109 62.941406 C 26.791667 62.921752 27.041464 62.897978 27.287109 62.869141 C 27.297051 62.867969 27.306479 62.86642 27.316406 62.865234 C 27.558678 62.836401 27.795619 62.803237 28.029297 62.765625 C 28.041845 62.763599 28.053883 62.761817 28.066406 62.759766 C 28.147565 62.74652 28.224561 62.729137 28.304688 62.714844 C 28.466683 62.685858 28.629304 62.658233 28.787109 62.625 C 29.472021 62.481156 30.117011 62.296863 30.724609 62.076172 L 30.726562 62.076172 C 34.392124 60.744193 36.669116 58.053434 37.871094 54.548828 C 38.206158 54.583472 38.546441 54.601562 38.890625 54.601562 C 44.304688 54.601562 48.691406 50.214844 48.691406 44.800781 C 48.691406 41.993322 47.509848 39.464288 45.619141 37.677734 C 46.675669 36.113824 47.292969 34.228902 47.292969 32.199219 C 47.292969 26.789062 42.902344 22.398438 37.492188 22.398438 C 36.74993 22.398438 36.028965 22.484261 35.333984 22.640625 C 37.565088 18.166642 34.817536 12.323287 30.044922 9.734375 L 31.386719 4.7285156 C 32.308986 4.5695294 33.011719 3.767858 33.011719 2.796875 C 33.011719 1.714844 32.132812 0.83984375 31.050781 0.83984375 C 29.96875 0.83984375 29.089844 1.714844 29.089844 2.796875 C 29.089844 3.4988524 29.457777 4.1126699 30.009766 4.4589844 L 28.755859 9.1328125 C 27.552451 8.6644474 26.251225 8.3984375 24.890625 8.3984375 C 23.530025 8.3984375 22.228799 8.6644474 21.025391 9.1328125 L 19.771484 4.4589844 C 20.323473 4.1126699 20.691406 3.4988524 20.691406 2.796875 C 20.691406 1.714844 19.8125 0.83984375 18.730469 0.83984375 z " />
</svg>
