<?xml version="1.0" encoding="UTF-8"?>
<svg xmlns="http://www.w3.org/2000/svg" xmlns:xlink="http://www.w3.org/1999/xlink" width="25.494" height="40.105" viewBox="0 0 25.494 40.105">
<defs>
<clipPath id="clip-0">
<path clip-rule="nonzero" d="M 0.03125 0 L 24.96875 0 L 24.96875 39.230469 L 0.03125 39.230469 Z M 0.03125 0 "/>
</clipPath>
</defs>
<g clip-path="url(#clip-0)">
<path fill-rule="nonzero" fill="rgb(75%, 75%, 75%)" fill-opacity="1" d="M 10.089844 0.0820312 C 8.175781 0 6.878906 2.578125 8.199219 4.015625 C 8.542969 4.699219 10.191406 4.707031 8.964844 5.355469 C 5.707031 8.574219 3.359375 12.667969 1.878906 16.984375 C 1.046875 19.480469 0.625 22.210938 1.363281 24.78125 C 2.144531 28.007812 3.335938 31.117188 4.574219 34.195312 C 3.476562 34.214844 2.378906 34.164062 1.28125 34.21875 C 0.289062 34.40625 0.28125 35.484375 0.324219 36.277344 C 0.40625 37.140625 0.03125 38.238281 0.855469 38.847656 C 1.679688 39.230469 2.628906 38.988281 3.507812 39.054688 C 10.164062 39.054688 16.828125 39.054688 23.480469 39.054688 C 24.5625 39.0625 24.761719 37.898438 24.671875 37.050781 C 24.578125 36.160156 24.96875 35.035156 24.140625 34.40625 C 23.316406 34.019531 22.367188 34.261719 21.484375 34.195312 C 20.980469 34.164062 20.039062 34.421875 20.671875 33.621094 C 22.042969 30.09375 23.5 26.535156 24.03125 22.765625 C 24.257812 19.015625 22.800781 15.398438 21.085938 12.136719 C 19.605469 9.449219 17.824219 6.878906 15.496094 4.847656 C 17.078125 4.535156 17.960938 2.511719 16.960938 1.1875 C 16.34375 0.132812 15.082031 0.015625 13.988281 0.0820312 C 12.691406 0.0820312 11.386719 0.0820312 10.089844 0.0820312 Z M 10.089844 0.0820312 "/>
</g>
</svg>
