<?xml version="1.0" encoding="UTF-8"?>
<svg xmlns="http://www.w3.org/2000/svg" xmlns:xlink="http://www.w3.org/1999/xlink" width="54.045" height="68.231" viewBox="0 0 54.045 68.231">
<defs>
<clipPath id="clip-0">
<path clip-rule="nonzero" d="M 1 0.214844 L 53.105469 0.214844 L 53.105469 43 L 1 43 Z M 1 0.214844 "/>
</clipPath>
<clipPath id="clip-1">
<path clip-rule="nonzero" d="M 0 0.214844 L 52 0.214844 L 52 43 L 0 43 Z M 0 0.214844 "/>
</clipPath>
<clipPath id="clip-2">
<path clip-rule="nonzero" d="M 18 0.214844 L 47 0.214844 L 47 26 L 18 26 Z M 18 0.214844 "/>
</clipPath>
<clipPath id="clip-3">
<path clip-rule="nonzero" d="M 6 0.214844 L 35 0.214844 L 35 26 L 6 26 Z M 6 0.214844 "/>
</clipPath>
</defs>
<g clip-path="url(#clip-0)">
<path fill="none" stroke-width="1.99255" stroke-linecap="butt" stroke-linejoin="miter" stroke="rgb(75%, 75%, 75%)" stroke-opacity="1" stroke-miterlimit="10" d="M 3.213943 54.168684 C 2.597776 58.215514 2.79654 62.361726 4.557586 64.675336 C 6.946727 67.803878 9.292139 65.227899 9.276238 62.906339 C 9.256362 60.493346 6.342485 57.893516 5.607059 61.05386 " transform="matrix(0.982636, 0, 0, -0.982636, 26.5528, 67.817962)"/>
</g>
<g clip-path="url(#clip-1)">
<path fill="none" stroke-width="1.99255" stroke-linecap="butt" stroke-linejoin="miter" stroke="rgb(75%, 75%, 75%)" stroke-opacity="1" stroke-miterlimit="10" d="M -3.214077 54.168684 C -2.597909 58.215514 -2.796673 62.361726 -4.55772 64.675336 C -6.942885 67.803878 -9.292272 65.227899 -9.276371 62.906339 C -9.256495 60.493346 -6.342618 57.893516 -5.607192 61.05386 " transform="matrix(0.982636, 0, 0, -0.982636, 26.5528, 67.817962)"/>
</g>
<path fill-rule="nonzero" fill="rgb(79.998779%, 0%, 0%)" fill-opacity="1" d="M 23.890625 28.203125 C 20.742188 21.121094 7.277344 32.976562 3.785156 39.898438 C 0.636719 46.128906 0 57.261719 6.066406 60.71875 C 9.875 62.894531 15.292969 58.710938 18.046875 55.300781 C 23.851562 48.109375 28.195312 37.875 23.890625 28.203125 Z M 23.890625 28.203125 "/>
<path fill-rule="nonzero" fill="rgb(79.998779%, 0%, 0%)" fill-opacity="1" d="M 29.214844 28.203125 C 32.363281 21.121094 45.828125 32.976562 49.320312 39.898438 C 52.46875 46.128906 53.105469 57.261719 47.039062 60.71875 C 43.230469 62.894531 37.8125 58.710938 35.058594 55.300781 C 29.253906 48.109375 24.914062 37.875 29.214844 28.203125 Z M 29.214844 28.203125 "/>
<path fill-rule="nonzero" fill="rgb(9.999084%, 9.999084%, 9.999084%)" fill-opacity="1" d="M 23.210938 44.140625 C 23.210938 42.910156 22.210938 41.914062 20.980469 41.914062 C 19.75 41.914062 18.753906 42.910156 18.753906 44.140625 C 18.753906 45.371094 19.75 46.371094 20.980469 46.371094 C 22.210938 46.371094 23.210938 45.371094 23.210938 44.140625 Z M 14.855469 45.535156 C 14.855469 44.304688 13.855469 43.304688 12.625 43.304688 C 11.394531 43.304688 10.398438 44.304688 10.398438 45.535156 C 10.398438 46.765625 11.394531 47.761719 12.625 47.761719 C 13.855469 47.761719 14.855469 46.765625 14.855469 45.535156 Z M 6.496094 46.925781 C 6.496094 45.695312 5.5 44.699219 4.269531 44.699219 C 3.039062 44.699219 2.039062 45.695312 2.039062 46.925781 C 2.039062 48.15625 3.039062 49.15625 4.269531 49.15625 C 5.5 49.15625 6.496094 48.15625 6.496094 46.925781 Z M 19.03125 51.105469 C 19.03125 49.875 18.035156 48.875 16.804688 48.875 C 15.574219 48.875 14.574219 49.875 14.574219 51.105469 C 14.574219 52.335938 15.574219 53.332031 16.804688 53.332031 C 18.035156 53.332031 19.03125 52.335938 19.03125 51.105469 Z M 10.675781 53.890625 C 10.675781 52.660156 9.679688 51.664062 8.449219 51.664062 C 7.214844 51.664062 6.21875 52.660156 6.21875 53.890625 C 6.21875 55.121094 7.214844 56.117188 8.449219 56.117188 C 9.679688 56.117188 10.675781 55.121094 10.675781 53.890625 Z M 20.425781 38.570312 C 20.425781 37.339844 19.425781 36.34375 18.195312 36.34375 C 16.964844 36.34375 15.96875 37.339844 15.96875 38.570312 C 15.96875 39.800781 16.964844 40.800781 18.195312 40.800781 C 19.425781 40.800781 20.425781 39.800781 20.425781 38.570312 Z M 12.066406 37.175781 C 12.066406 35.945312 11.070312 34.949219 9.839844 34.949219 C 8.609375 34.949219 7.613281 35.945312 7.613281 37.175781 C 7.613281 38.410156 8.609375 39.40625 9.839844 39.40625 C 11.070312 39.40625 12.066406 38.410156 12.066406 37.175781 Z M 19.03125 30.214844 C 19.03125 28.984375 18.035156 27.984375 16.804688 27.984375 C 15.574219 27.984375 14.574219 28.984375 14.574219 30.214844 C 14.574219 31.445312 15.574219 32.441406 16.804688 32.441406 C 18.035156 32.441406 19.03125 31.445312 19.03125 30.214844 Z M 34.351562 44.140625 C 34.351562 42.910156 33.355469 41.914062 32.125 41.914062 C 30.894531 41.914062 29.894531 42.910156 29.894531 44.140625 C 29.894531 45.371094 30.894531 46.371094 32.125 46.371094 C 33.355469 46.371094 34.351562 45.371094 34.351562 44.140625 Z M 42.707031 45.535156 C 42.707031 44.304688 41.710938 43.304688 40.480469 43.304688 C 39.25 43.304688 38.25 44.304688 38.25 45.535156 C 38.25 46.765625 39.25 47.761719 40.480469 47.761719 C 41.710938 47.761719 42.707031 46.765625 42.707031 45.535156 Z M 51.066406 46.925781 C 51.066406 45.695312 50.066406 44.699219 48.835938 44.699219 C 47.605469 44.699219 46.609375 45.695312 46.609375 46.925781 C 46.609375 48.15625 47.605469 49.15625 48.835938 49.15625 C 50.066406 49.15625 51.066406 48.15625 51.066406 46.925781 Z M 38.53125 51.105469 C 38.53125 49.875 37.53125 48.875 36.300781 48.875 C 35.070312 48.875 34.074219 49.875 34.074219 51.105469 C 34.074219 52.335938 35.070312 53.332031 36.300781 53.332031 C 37.53125 53.332031 38.53125 52.335938 38.53125 51.105469 Z M 46.886719 53.890625 C 46.886719 52.660156 45.890625 51.664062 44.65625 51.664062 C 43.425781 51.664062 42.429688 52.660156 42.429688 53.890625 C 42.429688 55.121094 43.425781 56.117188 44.65625 56.117188 C 45.890625 56.117188 46.886719 55.121094 46.886719 53.890625 Z M 37.136719 38.570312 C 37.136719 37.339844 36.140625 36.34375 34.910156 36.34375 C 33.679688 36.34375 32.679688 37.339844 32.679688 38.570312 C 32.679688 39.800781 33.679688 40.800781 34.910156 40.800781 C 36.140625 40.800781 37.136719 39.800781 37.136719 38.570312 Z M 45.492188 37.175781 C 45.492188 35.945312 44.496094 34.949219 43.265625 34.949219 C 42.035156 34.949219 41.039062 35.945312 41.039062 37.175781 C 41.039062 38.410156 42.035156 39.40625 43.265625 39.40625 C 44.496094 39.40625 45.492188 38.410156 45.492188 37.175781 Z M 38.53125 30.214844 C 38.53125 28.984375 37.53125 27.984375 36.300781 27.984375 C 35.070312 27.984375 34.074219 28.984375 34.074219 30.214844 C 34.074219 31.445312 35.070312 32.441406 36.300781 32.441406 C 37.53125 32.441406 38.53125 31.445312 38.53125 30.214844 Z M 38.53125 30.214844 "/>
<path fill-rule="nonzero" fill="rgb(79.998779%, 0%, 0%)" fill-opacity="1" d="M 25.996094 65.03125 C 25.996094 64.109375 23.75 63.359375 20.980469 63.359375 C 18.214844 63.359375 15.96875 64.109375 15.96875 65.03125 C 15.96875 65.957031 18.214844 66.703125 20.980469 66.703125 C 23.75 66.703125 25.996094 65.957031 25.996094 65.03125 Z M 25.996094 65.03125 "/>
<path fill-rule="nonzero" fill="rgb(79.998779%, 0%, 0%)" fill-opacity="1" d="M 37.136719 65.03125 C 37.136719 64.109375 34.894531 63.359375 32.125 63.359375 C 29.355469 63.359375 27.109375 64.109375 27.109375 65.03125 C 27.109375 65.957031 29.355469 66.703125 32.125 66.703125 C 34.894531 66.703125 37.136719 65.957031 37.136719 65.03125 Z M 37.136719 65.03125 "/>
<path fill-rule="nonzero" fill="rgb(9.999084%, 9.999084%, 9.999084%)" fill-opacity="1" d="M 41.871094 46.925781 C 41.871094 56.675781 41.871094 65.589844 26.554688 65.589844 C 11.234375 65.589844 11.234375 56.675781 11.234375 46.925781 C 11.234375 36.34375 18.195312 27.707031 26.554688 27.707031 C 34.910156 27.707031 41.871094 36.34375 41.871094 46.925781 Z M 41.871094 46.925781 "/>
<path fill-rule="nonzero" fill="rgb(9.999084%, 9.999084%, 9.999084%)" fill-opacity="1" d="M 36.859375 20.464844 C 36.859375 14.773438 32.246094 10.160156 26.554688 10.160156 C 20.859375 10.160156 16.246094 14.773438 16.246094 20.464844 C 16.246094 26.15625 20.859375 30.769531 26.554688 30.769531 C 32.246094 30.769531 36.859375 26.15625 36.859375 20.464844 Z M 36.859375 20.464844 "/>
<path fill-rule="nonzero" fill="rgb(100%, 100%, 100%)" fill-opacity="1" d="M 32.039062 19.074219 C 32.039062 17.765625 31.203125 16.703125 30.175781 16.703125 C 29.144531 16.703125 28.308594 17.765625 28.308594 19.074219 C 28.308594 20.378906 29.144531 21.441406 30.175781 21.441406 C 31.203125 21.441406 32.039062 20.378906 32.039062 19.074219 Z M 32.039062 19.074219 "/>
<path fill-rule="nonzero" fill="rgb(100%, 100%, 100%)" fill-opacity="1" d="M 24.796875 19.074219 C 24.796875 17.765625 23.960938 16.703125 22.929688 16.703125 C 21.902344 16.703125 21.066406 17.765625 21.066406 19.074219 C 21.066406 20.378906 21.902344 21.441406 22.929688 21.441406 C 23.960938 21.441406 24.796875 20.378906 24.796875 19.074219 Z M 24.796875 19.074219 "/>
<path fill-rule="nonzero" fill="rgb(0%, 0%, 0%)" fill-opacity="1" d="M 30.425781 19.628906 C 30.425781 19.183594 30.1875 18.820312 29.894531 18.820312 C 29.601562 18.820312 29.367188 19.183594 29.367188 19.628906 C 29.367188 20.074219 29.601562 20.4375 29.894531 20.4375 C 30.1875 20.4375 30.425781 20.074219 30.425781 19.628906 Z M 30.425781 19.628906 "/>
<path fill-rule="nonzero" fill="rgb(0%, 0%, 0%)" fill-opacity="1" d="M 23.738281 19.628906 C 23.738281 19.183594 23.503906 18.820312 23.210938 18.820312 C 22.917969 18.820312 22.679688 19.183594 22.679688 19.628906 C 22.679688 20.074219 22.917969 20.4375 23.210938 20.4375 C 23.503906 20.4375 23.738281 20.074219 23.738281 19.628906 Z M 23.738281 19.628906 "/>
<path fill-rule="nonzero" fill="rgb(79.998779%, 0%, 0%)" fill-opacity="1" d="M 21.1875 42.1875 C 19.597656 39.917969 17.59375 38.582031 16.714844 39.199219 C 15.832031 39.816406 16.402344 42.15625 17.992188 44.425781 C 19.578125 46.691406 21.582031 48.03125 22.464844 47.414062 C 23.347656 46.796875 22.773438 44.457031 21.1875 42.1875 Z M 21.1875 42.1875 "/>
<path fill-rule="nonzero" fill="rgb(79.998779%, 0%, 0%)" fill-opacity="1" d="M 35.113281 44.425781 C 36.703125 42.15625 37.273438 39.816406 36.390625 39.199219 C 35.511719 38.582031 33.507812 39.917969 31.917969 42.1875 C 30.332031 44.457031 29.757812 46.796875 30.640625 47.414062 C 31.523438 48.03125 33.527344 46.691406 35.113281 44.425781 Z M 35.113281 44.425781 "/>
<path fill="none" stroke-width="0.3985" stroke-linecap="butt" stroke-linejoin="miter" stroke="rgb(100%, 0%, 0%)" stroke-opacity="1" stroke-miterlimit="10" d="M 3.261647 44.222545 C 2.220125 42.978284 0.594237 42.389943 -1.003824 42.668212 C -2.053296 42.85505 -3.003387 43.403638 -3.687134 44.222545 " transform="matrix(0.982636, 0, 0, -0.982636, 26.5528, 67.817962)"/>
<g clip-path="url(#clip-2)">
<path fill="none" stroke-width="0.79701" stroke-linecap="butt" stroke-linejoin="miter" stroke="rgb(79.998779%, 0%, 0%)" stroke-opacity="1" stroke-miterlimit="10" d="M 3.213943 54.168684 C 2.597776 58.215514 2.79654 62.361726 4.557586 64.675336 C 6.946727 67.803878 9.292139 65.227899 9.276238 62.906339 C 9.256362 60.493346 6.342485 57.893516 5.607059 61.05386 " transform="matrix(0.982636, 0, 0, -0.982636, 26.5528, 67.817962)"/>
</g>
<g clip-path="url(#clip-3)">
<path fill="none" stroke-width="0.79701" stroke-linecap="butt" stroke-linejoin="miter" stroke="rgb(79.998779%, 0%, 0%)" stroke-opacity="1" stroke-miterlimit="10" d="M -3.214077 54.168684 C -2.597909 58.215514 -2.796673 62.361726 -4.55772 64.675336 C -6.942885 67.803878 -9.292272 65.227899 -9.276371 62.906339 C -9.256495 60.493346 -6.342618 57.893516 -5.607192 61.05386 " transform="matrix(0.982636, 0, 0, -0.982636, 26.5528, 67.817962)"/>
</g>
</svg>
