<?xml version="1.0" encoding="UTF-8"?>
<svg xmlns="http://www.w3.org/2000/svg" xmlns:xlink="http://www.w3.org/1999/xlink" width="92.41" height="68.231" viewBox="0 0 92.41 68.231">
<path fill="none" stroke-width="1.99255" stroke-linecap="butt" stroke-linejoin="miter" stroke="rgb(75%, 75%, 75%)" stroke-opacity="1" stroke-miterlimit="10" d="M 3.216308 54.17013 C 2.600065 58.215212 2.793628 62.359051 4.559401 64.677863 C 6.945368 67.802531 9.291832 65.226951 9.27603 62.908139 C 9.256279 60.494521 6.340976 57.891289 5.606224 61.05151 " transform="matrix(0.988855, 0, 0, -0.988855, 45.913288, 68.031251)"/>
<path fill="none" stroke-width="1.99255" stroke-linecap="butt" stroke-linejoin="miter" stroke="rgb(75%, 75%, 75%)" stroke-opacity="1" stroke-miterlimit="10" d="M -3.214741 54.17013 C -2.598498 58.215212 -2.796012 62.359051 -4.557834 64.677863 C -6.943801 67.802531 -9.290265 65.226951 -9.274463 62.908139 C -9.258662 60.494521 -6.339409 57.891289 -5.608608 61.05151 " transform="matrix(0.988855, 0, 0, -0.988855, 45.913288, 68.031251)"/>
<path fill-rule="nonzero" fill="rgb(79.998779%, 0%, 0%)" fill-opacity="1" d="M 43.234375 28.164062 C 40.066406 21.039062 26.515625 32.96875 23 39.9375 C 19.832031 46.207031 19.191406 57.40625 25.296875 60.890625 C 29.128906 63.074219 34.582031 58.867188 37.351562 55.433594 C 43.195312 48.199219 47.5625 37.902344 43.234375 28.164062 Z M 43.234375 28.164062 "/>
<path fill-rule="nonzero" fill="rgb(79.998779%, 0%, 0%)" fill-opacity="1" d="M 48.589844 28.164062 C 51.761719 21.039062 65.3125 32.96875 68.824219 39.9375 C 71.992188 46.207031 72.636719 57.40625 66.53125 60.890625 C 62.699219 63.074219 57.246094 58.867188 54.472656 55.433594 C 48.632812 48.199219 44.261719 37.902344 48.589844 28.164062 Z M 48.589844 28.164062 "/>
<path fill-rule="nonzero" fill="rgb(9.999084%, 9.999084%, 9.999084%)" fill-opacity="1" d="M 42.550781 44.203125 C 42.550781 42.964844 41.546875 41.960938 40.308594 41.960938 C 39.070312 41.960938 38.066406 42.964844 38.066406 44.203125 C 38.066406 45.441406 39.070312 46.449219 40.308594 46.449219 C 41.546875 46.449219 42.550781 45.441406 42.550781 44.203125 Z M 34.140625 45.605469 C 34.140625 44.367188 33.136719 43.363281 31.898438 43.363281 C 30.660156 43.363281 29.65625 44.367188 29.65625 45.605469 C 29.65625 46.84375 30.660156 47.847656 31.898438 47.847656 C 33.136719 47.847656 34.140625 46.84375 34.140625 45.605469 Z M 25.730469 47.007812 C 25.730469 45.769531 24.726562 44.765625 23.488281 44.765625 C 22.25 44.765625 21.246094 45.769531 21.246094 47.007812 C 21.246094 48.246094 22.25 49.25 23.488281 49.25 C 24.726562 49.25 25.730469 48.246094 25.730469 47.007812 Z M 38.34375 51.210938 C 38.34375 49.972656 37.339844 48.96875 36.101562 48.96875 C 34.863281 48.96875 33.859375 49.972656 33.859375 51.210938 C 33.859375 52.449219 34.863281 53.457031 36.101562 53.457031 C 37.339844 53.457031 38.34375 52.449219 38.34375 51.210938 Z M 29.9375 54.015625 C 29.9375 52.777344 28.933594 51.773438 27.695312 51.773438 C 26.453125 51.773438 25.449219 52.777344 25.449219 54.015625 C 25.449219 55.253906 26.453125 56.257812 27.695312 56.257812 C 28.933594 56.257812 29.9375 55.253906 29.9375 54.015625 Z M 39.746094 38.597656 C 39.746094 37.359375 38.742188 36.355469 37.503906 36.355469 C 36.265625 36.355469 35.261719 37.359375 35.261719 38.597656 C 35.261719 39.835938 36.265625 40.839844 37.503906 40.839844 C 38.742188 40.839844 39.746094 39.835938 39.746094 38.597656 Z M 31.335938 37.195312 C 31.335938 35.957031 30.332031 34.953125 29.09375 34.953125 C 27.855469 34.953125 26.851562 35.957031 26.851562 37.195312 C 26.851562 38.4375 27.855469 39.441406 29.09375 39.441406 C 30.332031 39.441406 31.335938 38.4375 31.335938 37.195312 Z M 38.34375 30.1875 C 38.34375 28.949219 37.339844 27.945312 36.101562 27.945312 C 34.863281 27.945312 33.859375 28.949219 33.859375 30.1875 C 33.859375 31.429688 34.863281 32.433594 36.101562 32.433594 C 37.339844 32.433594 38.34375 31.429688 38.34375 30.1875 Z M 53.761719 44.203125 C 53.761719 42.964844 52.757812 41.960938 51.519531 41.960938 C 50.28125 41.960938 49.277344 42.964844 49.277344 44.203125 C 49.277344 45.441406 50.28125 46.449219 51.519531 46.449219 C 52.757812 46.449219 53.761719 45.441406 53.761719 44.203125 Z M 62.171875 45.605469 C 62.171875 44.367188 61.167969 43.363281 59.929688 43.363281 C 58.691406 43.363281 57.6875 44.367188 57.6875 45.605469 C 57.6875 46.84375 58.691406 47.847656 59.929688 47.847656 C 61.167969 47.847656 62.171875 46.84375 62.171875 45.605469 Z M 70.582031 47.007812 C 70.582031 45.769531 69.578125 44.765625 68.339844 44.765625 C 67.097656 44.765625 66.09375 45.769531 66.09375 47.007812 C 66.09375 48.246094 67.097656 49.25 68.339844 49.25 C 69.578125 49.25 70.582031 48.246094 70.582031 47.007812 Z M 57.964844 51.210938 C 57.964844 49.972656 56.960938 48.96875 55.722656 48.96875 C 54.484375 48.96875 53.480469 49.972656 53.480469 51.210938 C 53.480469 52.449219 54.484375 53.457031 55.722656 53.457031 C 56.960938 53.457031 57.964844 52.449219 57.964844 51.210938 Z M 66.375 54.015625 C 66.375 52.777344 65.371094 51.773438 64.132812 51.773438 C 62.894531 51.773438 61.890625 52.777344 61.890625 54.015625 C 61.890625 55.253906 62.894531 56.257812 64.132812 56.257812 C 65.371094 56.257812 66.375 55.253906 66.375 54.015625 Z M 56.566406 38.597656 C 56.566406 37.359375 55.5625 36.355469 54.324219 36.355469 C 53.085938 36.355469 52.082031 37.359375 52.082031 38.597656 C 52.082031 39.835938 53.085938 40.839844 54.324219 40.839844 C 55.5625 40.839844 56.566406 39.835938 56.566406 38.597656 Z M 64.972656 37.195312 C 64.972656 35.957031 63.96875 34.953125 62.730469 34.953125 C 61.492188 34.953125 60.488281 35.957031 60.488281 37.195312 C 60.488281 38.4375 61.492188 39.441406 62.730469 39.441406 C 63.96875 39.441406 64.972656 38.4375 64.972656 37.195312 Z M 57.964844 30.1875 C 57.964844 28.949219 56.960938 27.945312 55.722656 27.945312 C 54.484375 27.945312 53.480469 28.949219 53.480469 30.1875 C 53.480469 31.429688 54.484375 32.433594 55.722656 32.433594 C 56.960938 32.433594 57.964844 31.429688 57.964844 30.1875 Z M 57.964844 30.1875 "/>
<path fill-rule="nonzero" fill="rgb(79.998779%, 0%, 0%)" fill-opacity="1" d="M 45.351562 65.226562 C 45.351562 64.300781 43.09375 63.546875 40.308594 63.546875 C 37.519531 63.546875 35.261719 64.300781 35.261719 65.226562 C 35.261719 66.15625 37.519531 66.910156 40.308594 66.910156 C 43.09375 66.910156 45.351562 66.15625 45.351562 65.226562 Z M 45.351562 65.226562 "/>
<path fill-rule="nonzero" fill="rgb(79.998779%, 0%, 0%)" fill-opacity="1" d="M 56.566406 65.226562 C 56.566406 64.300781 54.304688 63.546875 51.519531 63.546875 C 48.734375 63.546875 46.472656 64.300781 46.472656 65.226562 C 46.472656 66.15625 48.734375 66.910156 51.519531 66.910156 C 54.304688 66.910156 56.566406 66.15625 56.566406 65.226562 Z M 56.566406 65.226562 "/>
<path fill-rule="nonzero" fill="rgb(9.999084%, 9.999084%, 9.999084%)" fill-opacity="1" d="M 61.332031 47.007812 C 61.332031 56.820312 61.332031 65.789062 45.914062 65.789062 C 30.496094 65.789062 30.496094 56.820312 30.496094 47.007812 C 30.496094 36.355469 37.503906 27.667969 45.914062 27.667969 C 54.324219 27.667969 61.332031 36.355469 61.332031 47.007812 Z M 61.332031 47.007812 "/>
<path fill-rule="nonzero" fill="rgb(9.999084%, 9.999084%, 9.999084%)" fill-opacity="1" d="M 56.285156 20.378906 C 56.285156 14.652344 51.640625 10.007812 45.914062 10.007812 C 40.183594 10.007812 35.542969 14.652344 35.542969 20.378906 C 35.542969 26.105469 40.183594 30.75 45.914062 30.75 C 51.640625 30.75 56.285156 26.105469 56.285156 20.378906 Z M 56.285156 20.378906 "/>
<path fill-rule="nonzero" fill="rgb(100%, 100%, 100%)" fill-opacity="1" d="M 51.433594 18.976562 C 51.433594 17.660156 50.59375 16.59375 49.558594 16.59375 C 48.519531 16.59375 47.679688 17.660156 47.679688 18.976562 C 47.679688 20.292969 48.519531 21.359375 49.558594 21.359375 C 50.59375 21.359375 51.433594 20.292969 51.433594 18.976562 Z M 51.433594 18.976562 "/>
<path fill-rule="nonzero" fill="rgb(100%, 100%, 100%)" fill-opacity="1" d="M 44.148438 18.976562 C 44.148438 17.660156 43.304688 16.59375 42.269531 16.59375 C 41.230469 16.59375 40.390625 17.660156 40.390625 18.976562 C 40.390625 20.292969 41.230469 21.359375 42.269531 21.359375 C 43.304688 21.359375 44.148438 20.292969 44.148438 18.976562 Z M 44.148438 18.976562 "/>
<path fill-rule="nonzero" fill="rgb(0%, 0%, 0%)" fill-opacity="1" d="M 49.808594 19.539062 C 49.808594 19.089844 49.570312 18.726562 49.277344 18.726562 C 48.984375 18.726562 48.746094 19.089844 48.746094 19.539062 C 48.746094 19.988281 48.984375 20.351562 49.277344 20.351562 C 49.570312 20.351562 49.808594 19.988281 49.808594 19.539062 Z M 49.808594 19.539062 "/>
<path fill-rule="nonzero" fill="rgb(0%, 0%, 0%)" fill-opacity="1" d="M 43.082031 19.539062 C 43.082031 19.089844 42.84375 18.726562 42.550781 18.726562 C 42.253906 18.726562 42.015625 19.089844 42.015625 19.539062 C 42.015625 19.988281 42.253906 20.351562 42.550781 20.351562 C 42.84375 20.351562 43.082031 19.988281 43.082031 19.539062 Z M 43.082031 19.539062 "/>
<path fill-rule="nonzero" fill="rgb(79.998779%, 0%, 0%)" fill-opacity="1" d="M 40.511719 42.238281 C 38.914062 39.957031 36.898438 38.609375 36.011719 39.230469 C 35.125 39.851562 35.699219 42.207031 37.296875 44.488281 C 38.894531 46.773438 40.910156 48.117188 41.800781 47.496094 C 42.6875 46.875 42.109375 44.519531 40.511719 42.238281 Z M 40.511719 42.238281 "/>
<path fill-rule="nonzero" fill="rgb(79.998779%, 0%, 0%)" fill-opacity="1" d="M 54.527344 44.488281 C 56.125 42.207031 56.703125 39.851562 55.816406 39.230469 C 54.925781 38.609375 52.910156 39.957031 51.3125 42.238281 C 49.714844 44.519531 49.140625 46.875 50.027344 47.496094 C 50.914062 48.117188 52.929688 46.773438 54.527344 44.488281 Z M 54.527344 44.488281 "/>
<path fill="none" stroke-width="0.3985" stroke-linecap="butt" stroke-linejoin="miter" stroke="rgb(100%, 0%, 0%)" stroke-opacity="1" stroke-miterlimit="10" d="M 3.259761 44.219386 C 2.216888 42.978999 0.593325 42.386458 -1.002587 42.670878 C -2.05336 42.856541 -3.005376 43.405629 -3.688774 44.219386 " transform="matrix(0.988855, 0, 0, -0.988855, 45.913288, 68.031251)"/>
<path fill="none" stroke-width="0.79701" stroke-linecap="butt" stroke-linejoin="miter" stroke="rgb(79.998779%, 0%, 0%)" stroke-opacity="1" stroke-miterlimit="10" d="M 3.216308 54.17013 C 2.600065 58.215212 2.793628 62.359051 4.559401 64.677863 C 6.945368 67.802531 9.291832 65.226951 9.27603 62.908139 C 9.256279 60.494521 6.340976 57.891289 5.606224 61.05151 " transform="matrix(0.988855, 0, 0, -0.988855, 45.913288, 68.031251)"/>
<path fill="none" stroke-width="0.79701" stroke-linecap="butt" stroke-linejoin="miter" stroke="rgb(79.998779%, 0%, 0%)" stroke-opacity="1" stroke-miterlimit="10" d="M -3.214741 54.17013 C -2.598498 58.215212 -2.796012 62.359051 -4.557834 64.677863 C -6.943801 67.802531 -9.290265 65.226951 -9.274463 62.908139 C -9.258662 60.494521 -6.339409 57.891289 -5.608608 61.05151 " transform="matrix(0.988855, 0, 0, -0.988855, 45.913288, 68.031251)"/>
</svg>
