<?xml version="1.0" encoding="UTF-8" standalone="no"?>
<svg
   width="54.045"
   height="67.634"
   viewBox="0 0 54.045 67.634"
   version="1.1"
   id="svg20"
   sodipodi:docname="bug.svg"
   xmlns:inkscape="http://www.inkscape.org/namespaces/inkscape"
   xmlns:sodipodi="http://sodipodi.sourceforge.net/DTD/sodipodi-0.dtd"
   xmlns="http://www.w3.org/2000/svg"
   xmlns:svg="http://www.w3.org/2000/svg">
  <sodipodi:namedview
     id="namedview20"
     pagecolor="#ffffff"
     bordercolor="#666666"
     borderopacity="1.0"
     inkscape:showpageshadow="2"
     inkscape:pageopacity="0.0"
     inkscape:pagecheckerboard="0"
     inkscape:deskcolor="#d1d1d1" />
  <defs
     id="defs4">
    <clipPath
       id="clip-0">
      <path
         clip-rule="nonzero"
         d="M 15 62 L 26 62 L 26 66.867188 L 15 66.867188 Z M 15 62 "
         id="path1" />
    </clipPath>
    <clipPath
       id="clip-1">
      <path
         clip-rule="nonzero"
         d="M 27 62 L 38 62 L 38 66.867188 L 27 66.867188 Z M 27 62 "
         id="path2" />
    </clipPath>
    <clipPath
       id="clip-2">
      <path
         clip-rule="nonzero"
         d="M 18 0.40625 L 47 0.40625 L 47 26 L 18 26 Z M 18 0.40625 "
         id="path3" />
    </clipPath>
    <clipPath
       id="clip-3">
      <path
         clip-rule="nonzero"
         d="M 6 0.40625 L 35 0.40625 L 35 26 L 6 26 Z M 6 0.40625 "
         id="path4" />
    </clipPath>
  </defs>
  <path
     id="path5"
     d="M 19.761719 2.4492188 C 18.417001 2.5067292 17.427246 4.1123057 17.4375 5.609375 C 17.457031 7.9804678 20.320313 10.535154 21.042969 7.4296875 L 22.191406 10.732422 C 18.678697 12.374786 16.246094 15.93772 16.246094 20.070312 C 16.246094 22.325503 16.972204 24.409981 18.201172 26.107422 C 13.001367 27.957285 6.1357635 34.844761 3.7851562 39.503906 C 0.63671925 45.738281 2.5e-07 56.867188 6.0664062 60.328125 C 8.1505684 61.516632 10.714752 60.796886 13.0625 59.347656 C 13.969527 61.054127 15.331157 62.470345 17.365234 63.482422 C 16.501122 63.78202 15.96875 64.188315 15.96875 64.636719 C 15.96875 65.5625 18.214844 66.308594 20.980469 66.308594 C 23.180488 66.308594 25.048679 65.837367 25.724609 65.179688 C 25.999455 65.185821 26.269309 65.195312 26.554688 65.195312 C 26.83905 65.195312 27.106958 65.185781 27.380859 65.179688 C 28.05679 65.837367 29.924981 66.308594 32.125 66.308594 C 34.894531 66.308594 37.136719 65.5625 37.136719 64.636719 C 37.136719 64.188315 36.6058 63.78202 35.742188 63.482422 C 37.775828 62.470305 39.138126 61.054218 40.044922 59.347656 C 42.392375 60.796436 44.955222 61.516449 47.039062 60.328125 C 53.105469 56.867188 52.46875 45.738281 49.320312 39.503906 C 46.969706 34.844761 40.104102 27.957285 34.904297 26.107422 C 36.133021 24.409981 36.859375 22.325503 36.859375 20.070312 C 36.859375 15.93757 34.425482 12.374706 30.914062 10.732422 L 32.0625 7.4296875 C 32.785156 10.535154 35.648438 7.9804678 35.667969 5.609375 C 35.683594 3.3281266 33.378906 0.79687575 31.03125 3.8710938 C 29.891357 5.3712245 29.419897 7.6511312 29.402344 10.167969 C 28.497598 9.9082816 27.542956 9.765625 26.554688 9.765625 C 25.564793 9.765625 24.609103 9.9078016 23.703125 10.167969 C 23.685572 7.6511312 23.214113 5.3712245 22.074219 3.8710938 C 21.268555 2.8143313 20.466095 2.4190942 19.761719 2.4492188 z " />
  <g
     clip-path="url(#clip-0)"
     id="g8" />
  <g
     clip-path="url(#clip-1)"
     id="g9" />
  <g
     clip-path="url(#clip-2)"
     id="g19" />
  <g
     clip-path="url(#clip-3)"
     id="g20" />
</svg>
