<?xml version="1.0" encoding="UTF-8" standalone="no"?>
<svg
   width="54.045"
   height="68.231"
   viewBox="0 0 54.045 68.231"
   version="1.1"
   id="svg22"
   sodipodi:docname="bug.svg"
   xmlns:inkscape="http://www.inkscape.org/namespaces/inkscape"
   xmlns:sodipodi="http://sodipodi.sourceforge.net/DTD/sodipodi-0.dtd"
   xmlns="http://www.w3.org/2000/svg"
   xmlns:svg="http://www.w3.org/2000/svg">
  <sodipodi:namedview
     id="namedview22"
     pagecolor="#ffffff"
     bordercolor="#666666"
     borderopacity="1.0"
     inkscape:showpageshadow="2"
     inkscape:pageopacity="0.0"
     inkscape:pagecheckerboard="0"
     inkscape:deskcolor="#d1d1d1" />
  <defs
     id="defs4">
    <clipPath
       id="clip-0">
      <path
         clip-rule="nonzero"
         d="M 18 0.214844 L 47 0.214844 L 47 26 L 18 26 Z M 18 0.214844 "
         id="path1" />
    </clipPath>
    <clipPath
       id="clip-1">
      <path
         clip-rule="nonzero"
         d="M 6 0.214844 L 35 0.214844 L 35 26 L 6 26 Z M 6 0.214844 "
         id="path2" />
    </clipPath>
    <clipPath
       id="clip-2">
      <path
         clip-rule="nonzero"
         d="M 1 0.214844 L 53.105469 0.214844 L 53.105469 43 L 1 43 Z M 1 0.214844 "
         id="path3" />
    </clipPath>
    <clipPath
       id="clip-3">
      <path
         clip-rule="nonzero"
         d="M 0 0.214844 L 52 0.214844 L 52 43 L 0 43 Z M 0 0.214844 "
         id="path4" />
    </clipPath>
  </defs>
  <path
     id="path5"
     d="M 19.761719 2.84375 C 18.417001 2.9012605 17.427246 4.506837 17.4375 6.0039062 C 17.457031 8.375 20.320313 10.929687 21.042969 7.8242188 L 22.191406 11.126953 C 18.678697 12.769317 16.246094 16.332251 16.246094 20.464844 C 16.246094 22.720217 16.972023 24.805179 18.201172 26.501953 C 13.001367 28.351816 6.1357635 35.239292 3.7851562 39.898438 C 0.63671925 46.128906 2.5e-07 57.261719 6.0664062 60.71875 C 8.1503767 61.909285 10.714928 61.191129 13.0625 59.742188 C 13.969294 61.44822 15.330073 62.864928 17.363281 63.876953 C 16.50056 64.177421 15.96875 64.583254 15.96875 65.03125 C 15.96875 65.957031 18.214844 66.703125 20.980469 66.703125 C 23.180488 66.703125 25.048679 66.231898 25.724609 65.574219 C 25.999455 65.580353 26.269309 65.589844 26.554688 65.589844 C 26.83905 65.589844 27.106958 65.580312 27.380859 65.574219 C 28.05679 66.231898 29.924981 66.703125 32.125 66.703125 C 34.894531 66.703125 37.136719 65.957031 37.136719 65.03125 C 37.136719 64.583254 36.606362 64.177421 35.744141 63.876953 C 37.776911 62.864888 39.138359 61.448311 40.044922 59.742188 C 42.3922 61.190681 44.955412 61.909102 47.039062 60.71875 C 53.105469 57.261719 52.46875 46.128906 49.320312 39.898438 C 46.969706 35.239292 40.104102 28.351816 34.904297 26.501953 C 36.133203 24.805179 36.859375 22.720217 36.859375 20.464844 C 36.859375 16.332101 34.425482 12.769237 30.914062 11.126953 L 32.0625 7.8242188 C 32.785156 10.929687 35.648438 8.375 35.667969 6.0039062 C 35.678711 4.435548 34.593043 2.7496024 33.150391 2.8476562 C 32.49464 2.8922262 31.764892 3.3049319 31.03125 4.265625 C 30.003785 5.6154779 29.516749 7.6001026 29.417969 9.8222656 C 29.407145 10.065766 29.404065 10.31382 29.402344 10.5625 C 28.497598 10.302813 27.542956 10.160156 26.554688 10.160156 C 25.564793 10.160156 24.609103 10.302333 23.703125 10.5625 C 23.685697 8.0443864 23.214272 5.7633922 22.074219 4.265625 C 21.268555 3.2088626 20.466095 2.8136255 19.761719 2.84375 z " />
  <g
     clip-path="url(#clip-0)"
     id="g19" />
  <g
     clip-path="url(#clip-1)"
     id="g20" />
  <g
     clip-path="url(#clip-2)"
     id="g21" />
  <g
     clip-path="url(#clip-3)"
     id="g22" />
</svg>
