<?xml version="1.0" encoding="UTF-8" standalone="no"?>
<svg
   width="54.045"
   height="68.231"
   viewBox="0 0 54.045 68.231"
   version="1.1"
   id="svg22"
   sodipodi:docname="bug.svg"
   xmlns:inkscape="http://www.inkscape.org/namespaces/inkscape"
   xmlns:sodipodi="http://sodipodi.sourceforge.net/DTD/sodipodi-0.dtd"
   xmlns="http://www.w3.org/2000/svg"
   xmlns:svg="http://www.w3.org/2000/svg">
  <sodipodi:namedview
     id="namedview22"
     pagecolor="#ffffff"
     bordercolor="#666666"
     borderopacity="1.0"
     inkscape:showpageshadow="2"
     inkscape:pageopacity="0.0"
     inkscape:pagecheckerboard="0"
     inkscape:deskcolor="#d1d1d1" />
  <defs
     id="defs4">
    <clipPath
       id="clip-0">
      <path
         clip-rule="nonzero"
         d="M 1 0.214844 L 53.105469 0.214844 L 53.105469 43 L 1 43 Z M 1 0.214844 "
         id="path1" />
    </clipPath>
    <clipPath
       id="clip-1">
      <path
         clip-rule="nonzero"
         d="M 0 0.214844 L 52 0.214844 L 52 43 L 0 43 Z M 0 0.214844 "
         id="path2" />
    </clipPath>
    <clipPath
       id="clip-2">
      <path
         clip-rule="nonzero"
         d="M 18 0.214844 L 47 0.214844 L 47 26 L 18 26 Z M 18 0.214844 "
         id="path3" />
    </clipPath>
    <clipPath
       id="clip-3">
      <path
         clip-rule="nonzero"
         d="M 6 0.214844 L 35 0.214844 L 35 26 L 6 26 Z M 6 0.214844 "
         id="path4" />
    </clipPath>
  </defs>
  <g
     clip-path="url(#clip-0)"
     id="g5">
    <path
       id="path5"
       d="M -6.9110853 66.122361 C -8.2795656 66.063834 -9.28681 64.429886 -9.276375 62.906362 C -9.256499 60.493369 -6.3426206 57.893539 -5.6071946 61.053883 L -4.4384632 57.692786 C -8.0132452 56.0214 -10.488834 52.395507 -10.488834 48.189887 C -10.488834 45.89466 -9.7500775 43.772855 -8.4992084 42.046097 C -13.790898 40.163545 -20.777823 33.154362 -23.169967 28.412886 C -26.37404 22.07232 -27.02201 10.742781 -20.848405 7.224661 C -18.72761 6.0130886 -16.11774 6.7439344 -13.728685 8.2184802 C -12.805867 6.4823008 -11.421042 5.0405584 -9.3519052 4.0106498 C -10.229872 3.7048719 -10.771079 3.2918678 -10.771079 2.8359555 C -10.771079 1.8938152 -8.4852949 1.1345371 -5.670799 1.1345371 C -3.4319035 1.1345371 -1.5307 1.6140912 -0.84282545 2.2833921 C -0.56312262 2.2771498 -0.28850085 2.267491 0.0019208537 2.267491 C 0.29130836 2.267491 0.56395009 2.2771909 0.84269188 2.2833921 C 1.5305664 1.6140912 3.43177 1.1345371 5.6706654 1.1345371 C 8.4891364 1.1345371 10.770945 1.8938152 10.770945 2.8359555 C 10.770945 3.2918678 10.231217 3.7048719 9.3537593 4.0106498 C 11.42245 5.0405994 12.807956 6.4822084 13.730539 8.2184802 C 16.119296 6.7443904 18.727802 6.0132745 20.848272 7.224661 C 27.021877 10.742781 26.373907 22.07232 23.169833 28.412886 C 20.77769 33.154362 13.790765 40.163545 8.4990748 42.046097 C 9.7496965 43.772855 10.488701 45.89466 10.488701 48.189887 C 10.488701 52.395659 8.0117986 56.021482 4.4383297 57.692786 L 5.607061 61.053883 C 6.342487 57.893539 9.2563654 60.493369 9.2762414 62.906362 C 9.2871733 64.502434 8.1823207 66.218172 6.7141756 66.118385 C 6.0468369 66.073028 5.3041945 65.653029 4.557588 64.67536 C 3.5119669 63.301654 3.0163244 61.281959 2.9157987 59.020529 C 2.9047833 58.772726 2.9016491 58.520289 2.8998976 58.267214 C 1.9791647 58.53149 1.0076527 58.676667 0.0019208537 58.676667 C -1.0054655 58.676667 -1.9780441 58.531978 -2.9000311 58.267214 C -2.9177668 60.829825 -3.3975226 63.151126 -4.5577215 64.67536 C -5.377622 65.750796 -6.1942623 66.153018 -6.9110853 66.122361 z "
       transform="matrix(0.982636, 0, 0, -0.982636, 26.5528, 67.817962)" />
  </g>
  <g
     clip-path="url(#clip-1)"
     id="g6" />
  <g
     clip-path="url(#clip-2)"
     id="g21" />
  <g
     clip-path="url(#clip-3)"
     id="g22" />
</svg>
