<?xml version="1.0" encoding="UTF-8"?>
<svg xmlns="http://www.w3.org/2000/svg" xmlns:xlink="http://www.w3.org/1999/xlink" width="92.41" height="61.228" viewBox="0 0 92.41 61.228">
<path fill-rule="nonzero" fill="rgb(14.99939%, 14.99939%, 14.99939%)" fill-opacity="1" d="M 54.3125 49.269531 C 61.308594 38.910156 66.347656 21.273438 75.308594 17.074219 C 82.867188 13.714844 95.183594 25.753906 89.582031 26.035156 C 71.667969 6.4375 69.988281 46.46875 59.910156 52.90625 Z M 54.3125 49.269531 "/>
<path fill-rule="nonzero" fill="rgb(14.99939%, 14.99939%, 14.99939%)" fill-opacity="1" d="M 61.203125 43.234375 C 61.203125 58.164062 55.035156 58.507812 45.914062 58.507812 C 36.789062 58.507812 30.625 58.164062 30.625 43.234375 C 30.367188 28.308594 37.304688 16.324219 45.914062 16.324219 C 54.523438 16.324219 61.460938 28.308594 61.203125 43.234375 Z M 61.203125 43.234375 "/>
<path fill-rule="nonzero" fill="rgb(14.99939%, 14.99939%, 14.99939%)" fill-opacity="1" d="M 49.273438 6.179688 C 50.394531 2.84375 56.269531 1.117188 56.269531 1.679688 C 56.269531 1.679688 56.832031 10.078125 53.53125 10.078125 C 51.207031 10.636719 49.273438 10.636719 49.273438 6.179688 Z M 49.273438 6.179688 "/>
<path fill-rule="nonzero" fill="rgb(14.99939%, 14.99939%, 14.99939%)" fill-opacity="1" d="M 42.554688 6.179688 C 41.433594 2.84375 35.554688 1.117188 35.554688 1.679688 C 35.554688 1.679688 34.996094 10.078125 38.296875 10.078125 C 40.621094 10.636719 42.554688 10.636719 42.554688 6.179688 Z M 42.554688 6.179688 "/>
<path fill-rule="nonzero" fill="rgb(14.99939%, 14.99939%, 14.99939%)" fill-opacity="1" d="M 58.230469 17.355469 C 58.230469 10.550781 52.714844 5.039062 45.914062 5.039062 C 39.109375 5.039062 33.597656 10.550781 33.597656 17.355469 C 33.597656 24.160156 39.109375 29.671875 45.914062 29.671875 C 52.714844 29.671875 58.230469 24.160156 58.230469 17.355469 Z M 58.230469 17.355469 "/>
<path fill-rule="nonzero" fill="rgb(99.293518%, 86.508179%, 1.411438%)" fill-opacity="1" d="M 43.074219 14.300781 C 43.074219 14.300781 41.851562 15.195312 40.761719 14.882812 C 39.667969 14.5625 39.121094 13.15625 39.121094 13.15625 C 39.121094 13.15625 40.335938 12.257812 41.429688 12.574219 C 42.519531 12.890625 43.074219 14.300781 43.074219 14.300781 Z M 43.074219 14.300781 "/>
<path fill-rule="nonzero" fill="rgb(99.293518%, 86.508179%, 1.411438%)" fill-opacity="1" d="M 48.753906 14.300781 C 48.753906 14.300781 49.976562 15.195312 51.066406 14.882812 C 52.160156 14.5625 52.707031 13.15625 52.707031 13.15625 C 52.707031 13.15625 51.488281 12.257812 50.398438 12.574219 C 49.304688 12.890625 48.753906 14.300781 48.753906 14.300781 Z M 48.753906 14.300781 "/>
<path fill-rule="nonzero" fill="rgb(0%, 0%, 0%)" fill-opacity="1" d="M 41.097656 12.675781 C 41.519531 13.253906 41.519531 14.144531 41.097656 14.722656 C 40.679688 14.144531 40.679688 13.253906 41.097656 12.675781 Z M 41.097656 12.675781 "/>
<path fill-rule="nonzero" fill="rgb(0%, 0%, 0%)" fill-opacity="1" d="M 50.726562 12.675781 C 51.148438 13.253906 51.148438 14.144531 50.726562 14.722656 C 50.308594 14.144531 50.308594 13.253906 50.726562 12.675781 Z M 50.726562 12.675781 "/>
<path fill="none" stroke-width="0.19925" stroke-linecap="butt" stroke-linejoin="miter" stroke="rgb(75%, 75%, 75%)" stroke-opacity="1" stroke-miterlimit="10" d="M -4.536567 43.284746 C -4.536567 43.284746 -1.755849 40.250876 0.000394182 44.10749 C 1.756637 40.250876 4.537355 43.284746 4.537355 43.284746 " transform="matrix(0.987548, 0, 0, -0.987548, 45.913673, 63.265312)"/>
<path fill-rule="nonzero" fill="rgb(89.99939%, 57.998657%, 57.998657%)" fill-opacity="1" d="M 43.980469 17.210938 C 44.445312 16.757812 47.378906 16.757812 47.84375 17.210938 C 48.152344 17.773438 46.492188 19.875 45.914062 19.875 C 45.335938 19.875 43.675781 17.773438 43.980469 17.210938 Z M 43.980469 17.210938 "/>
<path fill-rule="nonzero" fill="rgb(75%, 75%, 75%)" fill-opacity="1" d="M 48.121094 18.625 C 50.554688 18.199219 51.753906 20.046875 54.1875 20.472656 L 54.1875 20.195312 C 51.785156 19.769531 50.527344 18.203125 48.121094 18.625 Z M 48.121094 18.625 "/>
<path fill-rule="nonzero" fill="rgb(75%, 75%, 75%)" fill-opacity="1" d="M 43.707031 18.625 C 41.273438 18.199219 40.070312 20.046875 37.640625 20.472656 L 37.640625 20.195312 C 40.042969 19.769531 41.300781 18.203125 43.707031 18.625 Z M 43.707031 18.625 "/>
<path fill-rule="nonzero" fill="rgb(75%, 75%, 75%)" fill-opacity="1" d="M 48.019531 18.25 C 50.34375 17.402344 51.992188 18.171875 54.316406 19.015625 L 54.316406 18.734375 C 52 17.894531 50.335938 17.40625 48.019531 18.25 Z M 48.019531 18.25 "/>
<path fill-rule="nonzero" fill="rgb(75%, 75%, 75%)" fill-opacity="1" d="M 43.808594 18.25 C 41.480469 17.402344 39.835938 18.171875 37.511719 19.015625 L 37.511719 18.734375 C 39.828125 17.894531 41.492188 17.40625 43.808594 18.25 Z M 43.808594 18.25 "/>
<path fill-rule="nonzero" fill="rgb(75%, 75%, 75%)" fill-opacity="1" d="M 47.792969 17.796875 C 49.871094 16.445312 52.023438 15.777344 54.101562 17.125 L 54.101562 16.847656 C 52.011719 15.492188 49.878906 16.441406 47.792969 17.796875 Z M 47.792969 17.796875 "/>
<path fill-rule="nonzero" fill="rgb(75%, 75%, 75%)" fill-opacity="1" d="M 44.035156 17.796875 C 41.957031 16.445312 39.804688 15.777344 37.726562 17.125 L 37.726562 16.847656 C 39.8125 15.492188 41.945312 16.441406 44.035156 17.796875 Z M 44.035156 17.796875 "/>
<path fill-rule="nonzero" fill="rgb(14.99939%, 14.99939%, 14.99939%)" fill-opacity="1" d="M 43.8125 54.867188 C 43.8125 52.085938 41.558594 49.828125 38.773438 49.828125 C 35.992188 49.828125 33.738281 52.085938 33.738281 54.867188 C 33.738281 57.648438 35.992188 59.90625 38.773438 59.90625 C 41.558594 59.90625 43.8125 57.648438 43.8125 54.867188 Z M 43.8125 54.867188 "/>
<path fill-rule="nonzero" fill="rgb(14.99939%, 14.99939%, 14.99939%)" fill-opacity="1" d="M 58.089844 54.867188 C 58.089844 52.085938 55.835938 49.828125 53.050781 49.828125 C 50.269531 49.828125 48.011719 52.085938 48.011719 54.867188 C 48.011719 57.648438 50.269531 59.90625 53.050781 59.90625 C 55.835938 59.90625 58.089844 57.648438 58.089844 54.867188 Z M 58.089844 54.867188 "/>
</svg>
