<?xml version="1.0" encoding="UTF-8" standalone="no"?>
<svg
   width="62.079"
   height="60.094"
   viewBox="0 0 62.079 60.094"
   version="1.1"
   id="svg20"
   sodipodi:docname="cat.svg"
   xmlns:inkscape="http://www.inkscape.org/namespaces/inkscape"
   xmlns:sodipodi="http://sodipodi.sourceforge.net/DTD/sodipodi-0.dtd"
   xmlns="http://www.w3.org/2000/svg"
   xmlns:svg="http://www.w3.org/2000/svg">
  <sodipodi:namedview
     id="namedview20"
     pagecolor="#ffffff"
     bordercolor="#666666"
     borderopacity="1.0"
     inkscape:showpageshadow="2"
     inkscape:pageopacity="0.0"
     inkscape:pagecheckerboard="0"
     inkscape:deskcolor="#d1d1d1" />
  <defs
     id="defs1">
    <clipPath
       id="clip-0">
      <path
         clip-rule="nonzero"
         d="M 0.0078125 15 L 31 15 L 31 58 L 0.0078125 58 Z M 0.0078125 15 "
         id="path1" />
    </clipPath>
  </defs>
  <path
     id="path2"
     d="M 5.5664062 0.45507812 C 5.4039002 0.45504 5.3125 0.4887695 5.3125 0.55859375 C 5.3125 0.55859375 4.9596636 5.8576357 6.4726562 8.0253906 C 4.5371051 10.196639 3.359375 13.057574 3.359375 16.195312 C 3.359375 18.467364 3.9795267 20.593748 5.0546875 22.419922 C 2.0741606 27.308307 0.25842251 34.260577 0.390625 42.011719 C 0.390625 48.402077 1.5260479 52.108991 3.5390625 54.263672 C 3.8569852 56.735066 5.9690292 58.644531 8.5234375 58.644531 C 9.9051294 58.644531 11.15589 58.087165 12.064453 57.185547 C 13.198186 57.235756 14.390431 57.246094 15.644531 57.246094 C 16.900091 57.246094 18.093613 57.235916 19.228516 57.185547 C 20.136588 58.087165 21.385876 58.644531 22.765625 58.644531 C 25.323631 58.644531 27.432578 56.735066 27.75 54.263672 C 28.418504 53.548121 28.98993 52.660537 29.455078 51.560547 L 29.609375 51.660156 C 39.660156 45.238281 41.335938 5.3046885 59.210938 24.851562 C 64.792969 24.574219 52.507812 12.566406 44.96875 15.917969 C 39.023632 18.703444 34.808215 27.414315 30.597656 35.980469 C 29.97339 30.685503 28.419697 26.000321 26.238281 22.421875 C 27.314119 20.595376 27.933594 18.467969 27.933594 16.195312 C 27.933594 13.056584 26.755388 10.194934 24.818359 8.0234375 C 26.329581 5.8543009 25.976562 0.55859375 25.976562 0.55859375 C 25.976562 0.034452505 20.813664 1.5150293 19.253906 4.4492188 C 18.112418 4.0991543 16.901023 3.9101562 15.644531 3.9101562 C 14.388711 3.9101562 13.176205 4.0991269 12.035156 4.4492188 C 10.683183 1.9059117 6.623765 0.45532618 5.5664062 0.45507812 z " />
  <g
     clip-path="url(#clip-0)"
     id="g3" />
</svg>
