<?xml version="1.0" encoding="UTF-8" standalone="no"?>
<svg
   width="54.426"
   height="64.347"
   viewBox="0 0 54.426 64.347"
   version="1.1"
   id="svg32"
   sodipodi:docname="chicken.svg"
   xmlns:inkscape="http://www.inkscape.org/namespaces/inkscape"
   xmlns:sodipodi="http://sodipodi.sourceforge.net/DTD/sodipodi-0.dtd"
   xmlns="http://www.w3.org/2000/svg"
   xmlns:svg="http://www.w3.org/2000/svg">
  <sodipodi:namedview
     id="namedview32"
     pagecolor="#ffffff"
     bordercolor="#666666"
     borderopacity="1.0"
     inkscape:showpageshadow="2"
     inkscape:pageopacity="0.0"
     inkscape:pagecheckerboard="0"
     inkscape:deskcolor="#d1d1d1" />
  <defs
     id="defs4">
    <clipPath
       id="clip-0">
      <path
         clip-rule="nonzero"
         d="M 37 29 L 53.859375 29 L 53.859375 37 L 37 37 Z M 37 29 "
         id="path1" />
    </clipPath>
    <clipPath
       id="clip-1">
      <path
         clip-rule="nonzero"
         d="M 25 0.0117188 L 31 0.0117188 L 31 12 L 25 12 Z M 25 0.0117188 "
         id="path2" />
    </clipPath>
    <clipPath
       id="clip-2">
      <path
         clip-rule="nonzero"
         d="M 30 57 L 33 57 L 33 63.6875 L 30 63.6875 Z M 30 57 "
         id="path3" />
    </clipPath>
    <clipPath
       id="clip-3">
      <path
         clip-rule="nonzero"
         d="M 21 57 L 23 57 L 23 63.6875 L 21 63.6875 Z M 21 57 "
         id="path4" />
    </clipPath>
  </defs>
  <path
     id="path5"
     d="M 29.988281 0.29882812 C 29.268851 0.30492172 28.157138 1.7272817 27.181641 3.8222656 C 26.84468 2.9315505 26.398476 2.3824173 25.921875 2.3984375 C 25.240822 2.4241914 24.695234 3.5926608 24.488281 5.2480469 C 23.726385 4.5455865 22.991159 4.2337173 22.523438 4.5039062 C 21.779206 4.9338264 21.97387 6.6831557 22.927734 8.5351562 C 22.678684 8.7119577 22.439446 8.9026904 22.212891 9.1113281 C 20.993823 10.233982 20.09029 11.795013 19.386719 13.546875 C 18.984678 14.547939 18.647951 15.611485 18.355469 16.691406 C 17.33178 20.471132 16.8479 24.452148 15.988281 26.660156 C 15.524611 27.690854 15.089102 28.606096 14.671875 29.482422 C 13.049551 29.380495 10.48842 29.799306 7.7226562 30.699219 C 3.3007812 32.132812 0.02734405 34.253906 0.41015625 35.433594 C 0.69618057 36.315014 2.9441652 36.419524 5.90625 35.818359 C 3.455432 38.453455 2.1134906 40.897071 2.8203125 41.65625 C 3.4981184 42.380908 5.8358381 41.351112 8.4824219 39.289062 C 6.850627 43.111544 6.347048 46.426559 7.3828125 46.910156 C 8.2352037 47.306755 9.8763102 45.684669 11.476562 43.044922 C 11.425397 48.228795 11.75274 53.792447 19.449219 55.849609 C 19.388851 56.196395 19.355469 56.569151 19.355469 56.957031 C 19.355469 57.33619 19.387517 57.699204 19.445312 58.039062 C 19.158845 58.29187 18.860392 58.595586 18.570312 58.941406 C 17.574219 60.125 17.054688 61.332031 17.410156 61.628906 C 17.746067 61.910049 18.724402 61.29781 19.664062 60.25 C 19.287905 61.496943 19.27265 62.537547 19.65625 62.675781 C 20.038621 62.815757 20.686035 62.030204 21.195312 60.857422 C 21.269843 62.149801 21.609518 63.128906 22.019531 63.128906 C 22.484375 63.128906 22.863281 61.871094 22.863281 60.324219 C 22.863281 59.50836 22.758882 58.774912 22.591797 58.261719 C 22.676218 57.860823 22.722656 57.419612 22.722656 56.957031 C 22.722656 56.785374 22.715521 56.615927 22.703125 56.451172 C 23.96608 56.596839 25.368769 56.675781 26.929688 56.675781 C 28.490989 56.675781 29.893124 56.596974 31.15625 56.451172 C 31.143854 56.615927 31.136719 56.785374 31.136719 56.957031 C 31.136719 57.419612 31.183157 57.860823 31.267578 58.261719 C 31.100493 58.774912 30.996094 59.50836 30.996094 60.324219 C 30.996094 61.871094 31.375 63.128906 31.839844 63.128906 C 32.249042 63.128906 32.588625 62.153791 32.664062 60.865234 C 33.174629 62.033516 33.817732 62.815433 34.199219 62.675781 C 34.586274 62.537547 34.571424 61.496943 34.195312 60.25 C 35.132201 61.297781 36.113059 61.910045 36.445312 61.628906 C 36.800781 61.332031 36.285156 60.125 35.289062 58.941406 C 34.99911 58.595737 34.700416 58.291806 34.414062 58.039062 C 34.471859 57.699204 34.503906 57.33619 34.503906 56.957031 C 34.503906 56.568444 34.470735 56.19498 34.410156 55.847656 C 42.102606 53.790012 42.4301 48.228293 42.378906 43.044922 C 43.980265 45.684729 45.62416 47.30676 46.476562 46.910156 C 47.512328 46.426559 47.008748 43.111544 45.376953 39.289062 C 48.023412 41.351112 50.360474 42.380908 51.035156 41.65625 C 51.74525 40.897071 50.4042 38.453455 47.951172 35.818359 C 50.911584 36.419504 53.159292 36.315005 53.445312 35.433594 C 53.828125 34.253906 50.554688 32.132812 46.136719 30.699219 C 43.369644 29.799675 40.808317 29.380962 39.185547 29.482422 C 38.768001 28.605981 38.331646 27.691011 37.867188 26.660156 C 37.009277 24.452148 36.527054 20.471132 35.503906 16.691406 C 35.211578 15.611485 34.874603 14.547939 34.472656 13.546875 C 33.769249 11.795013 32.865511 10.233982 31.646484 9.1113281 C 30.956439 8.4758353 30.164669 7.9819446 29.251953 7.671875 C 29.382861 7.3586399 29.511006 7.0371768 29.632812 6.703125 C 30.796875 3.5 31.035156 0.648438 30.160156 0.328125 C 30.105713 0.30834961 30.048519 0.29831791 29.988281 0.29882812 z " />
  <g
     clip-path="url(#clip-0)"
     id="g7" />
  <g
     clip-path="url(#clip-1)"
     id="g13" />
  <g
     clip-path="url(#clip-2)"
     id="g25" />
  <g
     clip-path="url(#clip-3)"
     id="g28" />
</svg>
