<?xml version="1.0" encoding="UTF-8"?>
<svg xmlns="http://www.w3.org/2000/svg" xmlns:xlink="http://www.w3.org/1999/xlink" width="92.41" height="64.347" viewBox="0 0 92.41 64.347">
<defs>
<clipPath id="clip-0">
<path clip-rule="nonzero" d="M 49 57 L 52 57 L 52 63.699219 L 49 63.699219 Z M 49 57 "/>
</clipPath>
<clipPath id="clip-1">
<path clip-rule="nonzero" d="M 40 57 L 42 57 L 42 63.699219 L 40 63.699219 Z M 40 57 "/>
</clipPath>
</defs>
<path fill-rule="nonzero" fill="rgb(75%, 75%, 75%)" fill-opacity="1" d="M 53.488281 56.964844 C 53.488281 55.105469 52.734375 53.597656 51.804688 53.597656 C 50.875 53.597656 50.121094 55.105469 50.121094 56.964844 C 50.121094 58.824219 50.875 60.332031 51.804688 60.332031 C 52.734375 60.332031 53.488281 58.824219 53.488281 56.964844 Z M 53.488281 56.964844 "/>
<path fill-rule="nonzero" fill="rgb(75%, 75%, 75%)" fill-opacity="1" d="M 41.703125 56.964844 C 41.703125 55.105469 40.949219 53.597656 40.019531 53.597656 C 39.089844 53.597656 38.335938 55.105469 38.335938 56.964844 C 38.335938 58.824219 39.089844 60.332031 40.019531 60.332031 C 40.949219 60.332031 41.703125 58.824219 41.703125 56.964844 Z M 41.703125 56.964844 "/>
<path fill-rule="nonzero" fill="rgb(93.699646%, 72.839355%, 19.448853%)" fill-opacity="1" d="M 65.464844 46.917969 C 66.589844 46.394531 65.90625 42.550781 63.941406 38.339844 C 61.976562 34.125 59.472656 31.132812 58.351562 31.65625 C 57.226562 32.179688 57.910156 36.023438 59.875 40.234375 C 61.839844 44.449219 64.34375 47.441406 65.464844 46.917969 Z M 65.464844 46.917969 "/>
<path fill-rule="nonzero" fill="rgb(93.699646%, 72.839355%, 19.448853%)" fill-opacity="1" d="M 70.03125 41.660156 C 70.875 40.753906 68.804688 37.449219 65.402344 34.277344 C 62.003906 31.105469 58.5625 29.269531 57.714844 30.175781 C 56.871094 31.085938 58.941406 34.390625 62.339844 37.5625 C 65.742188 40.730469 69.183594 42.566406 70.03125 41.660156 Z M 70.03125 41.660156 "/>
<path fill-rule="nonzero" fill="rgb(93.699646%, 72.839355%, 19.448853%)" fill-opacity="1" d="M 72.441406 35.433594 C 72.824219 34.253906 69.550781 32.132812 65.128906 30.699219 C 60.707031 29.261719 56.808594 29.050781 56.425781 30.230469 C 56.042969 31.410156 59.316406 33.53125 63.742188 34.96875 C 68.164062 36.40625 72.058594 36.613281 72.441406 35.433594 Z M 72.441406 35.433594 "/>
<path fill-rule="nonzero" fill="rgb(93.699646%, 72.839355%, 19.448853%)" fill-opacity="1" d="M 33.476562 31.65625 C 32.351562 31.132812 29.847656 34.125 27.882812 38.339844 C 25.917969 42.550781 25.234375 46.394531 26.359375 46.917969 C 27.484375 47.441406 29.988281 44.449219 31.953125 40.234375 C 33.917969 36.023438 34.597656 32.179688 33.476562 31.65625 Z M 33.476562 31.65625 "/>
<path fill-rule="nonzero" fill="rgb(93.699646%, 72.839355%, 19.448853%)" fill-opacity="1" d="M 34.109375 30.175781 C 33.265625 29.269531 29.824219 31.105469 26.421875 34.277344 C 23.023438 37.449219 20.949219 40.753906 21.796875 41.660156 C 22.640625 42.566406 26.082031 40.730469 29.484375 37.5625 C 32.886719 34.390625 34.957031 31.085938 34.109375 30.175781 Z M 34.109375 30.175781 "/>
<path fill-rule="nonzero" fill="rgb(93.699646%, 72.839355%, 19.448853%)" fill-opacity="1" d="M 35.398438 30.230469 C 35.015625 29.050781 31.121094 29.261719 26.699219 30.699219 C 22.277344 32.132812 19.003906 34.253906 19.386719 35.433594 C 19.769531 36.613281 23.664062 36.40625 28.085938 34.96875 C 32.507812 33.53125 35.78125 31.410156 35.398438 30.230469 Z M 35.398438 30.230469 "/>
<path fill-rule="nonzero" fill="rgb(93.699646%, 85.998535%, 66.299438%)" fill-opacity="1" d="M 45.914062 56.683594 C 29.074219 56.683594 30.480469 47.707031 30.480469 40.691406 C 30.480469 35.078125 32.441406 32.269531 34.96875 26.660156 C 36.933594 21.609375 36.933594 7.296875 45.914062 7.296875 C 54.894531 7.296875 54.894531 21.609375 56.855469 26.660156 C 59.382812 32.269531 61.347656 35.078125 61.347656 40.691406 C 61.347656 47.707031 62.75 56.683594 45.914062 56.683594 Z M 45.914062 56.683594 "/>
<path fill-rule="nonzero" fill="rgb(93.699646%, 72.839355%, 19.448853%)" fill-opacity="1" d="M 34.96875 26.660156 C 36.933594 21.609375 36.933594 7.296875 45.914062 7.296875 C 54.894531 7.296875 54.894531 21.609375 56.855469 26.660156 C 56.207031 27.035156 56.621094 28.503906 55.96875 28.878906 C 55.476562 29.109375 54.746094 28.65625 53.980469 28.175781 C 53.214844 27.695312 52.484375 27.242188 51.992188 27.472656 C 51.472656 27.632812 51.234375 28.457031 50.988281 29.328125 C 50.738281 30.195312 50.503906 31.023438 49.980469 31.179688 C 49.445312 31.265625 48.867188 30.628906 48.265625 29.957031 C 47.660156 29.285156 47.082031 28.648438 46.546875 28.734375 C 46 28.742188 45.546875 29.472656 45.070312 30.242188 C 44.59375 31.007812 44.140625 31.738281 43.59375 31.746094 C 43.054688 31.683594 42.675781 30.910156 42.277344 30.097656 C 41.882812 29.289062 41.503906 28.515625 40.964844 28.449219 C 40.4375 28.308594 39.796875 28.886719 39.128906 29.492188 C 38.460938 30.101562 37.824219 30.679688 37.296875 30.539062 C 36.398438 28.929688 36.625 27.421875 35.933594 27.128906 L 35.25 26.660156 Z M 34.96875 26.660156 "/>
<path fill-rule="nonzero" fill="rgb(100%, 0%, 0%)" fill-opacity="1" d="M 49.148438 0.316406 C 48.273438 0 46.621094 2.335938 45.453125 5.542969 C 44.285156 8.746094 44.050781 11.601562 44.921875 11.917969 C 45.796875 12.238281 47.453125 9.898438 48.617188 6.691406 C 49.785156 3.488281 50.019531 0.632812 49.148438 0.316406 Z M 49.148438 0.316406 "/>
<path fill-rule="nonzero" fill="rgb(100%, 0%, 0%)" fill-opacity="1" d="M 44.90625 2.386719 C 43.976562 2.421875 43.296875 4.582031 43.386719 7.214844 C 43.480469 9.847656 44.308594 11.957031 45.238281 11.921875 C 46.167969 11.890625 46.84375 9.730469 46.753906 7.097656 C 46.660156 4.464844 45.832031 2.355469 44.90625 2.386719 Z M 44.90625 2.386719 "/>
<path fill-rule="nonzero" fill="rgb(100%, 0%, 0%)" fill-opacity="1" d="M 41.507812 4.492188 C 40.703125 4.957031 40.992188 6.964844 42.152344 8.980469 C 43.316406 10.992188 44.910156 12.25 45.714844 11.785156 C 46.523438 11.316406 46.230469 9.308594 45.070312 7.296875 C 43.90625 5.28125 42.3125 4.027344 41.507812 4.492188 Z M 41.507812 4.492188 "/>
<path fill-rule="nonzero" fill="rgb(94.999695%, 94.999695%, 94.999695%)" fill-opacity="1" d="M 51.386719 15.433594 C 51.386719 14.347656 50.632812 13.46875 49.699219 13.46875 C 48.769531 13.46875 48.015625 14.347656 48.015625 15.433594 C 48.015625 16.519531 48.769531 17.398438 49.699219 17.398438 C 50.632812 17.398438 51.386719 16.519531 51.386719 15.433594 Z M 51.386719 15.433594 "/>
<path fill-rule="nonzero" fill="rgb(94.999695%, 94.999695%, 94.999695%)" fill-opacity="1" d="M 43.808594 15.433594 C 43.808594 14.347656 43.054688 13.46875 42.125 13.46875 C 41.195312 13.46875 40.441406 14.347656 40.441406 15.433594 C 40.441406 16.519531 41.195312 17.398438 42.125 17.398438 C 43.054688 17.398438 43.808594 16.519531 43.808594 15.433594 Z M 43.808594 15.433594 "/>
<path fill-rule="nonzero" fill="rgb(22.499084%, 14.99939%, 7.499695%)" fill-opacity="1" d="M 49.871094 15.996094 C 49.871094 15.578125 49.65625 15.238281 49.390625 15.238281 C 49.128906 15.238281 48.914062 15.578125 48.914062 15.996094 C 48.914062 16.414062 49.128906 16.753906 49.390625 16.753906 C 49.65625 16.753906 49.871094 16.414062 49.871094 15.996094 Z M 49.871094 15.996094 "/>
<path fill-rule="nonzero" fill="rgb(22.499084%, 14.99939%, 7.499695%)" fill-opacity="1" d="M 42.910156 15.996094 C 42.910156 15.578125 42.695312 15.238281 42.433594 15.238281 C 42.171875 15.238281 41.957031 15.578125 41.957031 15.996094 C 41.957031 16.414062 42.171875 16.753906 42.433594 16.753906 C 42.695312 16.753906 42.910156 16.414062 42.910156 15.996094 Z M 42.910156 15.996094 "/>
<path fill-rule="nonzero" fill="rgb(100%, 0%, 0%)" fill-opacity="1" d="M 45.84375 22.273438 C 46.269531 21.105469 46.140625 19.992188 45.558594 19.777344 C 44.976562 19.566406 44.160156 20.339844 43.734375 21.503906 C 43.3125 22.667969 43.441406 23.785156 44.023438 23.996094 C 44.605469 24.210938 45.421875 23.4375 45.84375 22.273438 Z M 45.84375 22.273438 "/>
<path fill-rule="nonzero" fill="rgb(100%, 0%, 0%)" fill-opacity="1" d="M 48.089844 21.503906 C 47.664062 20.339844 46.851562 19.566406 46.265625 19.777344 C 45.683594 19.992188 45.554688 21.105469 45.980469 22.273438 C 46.40625 23.4375 47.21875 24.210938 47.804688 23.996094 C 48.386719 23.785156 48.515625 22.667969 48.089844 21.503906 Z M 48.089844 21.503906 "/>
<path fill-rule="nonzero" fill="rgb(100%, 94.898987%, 0%)" fill-opacity="1" d="M 43.386719 18.242188 L 45.914062 21.609375 L 48.4375 18.242188 C 46.976562 17.015625 44.847656 17.015625 43.386719 18.242188 Z M 43.386719 18.242188 "/>
<path fill-rule="nonzero" fill="rgb(100%, 54.998779%, 0%)" fill-opacity="1" d="M 52.085938 57.527344 C 52.085938 55.976562 51.710938 54.722656 51.246094 54.722656 C 50.78125 54.722656 50.402344 55.976562 50.402344 57.527344 C 50.402344 59.078125 50.78125 60.332031 51.246094 60.332031 C 51.710938 60.332031 52.085938 59.078125 52.085938 57.527344 Z M 52.085938 57.527344 "/>
<path fill-rule="nonzero" fill="rgb(100%, 54.998779%, 0%)" fill-opacity="1" d="M 41.421875 57.527344 C 41.421875 55.976562 41.046875 54.722656 40.582031 54.722656 C 40.117188 54.722656 39.738281 55.976562 39.738281 57.527344 C 39.738281 59.078125 40.117188 60.332031 40.582031 60.332031 C 41.046875 60.332031 41.421875 59.078125 41.421875 57.527344 Z M 41.421875 57.527344 "/>
<g clip-path="url(#clip-0)">
<path fill-rule="nonzero" fill="rgb(100%, 54.998779%, 0%)" fill-opacity="1" d="M 51.664062 60.332031 C 51.664062 58.785156 51.289062 57.527344 50.824219 57.527344 C 50.359375 57.527344 49.980469 58.785156 49.980469 60.332031 C 49.980469 61.882812 50.359375 63.140625 50.824219 63.140625 C 51.289062 63.140625 51.664062 61.882812 51.664062 60.332031 Z M 51.664062 60.332031 "/>
</g>
<path fill-rule="nonzero" fill="rgb(100%, 54.998779%, 0%)" fill-opacity="1" d="M 53.019531 59.765625 C 52.488281 58.308594 51.703125 57.257812 51.265625 57.414062 C 50.832031 57.574219 50.90625 58.882812 51.4375 60.339844 C 51.964844 61.796875 52.75 62.847656 53.1875 62.691406 C 53.625 62.53125 53.546875 61.222656 53.019531 59.765625 Z M 53.019531 59.765625 "/>
<path fill-rule="nonzero" fill="rgb(100%, 54.998779%, 0%)" fill-opacity="1" d="M 54.273438 58.949219 C 53.277344 57.761719 52.183594 57.042969 51.824219 57.34375 C 51.46875 57.640625 51.988281 58.84375 52.984375 60.03125 C 53.980469 61.21875 55.078125 61.941406 55.433594 61.640625 C 55.789062 61.34375 55.269531 60.136719 54.273438 58.949219 Z M 54.273438 58.949219 "/>
<g clip-path="url(#clip-1)">
<path fill-rule="nonzero" fill="rgb(100%, 54.998779%, 0%)" fill-opacity="1" d="M 41.84375 60.332031 C 41.84375 58.785156 41.46875 57.527344 41.003906 57.527344 C 40.535156 57.527344 40.160156 58.785156 40.160156 60.332031 C 40.160156 61.882812 40.535156 63.140625 41.003906 63.140625 C 41.46875 63.140625 41.84375 61.882812 41.84375 60.332031 Z M 41.84375 60.332031 "/>
</g>
<path fill-rule="nonzero" fill="rgb(100%, 54.998779%, 0%)" fill-opacity="1" d="M 40.390625 60.339844 C 40.921875 58.882812 40.996094 57.574219 40.558594 57.414062 C 40.121094 57.257812 39.339844 58.308594 38.808594 59.765625 C 38.277344 61.222656 38.203125 62.53125 38.640625 62.691406 C 39.074219 62.847656 39.859375 61.796875 40.390625 60.339844 Z M 40.390625 60.339844 "/>
<path fill-rule="nonzero" fill="rgb(100%, 54.998779%, 0%)" fill-opacity="1" d="M 38.839844 60.03125 C 39.835938 58.84375 40.355469 57.640625 40 57.34375 C 39.644531 57.042969 38.546875 57.761719 37.550781 58.949219 C 36.554688 60.136719 36.035156 61.34375 36.390625 61.640625 C 36.75 61.941406 37.84375 61.21875 38.839844 60.03125 Z M 38.839844 60.03125 "/>
</svg>
