<?xml version="1.0" encoding="UTF-8"?>
<svg xmlns="http://www.w3.org/2000/svg" xmlns:xlink="http://www.w3.org/1999/xlink" width="96.12" height="62.362" viewBox="0 0 96.12 62.362">
<defs>
<clipPath id="clip-0">
<path clip-rule="nonzero" d="M 32 56 L 46 56 L 46 61.730469 L 32 61.730469 Z M 32 56 "/>
</clipPath>
<clipPath id="clip-1">
<path clip-rule="nonzero" d="M 46 56 L 60 56 L 60 61.730469 L 46 61.730469 Z M 46 56 "/>
</clipPath>
</defs>
<g clip-path="url(#clip-0)">
<path fill-rule="nonzero" fill="rgb(61.001587%, 51.095581%, 38.735962%)" fill-opacity="1" d="M 45.085938 58.925781 C 45.085938 57.53125 42.195312 56.398438 38.632812 56.398438 C 35.070312 56.398438 32.179688 57.53125 32.179688 58.925781 C 32.179688 60.320312 35.070312 61.449219 38.632812 61.449219 C 42.195312 61.449219 45.085938 60.320312 45.085938 58.925781 Z M 45.085938 58.925781 "/>
</g>
<g clip-path="url(#clip-1)">
<path fill-rule="nonzero" fill="rgb(61.001587%, 51.095581%, 38.735962%)" fill-opacity="1" d="M 59.398438 58.925781 C 59.398438 57.53125 56.507812 56.398438 52.945312 56.398438 C 49.378906 56.398438 46.488281 57.53125 46.488281 58.925781 C 46.488281 60.320312 49.378906 61.449219 52.945312 61.449219 C 56.507812 61.449219 59.398438 60.320312 59.398438 58.925781 Z M 59.398438 58.925781 "/>
</g>
<path fill-rule="nonzero" fill="rgb(38.249207%, 32.18689%, 24.624634%)" fill-opacity="1" d="M 53.769531 48.835938 C 63.695312 41.175781 66.277344 22.058594 75.261719 17.847656 C 82.84375 14.476562 95.199219 26.550781 89.585938 26.832031 C 71.613281 7.175781 70.039062 47.007812 59.820312 53.785156 C 54.804688 57.113281 40.839844 61.402344 41.835938 55.429688 C 42.753906 49.972656 47.214844 53.898438 53.769531 48.835938 Z M 53.769531 48.835938 "/>
<path fill-rule="nonzero" fill="rgb(79.159546%, 70.475769%, 59.762573%)" fill-opacity="1" d="M 87.316406 20.933594 L 85.460938 23.144531 C 86.164062 23.617188 86.894531 24.199219 87.652344 24.898438 L 89.382812 22.835938 C 88.8125 22.203125 88.113281 21.554688 87.316406 20.933594 Z M 87.316406 20.933594 "/>
<path fill-rule="nonzero" fill="rgb(79.159546%, 70.475769%, 59.762573%)" fill-opacity="1" d="M 79.925781 17.414062 L 79.800781 21.523438 C 80.671875 21.367188 81.605469 21.425781 82.601562 21.722656 L 82.710938 18.234375 C 81.792969 17.863281 80.855469 17.574219 79.925781 17.414062 Z M 79.925781 17.414062 "/>
<path fill-rule="nonzero" fill="rgb(79.159546%, 70.475769%, 59.762573%)" fill-opacity="1" d="M 74.109375 18.503906 C 73.347656 19 72.628906 19.601562 71.953125 20.300781 L 75.378906 24.421875 C 76.027344 23.648438 76.710938 23.003906 77.441406 22.515625 Z M 74.109375 18.503906 "/>
<path fill-rule="nonzero" fill="rgb(79.159546%, 70.475769%, 59.762573%)" fill-opacity="1" d="M 69.152344 23.945312 C 68.667969 24.710938 68.203125 25.53125 67.738281 26.371094 L 72.4375 29.082031 C 72.878906 28.210938 73.335938 27.398438 73.8125 26.636719 Z M 69.152344 23.945312 "/>
<path fill-rule="nonzero" fill="rgb(79.159546%, 70.475769%, 59.762573%)" fill-opacity="1" d="M 66.140625 29.441406 C 65.730469 30.265625 65.320312 31.113281 64.90625 31.96875 L 69.890625 34.84375 C 70.246094 33.960938 70.605469 33.074219 70.972656 32.230469 Z M 66.140625 29.441406 "/>
<path fill-rule="nonzero" fill="rgb(79.159546%, 70.475769%, 59.762573%)" fill-opacity="1" d="M 62.546875 36.808594 C 62.121094 37.648438 61.683594 38.476562 61.234375 39.292969 L 66.835938 42.523438 C 67.1875 41.65625 67.546875 40.789062 67.894531 39.898438 Z M 62.546875 36.808594 "/>
<path fill-rule="nonzero" fill="rgb(79.159546%, 70.475769%, 59.762573%)" fill-opacity="1" d="M 58.808594 43.285156 C 58.269531 44.074219 57.707031 44.832031 57.117188 45.546875 L 63.625 49.308594 C 64.082031 48.535156 64.519531 47.710938 64.949219 46.828125 Z M 58.808594 43.285156 "/>
<path fill-rule="nonzero" fill="rgb(79.159546%, 70.475769%, 59.762573%)" fill-opacity="1" d="M 53.871094 48.757812 C 53.839844 48.78125 53.804688 48.8125 53.769531 48.835938 C 52.984375 49.445312 52.226562 49.917969 51.5 50.300781 L 56.121094 55.722656 C 57.074219 55.3125 57.957031 54.878906 58.722656 54.449219 Z M 53.871094 48.757812 "/>
<path fill-rule="nonzero" fill="rgb(79.159546%, 70.475769%, 59.762573%)" fill-opacity="1" d="M 48.09375 51.550781 C 47.058594 51.789062 46.132812 51.90625 45.328125 52.050781 L 46.882812 58.332031 C 47.753906 58.246094 48.6875 58.082031 49.65625 57.863281 Z M 48.09375 51.550781 "/>
<path fill-rule="nonzero" fill="rgb(61.001587%, 51.095581%, 38.735962%)" fill-opacity="1" d="M 32.28125 25.402344 C 30.386719 24.714844 27.050781 29.113281 24.824219 35.230469 C 22.597656 41.34375 22.328125 46.863281 24.21875 47.550781 C 26.113281 48.242188 29.453125 43.839844 31.679688 37.726562 C 33.90625 31.609375 34.175781 26.089844 32.28125 25.402344 Z M 32.28125 25.402344 "/>
<path fill-rule="nonzero" fill="rgb(61.001587%, 51.095581%, 38.735962%)" fill-opacity="1" d="M 67.355469 47.550781 C 69.25 46.863281 68.980469 41.34375 66.753906 35.230469 C 64.527344 29.113281 61.1875 24.714844 59.292969 25.402344 C 57.402344 26.089844 57.671875 31.609375 59.898438 37.726562 C 62.125 43.839844 65.464844 48.242188 67.355469 47.550781 Z M 67.355469 47.550781 "/>
<path fill-rule="nonzero" fill="rgb(38.249207%, 32.18689%, 24.624634%)" fill-opacity="1" d="M 62.484375 38.722656 C 62.484375 57.242188 55.75 59.484375 45.789062 59.484375 C 35.828125 59.484375 29.09375 57.242188 29.09375 38.722656 C 28.8125 20.203125 36.386719 5.332031 45.789062 5.332031 C 55.1875 5.332031 62.765625 20.203125 62.484375 38.722656 Z M 62.484375 38.722656 "/>
<path fill-rule="nonzero" fill="rgb(79.159546%, 70.475769%, 59.762573%)" fill-opacity="1" d="M 59.816406 14.027344 C 59.816406 20.203125 51.398438 29.460938 45.789062 31.988281 C 40.175781 29.460938 31.757812 20.203125 31.757812 14.027344 C 36.246094 0 55.328125 0 59.816406 14.027344 Z M 59.816406 14.027344 "/>
<path fill-rule="nonzero" fill="rgb(61.001587%, 51.095581%, 38.735962%)" fill-opacity="1" d="M 31.941406 15.59375 C 31.941406 15.59375 40.410156 14.597656 41.941406 15.902344 C 43.824219 30.863281 43.824219 30.863281 43.824219 30.863281 C 38.519531 27.585938 32.878906 20.582031 31.941406 15.59375 Z M 59.636719 15.59375 C 59.636719 15.59375 51.167969 14.597656 49.636719 15.902344 C 47.753906 30.863281 47.753906 30.863281 47.753906 30.863281 C 53.054688 27.585938 58.695312 20.582031 59.636719 15.59375 Z M 59.636719 15.59375 "/>
<path fill-rule="nonzero" fill="rgb(25.62561%, 23.025513%, 19.779968%)" fill-opacity="1" d="M 48.3125 29.519531 C 48.3125 28.125 47.183594 26.992188 45.789062 26.992188 C 44.394531 26.992188 43.261719 28.125 43.261719 29.519531 C 43.261719 30.914062 44.394531 32.042969 45.789062 32.042969 C 47.183594 32.042969 48.3125 30.914062 48.3125 29.519531 Z M 48.3125 29.519531 "/>
<path fill-rule="nonzero" fill="rgb(25.62561%, 23.025513%, 19.779968%)" fill-opacity="1" d="M 53.644531 19.082031 C 53.644531 18.304688 53.015625 17.675781 52.242188 17.675781 C 51.46875 17.675781 50.839844 18.304688 50.839844 19.082031 C 50.839844 19.855469 51.46875 20.484375 52.242188 20.484375 C 53.015625 20.484375 53.644531 19.855469 53.644531 19.082031 Z M 53.644531 19.082031 "/>
<path fill-rule="nonzero" fill="rgb(25.62561%, 23.025513%, 19.779968%)" fill-opacity="1" d="M 40.738281 19.082031 C 40.738281 18.304688 40.109375 17.675781 39.335938 17.675781 C 38.558594 17.675781 37.929688 18.304688 37.929688 19.082031 C 37.929688 19.855469 38.558594 20.484375 39.335938 20.484375 C 40.109375 20.484375 40.738281 19.855469 40.738281 19.082031 Z M 40.738281 19.082031 "/>
<path fill-rule="nonzero" fill="rgb(79.159546%, 70.475769%, 59.762573%)" fill-opacity="1" d="M 61.5 7.855469 C 61.5 5.996094 59.996094 4.488281 58.132812 4.488281 C 56.273438 4.488281 54.765625 5.996094 54.765625 7.855469 C 54.765625 9.714844 56.273438 11.222656 58.132812 11.222656 C 59.996094 11.222656 61.5 9.714844 61.5 7.855469 Z M 61.5 7.855469 "/>
<path fill-rule="nonzero" fill="rgb(79.159546%, 70.475769%, 59.762573%)" fill-opacity="1" d="M 36.808594 7.855469 C 36.808594 5.996094 35.300781 4.488281 33.441406 4.488281 C 31.582031 4.488281 30.074219 5.996094 30.074219 7.855469 C 30.074219 9.714844 31.582031 11.222656 33.441406 11.222656 C 35.300781 11.222656 36.808594 9.714844 36.808594 7.855469 Z M 36.808594 7.855469 "/>
<path fill-rule="nonzero" fill="rgb(61.001587%, 51.095581%, 38.735962%)" fill-opacity="1" d="M 60.660156 7.855469 C 60.660156 6.460938 59.527344 5.332031 58.132812 5.332031 C 56.738281 5.332031 55.609375 6.460938 55.609375 7.855469 C 55.609375 9.25 56.738281 10.382812 58.132812 10.382812 C 59.527344 10.382812 60.660156 9.25 60.660156 7.855469 Z M 60.660156 7.855469 "/>
<path fill-rule="nonzero" fill="rgb(61.001587%, 51.095581%, 38.735962%)" fill-opacity="1" d="M 35.96875 7.855469 C 35.96875 6.460938 34.835938 5.332031 33.441406 5.332031 C 32.046875 5.332031 30.917969 6.460938 30.917969 7.855469 C 30.917969 9.25 32.046875 10.382812 33.441406 10.382812 C 34.835938 10.382812 35.96875 9.25 35.96875 7.855469 Z M 35.96875 7.855469 "/>
</svg>
