<?xml version="1.0" encoding="UTF-8"?>
<svg xmlns="http://www.w3.org/2000/svg" xmlns:xlink="http://www.w3.org/1999/xlink" width="92.41" height="61.228" viewBox="0 0 92.41 61.228">
<defs>
<clipPath id="clip-0">
<path clip-rule="nonzero" d="M 32 55 L 46 55 L 46 60.464844 L 32 60.464844 Z M 32 55 "/>
</clipPath>
<clipPath id="clip-1">
<path clip-rule="nonzero" d="M 46 55 L 60 55 L 60 60.464844 L 46 60.464844 Z M 46 55 "/>
</clipPath>
<clipPath id="clip-2">
<path clip-rule="nonzero" d="M 41 16 L 91.542969 16 L 91.542969 58 L 41 58 Z M 41 16 "/>
</clipPath>
</defs>
<g clip-path="url(#clip-0)">
<path fill-rule="nonzero" fill="rgb(61.001587%, 51.095581%, 38.735962%)" fill-opacity="1" d="M 45.214844 57.667969 C 45.214844 56.273438 42.332031 55.148438 38.773438 55.148438 C 35.21875 55.148438 32.335938 56.273438 32.335938 57.667969 C 32.335938 59.058594 35.21875 60.1875 38.773438 60.1875 C 42.332031 60.1875 45.214844 59.058594 45.214844 57.667969 Z M 45.214844 57.667969 "/>
</g>
<g clip-path="url(#clip-1)">
<path fill-rule="nonzero" fill="rgb(61.001587%, 51.095581%, 38.735962%)" fill-opacity="1" d="M 59.492188 57.667969 C 59.492188 56.273438 56.609375 55.148438 53.050781 55.148438 C 49.496094 55.148438 46.613281 56.273438 46.613281 57.667969 C 46.613281 59.058594 49.496094 60.1875 53.050781 60.1875 C 56.609375 60.1875 59.492188 59.058594 59.492188 57.667969 Z M 59.492188 57.667969 "/>
</g>
<g clip-path="url(#clip-2)">
<path fill-rule="nonzero" fill="rgb(38.249207%, 32.18689%, 24.624634%)" fill-opacity="1" d="M 53.878906 47.601562 C 63.777344 39.957031 66.355469 20.886719 75.320312 16.6875 C 82.882812 13.324219 95.207031 25.371094 89.605469 25.648438 C 71.675781 6.039062 70.105469 45.777344 59.914062 52.539062 C 54.910156 55.859375 40.976562 60.136719 41.972656 54.179688 C 42.882812 48.734375 47.335938 52.652344 53.878906 47.601562 Z M 53.878906 47.601562 "/>
</g>
<path fill-rule="nonzero" fill="rgb(79.159546%, 70.475769%, 59.762573%)" fill-opacity="1" d="M 87.34375 19.761719 L 85.492188 21.96875 C 86.195312 22.441406 86.921875 23.023438 87.679688 23.71875 L 89.40625 21.660156 C 88.835938 21.03125 88.140625 20.382812 87.34375 19.761719 Z M 87.34375 19.761719 "/>
<path fill-rule="nonzero" fill="rgb(79.159546%, 70.475769%, 59.762573%)" fill-opacity="1" d="M 79.972656 16.253906 L 79.84375 20.355469 C 80.714844 20.195312 81.644531 20.253906 82.640625 20.550781 L 82.746094 17.074219 C 81.835938 16.703125 80.902344 16.414062 79.972656 16.253906 Z M 79.972656 16.253906 "/>
<path fill-rule="nonzero" fill="rgb(79.159546%, 70.475769%, 59.762573%)" fill-opacity="1" d="M 74.167969 17.339844 C 73.40625 17.835938 72.691406 18.4375 72.019531 19.132812 L 75.433594 23.246094 C 76.082031 22.472656 76.765625 21.832031 77.492188 21.339844 Z M 74.167969 17.339844 "/>
<path fill-rule="nonzero" fill="rgb(79.159546%, 70.475769%, 59.762573%)" fill-opacity="1" d="M 69.222656 22.769531 C 68.738281 23.535156 68.273438 24.351562 67.8125 25.1875 L 72.5 27.894531 C 72.941406 27.023438 73.398438 26.210938 73.871094 25.453125 Z M 69.222656 22.769531 "/>
<path fill-rule="nonzero" fill="rgb(79.159546%, 70.475769%, 59.762573%)" fill-opacity="1" d="M 66.21875 28.25 C 65.808594 29.078125 65.398438 29.917969 64.988281 30.773438 L 69.960938 33.640625 C 70.316406 32.761719 70.671875 31.878906 71.039062 31.035156 Z M 66.21875 28.25 "/>
<path fill-rule="nonzero" fill="rgb(79.159546%, 70.475769%, 59.762573%)" fill-opacity="1" d="M 62.632812 35.601562 C 62.210938 36.4375 61.773438 37.265625 61.324219 38.078125 L 66.910156 41.304688 C 67.265625 40.4375 67.621094 39.574219 67.96875 38.683594 Z M 62.632812 35.601562 "/>
<path fill-rule="nonzero" fill="rgb(79.159546%, 70.475769%, 59.762573%)" fill-opacity="1" d="M 58.902344 42.0625 C 58.363281 42.847656 57.804688 43.609375 57.214844 44.320312 L 63.710938 48.074219 C 64.164062 47.300781 64.601562 46.476562 65.027344 45.597656 Z M 58.902344 42.0625 "/>
<path fill-rule="nonzero" fill="rgb(79.159546%, 70.475769%, 59.762573%)" fill-opacity="1" d="M 53.980469 47.523438 C 53.945312 47.546875 53.910156 47.578125 53.878906 47.601562 C 53.089844 48.210938 52.339844 48.679688 51.613281 49.0625 L 56.222656 54.472656 C 57.171875 54.0625 58.054688 53.628906 58.820312 53.203125 Z M 53.980469 47.523438 "/>
<path fill-rule="nonzero" fill="rgb(79.159546%, 70.475769%, 59.762573%)" fill-opacity="1" d="M 48.214844 50.308594 C 47.183594 50.546875 46.257812 50.664062 45.453125 50.808594 L 47.003906 57.074219 C 47.875 56.988281 48.808594 56.828125 49.773438 56.605469 Z M 48.214844 50.308594 "/>
<path fill-rule="nonzero" fill="rgb(61.001587%, 51.095581%, 38.735962%)" fill-opacity="1" d="M 32.4375 24.222656 C 30.550781 23.535156 27.21875 27.925781 24.996094 34.027344 C 22.777344 40.128906 22.507812 45.632812 24.394531 46.320312 C 26.285156 47.007812 29.617188 42.617188 31.835938 36.515625 C 34.058594 30.414062 34.328125 24.910156 32.4375 24.222656 Z M 32.4375 24.222656 "/>
<path fill-rule="nonzero" fill="rgb(61.001587%, 51.095581%, 38.735962%)" fill-opacity="1" d="M 67.429688 46.320312 C 69.320312 45.632812 69.050781 40.128906 66.828125 34.027344 C 64.609375 27.925781 61.277344 23.535156 59.386719 24.222656 C 57.5 24.910156 57.769531 30.414062 59.988281 36.515625 C 62.210938 42.617188 65.542969 47.007812 67.429688 46.320312 Z M 67.429688 46.320312 "/>
<path fill-rule="nonzero" fill="rgb(38.249207%, 32.18689%, 24.624634%)" fill-opacity="1" d="M 62.570312 37.511719 C 62.570312 55.988281 55.851562 58.226562 45.914062 58.226562 C 35.976562 58.226562 29.257812 55.988281 29.257812 37.511719 C 28.976562 19.035156 36.535156 4.199219 45.914062 4.199219 C 55.292969 4.199219 62.851562 19.035156 62.570312 37.511719 Z M 62.570312 37.511719 "/>
<path fill-rule="nonzero" fill="rgb(79.159546%, 70.475769%, 59.762573%)" fill-opacity="1" d="M 59.910156 12.875 C 59.910156 19.035156 51.511719 28.273438 45.914062 30.792969 C 40.316406 28.273438 31.917969 19.035156 31.917969 12.875 C 36.394531 -1.121094 55.429688 -1.121094 59.910156 12.875 Z M 59.910156 12.875 "/>
<path fill-rule="nonzero" fill="rgb(61.001587%, 51.095581%, 38.735962%)" fill-opacity="1" d="M 32.097656 14.4375 C 32.097656 14.4375 40.546875 13.441406 42.074219 14.742188 C 43.953125 29.671875 43.953125 29.671875 43.953125 29.671875 C 38.664062 26.398438 33.035156 19.414062 32.097656 14.4375 Z M 59.730469 14.4375 C 59.730469 14.4375 51.28125 13.441406 49.75 14.742188 C 47.875 29.671875 47.875 29.671875 47.875 29.671875 C 53.164062 26.398438 58.789062 19.414062 59.730469 14.4375 Z M 59.730469 14.4375 "/>
<path fill-rule="nonzero" fill="rgb(25.62561%, 23.025513%, 19.779968%)" fill-opacity="1" d="M 48.433594 28.328125 C 48.433594 26.9375 47.304688 25.808594 45.914062 25.808594 C 44.523438 25.808594 43.394531 26.9375 43.394531 28.328125 C 43.394531 29.71875 44.523438 30.847656 45.914062 30.847656 C 47.304688 30.847656 48.433594 29.71875 48.433594 28.328125 Z M 48.433594 28.328125 "/>
<path fill-rule="nonzero" fill="rgb(25.62561%, 23.025513%, 19.779968%)" fill-opacity="1" d="M 53.75 17.914062 C 53.75 17.140625 53.125 16.515625 52.351562 16.515625 C 51.578125 16.515625 50.953125 17.140625 50.953125 17.914062 C 50.953125 18.6875 51.578125 19.316406 52.351562 19.316406 C 53.125 19.316406 53.75 18.6875 53.75 17.914062 Z M 53.75 17.914062 "/>
<path fill-rule="nonzero" fill="rgb(25.62561%, 23.025513%, 19.779968%)" fill-opacity="1" d="M 40.875 17.914062 C 40.875 17.140625 40.25 16.515625 39.476562 16.515625 C 38.703125 16.515625 38.074219 17.140625 38.074219 17.914062 C 38.074219 18.6875 38.703125 19.316406 39.476562 19.316406 C 40.25 19.316406 40.875 18.6875 40.875 17.914062 Z M 40.875 17.914062 "/>
<path fill-rule="nonzero" fill="rgb(79.159546%, 70.475769%, 59.762573%)" fill-opacity="1" d="M 61.589844 6.71875 C 61.589844 4.863281 60.085938 3.359375 58.230469 3.359375 C 56.375 3.359375 54.871094 4.863281 54.871094 6.71875 C 54.871094 8.574219 56.375 10.078125 58.230469 10.078125 C 60.085938 10.078125 61.589844 8.574219 61.589844 6.71875 Z M 61.589844 6.71875 "/>
<path fill-rule="nonzero" fill="rgb(79.159546%, 70.475769%, 59.762573%)" fill-opacity="1" d="M 36.957031 6.71875 C 36.957031 4.863281 35.453125 3.359375 33.597656 3.359375 C 31.742188 3.359375 30.238281 4.863281 30.238281 6.71875 C 30.238281 8.574219 31.742188 10.078125 33.597656 10.078125 C 35.453125 10.078125 36.957031 8.574219 36.957031 6.71875 Z M 36.957031 6.71875 "/>
<path fill-rule="nonzero" fill="rgb(61.001587%, 51.095581%, 38.735962%)" fill-opacity="1" d="M 60.75 6.71875 C 60.75 5.328125 59.621094 4.199219 58.230469 4.199219 C 56.839844 4.199219 55.710938 5.328125 55.710938 6.71875 C 55.710938 8.109375 56.839844 9.238281 58.230469 9.238281 C 59.621094 9.238281 60.75 8.109375 60.75 6.71875 Z M 60.75 6.71875 "/>
<path fill-rule="nonzero" fill="rgb(61.001587%, 51.095581%, 38.735962%)" fill-opacity="1" d="M 36.117188 6.71875 C 36.117188 5.328125 34.988281 4.199219 33.597656 4.199219 C 32.203125 4.199219 31.078125 5.328125 31.078125 6.71875 C 31.078125 8.109375 32.203125 9.238281 33.597656 9.238281 C 34.988281 9.238281 36.117188 8.109375 36.117188 6.71875 Z M 36.117188 6.71875 "/>
</svg>
