<?xml version="1.0" encoding="UTF-8" standalone="no"?>
<svg
   width="73.726"
   height="62.362"
   viewBox="0 0 73.726 62.362"
   version="1.1"
   id="svg27"
   sodipodi:docname="coati.svg"
   xmlns:inkscape="http://www.inkscape.org/namespaces/inkscape"
   xmlns:sodipodi="http://sodipodi.sourceforge.net/DTD/sodipodi-0.dtd"
   xmlns="http://www.w3.org/2000/svg"
   xmlns:svg="http://www.w3.org/2000/svg">
  <sodipodi:namedview
     id="namedview27"
     pagecolor="#ffffff"
     bordercolor="#666666"
     borderopacity="1.0"
     inkscape:showpageshadow="2"
     inkscape:pageopacity="0.0"
     inkscape:pagecheckerboard="0"
     inkscape:deskcolor="#d1d1d1" />
  <defs
     id="defs3">
    <clipPath
       id="clip-0">
      <path
         clip-rule="nonzero"
         d="M 10 56 L 24 56 L 24 61.730469 L 10 61.730469 Z M 10 56 "
         id="path1" />
    </clipPath>
    <clipPath
       id="clip-1">
      <path
         clip-rule="nonzero"
         d="M 24 56 L 38 56 L 38 61.730469 L 24 61.730469 Z M 24 56 "
         id="path2" />
    </clipPath>
    <clipPath
       id="clip-2">
      <path
         clip-rule="nonzero"
         d="M 0.238281 25 L 12 25 L 12 48 L 0.238281 48 Z M 0.238281 25 "
         id="path3" />
    </clipPath>
  </defs>
  <g
     clip-path="url(#clip-0)"
     id="g4">
    <path
       id="path4"
       d="M 23.806641 3.5078125 C 20.543092 3.5078125 17.280454 4.5849588 14.636719 6.7363281 C 14.175426 5.426713 12.928155 4.4882813 11.460938 4.4882812 C 9.6015615 4.4882812 8.09375 5.9960937 8.09375 7.8554688 C 8.09375 9.5518689 9.3483997 10.954452 10.980469 11.1875 C 10.509978 12.060385 10.104262 13.005617 9.7773438 14.027344 C 9.7773438 15.198538 10.082376 16.480685 10.611328 17.806641 C 9.6080853 20.30791 8.7913539 23.106004 8.1992188 26.128906 C 6.4443658 27.606743 4.3802572 31.009116 2.84375 35.230469 C 0.617188 41.34375 0.34765625 46.863281 2.2382812 47.550781 C 3.5156768 48.016965 5.4486133 46.16152 7.2558594 43.033203 C 7.7763171 50.526103 9.7274918 54.666988 12.744141 56.916016 C 11.197863 57.377974 10.199219 58.106259 10.199219 58.925781 C 10.199219 60.320312 13.089844 61.449219 16.652344 61.449219 C 19.737006 61.449219 22.316259 60.603039 22.953125 59.470703 C 23.238843 59.47489 23.517268 59.484375 23.808594 59.484375 C 24.098589 59.484375 24.375717 59.47485 24.660156 59.470703 C 25.297083 60.603039 27.876799 61.449219 30.964844 61.449219 C 34.527344 61.449219 37.417969 60.320312 37.417969 58.925781 C 37.417969 58.106259 36.419325 57.377974 34.873047 56.916016 C 35.879507 56.165661 36.765603 55.203435 37.521484 53.978516 C 37.623846 53.914206 37.743868 53.848841 37.839844 53.785156 C 39.532051 52.66284 40.984607 50.624341 42.316406 48.109375 C 42.42627 47.902832 42.534546 47.692017 42.642578 47.478516 C 42.78262 47.201874 42.922963 46.921182 43.060547 46.634766 C 43.931693 47.434196 44.73601 47.784462 45.375 47.550781 C 46.805722 47.031591 46.999245 43.756066 46.050781 39.550781 C 46.666722 37.975104 47.284008 36.397697 47.910156 34.84375 C 48.19675 34.13199 48.485578 33.418835 48.779297 32.726562 C 49.321328 31.453649 49.877242 30.226825 50.457031 29.082031 C 50.534239 28.929665 50.613221 28.781635 50.691406 28.632812 C 50.836414 28.355122 50.982679 28.085022 51.130859 27.818359 C 51.359863 27.411133 51.59375 27.017578 51.832031 26.636719 L 51.828125 26.634766 C 52.330757 25.824355 52.848786 25.07126 53.396484 24.419922 L 53.398438 24.421875 C 53.451571 24.358499 53.504982 24.297958 53.558594 24.236328 C 53.615542 24.170998 53.672974 24.106358 53.730469 24.042969 C 53.815395 23.949254 53.90015 23.856822 53.986328 23.767578 C 54.062596 23.688525 54.139545 23.61071 54.216797 23.535156 C 54.276277 23.477132 54.338337 23.417185 54.398438 23.361328 C 54.741699 23.04248 55.095703 22.759766 55.460938 22.515625 L 55.458984 22.513672 C 56.198786 22.012706 56.982235 21.670105 57.820312 21.521484 L 57.820312 21.523438 C 57.897842 21.509531 57.976221 21.496815 58.054688 21.486328 C 58.141309 21.474805 58.228644 21.466402 58.316406 21.458984 C 59.042358 21.398161 59.808594 21.481445 60.621094 21.722656 C 61.517862 21.990053 62.469273 22.452612 63.482422 23.140625 L 63.480469 23.144531 C 63.919922 23.439942 64.369263 23.777389 64.830078 24.160156 C 64.857523 24.182921 64.884578 24.20544 64.912109 24.228516 C 65.162376 24.438659 65.415341 24.661739 65.671875 24.898438 L 65.673828 24.896484 C 66.295837 25.466137 66.935817 26.103764 67.601562 26.832031 C 70.174487 26.703206 68.972136 24.100297 66.189453 21.640625 C 66.177802 21.630329 66.166006 21.619665 66.154297 21.609375 C 65.985702 21.461143 65.810431 21.314504 65.630859 21.167969 C 65.626953 21.164795 65.623052 21.161376 65.619141 21.158203 C 63.872838 19.735495 61.637368 18.424536 59.341797 17.744141 C 59.287172 17.727845 59.232407 17.712824 59.177734 17.697266 C 59.115874 17.679773 59.054104 17.66303 58.992188 17.646484 C 58.93399 17.630844 58.876579 17.614368 58.818359 17.599609 C 58.731661 17.577722 58.64533 17.557056 58.558594 17.537109 C 58.403629 17.501421 58.248519 17.470315 58.09375 17.441406 C 56.42077 17.126043 54.759854 17.190245 53.28125 17.847656 C 52.295452 18.309696 51.390813 18.959959 50.541016 19.746094 C 50.512562 19.772368 50.483392 19.797613 50.455078 19.824219 C 49.262688 20.945965 48.18533 22.350935 47.173828 23.945312 L 47.171875 23.945312 C 47.156374 23.969814 47.140462 23.994919 47.125 24.019531 C 46.678815 24.726837 46.249706 25.482345 45.824219 26.253906 C 45.802359 26.293306 45.77967 26.331604 45.757812 26.371094 C 45.014442 27.726612 44.2906 29.157931 43.572266 30.636719 C 43.436494 30.915181 43.300382 31.19713 43.164062 31.478516 C 41.948168 29.042233 40.613549 27.139728 39.419922 26.132812 C 38.827365 23.107661 38.008136 20.307516 37.003906 17.804688 C 37.532253 16.479566 37.835938 15.197846 37.835938 14.027344 C 37.509019 13.005617 37.103304 12.060385 36.632812 11.1875 C 38.264881 10.954452 39.519531 9.5518689 39.519531 7.8554688 C 39.519531 5.9960938 38.011719 4.4882813 36.152344 4.4882812 C 34.685126 4.4882812 33.437855 5.426713 32.976562 6.7363281 C 30.332827 4.5849588 27.070189 3.5078125 23.806641 3.5078125 z " />
  </g>
  <g
     clip-path="url(#clip-1)"
     id="g5" />
  <g
     clip-path="url(#clip-2)"
     id="g16" />
</svg>
