<?xml version="1.0" encoding="UTF-8"?>
<svg xmlns="http://www.w3.org/2000/svg" xmlns:xlink="http://www.w3.org/1999/xlink" width="92.41" height="62.078" viewBox="0 0 92.41 62.078">
<path fill-rule="nonzero" fill="rgb(90.548706%, 78.999329%, 67.449951%)" fill-opacity="1" d="M 69.644531 44.136719 C 63.179688 57.003906 44.941406 57.078125 45.152344 50.597656 C 45.363281 44.117188 55.527344 49.617188 62.121094 44.648438 C 66.320312 41.484375 70.339844 34.230469 71.699219 34.871094 C 73.054688 35.515625 71.789062 39.875 69.644531 44.136719 Z M 69.644531 44.136719 "/>
<path fill-rule="nonzero" fill="rgb(84.249878%, 64.99939%, 45.748901%)" fill-opacity="1" d="M 60.71875 38.265625 C 60.71875 49.4375 60.71875 58.097656 45.914062 58.375 C 31.109375 58.097656 31.109375 49.4375 31.109375 38.265625 C 31.109375 27.09375 39.210938 18.152344 45.914062 18.152344 C 52.617188 18.152344 60.71875 27.09375 60.71875 38.265625 Z M 60.71875 38.265625 "/>
<path fill-rule="nonzero" fill="rgb(90.548706%, 78.999329%, 67.449951%)" fill-opacity="1" d="M 60.160156 9.773438 C 60.160156 14.800781 51.5 28.488281 45.914062 28.488281 C 40.328125 28.488281 31.667969 14.800781 31.667969 9.773438 C 31.667969 4.746094 38.09375 0.558594 45.914062 0.558594 C 53.734375 0.558594 60.160156 4.746094 60.160156 9.773438 Z M 60.160156 9.773438 "/>
<path fill-rule="nonzero" fill="rgb(90.548706%, 78.999329%, 67.449951%)" fill-opacity="1" d="M 40.886719 51.953125 C 40.886719 56.699219 41.726562 61.167969 38.09375 60.890625 C 34.183594 60.609375 35.019531 56.699219 35.019531 51.953125 C 35.019531 46.925781 36.417969 42.734375 38.09375 42.734375 C 39.769531 42.734375 40.886719 46.925781 40.886719 51.953125 Z M 40.886719 51.953125 "/>
<path fill-rule="nonzero" fill="rgb(90.548706%, 78.999329%, 67.449951%)" fill-opacity="1" d="M 50.941406 51.953125 C 50.941406 56.699219 50.105469 61.167969 53.734375 60.890625 C 57.644531 60.609375 56.808594 56.699219 56.808594 51.953125 C 56.808594 46.925781 55.410156 42.734375 53.734375 42.734375 C 52.058594 42.734375 50.941406 46.925781 50.941406 51.953125 Z M 50.941406 51.953125 "/>
<path fill-rule="nonzero" fill="rgb(19.999695%, 19.999695%, 19.999695%)" fill-opacity="1" d="M 42.003906 14.800781 C 42.003906 14.183594 41.503906 13.683594 40.886719 13.683594 C 40.269531 13.683594 39.769531 14.183594 39.769531 14.800781 C 39.769531 15.417969 40.269531 15.917969 40.886719 15.917969 C 41.503906 15.917969 42.003906 15.417969 42.003906 14.800781 Z M 42.003906 14.800781 "/>
<path fill-rule="nonzero" fill="rgb(19.999695%, 19.999695%, 19.999695%)" fill-opacity="1" d="M 52.058594 14.800781 C 52.058594 14.183594 51.558594 13.683594 50.941406 13.683594 C 50.324219 13.683594 49.824219 14.183594 49.824219 14.800781 C 49.824219 15.417969 50.324219 15.917969 50.941406 15.917969 C 51.558594 15.917969 52.058594 15.417969 52.058594 14.800781 Z M 52.058594 14.800781 "/>
<path fill-rule="nonzero" fill="rgb(19.999695%, 19.999695%, 19.999695%)" fill-opacity="1" d="M 48.429688 21.226562 C 48.429688 22.066406 47.3125 23.742188 45.914062 23.742188 C 44.519531 23.742188 43.402344 22.066406 43.402344 21.226562 C 43.402344 20.386719 44.519531 19.550781 45.914062 19.550781 C 47.3125 19.550781 48.429688 20.386719 48.429688 21.226562 Z M 48.429688 21.226562 "/>
<path fill-rule="nonzero" fill="rgb(84.249878%, 64.99939%, 45.748901%)" fill-opacity="1" d="M 37.378906 13.402344 C 38.453125 7.324219 37.597656 2.09375 35.46875 1.71875 C 33.34375 1.34375 30.75 5.96875 29.679688 12.042969 C 28.605469 18.121094 29.460938 23.351562 31.589844 23.726562 C 33.714844 24.101562 36.308594 19.480469 37.378906 13.402344 Z M 37.378906 13.402344 "/>
<path fill-rule="nonzero" fill="rgb(84.249878%, 64.99939%, 45.748901%)" fill-opacity="1" d="M 62.152344 12.042969 C 61.078125 5.96875 58.488281 1.34375 56.359375 1.71875 C 54.234375 2.09375 53.378906 7.324219 54.449219 13.402344 C 55.519531 19.480469 58.113281 24.101562 60.238281 23.726562 C 62.367188 23.351562 63.222656 18.121094 62.152344 12.042969 Z M 62.152344 12.042969 "/>
</svg>
