<?xml version="1.0" encoding="UTF-8"?>
<svg xmlns="http://www.w3.org/2000/svg" xmlns:xlink="http://www.w3.org/1999/xlink" width="92.41" height="64.063" viewBox="0 0 92.41 64.063">
<path fill-rule="nonzero" fill="rgb(75%, 75%, 75%)" fill-opacity="1" d="M 62.675781 29.613281 C 62.675781 24.984375 58.925781 21.230469 54.296875 21.230469 C 49.667969 21.230469 45.914062 24.984375 45.914062 29.613281 C 45.914062 34.242188 49.667969 37.996094 54.296875 37.996094 C 58.925781 37.996094 62.675781 34.242188 62.675781 29.613281 Z M 62.675781 29.613281 "/>
<path fill-rule="nonzero" fill="rgb(50%, 50%, 50%)" fill-opacity="1" d="M 65.332031 46.601562 C 68.285156 44.125 67.867188 38.761719 64.394531 34.625 C 60.925781 30.484375 55.714844 29.140625 52.757812 31.621094 C 49.804688 34.101562 50.222656 39.464844 53.695312 43.601562 C 57.167969 47.738281 62.375 49.082031 65.332031 46.601562 Z M 65.332031 46.601562 "/>
<path fill-rule="nonzero" fill="rgb(50%, 50%, 50%)" fill-opacity="1" d="M 39.070312 31.621094 C 36.113281 29.140625 30.90625 30.484375 27.433594 34.625 C 23.960938 38.761719 23.542969 44.125 26.496094 46.601562 C 29.453125 49.082031 34.664062 47.738281 38.132812 43.601562 C 41.605469 39.464844 42.023438 34.101562 39.070312 31.621094 Z M 39.070312 31.621094 "/>
<path fill-rule="nonzero" fill="rgb(50%, 50%, 50%)" fill-opacity="1" d="M 61.28125 42.1875 C 61.28125 32.15625 54.402344 24.027344 45.914062 24.027344 C 37.425781 24.027344 30.546875 32.15625 30.546875 42.1875 C 30.546875 52.214844 37.425781 60.34375 45.914062 60.34375 C 54.402344 60.34375 61.28125 52.214844 61.28125 42.1875 Z M 61.28125 42.1875 "/>
<path fill-rule="nonzero" fill="rgb(84.999084%, 84.999084%, 84.999084%)" fill-opacity="1" d="M 55.691406 43.582031 C 55.691406 37.410156 51.316406 32.40625 45.914062 32.40625 C 40.515625 32.40625 36.136719 37.410156 36.136719 43.582031 C 36.136719 49.753906 40.515625 54.757812 45.914062 54.757812 C 51.316406 54.757812 55.691406 49.753906 55.691406 43.582031 Z M 55.691406 43.582031 "/>
<path fill-rule="nonzero" fill="rgb(50%, 50%, 50%)" fill-opacity="1" d="M 65.609375 54.757812 C 65.609375 50.4375 62.109375 46.933594 57.789062 46.933594 C 53.46875 46.933594 49.964844 50.4375 49.964844 54.757812 C 49.964844 59.078125 53.46875 62.582031 57.789062 62.582031 C 62.109375 62.582031 65.609375 59.078125 65.609375 54.757812 Z M 65.609375 54.757812 "/>
<path fill-rule="nonzero" fill="rgb(50%, 50%, 50%)" fill-opacity="1" d="M 41.863281 54.757812 C 41.863281 50.4375 38.359375 46.933594 34.039062 46.933594 C 29.71875 46.933594 26.21875 50.4375 26.21875 54.757812 C 26.21875 59.078125 29.71875 62.582031 34.039062 62.582031 C 38.359375 62.582031 41.863281 59.078125 41.863281 54.757812 Z M 41.863281 54.757812 "/>
<path fill-rule="nonzero" fill="rgb(84.999084%, 84.999084%, 84.999084%)" fill-opacity="1" d="M 62.539062 54.757812 C 62.539062 52.136719 60.410156 50.007812 57.789062 50.007812 C 55.164062 50.007812 53.039062 52.136719 53.039062 54.757812 C 53.039062 57.382812 55.164062 59.507812 57.789062 59.507812 C 60.410156 59.507812 62.539062 57.382812 62.539062 54.757812 Z M 62.539062 54.757812 "/>
<path fill-rule="nonzero" fill="rgb(84.999084%, 84.999084%, 84.999084%)" fill-opacity="1" d="M 38.789062 54.757812 C 38.789062 52.136719 36.664062 50.007812 34.039062 50.007812 C 31.417969 50.007812 29.289062 52.136719 29.289062 54.757812 C 29.289062 57.382812 31.417969 59.507812 34.039062 59.507812 C 36.664062 59.507812 38.789062 57.382812 38.789062 54.757812 Z M 38.789062 54.757812 "/>
<path fill-rule="nonzero" fill="rgb(50%, 50%, 50%)" fill-opacity="1" d="M 67.425781 42.1875 C 67.425781 39.101562 64.925781 36.597656 61.839844 36.597656 C 58.753906 36.597656 56.25 39.101562 56.25 42.1875 C 56.25 45.273438 58.753906 47.773438 61.839844 47.773438 C 64.925781 47.773438 67.425781 45.273438 67.425781 42.1875 Z M 67.425781 42.1875 "/>
<path fill-rule="nonzero" fill="rgb(84.999084%, 84.999084%, 84.999084%)" fill-opacity="1" d="M 65.191406 42.464844 C 65.191406 40.613281 63.691406 39.113281 61.839844 39.113281 C 59.988281 39.113281 58.488281 40.613281 58.488281 42.464844 C 58.488281 44.316406 59.988281 45.816406 61.839844 45.816406 C 63.691406 45.816406 65.191406 44.316406 65.191406 42.464844 Z M 65.191406 42.464844 "/>
<path fill-rule="nonzero" fill="rgb(50%, 50%, 50%)" fill-opacity="1" d="M 35.578125 42.464844 C 35.578125 39.378906 33.074219 36.878906 29.988281 36.878906 C 26.902344 36.878906 24.402344 39.378906 24.402344 42.464844 C 24.402344 45.550781 26.902344 48.050781 29.988281 48.050781 C 33.074219 48.050781 35.578125 45.550781 35.578125 42.464844 Z M 35.578125 42.464844 "/>
<path fill-rule="nonzero" fill="rgb(84.999084%, 84.999084%, 84.999084%)" fill-opacity="1" d="M 33.339844 42.464844 C 33.339844 40.613281 31.839844 39.113281 29.988281 39.113281 C 28.136719 39.113281 26.636719 40.613281 26.636719 42.464844 C 26.636719 44.316406 28.136719 45.816406 29.988281 45.816406 C 31.839844 45.816406 33.339844 44.316406 33.339844 42.464844 Z M 33.339844 42.464844 "/>
<path fill-rule="nonzero" fill="rgb(50%, 50%, 50%)" fill-opacity="1" d="M 69.660156 15.644531 C 69.660156 8.703125 65.285156 3.074219 59.882812 3.074219 C 54.484375 3.074219 50.105469 8.703125 50.105469 15.644531 C 50.105469 22.589844 54.484375 28.214844 59.882812 28.214844 C 65.285156 28.214844 69.660156 22.589844 69.660156 15.644531 Z M 69.660156 15.644531 "/>
<path fill-rule="nonzero" fill="rgb(50%, 50%, 50%)" fill-opacity="1" d="M 41.722656 15.644531 C 41.722656 8.703125 37.347656 3.074219 31.945312 3.074219 C 26.542969 3.074219 22.167969 8.703125 22.167969 15.644531 C 22.167969 22.589844 26.542969 28.214844 31.945312 28.214844 C 37.347656 28.214844 41.722656 22.589844 41.722656 15.644531 Z M 41.722656 15.644531 "/>
<path fill-rule="nonzero" fill="rgb(84.999084%, 84.999084%, 84.999084%)" fill-opacity="1" d="M 66.867188 15.644531 C 66.867188 10.242188 63.742188 5.867188 59.882812 5.867188 C 56.027344 5.867188 52.898438 10.242188 52.898438 15.644531 C 52.898438 21.046875 56.027344 25.421875 59.882812 25.421875 C 63.742188 25.421875 66.867188 21.046875 66.867188 15.644531 Z M 66.867188 15.644531 "/>
<path fill-rule="nonzero" fill="rgb(84.999084%, 84.999084%, 84.999084%)" fill-opacity="1" d="M 38.929688 15.644531 C 38.929688 10.242188 35.800781 5.867188 31.945312 5.867188 C 28.085938 5.867188 24.960938 10.242188 24.960938 15.644531 C 24.960938 21.046875 28.085938 25.421875 31.945312 25.421875 C 35.800781 25.421875 38.929688 21.046875 38.929688 15.644531 Z M 38.929688 15.644531 "/>
<path fill-rule="nonzero" fill="rgb(50%, 50%, 50%)" fill-opacity="1" d="M 59.882812 19.835938 C 59.882812 12.121094 53.628906 5.867188 45.914062 5.867188 C 38.199219 5.867188 31.945312 12.121094 31.945312 19.835938 C 31.945312 27.550781 38.199219 33.804688 45.914062 33.804688 C 53.628906 33.804688 59.882812 27.550781 59.882812 19.835938 Z M 59.882812 19.835938 "/>
<path fill-rule="nonzero" fill="rgb(50%, 50%, 50%)" fill-opacity="1" stroke-width="0.59776" stroke-linecap="butt" stroke-linejoin="miter" stroke="rgb(34.999084%, 34.999084%, 34.999084%)" stroke-opacity="1" stroke-miterlimit="10" d="M 4.046422 40.750377 C 4.553735 29.510221 9.43266 31.963555 19.008195 38.408017 L 20.411233 34.583352 C 9.43266 25.511167 -4.554121 22.677347 -4.046808 40.750377 " transform="matrix(0.985585, 0, 0, -0.985585, 45.914253, 63.139507)"/>
<path fill-rule="nonzero" fill="rgb(34.999084%, 34.999084%, 34.999084%)" fill-opacity="1" d="M 67.707031 27.097656 C 67.707031 25.863281 66.707031 24.863281 65.472656 24.863281 C 64.238281 24.863281 63.234375 25.863281 63.234375 27.097656 C 63.234375 28.332031 64.238281 29.335938 65.472656 29.335938 C 66.707031 29.335938 67.707031 28.332031 67.707031 27.097656 Z M 67.707031 27.097656 "/>
<path fill-rule="nonzero" fill="rgb(14.99939%, 14.99939%, 14.99939%)" fill-opacity="1" d="M 42.980469 15.644531 C 42.980469 14.875 42.355469 14.246094 41.582031 14.246094 C 40.8125 14.246094 40.1875 14.875 40.1875 15.644531 C 40.1875 16.417969 40.8125 17.042969 41.582031 17.042969 C 42.355469 17.042969 42.980469 16.417969 42.980469 15.644531 Z M 42.980469 15.644531 "/>
<path fill-rule="nonzero" fill="rgb(14.99939%, 14.99939%, 14.99939%)" fill-opacity="1" d="M 51.640625 15.644531 C 51.640625 14.875 51.015625 14.246094 50.246094 14.246094 C 49.472656 14.246094 48.847656 14.875 48.847656 15.644531 C 48.847656 16.417969 49.472656 17.042969 50.246094 17.042969 C 51.015625 17.042969 51.640625 16.417969 51.640625 15.644531 Z M 51.640625 15.644531 "/>
</svg>
