<?xml version="1.0" encoding="UTF-8" standalone="no"?>
<svg
   width="48.756"
   height="61.512"
   viewBox="0 0 48.756 61.512"
   version="1.1"
   id="svg26"
   sodipodi:docname="elephant.svg"
   xmlns:inkscape="http://www.inkscape.org/namespaces/inkscape"
   xmlns:sodipodi="http://sodipodi.sourceforge.net/DTD/sodipodi-0.dtd"
   xmlns="http://www.w3.org/2000/svg"
   xmlns:svg="http://www.w3.org/2000/svg">
  <sodipodi:namedview
     id="namedview26"
     pagecolor="#ffffff"
     bordercolor="#666666"
     borderopacity="1.0"
     inkscape:showpageshadow="2"
     inkscape:pageopacity="0.0"
     inkscape:pagecheckerboard="0"
     inkscape:deskcolor="#d1d1d1" />
  <defs
     id="defs3">
    <clipPath
       id="clip-0">
      <path
         clip-rule="nonzero"
         d="M 28 0 L 48.441406 0 L 48.441406 26 L 28 26 Z M 28 0 "
         id="path1" />
    </clipPath>
    <clipPath
       id="clip-1">
      <path
         clip-rule="nonzero"
         d="M 0.0703125 0 L 21 0 L 21 26 L 0.0703125 26 Z M 0.0703125 0 "
         id="path2" />
    </clipPath>
    <clipPath
       id="clip-2">
      <path
         clip-rule="nonzero"
         d="M 11 12 L 48.441406 12 L 48.441406 43 L 11 43 Z M 11 12 "
         id="path3" />
    </clipPath>
  </defs>
  <path
     id="path4"
     d="M 10.195312 0.5625 C 4.7578125 0.5625 0.3515625 6.226562 0.3515625 13.21875 C 0.3515625 20.207031 4.7578125 25.875 10.195312 25.875 C 11.064785 25.875 11.908 25.729104 12.710938 25.457031 C 12.999746 25.871892 13.309895 26.269786 13.640625 26.650391 C 13.214556 27.126048 12.809822 27.628499 12.431641 28.158203 C 10.092666 28.552322 7.6010688 29.999262 5.6523438 32.320312 C 3.9419439 34.361696 2.970758 36.697592 2.7714844 38.84375 C 2.6615198 39.282537 2.6015625 39.742074 2.6015625 40.214844 C 2.6015625 43.324219 5.1210945 45.839844 8.2265625 45.839844 C 8.2344253 45.839844 8.2421447 45.839876 8.25 45.839844 C 5.9618921 47.217933 4.4296875 49.725402 4.4296875 52.589844 C 4.4296875 56.941406 7.9570305 60.464844 12.304688 60.464844 C 15.00134 60.464844 17.381258 59.108898 18.800781 57.041016 C 20.498209 57.797648 22.336368 58.214844 24.257812 58.214844 C 26.178647 58.214844 28.015912 57.79719 29.712891 57.041016 C 31.13161 59.108978 33.5118 60.464844 36.210938 60.464844 C 40.558594 60.464844 44.085938 56.941406 44.085938 52.589844 C 44.085938 49.570362 42.384612 46.948266 39.888672 45.626953 C 41.362111 45.679103 42.729413 45.282424 43.800781 44.382812 C 44.08238 44.146669 44.333647 43.884207 44.554688 43.599609 C 45.401285 42.615372 45.914062 41.335019 45.914062 39.933594 C 45.914062 39.383447 45.83294 38.852228 45.685547 38.349609 C 45.392463 36.342749 44.441246 34.206185 42.859375 32.320312 C 42.169901 31.498188 41.410448 30.788255 40.615234 30.193359 C 40.708778 29.939413 40.790259 29.680755 40.859375 29.416016 C 41.979417 28.677622 43.087845 27.864303 44.169922 26.988281 C 45.306919 26.875662 46.195312 25.916511 46.195312 24.75 C 46.195312 23.825395 45.639475 23.034244 44.845703 22.6875 C 46.879451 20.368692 48.164062 16.987129 48.164062 13.21875 C 48.164062 6.226562 43.753906 0.5625 38.320312 0.5625 C 35.321464 0.5625 32.637377 2.2875898 30.832031 5.0058594 C 28.869801 3.9662686 26.632989 3.375 24.257812 3.375 C 21.882637 3.375 19.645824 3.9662686 17.683594 5.0058594 C 15.878248 2.2875898 13.194161 0.5625 10.195312 0.5625 z " />
  <g
     clip-path="url(#clip-0)"
     id="g16" />
  <g
     clip-path="url(#clip-1)"
     id="g17" />
  <g
     clip-path="url(#clip-2)"
     id="g22" />
</svg>
