<?xml version="1.0" encoding="UTF-8"?>
<svg xmlns="http://www.w3.org/2000/svg" xmlns:xlink="http://www.w3.org/1999/xlink" width="92.41" height="61.228" viewBox="0 0 92.41 61.228">
<path fill-rule="nonzero" fill="rgb(50.749207%, 50.749207%, 50.749207%)" fill-opacity="1" d="M 54.535156 7.699219 C 55.539062 5.957031 55.375 3.980469 54.171875 3.285156 C 52.964844 2.589844 51.175781 3.4375 50.171875 5.179688 C 49.164062 6.917969 49.328125 8.894531 50.53125 9.589844 C 51.738281 10.285156 53.527344 9.4375 54.535156 7.699219 Z M 54.535156 7.699219 "/>
<path fill-rule="nonzero" fill="rgb(50.749207%, 50.749207%, 50.749207%)" fill-opacity="1" d="M 41.65625 5.179688 C 40.652344 3.4375 38.859375 2.589844 37.65625 3.285156 C 36.449219 3.980469 36.289062 5.957031 37.292969 7.699219 C 38.296875 9.4375 40.089844 10.285156 41.292969 9.589844 C 42.5 8.894531 42.660156 6.917969 41.65625 5.179688 Z M 41.65625 5.179688 "/>
<path fill-rule="nonzero" fill="rgb(72.499084%, 72.499084%, 72.499084%)" fill-opacity="1" d="M 62.710938 40.871094 C 62.710938 52.066406 55.710938 57.945312 45.914062 57.945312 C 36.117188 57.945312 29.117188 52.066406 29.117188 40.871094 C 29.117188 26.875 36.117188 17.074219 45.914062 17.074219 C 55.710938 17.074219 62.710938 26.875 62.710938 40.871094 Z M 62.710938 40.871094 "/>
<path fill-rule="nonzero" fill="rgb(50.749207%, 50.749207%, 50.749207%)" fill-opacity="1" d="M 55.710938 28.554688 C 53.703125 28.554688 52.074219 31.5625 52.074219 35.269531 C 52.074219 38.980469 53.703125 41.988281 55.710938 41.988281 C 57.722656 41.988281 59.351562 38.980469 59.351562 35.269531 C 59.351562 31.5625 57.722656 28.554688 55.710938 28.554688 Z M 55.710938 28.554688 "/>
<path fill-rule="nonzero" fill="rgb(50.749207%, 50.749207%, 50.749207%)" fill-opacity="1" d="M 36.117188 41.988281 C 38.125 41.988281 39.753906 38.980469 39.753906 35.269531 C 39.753906 31.5625 38.125 28.554688 36.117188 28.554688 C 34.105469 28.554688 32.476562 31.5625 32.476562 35.269531 C 32.476562 38.980469 34.105469 41.988281 36.117188 41.988281 Z M 36.117188 41.988281 "/>
<path fill-rule="nonzero" fill="rgb(72.499084%, 72.499084%, 72.499084%)" fill-opacity="1" d="M 55.992188 13.996094 C 55.992188 8.429688 51.480469 3.917969 45.914062 3.917969 C 40.347656 3.917969 35.835938 8.429688 35.835938 13.996094 C 35.835938 19.5625 40.347656 24.074219 45.914062 24.074219 C 51.480469 24.074219 55.992188 19.5625 55.992188 13.996094 Z M 55.992188 13.996094 "/>
<path fill-rule="nonzero" fill="rgb(100%, 100%, 100%)" fill-opacity="1" d="M 45.074219 12.035156 C 45.074219 10.179688 44.070312 8.675781 42.835938 8.675781 C 41.597656 8.675781 40.59375 10.179688 40.59375 12.035156 C 40.59375 13.890625 41.597656 15.394531 42.835938 15.394531 C 44.070312 15.394531 45.074219 13.890625 45.074219 12.035156 Z M 45.074219 12.035156 "/>
<path fill-rule="nonzero" fill="rgb(100%, 100%, 100%)" fill-opacity="1" d="M 51.234375 12.035156 C 51.234375 10.179688 50.230469 8.675781 48.992188 8.675781 C 47.757812 8.675781 46.753906 10.179688 46.753906 12.035156 C 46.753906 13.890625 47.757812 15.394531 48.992188 15.394531 C 50.230469 15.394531 51.234375 13.890625 51.234375 12.035156 Z M 51.234375 12.035156 "/>
<path fill-rule="nonzero" fill="rgb(0%, 0%, 0%)" fill-opacity="1" d="M 44.09375 13.4375 C 44.09375 12.355469 43.59375 11.476562 42.972656 11.476562 C 42.355469 11.476562 41.855469 12.355469 41.855469 13.4375 C 41.855469 14.519531 42.355469 15.394531 42.972656 15.394531 C 43.59375 15.394531 44.09375 14.519531 44.09375 13.4375 Z M 44.09375 13.4375 "/>
<path fill-rule="nonzero" fill="rgb(0%, 0%, 0%)" fill-opacity="1" d="M 49.972656 13.4375 C 49.972656 12.355469 49.472656 11.476562 48.851562 11.476562 C 48.234375 11.476562 47.734375 12.355469 47.734375 13.4375 C 47.734375 14.519531 48.234375 15.394531 48.851562 15.394531 C 49.472656 15.394531 49.972656 14.519531 49.972656 13.4375 Z M 49.972656 13.4375 "/>
<path fill-rule="nonzero" fill="rgb(61.625671%, 61.625671%, 61.625671%)" fill-opacity="1" d="M 57.671875 19.875 C 57.671875 16.78125 52.40625 14.277344 45.914062 14.277344 C 39.421875 14.277344 34.15625 16.78125 34.15625 19.875 C 34.15625 22.96875 39.421875 25.472656 45.914062 25.472656 C 52.40625 25.472656 57.671875 22.96875 57.671875 19.875 Z M 57.671875 19.875 "/>
<path fill-rule="nonzero" fill="rgb(36.248779%, 36.248779%, 36.248779%)" fill-opacity="1" d="M 44.933594 17.636719 C 44.933594 17.09375 44.496094 16.65625 43.953125 16.65625 C 43.414062 16.65625 42.972656 17.09375 42.972656 17.636719 C 42.972656 18.175781 43.414062 18.613281 43.953125 18.613281 C 44.496094 18.613281 44.933594 18.175781 44.933594 17.636719 Z M 44.933594 17.636719 "/>
<path fill-rule="nonzero" fill="rgb(36.248779%, 36.248779%, 36.248779%)" fill-opacity="1" d="M 48.851562 17.636719 C 48.851562 17.09375 48.414062 16.65625 47.875 16.65625 C 47.332031 16.65625 46.894531 17.09375 46.894531 17.636719 C 46.894531 18.175781 47.332031 18.613281 47.875 18.613281 C 48.414062 18.613281 48.851562 18.175781 48.851562 17.636719 Z M 48.851562 17.636719 "/>
<path fill="none" stroke-width="0.3985" stroke-linecap="butt" stroke-linejoin="miter" stroke="rgb(36.248779%, 36.248779%, 36.248779%)" stroke-opacity="1" stroke-miterlimit="10" d="M 3.544524 42.521334 C 1.436242 40.753224 -1.637184 40.753224 -3.745467 42.521334 " transform="matrix(0.987548, 0, 0, -0.987548, 45.913673, 63.265312)"/>
<path fill-rule="nonzero" fill="rgb(50.749207%, 50.749207%, 50.749207%)" fill-opacity="1" d="M 43.675781 59.625 C 43.675781 56.6875 41.542969 54.308594 38.914062 54.308594 C 36.285156 54.308594 34.15625 56.6875 34.15625 59.625 Z M 43.675781 59.625 "/>
<path fill-rule="nonzero" fill="rgb(50.749207%, 50.749207%, 50.749207%)" fill-opacity="1" d="M 48.152344 59.625 C 48.152344 56.6875 50.285156 54.308594 52.914062 54.308594 C 55.539062 54.308594 57.671875 56.6875 57.671875 59.625 Z M 48.152344 59.625 "/>
<path fill-rule="nonzero" fill="rgb(72.499084%, 72.499084%, 72.499084%)" fill-opacity="1" d="M 43.675781 59.625 C 43.675781 58.390625 43.046875 57.386719 42.273438 57.386719 C 41.5 57.386719 40.875 58.390625 40.875 59.625 Z M 43.675781 59.625 "/>
<path fill-rule="nonzero" fill="rgb(72.499084%, 72.499084%, 72.499084%)" fill-opacity="1" d="M 40.316406 59.625 C 40.316406 58.078125 39.6875 56.828125 38.914062 56.828125 C 38.140625 56.828125 37.515625 58.078125 37.515625 59.625 Z M 40.316406 59.625 "/>
<path fill-rule="nonzero" fill="rgb(72.499084%, 72.499084%, 72.499084%)" fill-opacity="1" d="M 36.957031 59.625 C 36.957031 58.390625 36.328125 57.386719 35.554688 57.386719 C 34.78125 57.386719 34.15625 58.390625 34.15625 59.625 Z M 36.957031 59.625 "/>
<path fill-rule="nonzero" fill="rgb(72.499084%, 72.499084%, 72.499084%)" fill-opacity="1" d="M 48.152344 59.625 C 48.152344 58.390625 48.78125 57.386719 49.554688 57.386719 C 50.324219 57.386719 50.953125 58.390625 50.953125 59.625 Z M 48.152344 59.625 "/>
<path fill-rule="nonzero" fill="rgb(72.499084%, 72.499084%, 72.499084%)" fill-opacity="1" d="M 51.511719 59.625 C 51.511719 58.078125 52.140625 56.828125 52.914062 56.828125 C 53.683594 56.828125 54.3125 58.078125 54.3125 59.625 Z M 51.511719 59.625 "/>
<path fill-rule="nonzero" fill="rgb(72.499084%, 72.499084%, 72.499084%)" fill-opacity="1" d="M 54.871094 59.625 C 54.871094 58.390625 55.5 57.386719 56.273438 57.386719 C 57.042969 57.386719 57.671875 58.390625 57.671875 59.625 Z M 54.871094 59.625 "/>
</svg>
