<?xml version="1.0" encoding="UTF-8" standalone="no"?>
<svg
   width="35.433"
   height="58.677"
   viewBox="0 0 35.433 58.677"
   version="1.1"
   id="svg25"
   sodipodi:docname="hippo.svg"
   xmlns:inkscape="http://www.inkscape.org/namespaces/inkscape"
   xmlns:sodipodi="http://sodipodi.sourceforge.net/DTD/sodipodi-0.dtd"
   xmlns="http://www.w3.org/2000/svg"
   xmlns:svg="http://www.w3.org/2000/svg">
  <sodipodi:namedview
     id="namedview25"
     pagecolor="#ffffff"
     bordercolor="#666666"
     borderopacity="1.0"
     inkscape:showpageshadow="2"
     inkscape:pageopacity="0.0"
     inkscape:pagecheckerboard="0"
     inkscape:deskcolor="#d1d1d1" />
  <defs
     id="defs3">
    <clipPath
       id="clip-0">
      <path
         clip-rule="nonzero"
         d="M 21 0.304688 L 27 0.304688 L 27 8 L 21 8 Z M 21 0.304688 "
         id="path1" />
    </clipPath>
    <clipPath
       id="clip-1">
      <path
         clip-rule="nonzero"
         d="M 8 0.304688 L 14 0.304688 L 14 8 L 8 8 Z M 8 0.304688 "
         id="path2" />
    </clipPath>
    <clipPath
       id="clip-2">
      <path
         clip-rule="nonzero"
         d="M 0 14 L 34.875 14 L 34.875 56 L 0 56 Z M 0 14 "
         id="path3" />
    </clipPath>
  </defs>
  <g
     clip-path="url(#clip-0)"
     id="g4">
    <path
       id="path4"
       d="M 10.066406 0.82617188 C 9.7618315 0.83724436 9.4702148 0.91516119 9.2070312 1.0664062 C 8.0078122 1.7617193 7.8437502 3.7304687 8.8476562 5.4648438 C 8.9566581 5.6538939 9.0752831 5.8309952 9.2011719 5.9980469 C 8.0636734 7.6260297 7.3945312 9.605361 7.3945312 11.742188 C 7.3945312 12.680719 7.5268326 13.587541 7.7675781 14.449219 C 6.4762884 15.346349 5.71875 16.431985 5.71875 17.601562 C 5.71875 18.392736 6.0660386 19.144535 6.6894531 19.826172 C 2.9532957 24.026043 0.69921875 30.598427 0.69921875 38.527344 C 0.69921875 45.386508 3.3353932 50.240083 7.6328125 52.964844 C 6.5016209 53.906775 5.7578861 55.39932 5.7207031 57.085938 C 5.720488 57.091803 5.7208898 57.097638 5.7207031 57.103516 C 5.7199699 57.141848 5.71875 57.180222 5.71875 57.21875 L 15.207031 57.21875 C 15.207031 56.583127 15.107714 55.973131 14.923828 55.408203 C 15.738455 55.498893 16.576599 55.546875 17.4375 55.546875 C 18.299754 55.546875 19.139194 55.499178 19.955078 55.408203 C 19.784307 55.933666 19.686762 56.498181 19.673828 57.085938 C 19.672233 57.129704 19.671875 57.174347 19.671875 57.21875 L 26.367188 57.21875 L 29.15625 57.21875 C 29.15625 57.174347 29.15527 57.13008 29.154297 57.085938 C 29.117114 55.39932 28.373379 53.906775 27.242188 52.964844 C 31.541566 50.240249 34.179688 45.387247 34.179688 38.527344 C 34.179688 30.597748 31.925321 24.024043 28.1875 19.824219 C 28.809754 19.143113 29.15625 18.391957 29.15625 17.601562 C 29.15625 16.431985 28.398712 15.346349 27.107422 14.449219 C 27.348167 13.587541 27.480469 12.680719 27.480469 11.742188 C 27.480469 9.6063373 26.81233 7.6275613 25.675781 6 C 25.802356 5.8325886 25.921549 5.6543657 26.03125 5.4648438 C 27.03125 3.7304687 26.871094 1.7617193 25.667969 1.0664062 C 24.526557 0.408329 22.854256 1.1413641 21.830078 2.7089844 C 20.503013 2.0624168 19.013089 1.6992188 17.4375 1.6992188 C 15.861911 1.6992188 14.371987 2.0624168 13.044922 2.7089844 C 12.258716 1.5016483 11.087056 0.78906725 10.066406 0.82617188 z " />
  </g>
  <g
     clip-path="url(#clip-1)"
     id="g5" />
  <g
     clip-path="url(#clip-2)"
     id="g6" />
</svg>
