<?xml version="1.0" encoding="UTF-8" standalone="no"?>
<svg
   width="35.433"
   height="58.677"
   viewBox="0 0 35.433 58.677"
   version="1.1"
   id="svg33"
   sodipodi:docname="hippo.svg"
   xmlns:inkscape="http://www.inkscape.org/namespaces/inkscape"
   xmlns:sodipodi="http://sodipodi.sourceforge.net/DTD/sodipodi-0.dtd"
   xmlns="http://www.w3.org/2000/svg"
   xmlns:svg="http://www.w3.org/2000/svg">
  <sodipodi:namedview
     id="namedview33"
     pagecolor="#ffffff"
     bordercolor="#666666"
     borderopacity="1.0"
     inkscape:showpageshadow="2"
     inkscape:pageopacity="0.0"
     inkscape:pagecheckerboard="0"
     inkscape:deskcolor="#d1d1d1" />
  <defs
     id="defs11">
    <clipPath
       id="clip-0">
      <path
         clip-rule="nonzero"
         d="M 21 0.304688 L 27 0.304688 L 27 8 L 21 8 Z M 21 0.304688 "
         id="path1" />
    </clipPath>
    <clipPath
       id="clip-1">
      <path
         clip-rule="nonzero"
         d="M 8 0.304688 L 14 0.304688 L 14 8 L 8 8 Z M 8 0.304688 "
         id="path2" />
    </clipPath>
    <clipPath
       id="clip-2">
      <path
         clip-rule="nonzero"
         d="M 0 14 L 34.875 14 L 34.875 56 L 0 56 Z M 0 14 "
         id="path3" />
    </clipPath>
    <clipPath
       id="clip-3">
      <path
         clip-rule="nonzero"
         d="M 6 51 L 15 51 L 15 57.21875 L 6 57.21875 Z M 6 51 "
         id="path4" />
    </clipPath>
    <clipPath
       id="clip-4">
      <path
         clip-rule="nonzero"
         d="M 19 51 L 29 51 L 29 57.21875 L 19 57.21875 Z M 19 51 "
         id="path5" />
    </clipPath>
    <clipPath
       id="clip-5">
      <path
         clip-rule="nonzero"
         d="M 23 54 L 26 54 L 26 57.21875 L 23 57.21875 Z M 23 54 "
         id="path6" />
    </clipPath>
    <clipPath
       id="clip-6">
      <path
         clip-rule="nonzero"
         d="M 19 54 L 23 54 L 23 57.21875 L 19 57.21875 Z M 19 54 "
         id="path7" />
    </clipPath>
    <clipPath
       id="clip-7">
      <path
         clip-rule="nonzero"
         d="M 26 54 L 30 54 L 30 57.21875 L 26 57.21875 Z M 26 54 "
         id="path8" />
    </clipPath>
    <clipPath
       id="clip-8">
      <path
         clip-rule="nonzero"
         d="M 9 54 L 12 54 L 12 57.21875 L 9 57.21875 Z M 9 54 "
         id="path9" />
    </clipPath>
    <clipPath
       id="clip-9">
      <path
         clip-rule="nonzero"
         d="M 12 54 L 16 54 L 16 57.21875 L 12 57.21875 Z M 12 54 "
         id="path10" />
    </clipPath>
    <clipPath
       id="clip-10">
      <path
         clip-rule="nonzero"
         d="M 5 54 L 9 54 L 9 57.21875 L 5 57.21875 Z M 5 54 "
         id="path11" />
    </clipPath>
  </defs>
  <g
     clip-path="url(#clip-0)"
     id="g12">
    <path
       id="path12"
       d="M 10.066406 0.82617188 C 9.7618315 0.83724436 9.4702148 0.91516119 9.2070312 1.0664062 C 8.0078122 1.7617193 7.8437502 3.7304687 8.8476562 5.4648438 C 8.9566581 5.6538939 9.0752831 5.8309952 9.2011719 5.9980469 C 8.0636734 7.6260297 7.3945312 9.605361 7.3945312 11.742188 C 7.3945312 12.680719 7.5268326 13.587541 7.7675781 14.449219 C 6.4762884 15.346349 5.71875 16.431985 5.71875 17.601562 C 5.71875 18.392736 6.0660386 19.144535 6.6894531 19.826172 C 2.9532957 24.026043 0.69921875 30.598427 0.69921875 38.527344 C 0.69921875 45.396763 3.3435197 50.254113 7.6523438 52.976562 C 6.8000832 53.711813 6.2076647 54.773272 6.0449219 55.982422 C 5.841039 56.467101 5.71875 57.093167 5.71875 57.777344 C 5.71875 59.316406 6.3437502 60.566406 7.1132812 60.566406 C 7.3058229 60.566406 7.4894587 60.489715 7.65625 60.349609 C 8.4224561 61.009683 9.3976919 61.40625 10.460938 61.40625 C 11.525971 61.40625 12.502747 61.009797 13.269531 60.349609 C 13.436323 60.489715 13.619958 60.566406 13.8125 60.566406 C 14.582031 60.566406 15.207031 59.316406 15.207031 57.777344 C 15.207031 57.093167 15.084742 56.467101 14.880859 55.982422 C 14.853737 55.780922 14.81191 55.585101 14.761719 55.392578 C 15.626518 55.495574 16.519918 55.546875 17.4375 55.546875 C 18.355082 55.546875 19.248419 55.495574 20.113281 55.392578 C 20.062059 55.58875 20.021364 55.788665 19.994141 55.994141 C 19.793608 56.477225 19.671875 57.098483 19.671875 57.777344 C 19.671875 59.316406 20.292969 60.566406 21.066406 60.566406 C 21.257975 60.566406 21.441179 60.489715 21.607422 60.349609 C 22.374454 61.009683 23.350817 61.40625 24.414062 61.40625 C 25.477308 61.40625 26.45367 61.009683 27.220703 60.349609 C 27.386946 60.489715 27.57015 60.566406 27.761719 60.566406 C 28.53125 60.566406 29.15625 59.316406 29.15625 57.777344 C 29.15625 57.098507 29.035019 56.477218 28.833984 55.994141 C 28.673153 54.780244 28.080486 53.714136 27.224609 52.976562 C 31.534572 50.254113 34.179688 45.396763 34.179688 38.527344 C 34.179688 30.597748 31.925321 24.024043 28.1875 19.824219 C 28.809754 19.143113 29.15625 18.391957 29.15625 17.601562 C 29.15625 16.431985 28.398712 15.346349 27.107422 14.449219 C 27.348167 13.587541 27.480469 12.680719 27.480469 11.742188 C 27.480469 9.6063373 26.81233 7.6275613 25.675781 6 C 25.802356 5.8325886 25.921549 5.6543657 26.03125 5.4648438 C 27.03125 3.7304687 26.871094 1.7617193 25.667969 1.0664062 C 24.526557 0.408329 22.854256 1.1413641 21.830078 2.7089844 C 20.503013 2.0624168 19.013089 1.6992188 17.4375 1.6992188 C 15.861911 1.6992188 14.371987 2.0624168 13.044922 2.7089844 C 12.258716 1.5016483 11.087056 0.78906725 10.066406 0.82617188 z " />
  </g>
  <g
     clip-path="url(#clip-1)"
     id="g13" />
  <g
     clip-path="url(#clip-2)"
     id="g14" />
  <g
     clip-path="url(#clip-3)"
     id="g26" />
  <g
     clip-path="url(#clip-4)"
     id="g27" />
  <g
     clip-path="url(#clip-5)"
     id="g28" />
  <g
     clip-path="url(#clip-6)"
     id="g29" />
  <g
     clip-path="url(#clip-7)"
     id="g30" />
  <g
     clip-path="url(#clip-8)"
     id="g31" />
  <g
     clip-path="url(#clip-9)"
     id="g32" />
  <g
     clip-path="url(#clip-10)"
     id="g33" />
</svg>
