<?xml version="1.0" encoding="UTF-8"?>
<svg xmlns="http://www.w3.org/2000/svg" xmlns:xlink="http://www.w3.org/1999/xlink" width="37.249" height="30.078" viewBox="0 0 37.249 30.078">
<defs>
<clipPath id="clip-0">
<path clip-rule="nonzero" d="M 0.191406 0 L 36 0 L 36 29 L 0.191406 29 Z M 0.191406 0 "/>
</clipPath>
<clipPath id="clip-1">
<path clip-rule="nonzero" d="M 0.191406 0 L 36.332031 0 L 36.332031 29.183594 L 0.191406 29.183594 Z M 0.191406 0 "/>
</clipPath>
</defs>
<g clip-path="url(#clip-0)">
<path fill-rule="nonzero" fill="rgb(75%, 75%, 75%)" fill-opacity="1" d="M 7.535156 27.890625 C 7.535156 27.890625 18.535156 28.988281 18.535156 26.789062 C 18.535156 24.863281 13.035156 20.738281 21.285156 20.738281 C 29.535156 20.738281 24.035156 24.863281 24.035156 26.789062 C 24.035156 28.988281 35.039062 27.890625 35.039062 27.890625 L 35.230469 27.890625 L 35.039062 27.890625 C 35.039062 27.890625 36.136719 16.890625 33.9375 16.890625 C 32.011719 16.890625 27.886719 22.390625 27.886719 14.136719 C 27.886719 5.886719 32.011719 11.386719 33.9375 11.386719 C 36.136719 11.386719 35.039062 0.386719 35.039062 0.386719 L 35.039062 0.191406 L 35.039062 0.386719 C 35.039062 0.386719 24.035156 0.386719 24.035156 0.386719 C 24.035156 0.386719 29.535156 0.386719 21.285156 0.386719 C 13.035156 0.386719 18.535156 0.386719 18.535156 0.386719 C 18.535156 0.386719 7.535156 0.386719 7.535156 0.386719 L 7.339844 0.386719 L 7.535156 0.386719 C 7.535156 0.386719 8.632812 11.386719 6.433594 11.386719 C 4.507812 11.386719 0.382812 5.886719 0.382812 14.136719 C 0.382812 22.390625 4.507812 16.890625 6.433594 16.890625 C 8.632812 16.890625 7.535156 27.890625 7.535156 27.890625 L 7.535156 28.082031 Z M 7.535156 27.890625 "/>
</g>
<g clip-path="url(#clip-1)">
<path fill="none" stroke-width="0.3985" stroke-linecap="butt" stroke-linejoin="miter" stroke="rgb(75%, 75%, 75%)" stroke-opacity="1" stroke-miterlimit="10" d="M 0.00172757 -0.000574008 C 0.00172757 -0.000574008 11.338918 -1.131877 11.338918 1.134755 C 11.338918 3.119569 5.670323 7.371015 14.173215 7.371015 C 22.676108 7.371015 17.007513 3.119569 17.007513 1.134755 C 17.007513 -1.131877 28.348728 -0.000574008 28.348728 -0.000574008 L 28.546002 -0.000574008 L 28.348728 -0.000574008 C 28.348728 -0.000574008 29.480032 11.336616 27.213399 11.336616 C 25.228586 11.336616 20.977139 5.668021 20.977139 14.174939 C 20.977139 22.677832 25.228586 17.009237 27.213399 17.009237 C 29.480032 17.009237 28.348728 28.346427 28.348728 28.346427 L 28.348728 28.547726 L 28.348728 28.346427 C 28.348728 28.346427 17.007513 28.346427 17.007513 28.346427 C 17.007513 28.346427 22.676108 28.346427 14.173215 28.346427 C 5.670323 28.346427 11.338918 28.346427 11.338918 28.346427 C 11.338918 28.346427 0.00172757 28.346427 0.00172757 28.346427 L -0.199572 28.346427 L 0.00172757 28.346427 C 0.00172757 28.346427 1.133031 17.009237 -1.133602 17.009237 C -3.118415 17.009237 -7.369862 22.677832 -7.369862 14.174939 C -7.369862 5.668021 -3.118415 11.336616 -1.133602 11.336616 C 1.133031 11.336616 0.00172757 -0.000574008 0.00172757 -0.000574008 L 0.00172757 -0.197848 Z M 0.00172757 -0.000574008 " transform="matrix(0.970258, 0, 0, -0.970258, 7.53348, 27.890068)"/>
</g>
</svg>
