<?xml version="1.0" encoding="UTF-8"?>
<svg xmlns="http://www.w3.org/2000/svg" xmlns:xlink="http://www.w3.org/1999/xlink" width="43.485" height="31.012" viewBox="0 0 43.485 31.012">
<defs>
<clipPath id="clip-0">
<path clip-rule="nonzero" d="M 0.421875 1 L 42.5625 1 L 42.5625 30 L 0.421875 30 Z M 0.421875 1 "/>
</clipPath>
<clipPath id="clip-1">
<path clip-rule="nonzero" d="M 0.421875 0 L 42.5625 0 L 42.5625 30.054688 L 0.421875 30.054688 Z M 0.421875 0 "/>
</clipPath>
</defs>
<g clip-path="url(#clip-0)">
<path fill-rule="nonzero" fill="rgb(75%, 75%, 75%)" fill-opacity="1" d="M 7.757812 28.761719 C 7.757812 28.761719 18.746094 29.863281 18.746094 27.664062 C 18.746094 25.742188 13.25 21.621094 21.492188 21.621094 C 29.734375 21.621094 24.238281 25.742188 24.238281 27.664062 C 24.238281 29.863281 35.230469 28.761719 35.230469 28.761719 L 35.421875 28.761719 L 35.230469 28.761719 C 35.230469 28.761719 34.128906 17.773438 36.328125 17.773438 C 38.25 17.773438 42.371094 23.269531 42.371094 15.027344 C 42.371094 6.785156 38.25 12.28125 36.328125 12.28125 C 34.128906 12.28125 35.230469 1.292969 35.230469 1.292969 L 35.230469 1.097656 L 35.230469 1.292969 C 35.230469 1.292969 24.238281 0.191406 24.238281 2.390625 C 24.238281 4.3125 29.734375 8.433594 21.492188 8.433594 C 13.25 8.433594 18.746094 4.3125 18.746094 2.390625 C 18.746094 0.191406 7.757812 1.292969 7.757812 1.292969 L 7.5625 1.292969 L 7.757812 1.292969 C 7.757812 1.292969 8.855469 12.28125 6.660156 12.28125 C 4.734375 12.28125 0.613281 6.785156 0.613281 15.027344 C 0.613281 23.269531 4.734375 17.773438 6.660156 17.773438 C 8.855469 17.773438 7.757812 28.761719 7.757812 28.761719 L 7.757812 28.957031 Z M 7.757812 28.761719 "/>
</g>
<g clip-path="url(#clip-1)">
<path fill="none" stroke-width="0.3985" stroke-linecap="butt" stroke-linejoin="miter" stroke="rgb(75%, 75%, 75%)" stroke-opacity="1" stroke-miterlimit="10" d="M 0.00077944 0.00097214 C 0.00077944 0.00097214 11.339132 -1.135685 11.339132 1.133598 C 11.339132 3.116702 5.667941 7.369088 14.172713 7.369088 C 22.677485 7.369088 17.006293 3.116702 17.006293 1.133598 C 17.006293 -1.135685 28.348677 0.00097214 28.348677 0.00097214 L 28.546181 0.00097214 L 28.348677 0.00097214 C 28.348677 0.00097214 27.21202 11.339325 29.481303 11.339325 C 31.464406 11.339325 35.716793 5.668133 35.716793 14.172906 C 35.716793 22.677678 31.464406 17.006486 29.481303 17.006486 C 27.21202 17.006486 28.348677 28.344839 28.348677 28.344839 L 28.348677 28.546374 L 28.348677 28.344839 C 28.348677 28.344839 17.006293 29.481496 17.006293 27.212213 C 17.006293 25.22911 22.677485 20.976723 14.172713 20.976723 C 5.667941 20.976723 11.339132 25.22911 11.339132 27.212213 C 11.339132 29.481496 0.00077944 28.344839 0.00077944 28.344839 L -0.200755 28.344839 L 0.00077944 28.344839 C 0.00077944 28.344839 1.133406 17.006486 -1.131847 17.006486 C -3.118981 17.006486 -7.371367 22.677678 -7.371367 14.172906 C -7.371367 5.668133 -3.118981 11.339325 -1.131847 11.339325 C 1.133406 11.339325 0.00077944 0.00097214 0.00077944 0.00097214 L 0.00077944 -0.200563 Z M 0.00077944 0.00097214 " transform="matrix(0.969125, 0, 0, -0.969125, 7.757057, 28.762661)"/>
</g>
</svg>
