<?xml version="1.0" encoding="UTF-8"?>
<svg xmlns="http://www.w3.org/2000/svg" xmlns:xlink="http://www.w3.org/1999/xlink" width="36.314" height="30.078" viewBox="0 0 36.314 30.078">
<defs>
<clipPath id="clip-0">
<path clip-rule="nonzero" d="M 0.207031 0 L 35.441406 0 L 35.441406 29 L 0.207031 29 Z M 0.207031 0 "/>
</clipPath>
<clipPath id="clip-1">
<path clip-rule="nonzero" d="M 0.207031 0 L 35.441406 0 L 35.441406 29.183594 L 0.207031 29.183594 Z M 0.207031 0 "/>
</clipPath>
</defs>
<g clip-path="url(#clip-0)">
<path fill-rule="nonzero" fill="rgb(75%, 75%, 75%)" fill-opacity="1" d="M 7.550781 27.890625 C 7.550781 27.890625 18.550781 28.988281 18.550781 26.789062 C 18.550781 24.863281 13.050781 20.738281 21.304688 20.738281 C 29.554688 20.738281 24.054688 24.863281 24.054688 26.789062 C 24.054688 28.988281 35.054688 27.890625 35.054688 27.890625 L 35.25 27.890625 L 35.054688 27.890625 C 35.054688 27.890625 35.054688 16.890625 35.054688 16.890625 C 35.054688 16.890625 35.054688 22.390625 35.054688 14.136719 C 35.054688 5.886719 35.054688 11.386719 35.054688 11.386719 C 35.054688 11.386719 35.054688 0.386719 35.054688 0.386719 L 35.054688 0.191406 L 35.054688 0.386719 C 35.054688 0.386719 24.054688 0.386719 24.054688 0.386719 C 24.054688 0.386719 29.554688 0.386719 21.304688 0.386719 C 13.050781 0.386719 18.550781 0.386719 18.550781 0.386719 C 18.550781 0.386719 7.550781 0.386719 7.550781 0.386719 L 7.359375 0.386719 L 7.550781 0.386719 C 7.550781 0.386719 8.652344 11.386719 6.449219 11.386719 C 4.527344 11.386719 0.398438 5.886719 0.398438 14.136719 C 0.398438 22.390625 4.527344 16.890625 6.449219 16.890625 C 8.652344 16.890625 7.550781 27.890625 7.550781 27.890625 L 7.550781 28.082031 Z M 7.550781 27.890625 "/>
</g>
<g clip-path="url(#clip-1)">
<path fill="none" stroke-width="0.3985" stroke-linecap="butt" stroke-linejoin="miter" stroke="rgb(75%, 75%, 75%)" stroke-opacity="1" stroke-miterlimit="10" d="M -0.000337896 -0.000574008 C -0.000337896 -0.000574008 11.336852 -1.131877 11.336852 1.134755 C 11.336852 3.119569 5.668257 7.371015 14.175176 7.371015 C 22.678068 7.371015 17.009473 3.119569 17.009473 1.134755 C 17.009473 -1.131877 28.346663 -0.000574008 28.346663 -0.000574008 L 28.547963 -0.000574008 L 28.346663 -0.000574008 C 28.346663 -0.000574008 28.346663 11.336616 28.346663 11.336616 C 28.346663 11.336616 28.346663 5.668021 28.346663 14.174939 C 28.346663 22.677832 28.346663 17.009237 28.346663 17.009237 C 28.346663 17.009237 28.346663 28.346427 28.346663 28.346427 L 28.346663 28.547726 L 28.346663 28.346427 C 28.346663 28.346427 17.009473 28.346427 17.009473 28.346427 C 17.009473 28.346427 22.678068 28.346427 14.175176 28.346427 C 5.668257 28.346427 11.336852 28.346427 11.336852 28.346427 C 11.336852 28.346427 -0.000337896 28.346427 -0.000337896 28.346427 L -0.197611 28.346427 L -0.000337896 28.346427 C -0.000337896 28.346427 1.134991 17.009237 -1.135667 17.009237 C -3.116455 17.009237 -7.371927 22.677832 -7.371927 14.174939 C -7.371927 5.668021 -3.116455 11.336616 -1.135667 11.336616 C 1.134991 11.336616 -0.000337896 -0.000574008 -0.000337896 -0.000574008 L -0.000337896 -0.197848 Z M -0.000337896 -0.000574008 " transform="matrix(0.970258, 0, 0, -0.970258, 7.551109, 27.890068)"/>
</g>
</svg>
