<?xml version="1.0" encoding="UTF-8"?>
<svg xmlns="http://www.w3.org/2000/svg" xmlns:xlink="http://www.w3.org/1999/xlink" width="37.249" height="36.314" viewBox="0 0 37.249 36.314">
<defs>
<clipPath id="clip-0">
<path clip-rule="nonzero" d="M 0 0.0234375 L 36 0.0234375 L 36 35.617188 L 0 35.617188 Z M 0 0.0234375 "/>
</clipPath>
<clipPath id="clip-1">
<path clip-rule="nonzero" d="M 0 0.0234375 L 36.511719 0.0234375 L 36.511719 35.617188 L 0 35.617188 Z M 0 0.0234375 "/>
</clipPath>
</defs>
<g clip-path="url(#clip-0)">
<path fill-rule="nonzero" fill="rgb(75%, 75%, 75%)" fill-opacity="1" d="M 7.417969 28.199219 C 7.417969 28.199219 18.535156 27.089844 18.535156 29.3125 C 18.535156 31.257812 12.976562 35.425781 21.3125 35.425781 C 29.648438 35.425781 24.089844 31.257812 24.089844 29.3125 C 24.089844 27.089844 35.207031 28.199219 35.207031 28.199219 L 35.402344 28.199219 L 35.207031 28.199219 C 35.207031 28.199219 36.316406 17.085938 34.09375 17.085938 C 32.148438 17.085938 27.980469 22.640625 27.980469 14.304688 C 27.980469 5.96875 32.148438 11.527344 34.09375 11.527344 C 36.316406 11.527344 35.207031 0.414062 35.207031 0.414062 L 35.207031 0.21875 L 35.207031 0.414062 C 35.207031 0.414062 24.089844 0.414062 24.089844 0.414062 C 24.089844 0.414062 29.648438 0.414062 21.3125 0.414062 C 12.976562 0.414062 18.535156 0.414062 18.535156 0.414062 C 18.535156 0.414062 7.417969 0.414062 7.417969 0.414062 L 7.222656 0.414062 L 7.417969 0.414062 C 7.417969 0.414062 8.53125 11.527344 6.308594 11.527344 C 4.363281 11.527344 0.195312 5.96875 0.195312 14.304688 C 0.195312 22.640625 4.363281 17.085938 6.308594 17.085938 C 8.53125 17.085938 7.417969 28.199219 7.417969 28.199219 L 7.417969 28.394531 Z M 7.417969 28.199219 "/>
</g>
<g clip-path="url(#clip-1)">
<path fill="none" stroke-width="0.3985" stroke-linecap="butt" stroke-linejoin="miter" stroke="rgb(75%, 75%, 75%)" stroke-opacity="1" stroke-miterlimit="10" d="M -0.00147302 0.000313901 C -0.00147302 0.000313901 11.339855 1.132056 11.339855 -1.135413 C 11.339855 -3.119946 5.669191 -7.371948 14.173194 -7.371948 C 22.677198 -7.371948 17.006534 -3.119946 17.006534 -1.135413 C 17.006534 1.132056 28.347862 0.000313901 28.347862 0.000313901 L 28.547112 0.000313901 L 28.347862 0.000313901 C 28.347862 0.000313901 29.479604 11.337657 27.212135 11.337657 C 25.227602 11.337657 20.9756 5.670978 20.9756 14.174981 C 20.9756 22.678985 25.227602 17.008321 27.212135 17.008321 C 29.479604 17.008321 28.347862 28.345664 28.347862 28.345664 L 28.347862 28.544914 L 28.347862 28.345664 C 28.347862 28.345664 17.006534 28.345664 17.006534 28.345664 C 17.006534 28.345664 22.677198 28.345664 14.173194 28.345664 C 5.669191 28.345664 11.339855 28.345664 11.339855 28.345664 C 11.339855 28.345664 -0.00147302 28.345664 -0.00147302 28.345664 L -0.200723 28.345664 L -0.00147302 28.345664 C -0.00147302 28.345664 1.134254 17.008321 -1.133215 17.008321 C -3.117748 17.008321 -7.36975 22.678985 -7.36975 14.174981 C -7.36975 5.670978 -3.117748 11.337657 -1.133215 11.337657 C 1.134254 11.337657 -0.00147302 0.000313901 -0.00147302 0.000313901 L -0.00147302 -0.198936 Z M -0.00147302 0.000313901 " transform="matrix(0.980237, 0, 0, -0.980237, 7.419413, 28.199526)"/>
</g>
</svg>
