<?xml version="1.0" encoding="UTF-8"?>
<svg xmlns="http://www.w3.org/2000/svg" xmlns:xlink="http://www.w3.org/1999/xlink" width="35.615" height="34.135" viewBox="0 0 35.615 34.135">
<defs>
<clipPath id="clip-0">
<path clip-rule="nonzero" d="M 0.253906 0 L 34.988281 0 L 34.988281 33.292969 L 0.253906 33.292969 Z M 0.253906 0 "/>
</clipPath>
</defs>
<g clip-path="url(#clip-0)">
<path fill-rule="nonzero" fill="rgb(75%, 75%, 75%)" fill-opacity="1" d="M 17.671875 0.171875 C 14.347656 0 11.078125 3.207031 11.726562 6.601562 C 11.726562 7.703125 12.921875 9.015625 13.121094 9.578125 C 9.675781 9.59375 6.242188 9.554688 2.800781 9.601562 C 1.285156 9.785156 0.253906 11.59375 0.953125 12.980469 C 2.703125 18.113281 4.445312 23.253906 6.195312 28.390625 C 4.890625 28.222656 2.75 28.296875 3.15625 30.179688 C 3.257812 31.207031 2.746094 32.769531 4.054688 33.191406 C 7.464844 33.289062 10.886719 33.207031 14.304688 33.234375 C 19.921875 33.234375 25.535156 33.234375 31.152344 33.234375 C 32.660156 33.050781 32.210938 31.285156 32.277344 30.222656 C 32.550781 29.09375 31.605469 28.132812 30.480469 28.390625 C 30.054688 28.28125 28.886719 28.710938 29.457031 27.890625 C 31.199219 22.707031 33.007812 17.53125 34.71875 12.332031 C 34.992188 10.757812 33.414062 9.355469 31.878906 9.578125 C 28.605469 9.585938 25.328125 9.578125 22.050781 9.578125 C 24.574219 7.355469 24.035156 2.820312 21.121094 1.175781 C 20.101562 0.511719 18.890625 0.164062 17.671875 0.171875 Z M 17.671875 0.171875 "/>
</g>
</svg>
