<?xml version="1.0" encoding="UTF-8"?>
<svg xmlns="http://www.w3.org/2000/svg" xmlns:xlink="http://www.w3.org/1999/xlink" width="30.392" height="33.905" viewBox="0 0 30.392 33.905">
<defs>
<clipPath id="clip-0">
<path clip-rule="nonzero" d="M 0 0.285156 L 29.796875 0.285156 L 29.796875 33.527344 L 0 33.527344 Z M 0 0.285156 "/>
</clipPath>
</defs>
<g clip-path="url(#clip-0)">
<path fill-rule="nonzero" fill="rgb(75%, 75%, 75%)" fill-opacity="1" d="M 1.667969 0.324219 C 0.535156 0.34375 0.636719 1.660156 1.152344 2.328125 C 1.410156 2.867188 1.679688 3.417969 1.945312 3.960938 C 1.3125 4.59375 0.59375 5.320312 0.753906 6.304688 C 0.769531 9.789062 0.71875 13.28125 0.777344 16.765625 C 0.910156 17.953125 1.96875 18.617188 2.988281 18.976562 C 4.097656 19.394531 5.121094 20.09375 6.3125 20.226562 C 7.140625 20.136719 7.945312 19.792969 8.679688 19.410156 C 9.765625 18.636719 9.796875 17.207031 10.222656 16.050781 C 10.332031 15.199219 10.984375 14.632812 11.734375 14.332031 C 12.132812 14.125 12.535156 13.90625 12.933594 13.699219 C 12.890625 15.25 13.007812 16.816406 12.851562 18.359375 C 12.625 19.785156 11.40625 20.695312 10.15625 21.226562 C 8.613281 22.054688 6.972656 22.710938 5.519531 23.703125 C 4.027344 24.863281 3.136719 26.738281 3.1875 28.632812 C 2.320312 28.714844 1.320312 28.390625 0.59375 28.992188 C 0.00390625 29.699219 0.320312 30.683594 0.246094 31.53125 C 0.144531 32.367188 0.367188 33.507812 1.4375 33.5 C 10.398438 33.5 19.359375 33.5 28.316406 33.5 C 29.425781 33.527344 29.65625 32.359375 29.558594 31.492188 C 29.476562 30.648438 29.800781 29.683594 29.199219 28.992188 C 28.898438 28.230469 27.464844 29.089844 27.589844 28.257812 C 27.574219 23.503906 27.625 18.75 27.554688 14 C 27.273438 8.390625 23.394531 3.203125 18.136719 1.277344 C 15.851562 0.34375 13.359375 0.285156 10.925781 0.324219 C 7.839844 0.324219 4.753906 0.324219 1.667969 0.324219 Z M 1.667969 0.324219 "/>
</g>
</svg>
