<?xml version="1.0" encoding="UTF-8"?>
<svg xmlns="http://www.w3.org/2000/svg" xmlns:xlink="http://www.w3.org/1999/xlink" width="92.41" height="63.78" viewBox="0 0 92.41 63.78">
<defs>
<clipPath id="clip-0">
<path clip-rule="nonzero" d="M 46 58 L 60 58 L 60 63.46875 L 46 63.46875 Z M 46 58 "/>
</clipPath>
<clipPath id="clip-1">
<path clip-rule="nonzero" d="M 32 58 L 46 58 L 46 63.46875 L 32 63.46875 Z M 32 58 "/>
</clipPath>
<clipPath id="clip-2">
<path clip-rule="nonzero" d="M 48 0.09375 L 66 0.09375 L 66 14 L 48 14 Z M 48 0.09375 "/>
</clipPath>
<clipPath id="clip-3">
<path clip-rule="nonzero" d="M 26 0.09375 L 43 0.09375 L 43 14 L 26 14 Z M 26 0.09375 "/>
</clipPath>
</defs>
<g clip-path="url(#clip-0)">
<path fill-rule="nonzero" fill="rgb(31.25%, 31.25%, 31.25%)" fill-opacity="1" d="M 59.574219 60.652344 C 59.574219 59.253906 56.671875 58.117188 53.09375 58.117188 C 49.515625 58.117188 46.617188 59.253906 46.617188 60.652344 C 46.617188 62.050781 49.515625 63.1875 53.09375 63.1875 C 56.671875 63.1875 59.574219 62.050781 59.574219 60.652344 Z M 59.574219 60.652344 "/>
</g>
<g clip-path="url(#clip-1)">
<path fill-rule="nonzero" fill="rgb(31.25%, 31.25%, 31.25%)" fill-opacity="1" d="M 45.207031 60.652344 C 45.207031 59.253906 42.308594 58.117188 38.730469 58.117188 C 35.152344 58.117188 32.25 59.253906 32.25 60.652344 C 32.25 62.050781 35.152344 63.1875 38.730469 63.1875 C 42.308594 63.1875 45.207031 62.050781 45.207031 60.652344 Z M 45.207031 60.652344 "/>
</g>
<g clip-path="url(#clip-2)">
<path fill-rule="nonzero" fill="rgb(62.5%, 62.5%, 62.5%)" fill-opacity="1" d="M 65.769531 7.132812 C 65.769531 3.558594 61.988281 0.65625 57.320312 0.65625 C 52.652344 0.65625 48.871094 3.558594 48.871094 7.132812 C 48.871094 10.710938 52.652344 13.613281 57.320312 13.613281 C 61.988281 13.613281 65.769531 10.710938 65.769531 7.132812 Z M 65.769531 7.132812 "/>
</g>
<g clip-path="url(#clip-3)">
<path fill-rule="nonzero" fill="rgb(62.5%, 62.5%, 62.5%)" fill-opacity="1" d="M 42.953125 7.132812 C 42.953125 3.558594 39.171875 0.65625 34.503906 0.65625 C 29.835938 0.65625 26.054688 3.558594 26.054688 7.132812 C 26.054688 10.710938 29.835938 13.613281 34.503906 13.613281 C 39.171875 13.613281 42.953125 10.710938 42.953125 7.132812 Z M 42.953125 7.132812 "/>
</g>
<path fill-rule="nonzero" fill="rgb(84.999084%, 84.999084%, 84.999084%)" fill-opacity="1" d="M 38.730469 7.132812 C 38.730469 5.269531 36.835938 3.753906 34.503906 3.753906 C 32.171875 3.753906 30.28125 5.269531 30.28125 7.132812 C 30.28125 9 32.171875 10.515625 34.503906 10.515625 C 36.835938 10.515625 38.730469 9 38.730469 7.132812 Z M 38.730469 7.132812 "/>
<path fill-rule="nonzero" fill="rgb(84.999084%, 84.999084%, 84.999084%)" fill-opacity="1" d="M 61.542969 7.132812 C 61.542969 5.269531 59.652344 3.753906 57.320312 3.753906 C 54.984375 3.753906 53.09375 5.269531 53.09375 7.132812 C 53.09375 9 54.984375 10.515625 57.320312 10.515625 C 59.652344 10.515625 61.542969 9 61.542969 7.132812 Z M 61.542969 7.132812 "/>
<path fill-rule="nonzero" fill="rgb(62.5%, 62.5%, 62.5%)" fill-opacity="1" d="M 32.355469 27 C 30.453125 26.308594 27.101562 30.726562 24.867188 36.867188 C 22.632812 43.003906 22.359375 48.542969 24.261719 49.234375 C 26.160156 49.925781 29.515625 45.511719 31.75 39.371094 C 33.984375 33.230469 34.253906 27.695312 32.355469 27 Z M 32.355469 27 "/>
<path fill-rule="nonzero" fill="rgb(31.25%, 31.25%, 31.25%)" fill-opacity="1" d="M 28.105469 49.132812 C 28.53125 47.964844 27.453125 46.496094 25.699219 45.859375 C 23.945312 45.222656 22.175781 45.652344 21.75 46.820312 C 21.324219 47.992188 22.402344 49.457031 24.15625 50.09375 C 25.910156 50.734375 27.679688 50.300781 28.105469 49.132812 Z M 28.105469 49.132812 "/>
<path fill-rule="nonzero" fill="rgb(62.5%, 62.5%, 62.5%)" fill-opacity="1" d="M 67.5625 49.234375 C 69.460938 48.542969 69.191406 43.003906 66.957031 36.867188 C 64.722656 30.726562 61.371094 26.308594 59.46875 27 C 57.570312 27.695312 57.839844 33.230469 60.074219 39.371094 C 62.308594 45.511719 65.660156 49.925781 67.5625 49.234375 Z M 67.5625 49.234375 "/>
<path fill-rule="nonzero" fill="rgb(31.25%, 31.25%, 31.25%)" fill-opacity="1" d="M 70.070312 46.820312 C 69.648438 45.652344 67.878906 45.222656 66.125 45.859375 C 64.371094 46.496094 63.292969 47.964844 63.71875 49.132812 C 64.144531 50.300781 65.914062 50.734375 67.667969 50.09375 C 69.421875 49.457031 70.496094 47.992188 70.070312 46.820312 Z M 70.070312 46.820312 "/>
<path fill-rule="nonzero" fill="rgb(62.5%, 62.5%, 62.5%)" fill-opacity="1" d="M 62.671875 40.371094 C 62.671875 58.960938 55.910156 61.214844 45.910156 61.214844 C 35.914062 61.214844 29.152344 58.960938 29.152344 40.371094 C 28.871094 21.78125 36.476562 6.851562 45.910156 6.851562 C 55.347656 6.851562 62.953125 21.78125 62.671875 40.371094 Z M 62.671875 40.371094 "/>
<path fill-rule="nonzero" fill="rgb(84.999084%, 84.999084%, 84.999084%)" fill-opacity="1" d="M 57.882812 46.285156 C 57.882812 54.738281 53.09375 58.679688 45.910156 58.679688 C 38.730469 58.679688 33.941406 54.738281 33.941406 46.285156 C 33.941406 37.835938 38.730469 32.484375 45.910156 32.484375 C 52.25 32.484375 57.882812 37.835938 57.882812 46.285156 Z M 57.882812 46.285156 "/>
<path fill-rule="nonzero" fill="rgb(62.5%, 62.5%, 62.5%)" fill-opacity="1" d="M 61.402344 19.246094 C 61.402344 12.246094 54.46875 6.570312 45.910156 6.570312 C 37.355469 6.570312 30.421875 12.246094 30.421875 19.246094 C 30.421875 26.246094 37.355469 31.921875 45.910156 31.921875 C 54.46875 31.921875 61.402344 26.246094 61.402344 19.246094 Z M 61.402344 19.246094 "/>
<path fill-rule="nonzero" fill="rgb(25%, 25%, 25%)" fill-opacity="1" d="M 41.683594 22.320312 C 40.886719 24.503906 43.582031 26.546875 45.910156 26.546875 C 48.242188 26.546875 50.9375 24.503906 50.140625 22.320312 C 49.546875 20.679688 49.253906 19.605469 48.023438 18.375 C 46.859375 17.207031 44.964844 17.207031 43.800781 18.375 C 42.570312 19.605469 42.277344 20.679688 41.683594 22.320312 Z M 41.683594 22.320312 "/>
<path fill-rule="nonzero" fill="rgb(0%, 0%, 0%)" fill-opacity="1" d="M 40.984375 17.273438 C 40.984375 16.03125 39.972656 15.019531 38.730469 15.019531 C 37.484375 15.019531 36.476562 16.03125 36.476562 17.273438 C 36.476562 18.519531 37.484375 19.527344 38.730469 19.527344 C 39.972656 19.527344 40.984375 18.519531 40.984375 17.273438 Z M 40.984375 17.273438 "/>
<path fill-rule="nonzero" fill="rgb(0%, 0%, 0%)" fill-opacity="1" d="M 55.347656 17.273438 C 55.347656 16.03125 54.339844 15.019531 53.09375 15.019531 C 51.851562 15.019531 50.839844 16.03125 50.839844 17.273438 C 50.839844 18.519531 51.851562 19.527344 53.09375 19.527344 C 54.339844 19.527344 55.347656 18.519531 55.347656 17.273438 Z M 55.347656 17.273438 "/>
<path fill-rule="nonzero" fill="rgb(100%, 100%, 100%)" fill-opacity="1" d="M 38.730469 16.710938 C 38.730469 16.476562 38.539062 16.289062 38.308594 16.289062 C 38.074219 16.289062 37.882812 16.476562 37.882812 16.710938 C 37.882812 16.945312 38.074219 17.132812 38.308594 17.132812 C 38.539062 17.132812 38.730469 16.945312 38.730469 16.710938 Z M 38.730469 16.710938 "/>
<path fill-rule="nonzero" fill="rgb(100%, 100%, 100%)" fill-opacity="1" d="M 53.09375 16.710938 C 53.09375 16.476562 52.90625 16.289062 52.671875 16.289062 C 52.4375 16.289062 52.25 16.476562 52.25 16.710938 C 52.25 16.945312 52.4375 17.132812 52.671875 17.132812 C 52.90625 17.132812 53.09375 16.945312 53.09375 16.710938 Z M 53.09375 16.710938 "/>
<path fill="none" stroke-width="0.3985" stroke-linecap="butt" stroke-linejoin="miter" stroke="rgb(25%, 25%, 25%)" stroke-opacity="1" stroke-miterlimit="10" d="M 3.261161 39.40256 C 2.219396 38.160304 0.591883 37.570626 -1.000248 37.84974 C -2.053807 38.034506 -3.005155 38.584873 -3.689182 39.40256 " transform="matrix(0.993656, 0, 0, -0.993656, 45.911872, 66.285399)"/>
</svg>
