<?xml version="1.0" encoding="UTF-8" standalone="no"?>
<svg
   width="49.89"
   height="63.78"
   viewBox="0 0 49.89 63.78"
   version="1.1"
   id="svg23"
   sodipodi:docname="koala.svg"
   xmlns:inkscape="http://www.inkscape.org/namespaces/inkscape"
   xmlns:sodipodi="http://sodipodi.sourceforge.net/DTD/sodipodi-0.dtd"
   xmlns="http://www.w3.org/2000/svg"
   xmlns:svg="http://www.w3.org/2000/svg">
  <sodipodi:namedview
     id="namedview23"
     pagecolor="#ffffff"
     bordercolor="#666666"
     borderopacity="1.0"
     inkscape:showpageshadow="2"
     inkscape:pageopacity="0.0"
     inkscape:pagecheckerboard="0"
     inkscape:deskcolor="#d1d1d1" />
  <defs
     id="defs4">
    <clipPath
       id="clip-0">
      <path
         clip-rule="nonzero"
         d="M 25 58 L 39 58 L 39 63.5625 L 25 63.5625 Z M 25 58 "
         id="path1" />
    </clipPath>
    <clipPath
       id="clip-1">
      <path
         clip-rule="nonzero"
         d="M 11 58 L 25 58 L 25 63.5625 L 11 63.5625 Z M 11 58 "
         id="path2" />
    </clipPath>
    <clipPath
       id="clip-2">
      <path
         clip-rule="nonzero"
         d="M 0.03125 45 L 8 45 L 8 51 L 0.03125 51 Z M 0.03125 45 "
         id="path3" />
    </clipPath>
    <clipPath
       id="clip-3">
      <path
         clip-rule="nonzero"
         d="M 42 45 L 49.75 45 L 49.75 51 L 42 51 Z M 42 45 "
         id="path4" />
    </clipPath>
  </defs>
  <g
     clip-path="url(#clip-0)"
     id="g5">
    <path
       id="path5"
       d="M 13.449219 0.56640625 C 8.7695308 0.56640625 4.9726562 3.472656 4.9726562 7.0625 C 4.9726562 10.034298 7.5760934 12.536663 11.126953 13.310547 C 9.9953308 15.074311 9.3515625 17.080302 9.3515625 19.210938 C 9.3515625 20.67624 9.6589912 22.082711 10.216797 23.392578 C 9.8172334 24.774967 9.4678233 26.219826 9.1738281 27.720703 C 7.4070375 29.209377 5.3287224 32.633427 3.7851562 36.878906 C 2.5537155 40.262151 1.9209137 43.45691 1.9121094 45.769531 C 1.3080373 45.967987 0.84983927 46.341219 0.66015625 46.863281 C 0.23046925 48.039062 1.3125005 49.507812 3.0703125 50.148438 C 4.8320315 50.789062 6.601562 50.355469 7.03125 49.183594 C 7.2584718 48.558212 7.0559308 47.848551 6.5507812 47.224609 C 7.1068887 46.533408 7.672015 45.698577 8.2265625 44.738281 C 8.7505558 52.280944 10.715352 56.448368 13.751953 58.712891 C 12.193845 59.176723 11.1875 59.910038 11.1875 60.734375 C 11.1875 62.140625 14.097656 63.277344 17.6875 63.277344 C 20.789424 63.277344 23.382993 62.426944 24.027344 61.287109 C 24.315432 61.29134 24.596876 61.300781 24.890625 61.300781 C 25.184374 61.300781 25.465818 61.29134 25.753906 61.287109 C 26.39753 62.426944 28.988448 63.277344 32.09375 63.277344 C 35.683594 63.277344 38.589844 62.140625 38.589844 60.734375 C 38.589844 59.910137 37.584022 59.178685 36.027344 58.714844 C 39.064931 56.450882 41.030368 52.283494 41.554688 44.740234 C 42.109166 45.699548 42.67464 46.533974 43.230469 47.224609 C 42.725724 47.848566 42.52277 48.55819 42.75 49.183594 C 43.175781 50.355469 44.949219 50.789062 46.707031 50.148438 C 48.46875 49.507812 49.546875 48.039062 49.121094 46.863281 C 48.931411 46.341219 48.473213 45.967987 47.869141 45.769531 C 47.860336 43.45691 47.227534 40.262151 45.996094 36.878906 C 44.452528 32.633427 42.374212 29.209377 40.607422 27.720703 C 40.313136 26.21834 39.962559 24.772303 39.5625 23.388672 C 40.119011 22.079877 40.425781 20.674831 40.425781 19.210938 C 40.425781 17.080198 39.781615 15.074373 38.650391 13.310547 C 42.202239 12.537605 44.804688 10.03534 44.804688 7.0625 C 44.804688 3.472656 41.011719 0.56640625 36.332031 0.56640625 C 31.798584 0.56640625 28.09432 3.2962996 27.867188 6.7304688 C 26.903454 6.5774283 25.909145 6.4960938 24.890625 6.4960938 C 23.872105 6.4960938 22.877893 6.5774283 21.914062 6.7304688 L 21.914062 6.7285156 C 21.68693 3.2943465 17.982666 0.56640625 13.449219 0.56640625 z " />
  </g>
  <g
     clip-path="url(#clip-1)"
     id="g6" />
  <g
     clip-path="url(#clip-2)"
     id="g12" />
  <g
     clip-path="url(#clip-3)"
     id="g14" />
</svg>
