<?xml version="1.0" encoding="UTF-8" standalone="no"?>
<svg
   width="43.37"
   height="58.677"
   viewBox="0 0 43.37 58.677"
   version="1.1"
   id="svg17"
   sodipodi:docname="marmot.svg"
   xmlns:inkscape="http://www.inkscape.org/namespaces/inkscape"
   xmlns:sodipodi="http://sodipodi.sourceforge.net/DTD/sodipodi-0.dtd"
   xmlns="http://www.w3.org/2000/svg"
   xmlns:svg="http://www.w3.org/2000/svg">
  <sodipodi:namedview
     id="namedview17"
     pagecolor="#ffffff"
     bordercolor="#666666"
     borderopacity="1.0"
     inkscape:showpageshadow="2"
     inkscape:pageopacity="0.0"
     inkscape:pagecheckerboard="0"
     inkscape:deskcolor="#d1d1d1" />
  <defs
     id="defs3">
    <clipPath
       id="clip-0">
      <path
         clip-rule="nonzero"
         d="M 22 0.261719 L 28 0.261719 L 28 8 L 22 8 Z M 22 0.261719 "
         id="path1" />
    </clipPath>
    <clipPath
       id="clip-1">
      <path
         clip-rule="nonzero"
         d="M 7 0.261719 L 13 0.261719 L 13 8 L 7 8 Z M 7 0.261719 "
         id="path2" />
    </clipPath>
    <clipPath
       id="clip-2">
      <path
         clip-rule="nonzero"
         d="M 17 42 L 42.75 42 L 42.75 52 L 17 52 Z M 17 42 "
         id="path3" />
    </clipPath>
  </defs>
  <path
     id="path4"
     d="M 10.339844 0.5390625 C 8.9492188 0.5390625 7.8242187 2.164062 7.8242188 4.171875 C 7.8242188 5.2201479 8.132033 6.1633802 8.6230469 6.8261719 C 3.8076616 12.659226 0.65622887 23.147974 0.83984375 35.1875 C 0.83984375 45.426723 2.9088367 50.664481 6.4453125 53.302734 C 4.9044921 53.762071 3.9101562 54.48738 3.9101562 55.304688 C 3.9101562 56.691406 6.7890618 57.820312 10.339844 57.820312 C 13.407554 57.820312 15.97346 56.974991 16.611328 55.849609 C 16.896175 55.853789 17.174393 55.863281 17.464844 55.863281 C 17.754162 55.863281 18.030686 55.853759 18.314453 55.849609 C 18.952383 56.974991 21.518754 57.820312 24.589844 57.820312 C 28.136719 57.820312 31.015625 56.691406 31.015625 55.304688 C 31.015625 54.487798 30.021102 53.764061 28.482422 53.304688 C 29.421674 52.604251 30.259609 51.72383 30.980469 50.611328 C 36.592179 49.152638 41.943602 46.277814 42.207031 42.71875 C 42.207031 41.606811 38.146179 44.609884 32.822266 46.410156 C 33.646086 43.576526 34.089844 39.91855 34.089844 35.1875 C 34.270888 23.149341 31.118369 12.661575 26.304688 6.828125 C 26.795581 6.1652825 27.101562 5.2206796 27.101562 4.171875 C 27.101562 2.164062 25.976562 0.5390625 24.589844 0.5390625 C 23.423445 0.5390625 22.445712 1.6828902 22.160156 3.2363281 C 20.670777 2.3954767 19.09643 1.9375 17.464844 1.9375 C 15.83173 1.9375 14.25613 2.3965887 12.765625 3.2382812 C 12.480605 1.6838744 11.50344 0.5390625 10.339844 0.5390625 z " />
  <g
     clip-path="url(#clip-0)"
     id="g6" />
  <g
     clip-path="url(#clip-1)"
     id="g7" />
  <g
     clip-path="url(#clip-2)"
     id="g8" />
</svg>
