<?xml version="1.0" encoding="UTF-8"?>
<svg xmlns="http://www.w3.org/2000/svg" xmlns:xlink="http://www.w3.org/1999/xlink" width="92.41" height="61.228" viewBox="0 0 92.41 61.228">
<defs>
<clipPath id="clip-0">
<path clip-rule="nonzero" d="M 32 55 L 46 55 L 46 60.464844 L 32 60.464844 Z M 32 55 "/>
</clipPath>
<clipPath id="clip-1">
<path clip-rule="nonzero" d="M 46 55 L 60 55 L 60 60.464844 L 46 60.464844 Z M 46 55 "/>
</clipPath>
</defs>
<g clip-path="url(#clip-0)">
<path fill-rule="nonzero" fill="rgb(37.5%, 25%, 12.5%)" fill-opacity="1" d="M 45.214844 57.667969 C 45.214844 56.273438 42.332031 55.148438 38.773438 55.148438 C 35.21875 55.148438 32.335938 56.273438 32.335938 57.667969 C 32.335938 59.058594 35.21875 60.1875 38.773438 60.1875 C 42.332031 60.1875 45.214844 59.058594 45.214844 57.667969 Z M 45.214844 57.667969 "/>
</g>
<g clip-path="url(#clip-1)">
<path fill-rule="nonzero" fill="rgb(37.5%, 25%, 12.5%)" fill-opacity="1" d="M 59.492188 57.667969 C 59.492188 56.273438 56.609375 55.148438 53.050781 55.148438 C 49.496094 55.148438 46.613281 56.273438 46.613281 57.667969 C 46.613281 59.058594 49.496094 60.1875 53.050781 60.1875 C 56.609375 60.1875 59.492188 59.058594 59.492188 57.667969 Z M 59.492188 57.667969 "/>
</g>
<path fill-rule="nonzero" fill="rgb(37.5%, 25%, 12.5%)" fill-opacity="1" d="M 55.570312 6.4375 C 55.570312 4.429688 54.445312 2.796875 53.050781 2.796875 C 51.660156 2.796875 50.53125 4.429688 50.53125 6.4375 C 50.53125 8.449219 51.660156 10.078125 53.050781 10.078125 C 54.445312 10.078125 55.570312 8.449219 55.570312 6.4375 Z M 55.570312 6.4375 "/>
<path fill-rule="nonzero" fill="rgb(37.5%, 25%, 12.5%)" fill-opacity="1" d="M 41.292969 6.4375 C 41.292969 4.429688 40.167969 2.796875 38.773438 2.796875 C 37.382812 2.796875 36.253906 4.429688 36.253906 6.4375 C 36.253906 8.449219 37.382812 10.078125 38.773438 10.078125 C 40.167969 10.078125 41.292969 8.449219 41.292969 6.4375 Z M 41.292969 6.4375 "/>
<path fill-rule="nonzero" fill="rgb(37.5%, 25%, 12.5%)" fill-opacity="1" d="M 70.707031 45.058594 C 70.144531 52.621094 46.660156 57.101562 46.382812 51.5 C 45.820312 48.136719 49.003906 50.957031 56.972656 49.820312 C 64.269531 48.777344 70.707031 43.65625 70.707031 45.058594 "/>
<path fill-rule="nonzero" fill="rgb(75%, 50%, 25%)" fill-opacity="1" d="M 62.570312 37.511719 C 62.570312 55.988281 55.851562 58.226562 45.914062 58.226562 C 35.976562 58.226562 29.257812 55.988281 29.257812 37.511719 C 28.976562 19.035156 36.535156 4.199219 45.914062 4.199219 C 55.292969 4.199219 62.851562 19.035156 62.570312 37.511719 Z M 62.570312 37.511719 "/>
<path fill-rule="nonzero" fill="rgb(87.5%, 75%, 62.5%)" fill-opacity="1" d="M 57.8125 43.390625 C 57.8125 51.789062 52.773438 52.90625 45.914062 52.90625 C 39.054688 52.90625 34.015625 51.789062 34.015625 43.390625 C 34.015625 34.992188 39.613281 27.992188 45.914062 27.992188 C 52.210938 27.992188 57.8125 34.992188 57.8125 43.390625 Z M 57.8125 43.390625 "/>
<path fill-rule="nonzero" fill="rgb(37.5%, 25%, 12.5%)" fill-opacity="1" d="M 58.988281 30.917969 C 57.101562 30.230469 54.539062 32.5 53.269531 35.988281 C 52.003906 39.472656 52.503906 42.855469 54.394531 43.542969 C 56.28125 44.230469 58.84375 41.964844 60.109375 38.476562 C 61.378906 34.988281 60.878906 31.605469 58.988281 30.917969 Z M 58.988281 30.917969 "/>
<path fill-rule="nonzero" fill="rgb(37.5%, 25%, 12.5%)" fill-opacity="1" d="M 37.433594 43.542969 C 39.324219 42.855469 39.824219 39.472656 38.554688 35.988281 C 37.285156 32.5 34.726562 30.230469 32.839844 30.917969 C 30.949219 31.605469 30.445312 34.988281 31.714844 38.476562 C 32.984375 41.964844 35.546875 44.230469 37.433594 43.542969 Z M 37.433594 43.542969 "/>
<path fill-rule="nonzero" fill="rgb(87.5%, 75%, 62.5%)" fill-opacity="1" d="M 52.351562 22.113281 C 52.351562 20.105469 49.46875 18.476562 45.914062 18.476562 C 42.359375 18.476562 39.476562 20.105469 39.476562 22.113281 C 39.476562 24.125 42.359375 25.753906 45.914062 25.753906 C 49.46875 25.753906 52.351562 24.125 52.351562 22.113281 Z M 52.351562 22.113281 "/>
<path fill-rule="nonzero" fill="rgb(37.5%, 25%, 12.5%)" fill-opacity="1" d="M 48.152344 18.476562 C 48.152344 17.238281 47.152344 16.234375 45.914062 16.234375 C 44.675781 16.234375 43.675781 17.238281 43.675781 18.476562 C 43.675781 19.710938 44.675781 20.714844 45.914062 20.714844 C 47.152344 20.714844 48.152344 19.710938 48.152344 18.476562 Z M 48.152344 18.476562 "/>
<path fill-rule="nonzero" fill="rgb(37.5%, 25%, 12.5%)" fill-opacity="1" d="M 42.972656 13.714844 C 42.972656 12.941406 42.347656 12.316406 41.574219 12.316406 C 40.800781 12.316406 40.175781 12.941406 40.175781 13.714844 C 40.175781 14.488281 40.800781 15.117188 41.574219 15.117188 C 42.347656 15.117188 42.972656 14.488281 42.972656 13.714844 Z M 42.972656 13.714844 "/>
<path fill-rule="nonzero" fill="rgb(37.5%, 25%, 12.5%)" fill-opacity="1" d="M 51.652344 13.714844 C 51.652344 12.941406 51.027344 12.316406 50.253906 12.316406 C 49.480469 12.316406 48.851562 12.941406 48.851562 13.714844 C 48.851562 14.488281 49.480469 15.117188 50.253906 15.117188 C 51.027344 15.117188 51.652344 14.488281 51.652344 13.714844 Z M 51.652344 13.714844 "/>
<path fill="none" stroke-width="0.3985" stroke-linecap="butt" stroke-linejoin="miter" stroke="rgb(37.5%, 25%, 12.5%)" stroke-opacity="1" stroke-miterlimit="10" d="M 4.110161 42.802175 C 3.251817 40.448651 0.649097 39.234312 -1.704427 40.092656 C -2.962277 40.551494 -3.955108 41.544325 -4.413946 42.802175 " transform="matrix(0.987548, 0, 0, -0.987548, 45.913673, 63.265312)"/>
</svg>
