<?xml version="1.0" encoding="UTF-8"?>
<svg xmlns="http://www.w3.org/2000/svg" xmlns:xlink="http://www.w3.org/1999/xlink" width="92.41" height="62.742" viewBox="0 0 92.41 62.742">
<path fill-rule="nonzero" fill="rgb(75%, 50%, 25%)" fill-opacity="1" d="M 44.347656 46.832031 C 44.347656 51.621094 51.015625 58.0625 55.515625 59.699219 L 58.304688 56.601562 C 54.660156 55.273438 48.613281 50.441406 48.613281 46.5625 "/>
<path fill-rule="nonzero" fill="rgb(37.5%, 25%, 12.5%)" fill-opacity="1" d="M 69.460938 60.007812 C 64 60.007812 60.644531 61.566406 55.515625 59.699219 L 58.304688 56.601562 C 62.59375 58.160156 64.964844 59.21875 69.460938 60.007812 "/>
<path fill-rule="nonzero" fill="rgb(75%, 50%, 25%)" fill-opacity="1" d="M 38.140625 45.265625 C 37.667969 42.585938 34.691406 42.039062 32.960938 42.039062 C 32.410156 42.039062 31.945312 42.480469 31.910156 43.027344 C 31.5625 48.808594 34.058594 53.796875 38.890625 56.988281 C 39.347656 57.285156 39.265625 57.445312 38.726562 57.53125 L 33.085938 58.4375 C 32.546875 58.523438 31.785156 58.75 31.398438 59.140625 C 31.242188 59.292969 31.242188 60.683594 31.398438 60.835938 C 31.785156 61.222656 32.539062 61.492188 33.085938 61.484375 C 43.277344 61.382812 44.363281 62.414062 44.363281 58.523438 C 44.363281 57.976562 44.445312 57.097656 44.546875 56.558594 L 45.386719 51.941406 "/>
<path fill-rule="nonzero" fill="rgb(75%, 50%, 25%)" fill-opacity="1" d="M 53.683594 45.265625 C 54.15625 42.585938 57.128906 42.039062 58.863281 42.039062 C 59.414062 42.039062 59.878906 42.480469 59.914062 43.027344 C 60.261719 48.808594 57.765625 53.796875 52.933594 56.988281 C 52.476562 57.285156 52.558594 57.445312 53.097656 57.53125 L 58.738281 58.4375 C 59.277344 58.523438 60.039062 58.75 60.425781 59.140625 C 60.582031 59.292969 60.582031 60.683594 60.425781 60.835938 C 60.039062 61.222656 59.28125 61.492188 58.738281 61.484375 C 48.546875 61.382812 47.460938 62.414062 47.460938 58.523438 C 47.460938 57.976562 47.378906 57.097656 47.277344 56.558594 L 46.4375 51.941406 "/>
<path fill-rule="nonzero" fill="rgb(75%, 50%, 25%)" fill-opacity="1" d="M 55.769531 42.039062 C 55.769531 36.59375 51.355469 32.179688 45.910156 32.179688 C 40.46875 32.179688 36.054688 36.59375 36.054688 42.039062 C 36.054688 47.484375 40.46875 51.898438 45.910156 51.898438 C 51.355469 51.898438 55.769531 47.484375 55.769531 42.039062 Z M 55.769531 42.039062 "/>
<path fill-rule="nonzero" fill="rgb(82.499695%, 64.99939%, 47.499084%)" fill-opacity="1" d="M 35.378906 26.546875 C 34.71875 34.09375 40.953125 37.5625 40.953125 45.136719 C 40.953125 50.574219 43.742188 50.574219 43.742188 45.136719 C 43.742188 44.226562 43.648438 43.371094 43.492188 42.558594 C 44.238281 43.410156 45.039062 44.265625 45.910156 45.136719 C 46.785156 44.265625 47.585938 43.410156 48.332031 42.558594 C 48.175781 43.371094 48.082031 44.226562 48.082031 45.136719 C 48.082031 50.574219 50.867188 50.574219 50.867188 45.136719 C 50.867188 37.5625 57.105469 34.09375 56.445312 26.546875 C 56.445312 23.511719 51.171875 19.167969 45.910156 17.253906 C 40.628906 19.175781 35.378906 23.53125 35.378906 26.546875 Z M 35.378906 26.546875 "/>
<path fill-rule="nonzero" fill="rgb(88.749695%, 77.49939%, 66.249084%)" fill-opacity="1" d="M 45.910156 20.351562 C 42.03125 20.351562 38.167969 22.664062 38.167969 26.546875 C 38.167969 32.269531 41.863281 34.894531 45.910156 38.941406 C 49.960938 34.894531 53.65625 32.269531 53.65625 26.546875 C 53.65625 22.664062 49.792969 20.351562 45.910156 20.351562 Z M 45.910156 20.351562 "/>
<path fill-rule="nonzero" fill="rgb(37.5%, 25%, 12.5%)" fill-opacity="1" d="M 39.152344 11.054688 C 39.152344 9.34375 37.765625 7.957031 36.054688 7.957031 C 34.34375 7.957031 32.953125 9.34375 32.953125 11.054688 C 32.953125 12.765625 34.34375 14.152344 36.054688 14.152344 C 37.765625 14.152344 39.152344 12.765625 39.152344 11.054688 Z M 39.152344 11.054688 "/>
<path fill-rule="nonzero" fill="rgb(37.5%, 25%, 12.5%)" fill-opacity="1" d="M 58.867188 11.054688 C 58.867188 9.34375 57.480469 7.957031 55.769531 7.957031 C 54.058594 7.957031 52.671875 9.34375 52.671875 11.054688 C 52.671875 12.765625 54.058594 14.152344 55.769531 14.152344 C 57.480469 14.152344 58.867188 12.765625 58.867188 11.054688 Z M 58.867188 11.054688 "/>
<path fill-rule="nonzero" fill="rgb(75%, 50%, 25%)" fill-opacity="1" d="M 55.488281 11.617188 C 55.488281 7.730469 51.199219 4.578125 45.910156 4.578125 C 40.621094 4.578125 36.335938 7.730469 36.335938 11.617188 C 36.335938 15.507812 40.621094 18.660156 45.910156 18.660156 C 51.199219 18.660156 55.488281 15.507812 55.488281 11.617188 Z M 55.488281 11.617188 "/>
<path fill-rule="nonzero" fill="rgb(88.749695%, 77.49939%, 66.249084%)" fill-opacity="1" d="M 56.617188 15.84375 C 56.617188 12.578125 51.824219 9.929688 45.910156 9.929688 C 40 9.929688 35.207031 12.578125 35.207031 15.84375 C 35.207031 19.109375 40 21.757812 45.910156 21.757812 C 51.824219 21.757812 56.617188 19.109375 56.617188 15.84375 Z M 56.617188 15.84375 "/>
<path fill-rule="nonzero" fill="rgb(37.5%, 25%, 12.5%)" fill-opacity="1" d="M 46.40625 15.878906 L 47.144531 14.605469 C 47.417969 14.132812 47.195312 13.75 46.648438 13.75 L 45.175781 13.75 C 44.628906 13.75 44.40625 14.132812 44.679688 14.605469 L 45.417969 15.878906 C 45.6875 16.351562 46.132812 16.351562 46.40625 15.878906 Z M 46.40625 15.878906 "/>
<path fill="none" stroke-width="0.3985" stroke-linecap="butt" stroke-linejoin="miter" stroke="rgb(37.5%, 25%, 12.5%)" stroke-opacity="1" stroke-miterlimit="10" d="M -4.534388 48.955967 C -4.534388 48.955967 -1.758968 45.921089 -0.00172621 48.189385 C 1.755516 45.921089 4.534867 48.955967 4.534867 48.955967 " transform="matrix(0.993656, 0, 0, -0.993656, 45.911872, 63.727418)"/>
<path fill-rule="nonzero" fill="rgb(56.25%, 37.5%, 18.75%)" fill-opacity="1" d="M 43.679688 9.722656 C 43.058594 8.648438 41.023438 8.65625 39.136719 9.746094 C 37.253906 10.832031 36.226562 12.589844 36.851562 13.667969 C 37.472656 14.746094 39.503906 14.738281 41.390625 13.648438 C 43.277344 12.558594 44.300781 10.800781 43.679688 9.722656 Z M 43.679688 9.722656 "/>
<path fill-rule="nonzero" fill="rgb(56.25%, 37.5%, 18.75%)" fill-opacity="1" d="M 54.972656 13.667969 C 55.597656 12.589844 54.570312 10.832031 52.683594 9.746094 C 50.800781 8.65625 48.765625 8.648438 48.144531 9.722656 C 47.519531 10.800781 48.546875 12.558594 50.433594 13.648438 C 52.316406 14.738281 54.351562 14.746094 54.972656 13.667969 Z M 54.972656 13.667969 "/>
<path fill-rule="nonzero" fill="rgb(0%, 0%, 0%)" fill-opacity="1" d="M 52.53125 11.335938 C 52.53125 10.480469 51.835938 9.789062 50.980469 9.789062 C 50.125 9.789062 49.433594 10.480469 49.433594 11.335938 C 49.433594 12.191406 50.125 12.886719 50.980469 12.886719 C 51.835938 12.886719 52.53125 12.191406 52.53125 11.335938 Z M 52.53125 11.335938 "/>
<path fill-rule="nonzero" fill="rgb(0%, 0%, 0%)" fill-opacity="1" d="M 42.390625 11.335938 C 42.390625 10.480469 41.699219 9.789062 40.84375 9.789062 C 39.988281 9.789062 39.292969 10.480469 39.292969 11.335938 C 39.292969 12.191406 39.988281 12.886719 40.84375 12.886719 C 41.699219 12.886719 42.390625 12.191406 42.390625 11.335938 Z M 42.390625 11.335938 "/>
<path fill-rule="nonzero" fill="rgb(100%, 100%, 100%)" fill-opacity="1" d="M 50.839844 10.773438 C 50.839844 10.617188 50.714844 10.492188 50.558594 10.492188 C 50.402344 10.492188 50.277344 10.617188 50.277344 10.773438 C 50.277344 10.929688 50.402344 11.054688 50.558594 11.054688 C 50.714844 11.054688 50.839844 10.929688 50.839844 10.773438 Z M 50.839844 10.773438 "/>
<path fill-rule="nonzero" fill="rgb(100%, 100%, 100%)" fill-opacity="1" d="M 40.699219 10.773438 C 40.699219 10.617188 40.574219 10.492188 40.417969 10.492188 C 40.261719 10.492188 40.136719 10.617188 40.136719 10.773438 C 40.136719 10.929688 40.261719 11.054688 40.417969 11.054688 C 40.574219 11.054688 40.699219 10.929688 40.699219 10.773438 Z M 40.699219 10.773438 "/>
</svg>
