<?xml version="1.0" encoding="UTF-8" standalone="no"?>
<svg
   width="39.685"
   height="59.057"
   viewBox="0 0 39.685 59.057"
   version="1.1"
   id="svg19"
   sodipodi:docname="meerkat.svg"
   xmlns:inkscape="http://www.inkscape.org/namespaces/inkscape"
   xmlns:sodipodi="http://sodipodi.sourceforge.net/DTD/sodipodi-0.dtd"
   xmlns="http://www.w3.org/2000/svg"
   xmlns:svg="http://www.w3.org/2000/svg">
  <defs
     id="defs19" />
  <sodipodi:namedview
     id="namedview19"
     pagecolor="#ffffff"
     bordercolor="#666666"
     borderopacity="1.0"
     inkscape:showpageshadow="2"
     inkscape:pageopacity="0.0"
     inkscape:pagecheckerboard="0"
     inkscape:deskcolor="#d1d1d1" />
  <path
     id="path1"
     d="M 15.503906 0.8359375 C 11.881725 0.8359375 8.7356059 2.3287359 7.1367188 4.5214844 C 6.7174923 4.3060908 6.2423517 4.1835938 5.7382812 4.1835938 C 4.0429693 4.1835938 2.6679687 5.5585943 2.6679688 7.2539062 C 2.6679688 8.8181094 3.8388927 10.10842 5.3515625 10.298828 C 5.0574584 10.836131 4.8984375 11.405979 4.8984375 11.996094 C 4.8984375 13.964642 6.6557359 15.703394 9.3476562 16.765625 C 6.8378961 18.667968 5.0664062 20.856523 5.0664062 22.597656 C 4.730278 26.450048 6.2090866 29.230362 7.7207031 32.046875 C 6.4770736 33.685596 5.7382812 35.728842 5.7382812 37.945312 C 5.7382812 38.157699 5.7483722 38.367163 5.7617188 38.576172 C 4.739933 38.087393 3.5488963 37.945312 2.6757812 37.945312 C 2.1289062 37.945312 1.6679695 38.382812 1.6328125 38.925781 C 1.2890625 44.648438 3.761719 49.589844 8.546875 52.753906 C 9 53.046875 8.9179688 53.203125 8.3867188 53.289062 L 2.8007812 54.1875 C 2.2617192 54.277344 1.507812 54.5 1.125 54.882812 C 0.972656 55.039062 0.972656 56.414062 1.125 56.566406 C 1.507812 56.949219 2.2578123 57.214844 2.8007812 57.207031 C 12.894531 57.105469 13.96875 58.128906 13.96875 54.273438 C 13.96875 53.730469 14.050781 52.859375 14.148438 52.328125 L 14.980469 47.753906 L 14.912109 47.691406 C 15.108241 47.703145 15.304819 47.710938 15.503906 47.710938 C 15.604846 47.710938 15.704482 47.706168 15.804688 47.703125 C 15.897018 47.841896 15.992245 47.979243 16.089844 48.117188 L 16.855469 52.328125 C 16.957031 52.859375 17.039062 53.730469 17.039062 54.273438 C 17.039062 58.128906 18.113281 57.105469 28.207031 57.207031 C 28.746094 57.214844 29.5 56.949219 29.878906 56.566406 C 29.909576 56.536503 29.932542 56.451359 29.951172 56.345703 C 32.730046 56.384004 35.348012 55.746094 38.828125 55.746094 C 34.378906 54.960938 32.027344 53.914062 27.78125 52.371094 C 26.900957 52.050382 25.87918 51.522225 24.837891 50.853516 C 28.049088 47.763222 29.652244 43.606291 29.371094 38.925781 C 29.339844 38.382812 28.875 37.945312 28.332031 37.945312 C 27.459362 37.945312 26.268525 38.087998 25.246094 38.576172 C 25.259452 38.367163 25.269531 38.157699 25.269531 37.945312 C 25.269531 35.728778 24.529357 33.68562 23.285156 32.046875 C 24.795767 29.230362 26.273628 26.450048 25.9375 22.597656 C 25.9375 20.850014 24.164906 18.663839 21.660156 16.765625 C 24.350513 15.703367 26.105469 13.964456 26.105469 11.996094 C 26.105469 11.40654 25.945698 10.837635 25.652344 10.300781 C 27.166502 10.112205 28.335938 8.8195315 28.335938 7.2539062 C 28.335938 5.5585943 26.964844 4.1835937 25.269531 4.1835938 C 24.763912 4.1835938 24.287843 4.3068039 23.867188 4.5234375 C 22.268855 2.3299771 19.124106 0.8359375 15.503906 0.8359375 z " />
</svg>
