<?xml version="1.0" encoding="UTF-8"?>
<svg xmlns="http://www.w3.org/2000/svg" xmlns:xlink="http://www.w3.org/1999/xlink" width="92.41" height="61.512" viewBox="0 0 92.41 61.512">
<path fill-rule="nonzero" fill="rgb(87.5%, 65.000916%, 52.500916%)" fill-opacity="1" d="M 45.207031 58.214844 C 45.207031 56.816406 42.3125 55.683594 38.742188 55.683594 C 35.167969 55.683594 32.273438 56.816406 32.273438 58.214844 C 32.273438 59.613281 35.167969 60.746094 38.742188 60.746094 C 42.3125 60.746094 45.207031 59.613281 45.207031 58.214844 Z M 45.207031 58.214844 "/>
<path fill-rule="nonzero" fill="rgb(87.5%, 65.000916%, 52.500916%)" fill-opacity="1" d="M 59.550781 58.214844 C 59.550781 56.816406 56.65625 55.683594 53.085938 55.683594 C 49.511719 55.683594 46.617188 56.816406 46.617188 58.214844 C 46.617188 59.613281 49.511719 60.746094 53.085938 60.746094 C 56.65625 60.746094 59.550781 59.613281 59.550781 58.214844 Z M 59.550781 58.214844 "/>
<path fill-rule="nonzero" fill="rgb(50%, 50%, 50%)" fill-opacity="1" d="M 70.820312 45.546875 C 70.257812 53.144531 46.664062 57.648438 46.382812 52.019531 C 45.820312 48.640625 49.015625 51.476562 57.023438 50.332031 C 64.351562 49.285156 70.820312 44.140625 70.820312 45.546875 "/>
<path fill-rule="nonzero" fill="rgb(50%, 50%, 50%)" fill-opacity="1" d="M 43.382812 5.90625 C 43.382812 5.90625 42.257812 0.5625 43.945312 0 C 43.382812 3.9375 47.035156 5.34375 47.035156 5.34375 C 47.035156 5.34375 46.476562 1.96875 47.601562 1.6875 C 47.601562 4.5 49.570312 5.34375 49.570312 5.34375 Z M 43.382812 5.90625 "/>
<path fill-rule="nonzero" fill="rgb(50%, 50%, 50%)" fill-opacity="1" d="M 62.644531 37.964844 C 62.644531 56.527344 55.894531 58.777344 45.914062 58.777344 C 35.929688 58.777344 29.179688 56.527344 29.179688 37.964844 C 28.898438 19.40625 36.492188 4.5 45.914062 4.5 C 55.332031 4.5 62.925781 19.40625 62.644531 37.964844 Z M 62.644531 37.964844 "/>
<path fill-rule="nonzero" fill="rgb(75%, 75%, 75%)" fill-opacity="1" d="M 57.863281 43.871094 C 57.863281 52.308594 52.800781 53.433594 45.914062 53.433594 C 39.023438 53.433594 33.960938 52.308594 33.960938 43.871094 C 33.960938 35.4375 39.585938 28.40625 45.914062 28.40625 C 52.242188 28.40625 57.863281 35.4375 57.863281 43.871094 Z M 57.863281 43.871094 "/>
<path fill-rule="nonzero" fill="rgb(50%, 50%, 50%)" fill-opacity="1" d="M 58.914062 32.519531 C 57.019531 31.828125 54.316406 34.460938 52.882812 38.402344 C 51.449219 42.34375 51.824219 46.097656 53.722656 46.789062 C 55.617188 47.480469 58.320312 44.84375 59.753906 40.90625 C 61.1875 36.964844 60.8125 33.210938 58.914062 32.519531 Z M 58.914062 32.519531 "/>
<path fill-rule="nonzero" fill="rgb(50%, 50%, 50%)" fill-opacity="1" d="M 38.105469 46.789062 C 40 46.097656 40.375 42.34375 38.941406 38.402344 C 37.507812 34.460938 34.808594 31.828125 32.910156 32.519531 C 31.011719 33.210938 30.636719 36.964844 32.070312 40.90625 C 33.503906 44.84375 36.207031 47.480469 38.105469 46.789062 Z M 38.105469 46.789062 "/>
<path fill-rule="nonzero" fill="rgb(100%, 100%, 100%)" fill-opacity="1" d="M 35.507812 46.964844 L 36.914062 48.933594 L 37.476562 46.964844 L 39.445312 48.371094 L 39.445312 45.839844 L 41.414062 47.246094 L 40.851562 44.996094 Z M 35.507812 46.964844 "/>
<path fill-rule="nonzero" fill="rgb(100%, 100%, 100%)" fill-opacity="1" d="M 56.316406 46.964844 L 54.910156 48.933594 L 54.347656 46.964844 L 52.378906 48.371094 L 52.378906 45.839844 L 50.414062 47.246094 L 50.972656 44.996094 Z M 56.316406 46.964844 "/>
<path fill-rule="nonzero" fill="rgb(87.5%, 65.000916%, 52.500916%)" fill-opacity="1" d="M 54.695312 43.445312 C 52.800781 42.753906 50.917969 43.140625 50.492188 44.308594 C 50.066406 45.476562 51.261719 46.984375 53.15625 47.675781 C 55.054688 48.363281 56.9375 47.976562 57.363281 46.8125 C 57.789062 45.644531 56.59375 44.136719 54.695312 43.445312 Z M 54.695312 43.445312 "/>
<path fill-rule="nonzero" fill="rgb(87.5%, 65.000916%, 52.500916%)" fill-opacity="1" d="M 38.667969 47.675781 C 40.5625 46.984375 41.757812 45.476562 41.332031 44.308594 C 40.90625 43.140625 39.023438 42.753906 37.128906 43.445312 C 35.230469 44.136719 34.035156 45.644531 34.460938 46.8125 C 34.886719 47.976562 36.769531 48.363281 38.667969 47.675781 Z M 38.667969 47.675781 "/>
<path fill-rule="nonzero" fill="rgb(87.5%, 65.000916%, 52.500916%)" fill-opacity="1" d="M 52.097656 22.78125 C 52.097656 21.65625 52.097656 20.8125 50.691406 19.96875 C 49.007812 19.40625 47.320312 17.15625 45.914062 17.15625 C 44.507812 17.15625 42.820312 19.40625 41.132812 19.96875 C 39.726562 20.8125 39.726562 21.65625 39.726562 22.78125 C 39.726562 24.75 41.976562 26.4375 45.914062 26.4375 C 49.847656 26.4375 52.097656 24.75 52.097656 22.78125 Z M 52.097656 22.78125 "/>
<path fill-rule="nonzero" fill="rgb(29.998779%, 29.998779%, 29.998779%)" fill-opacity="1" d="M 47.457031 16.875 C 47.457031 16.019531 46.765625 15.328125 45.914062 15.328125 C 45.058594 15.328125 44.367188 16.019531 44.367188 16.875 C 44.367188 17.726562 45.058594 18.421875 45.914062 18.421875 C 46.765625 18.421875 47.457031 17.726562 47.457031 16.875 Z M 47.457031 16.875 "/>
<path fill-rule="nonzero" fill="rgb(29.998779%, 29.998779%, 29.998779%)" fill-opacity="1" d="M 42.765625 13.898438 C 42.828125 13.675781 42.207031 13.3125 41.382812 13.09375 C 40.554688 12.871094 39.839844 12.875 39.777344 13.097656 C 39.71875 13.324219 40.339844 13.6875 41.164062 13.90625 C 41.988281 14.128906 42.707031 14.125 42.765625 13.898438 Z M 42.765625 13.898438 "/>
<path fill-rule="nonzero" fill="rgb(29.998779%, 29.998779%, 29.998779%)" fill-opacity="1" d="M 52.046875 13.097656 C 51.984375 12.875 51.269531 12.871094 50.445312 13.09375 C 49.617188 13.3125 49 13.675781 49.058594 13.898438 C 49.117188 14.125 49.835938 14.128906 50.660156 13.90625 C 51.488281 13.6875 52.105469 13.324219 52.046875 13.097656 Z M 52.046875 13.097656 "/>
<path fill="none" stroke-width="0.3985" stroke-linecap="butt" stroke-linejoin="miter" stroke="rgb(29.998779%, 29.998779%, 29.998779%)" stroke-opacity="1" stroke-miterlimit="10" d="M 4.112233 42.802423 C 3.253915 40.447954 0.651399 39.235284 -1.70307 40.093602 C -2.962987 40.550322 -3.955172 41.542507 -4.411892 42.802423 " transform="matrix(0.992129, 0, 0, -0.992129, 45.912322, 63.840527)"/>
</svg>
