<?xml version="1.0" encoding="UTF-8" standalone="no"?>
<svg
   width="43.37"
   height="61.512"
   viewBox="0 0 43.37 61.512"
   version="1.1"
   id="svg21"
   sodipodi:docname="moles.svg"
   xmlns:inkscape="http://www.inkscape.org/namespaces/inkscape"
   xmlns:sodipodi="http://sodipodi.sourceforge.net/DTD/sodipodi-0.dtd"
   xmlns="http://www.w3.org/2000/svg"
   xmlns:svg="http://www.w3.org/2000/svg">
  <sodipodi:namedview
     id="namedview21"
     pagecolor="#ffffff"
     bordercolor="#666666"
     borderopacity="1.0"
     inkscape:showpageshadow="2"
     inkscape:pageopacity="0.0"
     inkscape:pagecheckerboard="0"
     inkscape:deskcolor="#d1d1d1" />
  <defs
     id="defs4">
    <clipPath
       id="clip-0">
      <path
         clip-rule="nonzero"
         d="M 3 55 L 17 55 L 17 60.832031 L 3 60.832031 Z M 3 55 "
         id="path1" />
    </clipPath>
    <clipPath
       id="clip-1">
      <path
         clip-rule="nonzero"
         d="M 18 55 L 32 55 L 32 60.832031 L 18 60.832031 Z M 18 55 "
         id="path2" />
    </clipPath>
    <clipPath
       id="clip-2">
      <path
         clip-rule="nonzero"
         d="M 17 45 L 42.75 45 L 42.75 55 L 17 55 Z M 17 45 "
         id="path3" />
    </clipPath>
    <clipPath
       id="clip-3">
      <path
         clip-rule="nonzero"
         d="M 14 0.199219 L 22 0.199219 L 22 7 L 14 7 Z M 14 0.199219 "
         id="path4" />
    </clipPath>
  </defs>
  <g
     clip-path="url(#clip-0)"
     id="g5">
    <path
       id="path5"
       d="M 15.507812 0.19921875 C 14.286378 0.60636322 14.549202 3.5306415 14.78125 5.0898438 C 6.7046157 7.6031735 0.58605509 21.281094 0.83984375 37.921875 C 0.83984375 48.161042 2.9094529 53.398744 6.4472656 56.037109 C 4.9054128 56.496417 3.9101562 57.221435 3.9101562 58.039062 C 3.9101562 59.425781 6.7890618 60.550781 10.339844 60.550781 C 13.407554 60.550781 15.97346 59.708577 16.611328 58.583984 C 16.896175 58.588171 17.174393 58.597656 17.464844 58.597656 C 17.754162 58.597656 18.030686 58.58814 18.314453 58.583984 C 18.952383 59.708577 21.518754 60.550781 24.589844 60.550781 C 28.136719 60.550781 31.015625 59.425781 31.015625 58.039062 C 31.015625 57.221756 30.020496 56.496446 28.480469 56.037109 C 29.419568 55.336845 30.257682 54.457675 30.978516 53.345703 C 36.590896 51.887163 41.943573 49.012578 42.207031 45.453125 C 42.207031 44.341187 38.146179 47.344259 32.822266 49.144531 C 33.646158 46.31102 34.089844 42.652135 34.089844 37.921875 C 34.333983 21.68832 28.516563 8.2752386 20.736328 5.2949219 C 20.171436 4.901845 19.140625 3.9075727 19.140625 1.875 C 18.36884 2.0692956 18.397213 3.7287085 18.488281 4.7363281 C 18.149328 4.6968358 17.809008 4.671875 17.464844 4.671875 C 17.388902 4.671875 17.313981 4.6816514 17.238281 4.6835938 C 16.268983 3.8883129 15.183871 2.4668124 15.507812 0.19921875 z " />
  </g>
  <g
     clip-path="url(#clip-1)"
     id="g6" />
  <g
     clip-path="url(#clip-2)"
     id="g7" />
  <g
     clip-path="url(#clip-3)"
     id="g8" />
</svg>
