<?xml version="1.0" encoding="UTF-8"?>
<svg xmlns="http://www.w3.org/2000/svg" xmlns:xlink="http://www.w3.org/1999/xlink" width="65.222" height="66.614" viewBox="0 0 65.222 66.614">
<defs>
<clipPath id="clip-0">
<path clip-rule="nonzero" d="M 20 0.203125 L 36 0.203125 L 36 16 L 20 16 Z M 20 0.203125 "/>
</clipPath>
<clipPath id="clip-1">
<path clip-rule="nonzero" d="M 0 0.203125 L 16 0.203125 L 16 16 L 0 16 Z M 0 0.203125 "/>
</clipPath>
</defs>
<path fill-rule="nonzero" fill="rgb(70.748901%, 70.748901%, 70.748901%)" fill-opacity="1" d="M 17.226562 63.230469 C 17.226562 61.835938 14.34375 60.707031 10.785156 60.707031 C 7.226562 60.707031 4.34375 61.835938 4.34375 63.230469 C 4.34375 64.621094 7.226562 65.75 10.785156 65.75 C 14.34375 65.75 17.226562 64.621094 17.226562 63.230469 Z M 17.226562 63.230469 "/>
<path fill-rule="nonzero" fill="rgb(70.748901%, 70.748901%, 70.748901%)" fill-opacity="1" d="M 31.515625 63.230469 C 31.515625 61.835938 28.628906 60.707031 25.070312 60.707031 C 21.511719 60.707031 18.628906 61.835938 18.628906 63.230469 C 18.628906 64.621094 21.511719 65.75 25.070312 65.75 C 28.628906 65.75 31.515625 64.621094 31.515625 63.230469 Z M 31.515625 63.230469 "/>
<g clip-path="url(#clip-0)">
<path fill-rule="nonzero" fill="rgb(70.748901%, 70.748901%, 70.748901%)" fill-opacity="1" d="M 35.855469 8.042969 C 35.855469 3.714844 32.34375 0.203125 28.011719 0.203125 C 23.679688 0.203125 20.167969 3.714844 20.167969 8.042969 C 20.167969 12.375 23.679688 15.886719 28.011719 15.886719 C 32.34375 15.886719 35.855469 12.375 35.855469 8.042969 Z M 35.855469 8.042969 "/>
</g>
<g clip-path="url(#clip-1)">
<path fill-rule="nonzero" fill="rgb(70.748901%, 70.748901%, 70.748901%)" fill-opacity="1" d="M 15.6875 8.042969 C 15.6875 3.714844 12.175781 0.203125 7.84375 0.203125 C 3.511719 0.203125 0 3.714844 0 8.042969 C 0 12.375 3.511719 15.886719 7.84375 15.886719 C 12.175781 15.886719 15.6875 12.375 15.6875 8.042969 Z M 15.6875 8.042969 "/>
</g>
<path fill-rule="nonzero" fill="rgb(54.998779%, 54.998779%, 54.998779%)" fill-opacity="1" d="M 32.214844 8.042969 C 32.214844 5.722656 30.332031 3.84375 28.011719 3.84375 C 25.691406 3.84375 23.8125 5.722656 23.8125 8.042969 C 23.8125 10.367188 25.691406 12.246094 28.011719 12.246094 C 30.332031 12.246094 32.214844 10.367188 32.214844 8.042969 Z M 32.214844 8.042969 "/>
<path fill-rule="nonzero" fill="rgb(54.998779%, 54.998779%, 54.998779%)" fill-opacity="1" d="M 12.046875 8.042969 C 12.046875 5.722656 10.164062 3.84375 7.84375 3.84375 C 5.523438 3.84375 3.640625 5.722656 3.640625 8.042969 C 3.640625 10.367188 5.523438 12.246094 7.84375 12.246094 C 10.164062 12.246094 12.046875 10.367188 12.046875 8.042969 Z M 12.046875 8.042969 "/>
<path fill-rule="nonzero" fill="rgb(70.748901%, 70.748901%, 70.748901%)" fill-opacity="1" d="M 48.25 23.097656 C 55.820312 19.734375 64.453125 31.957031 62.546875 32.070312 C 43.597656 7.597656 41.285156 51.113281 28.316406 56.363281 C 25.011719 57.699219 17.75 57.980469 17.75 57.980469 C 15.753906 58.285156 15.511719 54.753906 17.671875 54.730469 C 17.671875 54.730469 18.945312 55.972656 27.777344 53.605469 C 36.726562 49.257812 39.253906 27.304688 48.25 23.097656 Z M 48.25 23.097656 "/>
<path fill-rule="nonzero" fill="rgb(54.998779%, 54.998779%, 54.998779%)" fill-opacity="1" d="M 34.597656 43.0625 C 34.597656 61.550781 27.871094 63.789062 17.929688 63.789062 C 7.984375 63.789062 1.261719 61.550781 1.261719 43.0625 C 0.980469 24.570312 8.542969 9.726562 17.929688 9.726562 C 27.3125 9.726562 34.875 24.570312 34.597656 43.0625 Z M 34.597656 43.0625 "/>
<path fill-rule="nonzero" fill="rgb(70.748901%, 70.748901%, 70.748901%)" fill-opacity="1" d="M 31.933594 18.410156 C 31.933594 24.570312 23.53125 33.816406 17.929688 36.335938 C 12.324219 33.816406 3.921875 24.570312 3.921875 18.410156 C 8.402344 4.402344 27.453125 4.402344 31.933594 18.410156 Z M 31.933594 18.410156 "/>
<path fill-rule="nonzero" fill="rgb(70.748901%, 70.748901%, 70.748901%)" fill-opacity="1" d="M 32.410156 43.65625 C 33.679688 40.164062 33.175781 36.777344 31.285156 36.089844 C 29.394531 35.402344 26.835938 37.675781 25.5625 41.164062 C 24.292969 44.652344 24.796875 48.039062 26.6875 48.726562 C 28.578125 49.414062 31.136719 47.144531 32.410156 43.65625 Z M 32.410156 43.65625 "/>
<path fill-rule="nonzero" fill="rgb(70.748901%, 70.748901%, 70.748901%)" fill-opacity="1" d="M 10.292969 41.164062 C 9.023438 37.675781 6.460938 35.402344 4.570312 36.089844 C 2.679688 36.777344 2.179688 40.164062 3.449219 43.65625 C 4.71875 47.144531 7.28125 49.414062 9.167969 48.726562 C 11.058594 48.039062 11.5625 44.652344 10.292969 41.164062 Z M 10.292969 41.164062 "/>
<path fill-rule="nonzero" fill="rgb(27.500916%, 27.500916%, 27.500916%)" fill-opacity="1" d="M 20.136719 35.089844 C 22.574219 34.660156 23.773438 36.507812 26.207031 36.9375 L 26.207031 36.65625 C 23.800781 36.234375 22.542969 34.664062 20.136719 35.089844 Z M 20.136719 35.089844 "/>
<path fill-rule="nonzero" fill="rgb(27.500916%, 27.500916%, 27.500916%)" fill-opacity="1" d="M 15.722656 35.089844 C 13.285156 34.660156 12.082031 36.507812 9.648438 36.9375 L 9.648438 36.65625 C 12.054688 36.234375 13.3125 34.664062 15.722656 35.089844 Z M 15.722656 35.089844 "/>
<path fill-rule="nonzero" fill="rgb(27.500916%, 27.500916%, 27.500916%)" fill-opacity="1" d="M 20.035156 34.710938 C 22.363281 33.863281 24.007812 34.632812 26.335938 35.476562 L 26.335938 35.199219 C 24.019531 34.355469 22.355469 33.867188 20.035156 34.710938 Z M 20.035156 34.710938 "/>
<path fill-rule="nonzero" fill="rgb(27.500916%, 27.500916%, 27.500916%)" fill-opacity="1" d="M 15.820312 34.710938 C 13.492188 33.863281 11.847656 34.632812 9.519531 35.476562 L 9.519531 35.199219 C 11.839844 34.355469 13.503906 33.867188 15.820312 34.710938 Z M 15.820312 34.710938 "/>
<path fill-rule="nonzero" fill="rgb(27.500916%, 27.500916%, 27.500916%)" fill-opacity="1" d="M 19.808594 34.257812 C 21.890625 32.90625 24.039062 32.238281 26.121094 33.585938 L 26.121094 33.304688 C 24.03125 31.949219 21.898438 32.902344 19.808594 34.257812 Z M 19.808594 34.257812 "/>
<path fill-rule="nonzero" fill="rgb(27.500916%, 27.500916%, 27.500916%)" fill-opacity="1" d="M 16.046875 34.257812 C 13.96875 32.90625 11.816406 32.238281 9.734375 33.585938 L 9.734375 33.304688 C 11.824219 31.949219 13.957031 32.902344 16.046875 34.257812 Z M 16.046875 34.257812 "/>
<path fill-rule="nonzero" fill="rgb(27.500916%, 27.500916%, 27.500916%)" fill-opacity="1" d="M 20.449219 33.871094 C 20.449219 32.480469 19.320312 31.351562 17.929688 31.351562 C 16.535156 31.351562 15.40625 32.480469 15.40625 33.871094 C 15.40625 35.265625 16.535156 36.394531 17.929688 36.394531 C 19.320312 36.394531 20.449219 35.265625 20.449219 33.871094 Z M 20.449219 33.871094 "/>
<path fill-rule="nonzero" fill="rgb(27.500916%, 27.500916%, 27.500916%)" fill-opacity="1" d="M 25.773438 21.769531 C 25.773438 20.996094 25.144531 20.371094 24.371094 20.371094 C 23.597656 20.371094 22.96875 20.996094 22.96875 21.769531 C 22.96875 22.542969 23.597656 23.171875 24.371094 23.171875 C 25.144531 23.171875 25.773438 22.542969 25.773438 21.769531 Z M 25.773438 21.769531 "/>
<path fill-rule="nonzero" fill="rgb(27.500916%, 27.500916%, 27.500916%)" fill-opacity="1" d="M 12.886719 21.769531 C 12.886719 20.996094 12.257812 20.371094 11.484375 20.371094 C 10.710938 20.371094 10.085938 20.996094 10.085938 21.769531 C 10.085938 22.542969 10.710938 23.171875 11.484375 23.171875 C 12.257812 23.171875 12.886719 22.542969 12.886719 21.769531 Z M 12.886719 21.769531 "/>
</svg>
