<?xml version="1.0" encoding="UTF-8" standalone="no"?>
<svg
   width="65.222"
   height="66.614"
   viewBox="0 0 65.222 66.614"
   version="1.1"
   id="svg22"
   sodipodi:docname="mouse.svg"
   xmlns:inkscape="http://www.inkscape.org/namespaces/inkscape"
   xmlns:sodipodi="http://sodipodi.sourceforge.net/DTD/sodipodi-0.dtd"
   xmlns="http://www.w3.org/2000/svg"
   xmlns:svg="http://www.w3.org/2000/svg">
  <sodipodi:namedview
     id="namedview22"
     pagecolor="#ffffff"
     bordercolor="#666666"
     borderopacity="1.0"
     inkscape:showpageshadow="2"
     inkscape:pageopacity="0.0"
     inkscape:pagecheckerboard="0"
     inkscape:deskcolor="#d1d1d1" />
  <defs
     id="defs2">
    <clipPath
       id="clip-0">
      <path
         clip-rule="nonzero"
         d="M 20 0.203125 L 36 0.203125 L 36 16 L 20 16 Z M 20 0.203125 "
         id="path1" />
    </clipPath>
    <clipPath
       id="clip-1">
      <path
         clip-rule="nonzero"
         d="M 0 0.203125 L 16 0.203125 L 16 16 L 0 16 Z M 0 0.203125 "
         id="path2" />
    </clipPath>
  </defs>
  <path
     id="path3"
     d="M 7.84375 0.203125 C 3.511719 0.203125 0 3.7148438 0 8.0429688 C 0 11.447543 2.1695954 14.342943 5.2011719 15.427734 C 4.6976724 16.33912 4.2663578 17.33316 3.921875 18.410156 C 3.921875 19.577729 4.2245163 20.857209 4.7519531 22.179688 C 2.4640774 27.883943 1.1411581 35.135635 1.2617188 43.0625 C 1.2617188 53.328676 3.3363825 58.580369 6.8828125 61.224609 C 5.3404363 61.68548 4.34375 62.411221 4.34375 63.230469 C 4.34375 64.621094 7.2265622 65.75 10.785156 65.75 C 13.865114 65.75 16.437594 64.904463 17.074219 63.775391 C 17.359785 63.77958 17.638508 63.789062 17.929688 63.789062 C 18.219424 63.789062 18.497062 63.77954 18.78125 63.775391 C 19.417875 64.904463 21.990356 65.75 25.070312 65.75 C 28.628906 65.75 31.515625 64.621094 31.515625 63.230469 C 31.515625 62.411221 30.518098 61.68548 28.974609 61.224609 C 31.457335 59.373822 33.217446 56.238339 34.050781 51.005859 C 42.519565 38.45148 46.765383 11.688732 62.546875 32.070312 C 64.453125 31.957031 55.820312 19.734375 48.25 23.097656 C 41.999897 26.020523 38.87118 37.505745 34.542969 45.705078 C 34.576183 44.859928 34.597656 43.987197 34.597656 43.0625 C 34.716558 35.134638 33.392161 27.882317 31.103516 22.177734 C 31.630519 20.855843 31.933594 19.577243 31.933594 18.410156 C 31.589111 17.33316 31.157796 16.33912 30.654297 15.427734 C 33.685873 14.342943 35.855469 11.447543 35.855469 8.0429688 C 35.855469 3.7148438 32.34375 0.203125 28.011719 0.203125 C 23.679688 0.203125 20.167969 3.7148438 20.167969 8.0429688 C 20.167969 8.0540801 20.167923 8.0650714 20.167969 8.0761719 C 18.684542 7.8489549 17.170927 7.8489549 15.6875 8.0761719 C 15.687546 8.0650714 15.6875 8.0540801 15.6875 8.0429688 C 15.6875 3.7148438 12.175781 0.203125 7.84375 0.203125 z " />
  <g
     clip-path="url(#clip-0)"
     id="g5" />
  <g
     clip-path="url(#clip-1)"
     id="g6" />
</svg>
