<?xml version="1.0" encoding="UTF-8"?>
<svg xmlns="http://www.w3.org/2000/svg" xmlns:xlink="http://www.w3.org/1999/xlink" width="68.34" height="67.133" viewBox="0 0 68.34 67.133">
<defs>
<clipPath id="clip-0">
<path clip-rule="nonzero" d="M 0.109375 0 L 16 0 L 16 16 L 0.109375 16 Z M 0.109375 0 "/>
</clipPath>
</defs>
<path fill-rule="nonzero" fill="rgb(75%, 75%, 75%)" fill-opacity="1" d="M 26.261719 53.746094 C 36.160156 46.101562 38.734375 27.039062 47.695312 22.839844 C 55.257812 19.476562 67.578125 31.519531 61.980469 31.800781 C 44.054688 12.195312 42.484375 51.921875 32.296875 58.683594 C 27.292969 62 13.363281 66.277344 14.359375 60.320312 C 15.273438 54.875 19.722656 58.792969 26.261719 53.746094 Z M 26.261719 53.746094 "/>
<path fill-rule="nonzero" fill="rgb(70.748901%, 70.748901%, 70.748901%)" fill-opacity="1" d="M 17.320312 62.964844 C 17.320312 61.574219 14.4375 60.449219 10.882812 60.449219 C 7.328125 60.449219 4.449219 61.574219 4.449219 62.964844 C 4.449219 64.359375 7.328125 65.484375 10.882812 65.484375 C 14.4375 65.484375 17.320312 64.359375 17.320312 62.964844 Z M 17.320312 62.964844 "/>
<path fill-rule="nonzero" fill="rgb(70.748901%, 70.748901%, 70.748901%)" fill-opacity="1" d="M 31.59375 62.964844 C 31.59375 61.574219 28.710938 60.449219 25.15625 60.449219 C 21.601562 60.449219 18.71875 61.574219 18.71875 62.964844 C 18.71875 64.359375 21.601562 65.484375 25.15625 65.484375 C 28.710938 65.484375 31.59375 64.359375 31.59375 62.964844 Z M 31.59375 62.964844 "/>
<path fill-rule="nonzero" fill="rgb(70.748901%, 70.748901%, 70.748901%)" fill-opacity="1" d="M 35.929688 7.835938 C 35.929688 3.507812 32.421875 0 28.09375 0 C 23.769531 0 20.257812 3.507812 20.257812 7.835938 C 20.257812 12.164062 23.769531 15.671875 28.09375 15.671875 C 32.421875 15.671875 35.929688 12.164062 35.929688 7.835938 Z M 35.929688 7.835938 "/>
<g clip-path="url(#clip-0)">
<path fill-rule="nonzero" fill="rgb(70.748901%, 70.748901%, 70.748901%)" fill-opacity="1" d="M 15.78125 7.835938 C 15.78125 3.507812 12.273438 0 7.945312 0 C 3.617188 0 0.109375 3.507812 0.109375 7.835938 C 0.109375 12.164062 3.617188 15.671875 7.945312 15.671875 C 12.273438 15.671875 15.78125 12.164062 15.78125 7.835938 Z M 15.78125 7.835938 "/>
</g>
<path fill-rule="nonzero" fill="rgb(54.998779%, 54.998779%, 54.998779%)" fill-opacity="1" d="M 32.292969 7.835938 C 32.292969 5.515625 30.414062 3.636719 28.09375 3.636719 C 25.777344 3.636719 23.898438 5.515625 23.898438 7.835938 C 23.898438 10.152344 25.777344 12.03125 28.09375 12.03125 C 30.414062 12.03125 32.292969 10.152344 32.292969 7.835938 Z M 32.292969 7.835938 "/>
<path fill-rule="nonzero" fill="rgb(54.998779%, 54.998779%, 54.998779%)" fill-opacity="1" d="M 12.144531 7.835938 C 12.144531 5.515625 10.265625 3.636719 7.945312 3.636719 C 5.628906 3.636719 3.75 5.515625 3.75 7.835938 C 3.75 10.152344 5.628906 12.03125 7.945312 12.03125 C 10.265625 12.03125 12.144531 10.152344 12.144531 7.835938 Z M 12.144531 7.835938 "/>
<path fill-rule="nonzero" fill="rgb(70.748901%, 70.748901%, 70.748901%)" fill-opacity="1" d="M 48.316406 22.875 C 55.875 19.511719 64.5 31.722656 62.597656 31.835938 C 43.667969 7.386719 41.355469 50.863281 28.398438 56.105469 C 25.097656 57.441406 17.839844 57.722656 17.839844 57.722656 C 15.847656 58.027344 15.609375 54.5 17.761719 54.476562 C 17.761719 54.476562 19.035156 55.714844 27.859375 53.351562 C 36.800781 49.007812 39.324219 27.074219 48.316406 22.875 Z M 48.316406 22.875 "/>
<path fill-rule="nonzero" fill="rgb(54.998779%, 54.998779%, 54.998779%)" fill-opacity="1" d="M 34.671875 42.816406 C 34.671875 61.289062 27.957031 63.527344 18.019531 63.527344 C 8.085938 63.527344 1.371094 61.289062 1.371094 42.816406 C 1.089844 24.347656 8.644531 9.515625 18.019531 9.515625 C 27.394531 9.515625 34.953125 24.347656 34.671875 42.816406 Z M 34.671875 42.816406 "/>
<path fill-rule="nonzero" fill="rgb(70.748901%, 70.748901%, 70.748901%)" fill-opacity="1" d="M 32.011719 18.191406 C 32.011719 24.347656 23.617188 33.582031 18.019531 36.101562 C 12.421875 33.582031 4.027344 24.347656 4.027344 18.191406 C 8.503906 4.195312 27.535156 4.195312 32.011719 18.191406 Z M 32.011719 18.191406 "/>
<path fill-rule="nonzero" fill="rgb(70.748901%, 70.748901%, 70.748901%)" fill-opacity="1" d="M 32.488281 43.410156 C 33.753906 39.925781 33.253906 36.542969 31.363281 35.855469 C 29.476562 35.167969 26.917969 37.4375 25.648438 40.921875 C 24.378906 44.40625 24.882812 47.789062 26.769531 48.476562 C 28.660156 49.164062 31.21875 46.894531 32.488281 43.410156 Z M 32.488281 43.410156 "/>
<path fill-rule="nonzero" fill="rgb(70.748901%, 70.748901%, 70.748901%)" fill-opacity="1" d="M 10.390625 40.921875 C 9.125 37.4375 6.5625 35.167969 4.675781 35.855469 C 2.789062 36.542969 2.285156 39.925781 3.554688 43.410156 C 4.824219 46.894531 7.382812 49.164062 9.269531 48.476562 C 11.160156 47.789062 11.660156 44.40625 10.390625 40.921875 Z M 10.390625 40.921875 "/>
<path fill-rule="nonzero" fill="rgb(27.500916%, 27.500916%, 27.500916%)" fill-opacity="1" d="M 20.226562 34.851562 C 22.660156 34.425781 23.859375 36.269531 26.292969 36.699219 L 26.292969 36.417969 C 23.890625 35.996094 22.632812 34.429688 20.226562 34.851562 Z M 20.226562 34.851562 "/>
<path fill-rule="nonzero" fill="rgb(27.500916%, 27.500916%, 27.500916%)" fill-opacity="1" d="M 15.816406 34.851562 C 13.378906 34.425781 12.179688 36.269531 9.75 36.699219 L 9.75 36.417969 C 12.152344 35.996094 13.410156 34.429688 15.816406 34.851562 Z M 15.816406 34.851562 "/>
<path fill-rule="nonzero" fill="rgb(27.500916%, 27.500916%, 27.500916%)" fill-opacity="1" d="M 20.125 34.476562 C 22.449219 33.628906 24.097656 34.394531 26.421875 35.242188 L 26.421875 34.960938 C 24.105469 34.117188 22.441406 33.632812 20.125 34.476562 Z M 20.125 34.476562 "/>
<path fill-rule="nonzero" fill="rgb(27.500916%, 27.500916%, 27.500916%)" fill-opacity="1" d="M 15.917969 34.476562 C 13.589844 33.628906 11.945312 34.394531 9.621094 35.242188 L 9.621094 34.960938 C 11.9375 34.117188 13.597656 33.632812 15.917969 34.476562 Z M 15.917969 34.476562 "/>
<path fill-rule="nonzero" fill="rgb(27.500916%, 27.500916%, 27.500916%)" fill-opacity="1" d="M 19.898438 34.019531 C 21.976562 32.671875 24.128906 32.003906 26.207031 33.351562 L 26.207031 33.074219 C 24.117188 31.71875 21.984375 32.667969 19.898438 34.019531 Z M 19.898438 34.019531 "/>
<path fill-rule="nonzero" fill="rgb(27.500916%, 27.500916%, 27.500916%)" fill-opacity="1" d="M 16.144531 34.019531 C 14.0625 32.671875 11.914062 32.003906 9.835938 33.351562 L 9.835938 33.074219 C 11.921875 31.71875 14.054688 32.667969 16.144531 34.019531 Z M 16.144531 34.019531 "/>
<path fill-rule="nonzero" fill="rgb(27.500916%, 27.500916%, 27.500916%)" fill-opacity="1" d="M 20.539062 33.636719 C 20.539062 32.246094 19.410156 31.121094 18.019531 31.121094 C 16.628906 31.121094 15.503906 32.246094 15.503906 33.636719 C 15.503906 35.027344 16.628906 36.15625 18.019531 36.15625 C 19.410156 36.15625 20.539062 35.027344 20.539062 33.636719 Z M 20.539062 33.636719 "/>
<path fill-rule="nonzero" fill="rgb(27.500916%, 27.500916%, 27.500916%)" fill-opacity="1" d="M 25.855469 21.546875 C 25.855469 20.777344 25.230469 20.148438 24.457031 20.148438 C 23.683594 20.148438 23.058594 20.777344 23.058594 21.546875 C 23.058594 22.320312 23.683594 22.949219 24.457031 22.949219 C 25.230469 22.949219 25.855469 22.320312 25.855469 21.546875 Z M 25.855469 21.546875 "/>
<path fill-rule="nonzero" fill="rgb(27.500916%, 27.500916%, 27.500916%)" fill-opacity="1" d="M 12.984375 21.546875 C 12.984375 20.777344 12.355469 20.148438 11.585938 20.148438 C 10.8125 20.148438 10.183594 20.777344 10.183594 21.546875 C 10.183594 22.320312 10.8125 22.949219 11.585938 22.949219 C 12.355469 22.949219 12.984375 22.320312 12.984375 21.546875 Z M 12.984375 21.546875 "/>
</svg>
