<?xml version="1.0" encoding="UTF-8"?>
<svg xmlns="http://www.w3.org/2000/svg" xmlns:xlink="http://www.w3.org/1999/xlink" width="96.403" height="67.133" viewBox="0 0 96.403 67.133">
<path fill-rule="nonzero" fill="rgb(75%, 75%, 75%)" fill-opacity="1" d="M 54.175781 53.746094 C 64.074219 46.101562 66.648438 27.039062 75.609375 22.839844 C 83.171875 19.476562 95.496094 31.519531 89.894531 31.800781 C 71.96875 12.195312 70.398438 51.921875 60.210938 58.683594 C 55.210938 62 41.277344 66.277344 42.273438 60.320312 C 43.1875 54.875 47.636719 58.792969 54.175781 53.746094 Z M 54.175781 53.746094 "/>
<path fill-rule="nonzero" fill="rgb(70.748901%, 70.748901%, 70.748901%)" fill-opacity="1" d="M 45.234375 62.964844 C 45.234375 61.574219 42.355469 60.449219 38.800781 60.449219 C 35.246094 60.449219 32.363281 61.574219 32.363281 62.964844 C 32.363281 64.359375 35.246094 65.484375 38.800781 65.484375 C 42.355469 65.484375 45.234375 64.359375 45.234375 62.964844 Z M 45.234375 62.964844 "/>
<path fill-rule="nonzero" fill="rgb(70.748901%, 70.748901%, 70.748901%)" fill-opacity="1" d="M 59.507812 62.964844 C 59.507812 61.574219 56.628906 60.449219 53.070312 60.449219 C 49.515625 60.449219 46.636719 61.574219 46.636719 62.964844 C 46.636719 64.359375 49.515625 65.484375 53.070312 65.484375 C 56.628906 65.484375 59.507812 64.359375 59.507812 62.964844 Z M 59.507812 62.964844 "/>
<path fill-rule="nonzero" fill="rgb(70.748901%, 70.748901%, 70.748901%)" fill-opacity="1" d="M 63.847656 7.835938 C 63.847656 3.507812 60.339844 0 56.011719 0 C 51.683594 0 48.175781 3.507812 48.175781 7.835938 C 48.175781 12.164062 51.683594 15.671875 56.011719 15.671875 C 60.339844 15.671875 63.847656 12.164062 63.847656 7.835938 Z M 63.847656 7.835938 "/>
<path fill-rule="nonzero" fill="rgb(70.748901%, 70.748901%, 70.748901%)" fill-opacity="1" d="M 43.695312 7.835938 C 43.695312 3.507812 40.1875 0 35.859375 0 C 31.535156 0 28.023438 3.507812 28.023438 7.835938 C 28.023438 12.164062 31.535156 15.671875 35.859375 15.671875 C 40.1875 15.671875 43.695312 12.164062 43.695312 7.835938 Z M 43.695312 7.835938 "/>
<path fill-rule="nonzero" fill="rgb(54.998779%, 54.998779%, 54.998779%)" fill-opacity="1" d="M 60.207031 7.835938 C 60.207031 5.515625 58.328125 3.636719 56.011719 3.636719 C 53.691406 3.636719 51.8125 5.515625 51.8125 7.835938 C 51.8125 10.152344 53.691406 12.03125 56.011719 12.03125 C 58.328125 12.03125 60.207031 10.152344 60.207031 7.835938 Z M 60.207031 7.835938 "/>
<path fill-rule="nonzero" fill="rgb(54.998779%, 54.998779%, 54.998779%)" fill-opacity="1" d="M 40.058594 7.835938 C 40.058594 5.515625 38.179688 3.636719 35.859375 3.636719 C 33.542969 3.636719 31.664062 5.515625 31.664062 7.835938 C 31.664062 10.152344 33.542969 12.03125 35.859375 12.03125 C 38.179688 12.03125 40.058594 10.152344 40.058594 7.835938 Z M 40.058594 7.835938 "/>
<path fill-rule="nonzero" fill="rgb(70.748901%, 70.748901%, 70.748901%)" fill-opacity="1" d="M 76.230469 22.875 C 83.792969 19.511719 92.417969 31.722656 90.511719 31.835938 C 71.582031 7.386719 69.269531 50.863281 56.3125 56.105469 C 53.011719 57.441406 45.757812 57.722656 45.757812 57.722656 C 43.765625 58.027344 43.523438 54.5 45.679688 54.476562 C 45.679688 54.476562 46.953125 55.714844 55.773438 53.351562 C 64.714844 49.007812 67.242188 27.074219 76.230469 22.875 Z M 76.230469 22.875 "/>
<path fill-rule="nonzero" fill="rgb(54.998779%, 54.998779%, 54.998779%)" fill-opacity="1" d="M 62.585938 42.816406 C 62.585938 61.289062 55.871094 63.527344 45.9375 63.527344 C 36 63.527344 29.285156 61.289062 29.285156 42.816406 C 29.003906 24.347656 36.558594 9.515625 45.9375 9.515625 C 55.3125 9.515625 62.867188 24.347656 62.585938 42.816406 Z M 62.585938 42.816406 "/>
<path fill-rule="nonzero" fill="rgb(70.748901%, 70.748901%, 70.748901%)" fill-opacity="1" d="M 59.929688 18.191406 C 59.929688 24.347656 51.53125 33.582031 45.9375 36.101562 C 40.339844 33.582031 31.941406 24.347656 31.941406 18.191406 C 36.421875 4.195312 55.449219 4.195312 59.929688 18.191406 Z M 59.929688 18.191406 "/>
<path fill-rule="nonzero" fill="rgb(70.748901%, 70.748901%, 70.748901%)" fill-opacity="1" d="M 60.402344 43.410156 C 61.671875 39.925781 61.167969 36.542969 59.28125 35.855469 C 57.390625 35.167969 54.832031 37.4375 53.5625 40.921875 C 52.296875 44.40625 52.796875 47.789062 54.6875 48.476562 C 56.574219 49.164062 59.132812 46.894531 60.402344 43.410156 Z M 60.402344 43.410156 "/>
<path fill-rule="nonzero" fill="rgb(70.748901%, 70.748901%, 70.748901%)" fill-opacity="1" d="M 38.308594 40.921875 C 37.039062 37.4375 34.480469 35.167969 32.589844 35.855469 C 30.703125 36.542969 30.199219 39.925781 31.46875 43.410156 C 32.738281 46.894531 35.296875 49.164062 37.1875 48.476562 C 39.074219 47.789062 39.574219 44.40625 38.308594 40.921875 Z M 38.308594 40.921875 "/>
<path fill-rule="nonzero" fill="rgb(27.500916%, 27.500916%, 27.500916%)" fill-opacity="1" d="M 48.140625 34.851562 C 50.574219 34.425781 51.773438 36.269531 54.207031 36.699219 L 54.207031 36.417969 C 51.804688 35.996094 50.546875 34.429688 48.140625 34.851562 Z M 48.140625 34.851562 "/>
<path fill-rule="nonzero" fill="rgb(27.500916%, 27.500916%, 27.500916%)" fill-opacity="1" d="M 43.730469 34.851562 C 41.296875 34.425781 40.09375 36.269531 37.664062 36.699219 L 37.664062 36.417969 C 40.066406 35.996094 41.324219 34.429688 43.730469 34.851562 Z M 43.730469 34.851562 "/>
<path fill-rule="nonzero" fill="rgb(27.500916%, 27.500916%, 27.500916%)" fill-opacity="1" d="M 48.039062 34.476562 C 50.367188 33.628906 52.011719 34.394531 54.335938 35.242188 L 54.335938 34.960938 C 52.019531 34.117188 50.359375 33.632812 48.039062 34.476562 Z M 48.039062 34.476562 "/>
<path fill-rule="nonzero" fill="rgb(27.500916%, 27.500916%, 27.500916%)" fill-opacity="1" d="M 43.832031 34.476562 C 41.503906 33.628906 39.859375 34.394531 37.535156 35.242188 L 37.535156 34.960938 C 39.851562 34.117188 41.515625 33.632812 43.832031 34.476562 Z M 43.832031 34.476562 "/>
<path fill-rule="nonzero" fill="rgb(27.500916%, 27.500916%, 27.500916%)" fill-opacity="1" d="M 47.8125 34.019531 C 49.894531 32.671875 52.042969 32.003906 54.121094 33.351562 L 54.121094 33.074219 C 52.035156 31.71875 49.902344 32.667969 47.8125 34.019531 Z M 47.8125 34.019531 "/>
<path fill-rule="nonzero" fill="rgb(27.500916%, 27.500916%, 27.500916%)" fill-opacity="1" d="M 44.058594 34.019531 C 41.980469 32.671875 39.828125 32.003906 37.75 33.351562 L 37.75 33.074219 C 39.835938 31.71875 41.96875 32.667969 44.058594 34.019531 Z M 44.058594 34.019531 "/>
<path fill-rule="nonzero" fill="rgb(27.500916%, 27.500916%, 27.500916%)" fill-opacity="1" d="M 48.453125 33.636719 C 48.453125 32.246094 47.328125 31.121094 45.9375 31.121094 C 44.542969 31.121094 43.417969 32.246094 43.417969 33.636719 C 43.417969 35.027344 44.542969 36.15625 45.9375 36.15625 C 47.328125 36.15625 48.453125 35.027344 48.453125 33.636719 Z M 48.453125 33.636719 "/>
<path fill-rule="nonzero" fill="rgb(27.500916%, 27.500916%, 27.500916%)" fill-opacity="1" d="M 53.773438 21.546875 C 53.773438 20.777344 53.144531 20.148438 52.371094 20.148438 C 51.597656 20.148438 50.972656 20.777344 50.972656 21.546875 C 50.972656 22.320312 51.597656 22.949219 52.371094 22.949219 C 53.144531 22.949219 53.773438 22.320312 53.773438 21.546875 Z M 53.773438 21.546875 "/>
<path fill-rule="nonzero" fill="rgb(27.500916%, 27.500916%, 27.500916%)" fill-opacity="1" d="M 40.898438 21.546875 C 40.898438 20.777344 40.273438 20.148438 39.5 20.148438 C 38.726562 20.148438 38.101562 20.777344 38.101562 21.546875 C 38.101562 22.320312 38.726562 22.949219 39.5 22.949219 C 40.273438 22.949219 40.898438 22.320312 40.898438 21.546875 Z M 40.898438 21.546875 "/>
</svg>
