<?xml version="1.0" encoding="UTF-8" standalone="no"?>
<svg
   width="68.34"
   height="67.133"
   viewBox="0 0 68.34 67.133"
   version="1.1"
   id="svg22"
   sodipodi:docname="mouse.svg"
   xmlns:inkscape="http://www.inkscape.org/namespaces/inkscape"
   xmlns:sodipodi="http://sodipodi.sourceforge.net/DTD/sodipodi-0.dtd"
   xmlns="http://www.w3.org/2000/svg"
   xmlns:svg="http://www.w3.org/2000/svg">
  <sodipodi:namedview
     id="namedview22"
     pagecolor="#ffffff"
     bordercolor="#666666"
     borderopacity="1.0"
     inkscape:showpageshadow="2"
     inkscape:pageopacity="0.0"
     inkscape:pagecheckerboard="0"
     inkscape:deskcolor="#d1d1d1" />
  <defs
     id="defs1">
    <clipPath
       id="clip-0">
      <path
         clip-rule="nonzero"
         d="M 0.109375 0 L 16 0 L 16 16 L 0.109375 16 Z M 0.109375 0 "
         id="path1" />
    </clipPath>
  </defs>
  <path
     id="path2"
     d="M 7.9453125 0 C 3.6171885 0 0.109375 3.5078115 0.109375 7.8359375 C 0.109375 11.237442 2.2760406 14.131226 5.3046875 15.214844 C 4.802218 16.124825 4.3712295 17.116238 4.0273438 18.191406 C 4.0273438 19.358252 4.3304817 20.635705 4.8574219 21.957031 C 2.5721097 27.655547 1.2505331 34.899588 1.3710938 42.816406 C 1.3710938 53.07298 3.4446329 58.320133 6.9863281 60.962891 C 5.4445179 61.422222 4.4492187 62.147475 4.4492188 62.964844 C 4.4492188 64.359375 7.3281255 65.484375 10.882812 65.484375 C 13.956393 65.484375 16.526304 64.642827 17.166016 63.513672 C 17.450906 63.51785 17.729048 63.527344 18.019531 63.527344 C 18.310128 63.527344 18.588049 63.51785 18.873047 63.513672 C 19.512758 64.642827 22.082669 65.484375 25.15625 65.484375 C 28.710938 65.484375 31.59375 64.359375 31.59375 62.964844 C 31.59375 62.147955 30.598016 61.424217 29.056641 60.964844 C 29.521273 60.618296 29.95846 60.222955 30.371094 59.78125 C 31.092556 59.413573 31.754667 59.042949 32.296875 58.683594 C 42.484375 51.921875 44.054688 12.195312 61.980469 31.800781 C 62.180975 31.790707 62.352243 31.761664 62.507812 31.722656 C 62.538191 31.761652 62.567192 31.79659 62.597656 31.835938 C 62.742888 31.827289 62.81998 31.74087 62.847656 31.603516 C 65.222821 30.408934 59.416894 24.247955 53.384766 22.638672 C 53.322932 22.620509 53.261254 22.602789 53.199219 22.585938 C 53.134856 22.569789 53.070244 22.556094 53.005859 22.541016 C 52.786246 22.486433 52.565322 22.441258 52.34375 22.404297 C 52.290193 22.394943 52.237109 22.387448 52.183594 22.378906 C 52.060589 22.36089 51.937878 22.340297 51.814453 22.328125 C 50.378752 22.150118 48.969365 22.273233 47.695312 22.839844 C 41.929747 25.541667 38.801538 34.390696 34.671875 42.398438 C 34.74034 34.644252 33.427862 27.553046 31.181641 21.955078 C 31.708173 20.63434 32.011719 19.357765 32.011719 18.191406 C 31.667833 17.116238 31.236845 16.124825 30.734375 15.214844 C 33.763022 14.131226 35.929688 11.237442 35.929688 7.8359375 C 35.929688 3.5078115 32.421875 5.9211895e-16 28.09375 0 C 23.769531 0 20.257812 3.5078115 20.257812 7.8359375 C 20.257812 7.8457803 20.257776 7.8554001 20.257812 7.8652344 C 18.775782 7.6381824 17.263281 7.6381824 15.78125 7.8652344 C 15.781286 7.8554001 15.78125 7.8457803 15.78125 7.8359375 C 15.78125 3.5078115 12.273439 5.9211895e-16 7.9453125 0 z " />
  <g
     clip-path="url(#clip-0)"
     id="g5" />
</svg>
