<?xml version="1.0" encoding="UTF-8"?>
<svg xmlns="http://www.w3.org/2000/svg" xmlns:xlink="http://www.w3.org/1999/xlink" width="92.41" height="61.795" viewBox="0 0 92.41 61.795">
<path fill-rule="nonzero" fill="rgb(52.49939%, 34.999084%, 17.498779%)" fill-opacity="1" d="M 63.964844 51.757812 C 65.5 51.488281 65.910156 46.550781 64.882812 40.726562 C 63.855469 34.90625 61.78125 30.40625 60.25 30.675781 C 58.71875 30.945312 58.308594 35.882812 59.332031 41.707031 C 60.359375 47.527344 62.433594 52.027344 63.964844 51.757812 Z M 63.964844 51.757812 "/>
<path fill-rule="nonzero" fill="rgb(52.49939%, 34.999084%, 17.498779%)" fill-opacity="1" d="M 31.574219 30.675781 C 30.042969 30.40625 27.96875 34.90625 26.941406 40.726562 C 25.914062 46.550781 26.324219 51.488281 27.855469 51.757812 C 29.390625 52.027344 31.464844 47.527344 32.488281 41.707031 C 33.515625 35.882812 33.105469 30.945312 31.574219 30.675781 Z M 31.574219 30.675781 "/>
<path fill-rule="nonzero" fill="rgb(52.49939%, 34.999084%, 17.498779%)" fill-opacity="1" d="M 62.671875 37.835938 C 62.671875 56.425781 55.910156 58.679688 45.910156 58.679688 C 35.914062 58.679688 29.152344 56.425781 29.152344 37.835938 C 28.871094 19.246094 36.476562 4.320312 45.910156 4.320312 C 55.347656 4.320312 62.953125 19.246094 62.671875 37.835938 Z M 62.671875 37.835938 "/>
<path fill-rule="nonzero" fill="rgb(52.49939%, 34.999084%, 17.498779%)" fill-opacity="1" d="M 27.996094 13.699219 C 27.996094 13.699219 24.542969 8.535156 26.875 1.375 C 36.761719 9.894531 55.058594 9.894531 64.949219 1.375 C 67.28125 8.535156 63.828125 13.699219 63.828125 13.699219 "/>
<path fill-rule="nonzero" fill="rgb(76.249695%, 67.498779%, 58.750916%)" fill-opacity="1" d="M 57.882812 49.667969 C 57.882812 55.019531 52.8125 56.144531 45.910156 56.144531 C 39.011719 56.144531 33.941406 55.019531 33.941406 49.667969 C 33.941406 40.9375 39.574219 36.148438 45.910156 36.148438 C 52.25 36.148438 57.882812 40.9375 57.882812 49.667969 Z M 57.882812 49.667969 "/>
<path fill-rule="nonzero" fill="rgb(52.49939%, 34.999084%, 17.498779%)" fill-opacity="1" d="M 65.628906 20.09375 C 65.628906 11.535156 56.800781 4.601562 45.910156 4.601562 C 35.023438 4.601562 26.195312 11.535156 26.195312 20.09375 C 26.195312 28.648438 35.023438 35.582031 45.910156 35.582031 C 56.800781 35.582031 65.628906 28.648438 65.628906 20.09375 Z M 65.628906 20.09375 "/>
<path fill-rule="nonzero" fill="rgb(94.999695%, 94.999695%, 94.999695%)" fill-opacity="1" d="M 44.222656 18.683594 C 44.222656 15.261719 41.449219 12.488281 38.023438 12.488281 C 34.601562 12.488281 31.828125 15.261719 31.828125 18.683594 C 31.828125 22.105469 34.601562 24.878906 38.023438 24.878906 C 41.449219 24.878906 44.222656 22.105469 44.222656 18.683594 Z M 44.222656 18.683594 "/>
<path fill-rule="nonzero" fill="rgb(94.999695%, 94.999695%, 94.999695%)" fill-opacity="1" d="M 59.996094 18.683594 C 59.996094 15.261719 57.222656 12.488281 53.796875 12.488281 C 50.375 12.488281 47.601562 15.261719 47.601562 18.683594 C 47.601562 22.105469 50.375 24.878906 53.796875 24.878906 C 57.222656 24.878906 59.996094 22.105469 59.996094 18.683594 Z M 59.996094 18.683594 "/>
<path fill-rule="nonzero" fill="rgb(22.499084%, 14.99939%, 7.499695%)" fill-opacity="1" d="M 42.25 18.683594 C 42.25 16.351562 40.359375 14.457031 38.023438 14.457031 C 35.691406 14.457031 33.800781 16.351562 33.800781 18.683594 C 33.800781 21.015625 35.691406 22.910156 38.023438 22.910156 C 40.359375 22.910156 42.25 21.015625 42.25 18.683594 Z M 42.25 18.683594 "/>
<path fill-rule="nonzero" fill="rgb(22.499084%, 14.99939%, 7.499695%)" fill-opacity="1" d="M 58.023438 18.683594 C 58.023438 16.351562 56.132812 14.457031 53.796875 14.457031 C 51.464844 14.457031 49.574219 16.351562 49.574219 18.683594 C 49.574219 21.015625 51.464844 22.910156 53.796875 22.910156 C 56.132812 22.910156 58.023438 21.015625 58.023438 18.683594 Z M 58.023438 18.683594 "/>
<path fill-rule="nonzero" fill="rgb(100%, 100%, 100%)" fill-opacity="1" d="M 53.796875 17.558594 C 53.796875 17.089844 53.421875 16.710938 52.953125 16.710938 C 52.488281 16.710938 52.109375 17.089844 52.109375 17.558594 C 52.109375 18.023438 52.488281 18.402344 52.953125 18.402344 C 53.421875 18.402344 53.796875 18.023438 53.796875 17.558594 Z M 53.796875 17.558594 "/>
<path fill-rule="nonzero" fill="rgb(100%, 100%, 100%)" fill-opacity="1" d="M 38.023438 17.558594 C 38.023438 17.089844 37.648438 16.710938 37.179688 16.710938 C 36.714844 16.710938 36.335938 17.089844 36.335938 17.558594 C 36.335938 18.023438 36.714844 18.402344 37.179688 18.402344 C 37.648438 18.402344 38.023438 18.023438 38.023438 17.558594 Z M 38.023438 17.558594 "/>
<path fill-rule="nonzero" fill="rgb(100%, 50%, 0%)" fill-opacity="1" d="M 45.910156 24.316406 L 43.09375 27.132812 L 45.910156 31.359375 L 48.730469 27.132812 Z M 45.910156 24.316406 "/>
<path fill-rule="nonzero" fill="rgb(100%, 50%, 0%)" fill-opacity="1" d="M 51.6875 58.117188 C 51.6875 56.5625 51.308594 55.300781 50.839844 55.300781 C 50.375 55.300781 49.996094 56.5625 49.996094 58.117188 C 49.996094 59.671875 50.375 60.933594 50.839844 60.933594 C 51.308594 60.933594 51.6875 59.671875 51.6875 58.117188 Z M 51.6875 58.117188 "/>
<path fill-rule="nonzero" fill="rgb(100%, 50%, 0%)" fill-opacity="1" d="M 53.042969 57.546875 C 52.511719 56.085938 51.726562 55.027344 51.285156 55.1875 C 50.847656 55.347656 50.921875 56.664062 51.457031 58.125 C 51.988281 59.585938 52.773438 60.640625 53.214844 60.484375 C 53.652344 60.324219 53.574219 59.007812 53.042969 57.546875 Z M 53.042969 57.546875 "/>
<path fill-rule="nonzero" fill="rgb(100%, 50%, 0%)" fill-opacity="1" d="M 54.304688 56.730469 C 53.304688 55.539062 52.203125 54.816406 51.847656 55.113281 C 51.488281 55.414062 52.011719 56.625 53.011719 57.816406 C 54.011719 59.007812 55.109375 59.730469 55.46875 59.429688 C 55.824219 59.128906 55.304688 57.921875 54.304688 56.730469 Z M 54.304688 56.730469 "/>
<path fill-rule="nonzero" fill="rgb(100%, 50%, 0%)" fill-opacity="1" d="M 41.828125 58.117188 C 41.828125 56.5625 41.449219 55.300781 40.984375 55.300781 C 40.515625 55.300781 40.136719 56.5625 40.136719 58.117188 C 40.136719 59.671875 40.515625 60.933594 40.984375 60.933594 C 41.449219 60.933594 41.828125 59.671875 41.828125 58.117188 Z M 41.828125 58.117188 "/>
<path fill-rule="nonzero" fill="rgb(100%, 50%, 0%)" fill-opacity="1" d="M 40.367188 58.125 C 40.898438 56.664062 40.976562 55.347656 40.539062 55.1875 C 40.097656 55.027344 39.3125 56.085938 38.78125 57.546875 C 38.246094 59.007812 38.171875 60.324219 38.609375 60.484375 C 39.050781 60.640625 39.835938 59.585938 40.367188 58.125 Z M 40.367188 58.125 "/>
<path fill-rule="nonzero" fill="rgb(100%, 50%, 0%)" fill-opacity="1" d="M 38.8125 57.816406 C 39.8125 56.625 40.335938 55.414062 39.976562 55.113281 C 39.621094 54.816406 38.519531 55.539062 37.519531 56.730469 C 36.519531 57.921875 35.996094 59.128906 36.355469 59.429688 C 36.714844 59.730469 37.8125 59.007812 38.8125 57.816406 Z M 38.8125 57.816406 "/>
</svg>
