<?xml version="1.0" encoding="UTF-8" standalone="no"?>
<svg
   width="43.008"
   height="61.228"
   viewBox="0 0 43.008 61.228"
   version="1.1"
   id="svg19"
   sodipodi:docname="owl.svg"
   xmlns:inkscape="http://www.inkscape.org/namespaces/inkscape"
   xmlns:sodipodi="http://sodipodi.sourceforge.net/DTD/sodipodi-0.dtd"
   xmlns="http://www.w3.org/2000/svg"
   xmlns:svg="http://www.w3.org/2000/svg">
  <defs
     id="defs19" />
  <sodipodi:namedview
     id="namedview19"
     pagecolor="#ffffff"
     bordercolor="#666666"
     borderopacity="1.0"
     inkscape:showpageshadow="2"
     inkscape:pageopacity="0.0"
     inkscape:pagecheckerboard="0"
     inkscape:deskcolor="#d1d1d1" />
  <path
     id="path1"
     d="M 2.2929688 1.0195312 C 0.040640833 7.9376691 3.2596045 12.931562 3.375 13.107422 C 2.2544102 15.034202 1.625 17.173294 1.625 19.429688 C 1.625 22.628825 2.8824309 25.59589 5.0253906 28.046875 C 4.8531862 29.384128 4.7219284 30.755131 4.6386719 32.15625 C 3.7429274 33.956147 2.9012768 36.651292 2.359375 39.730469 C 1.347656 45.457031 1.7500005 50.316406 3.2578125 50.582031 C 4.0164343 50.715674 4.9092043 49.658302 5.7382812 47.847656 C 7.0229216 52.404195 9.2856904 54.831237 12.283203 56.095703 C 11.625394 57.040772 11.328543 57.885162 11.617188 58.128906 C 11.945669 58.402641 12.914188 57.799877 13.839844 56.763672 C 13.469105 57.994232 13.455813 59.02238 13.835938 59.164062 C 14.214441 59.300461 14.851392 58.526345 15.355469 57.371094 C 15.430113 58.645449 15.766099 59.605469 16.171875 59.605469 C 16.591834 59.605469 16.938592 58.558826 16.992188 57.201172 C 18.264799 57.334159 19.604894 57.390625 21.019531 57.390625 C 22.432726 57.390625 23.771638 57.333846 25.042969 57.201172 C 25.097099 58.558826 25.447228 59.605469 25.867188 59.605469 C 26.272963 59.605469 26.60895 58.645449 26.683594 57.371094 C 27.187671 58.526345 27.82462 59.300461 28.203125 59.164062 C 28.582705 59.022583 28.568407 57.997749 28.199219 56.769531 C 29.126183 57.80255 30.090037 58.402183 30.417969 58.128906 C 30.7066 57.885173 30.412874 57.040722 29.753906 56.095703 C 32.751887 54.831175 35.014719 52.404456 36.298828 47.845703 C 37.128593 49.657311 38.022409 50.715713 38.78125 50.582031 C 40.285156 50.316406 40.691406 45.457031 39.679688 39.730469 C 39.137599 36.650232 38.295136 33.954192 37.398438 32.154297 C 37.315476 30.754524 37.183504 29.384855 37.011719 28.048828 C 39.155782 25.597445 40.414062 22.629725 40.414062 19.429688 C 40.414062 17.173294 39.784652 15.034202 38.664062 13.107422 C 38.779458 12.931562 41.998421 7.9376691 39.746094 1.0195312 C 37.0809 3.3154511 33.791757 4.9779237 30.224609 6.015625 C 28.239217 5.1726565 26.04446 4.5964929 23.71875 4.3417969 C 22.840409 4.0643412 21.939012 3.9140625 21.019531 3.9140625 C 20.10005 3.9140625 19.198657 4.0643412 18.320312 4.3417969 C 15.994603 4.5964929 13.799845 5.1726565 11.814453 6.015625 C 8.2473061 4.9779237 4.9581621 3.3154511 2.2929688 1.0195312 z " />
</svg>
