<?xml version="1.0" encoding="UTF-8" standalone="no"?>
<svg
   width="35.149"
   height="60.378"
   viewBox="0 0 35.149 60.378"
   version="1.1"
   id="svg16"
   sodipodi:docname="panda.svg"
   xmlns:inkscape="http://www.inkscape.org/namespaces/inkscape"
   xmlns:sodipodi="http://sodipodi.sourceforge.net/DTD/sodipodi-0.dtd"
   xmlns="http://www.w3.org/2000/svg"
   xmlns:svg="http://www.w3.org/2000/svg">
  <defs
     id="defs16" />
  <sodipodi:namedview
     id="namedview16"
     pagecolor="#ffffff"
     bordercolor="#666666"
     borderopacity="1.0"
     inkscape:showpageshadow="2"
     inkscape:pageopacity="0.0"
     inkscape:pagecheckerboard="0"
     inkscape:deskcolor="#d1d1d1" />
  <path
     id="path1"
     d="M 8.3046875 1.2382812 C 6.0117185 1.2382812 4.1523438 3.097656 4.1523438 5.390625 C 4.1523438 7.0439286 5.1187099 8.470669 6.5175781 9.1386719 C 4.953838 11.552452 3.9063432 14.282031 3.6054688 16.777344 C 3.0616923 20.684944 4.8386965 23.201128 7.7832031 24.691406 C 3.9010386 27.968484 1.3828125 33.226755 1.3828125 39.15625 C 1.3828125 43.007634 2.4472257 46.572273 4.2539062 49.498047 C 3.3314392 50.486975 2.765625 51.812291 2.765625 53.269531 C 2.765625 56.328125 5.2460935 58.808594 8.3046875 58.808594 C 10.175749 58.808594 11.829914 57.87721 12.832031 56.453125 C 14.208024 56.899752 15.658336 57.144531 17.160156 57.144531 C 18.661304 57.144531 20.110797 56.899752 21.486328 56.453125 C 22.488379 57.877734 24.144157 58.808594 26.015625 58.808594 C 29.074219 58.808594 31.550781 56.328125 31.550781 53.269531 C 31.550781 51.812291 30.98599 50.486975 30.064453 49.498047 C 31.870708 46.572372 32.933594 43.007403 32.933594 39.15625 C 32.933594 33.226815 30.416423 27.968491 26.535156 24.691406 C 29.478616 23.201128 31.254713 20.684944 30.710938 16.777344 C 30.41156 14.282031 29.365905 11.552452 27.802734 9.1386719 C 29.201603 8.470669 30.167969 7.0439286 30.167969 5.390625 C 30.167969 3.097656 28.308594 1.2382813 26.015625 1.2382812 C 24.342019 1.2382812 22.901373 2.22954 22.244141 3.65625 C 20.666503 2.7530543 18.949864 2.2266212 17.160156 2.2539062 C 15.369572 2.2266079 13.652558 2.7541931 12.074219 3.6582031 C 11.417691 2.2302438 9.9763498 1.2382813 8.3046875 1.2382812 z " />
</svg>
