<?xml version="1.0" encoding="UTF-8"?>
<svg xmlns="http://www.w3.org/2000/svg" xmlns:xlink="http://www.w3.org/1999/xlink" width="92.41" height="62.645" viewBox="0 0 92.41 62.645">
<path fill-rule="nonzero" fill="rgb(94.999695%, 94.999695%, 94.999695%)" fill-opacity="1" d="M 61.96875 41.707031 C 61.96875 31.597656 54.777344 23.398438 45.910156 23.398438 C 37.042969 23.398438 29.855469 31.597656 29.855469 41.707031 C 29.855469 51.820312 37.042969 60.015625 45.910156 60.015625 C 54.777344 60.015625 61.96875 51.820312 61.96875 41.707031 Z M 61.96875 41.707031 "/>
<path fill-rule="nonzero" fill="rgb(0%, 0%, 0%)" fill-opacity="1" d="M 56.109375 33.382812 C 54.210938 32.691406 51.632812 34.976562 50.359375 38.484375 C 49.082031 41.992188 49.585938 45.398438 51.488281 46.089844 C 53.386719 46.78125 55.960938 44.496094 57.238281 40.988281 C 58.515625 37.480469 58.011719 34.074219 56.109375 33.382812 Z M 56.109375 33.382812 "/>
<path fill-rule="nonzero" fill="rgb(0%, 0%, 0%)" fill-opacity="1" d="M 40.335938 46.089844 C 42.238281 45.398438 42.742188 41.992188 41.464844 38.484375 C 40.1875 34.976562 37.613281 32.691406 35.714844 33.382812 C 33.8125 34.074219 33.308594 37.480469 34.585938 40.988281 C 35.859375 44.496094 38.4375 46.78125 40.335938 46.089844 Z M 40.335938 46.089844 "/>
<path fill-rule="nonzero" fill="rgb(0%, 0%, 0%)" fill-opacity="1" d="M 60.558594 56.074219 C 60.558594 52.960938 58.035156 50.4375 54.925781 50.4375 C 51.8125 50.4375 49.292969 52.960938 49.292969 56.074219 C 49.292969 59.183594 51.8125 61.707031 54.925781 61.707031 C 58.035156 61.707031 60.558594 59.183594 60.558594 56.074219 Z M 60.558594 56.074219 "/>
<path fill-rule="nonzero" fill="rgb(0%, 0%, 0%)" fill-opacity="1" d="M 42.53125 56.074219 C 42.53125 52.960938 40.007812 50.4375 36.898438 50.4375 C 33.785156 50.4375 31.265625 52.960938 31.265625 56.074219 C 31.265625 59.183594 33.785156 61.707031 36.898438 61.707031 C 40.007812 61.707031 42.53125 59.183594 42.53125 56.074219 Z M 42.53125 56.074219 "/>
<path fill-rule="nonzero" fill="rgb(0%, 0%, 0%)" fill-opacity="1" d="M 59.148438 7.34375 C 59.148438 5.011719 57.257812 3.117188 54.925781 3.117188 C 52.59375 3.117188 50.699219 5.011719 50.699219 7.34375 C 50.699219 9.675781 52.59375 11.570312 54.925781 11.570312 C 57.257812 11.570312 59.148438 9.675781 59.148438 7.34375 Z M 59.148438 7.34375 "/>
<path fill-rule="nonzero" fill="rgb(0%, 0%, 0%)" fill-opacity="1" d="M 41.125 7.34375 C 41.125 5.011719 39.230469 3.117188 36.898438 3.117188 C 34.566406 3.117188 32.671875 5.011719 32.671875 7.34375 C 32.671875 9.675781 34.566406 11.570312 36.898438 11.570312 C 39.230469 11.570312 41.125 9.675781 41.125 7.34375 Z M 41.125 7.34375 "/>
<path fill-rule="nonzero" fill="rgb(94.999695%, 94.999695%, 94.999695%)" fill-opacity="1" d="M 59.707031 18.933594 C 58.90625 12.308594 52.953125 4.042969 45.910156 4.148438 C 38.871094 4.042969 32.914062 12.308594 32.117188 18.933594 C 31.09375 26.304688 38.171875 28.816406 45.910156 28.816406 C 53.652344 28.816406 60.730469 26.304688 59.707031 18.933594 Z M 59.707031 18.933594 "/>
<path fill-rule="nonzero" fill="rgb(0%, 0%, 0%)" fill-opacity="1" d="M 56.421875 16.0625 C 55.765625 13.90625 51.636719 12.8125 48.570312 13.78125 C 45.503906 14.75 50.785156 20.078125 52.976562 20.179688 C 55.167969 20.28125 57.078125 18.214844 56.421875 16.0625 Z M 56.421875 16.0625 "/>
<path fill-rule="nonzero" fill="rgb(0%, 0%, 0%)" fill-opacity="1" d="M 35.398438 16.0625 C 36.058594 13.90625 40.1875 12.8125 43.253906 13.78125 C 46.320312 14.75 41.039062 20.078125 38.847656 20.179688 C 36.65625 20.28125 34.742188 18.214844 35.398438 16.0625 Z M 35.398438 16.0625 "/>
<path fill-rule="nonzero" fill="rgb(100%, 100%, 100%)" fill-opacity="1" d="M 42.25 15.792969 C 42.25 15.015625 41.621094 14.386719 40.84375 14.386719 C 40.0625 14.386719 39.433594 15.015625 39.433594 15.792969 C 39.433594 16.570312 40.0625 17.203125 40.84375 17.203125 C 41.621094 17.203125 42.25 16.570312 42.25 15.792969 Z M 42.25 15.792969 "/>
<path fill-rule="nonzero" fill="rgb(100%, 100%, 100%)" fill-opacity="1" d="M 52.390625 15.792969 C 52.390625 15.015625 51.757812 14.386719 50.980469 14.386719 C 50.203125 14.386719 49.574219 15.015625 49.574219 15.792969 C 49.574219 16.570312 50.203125 17.203125 50.980469 17.203125 C 51.757812 17.203125 52.390625 16.570312 52.390625 15.792969 Z M 52.390625 15.792969 "/>
<path fill-rule="nonzero" fill="rgb(0%, 0%, 0%)" fill-opacity="1" d="M 51.261719 15.933594 C 51.261719 15.625 51.011719 15.371094 50.699219 15.371094 C 50.390625 15.371094 50.136719 15.625 50.136719 15.933594 C 50.136719 16.246094 50.390625 16.5 50.699219 16.5 C 51.011719 16.5 51.261719 16.246094 51.261719 15.933594 Z M 51.261719 15.933594 "/>
<path fill-rule="nonzero" fill="rgb(0%, 0%, 0%)" fill-opacity="1" d="M 41.6875 15.933594 C 41.6875 15.625 41.433594 15.371094 41.125 15.371094 C 40.8125 15.371094 40.558594 15.625 40.558594 15.933594 C 40.558594 16.246094 40.8125 16.5 41.125 16.5 C 41.433594 16.5 41.6875 16.246094 41.6875 15.933594 Z M 41.6875 15.933594 "/>
<path fill="none" stroke-width="0.19925" stroke-linecap="butt" stroke-linejoin="miter" stroke="rgb(0%, 0%, 0%)" stroke-opacity="1" stroke-miterlimit="10" d="M -4.534388 41.869328 C -4.534388 41.869328 -1.758968 38.834449 -0.00172621 42.690946 C 1.755516 38.834449 4.534867 41.869328 4.534867 41.869328 " transform="matrix(0.993656, 0, 0, -0.993656, 45.911872, 63.677924)"/>
<path fill-rule="nonzero" fill="rgb(0%, 0%, 0%)" fill-opacity="1" d="M 47.882812 20.019531 C 47.882812 19.398438 47 18.890625 45.910156 18.890625 C 44.824219 18.890625 43.941406 19.398438 43.941406 20.019531 C 43.941406 20.640625 44.824219 21.144531 45.910156 21.144531 C 47 21.144531 47.882812 20.640625 47.882812 20.019531 Z M 47.882812 20.019531 "/>
</svg>
