<?xml version="1.0" encoding="UTF-8"?>
<svg xmlns="http://www.w3.org/2000/svg" xmlns:xlink="http://www.w3.org/1999/xlink" width="25.299" height="34.491" viewBox="0 0 25.299 34.491">
<defs>
<clipPath id="clip-0">
<path clip-rule="nonzero" d="M 0 0.21875 L 24.617188 0.21875 L 24.617188 33.777344 L 0 33.777344 Z M 0 0.21875 "/>
</clipPath>
</defs>
<g clip-path="url(#clip-0)">
<path fill-rule="nonzero" fill="rgb(75%, 75%, 75%)" fill-opacity="1" d="M 12.191406 0.296875 C 8.425781 0.214844 4.933594 3.21875 4.4375 6.941406 C 3.925781 9.980469 5.4375 13.179688 8.039062 14.804688 C 7.183594 14.863281 6.265625 14.628906 5.480469 15.011719 C 4.644531 15.640625 5.027344 16.757812 4.933594 17.648438 C 4.835938 18.519531 5.074219 19.6875 6.167969 19.679688 C 6.539062 19.769531 7.269531 19.496094 7.398438 19.828125 C 7.398438 22.789062 5.480469 25.230469 3.933594 27.597656 C 3.496094 28.167969 3.261719 29.101562 2.378906 28.847656 C 1.597656 28.863281 0.566406 28.671875 0.203125 29.582031 C 0.00390625 30.535156 0.144531 31.527344 0.101562 32.496094 C 0.101562 33.578125 1.253906 33.777344 2.097656 33.6875 C 9.113281 33.6875 16.121094 33.6875 23.136719 33.6875 C 24.214844 33.6875 24.414062 32.527344 24.324219 31.683594 C 24.230469 30.800781 24.621094 29.683594 23.792969 29.054688 C 23.015625 28.679688 22.113281 28.914062 21.269531 28.847656 C 19.679688 26.230469 17.511719 23.765625 17.097656 20.621094 C 16.800781 19.769531 17.222656 19.546875 17.949219 19.679688 C 18.917969 19.859375 19.664062 18.925781 19.488281 18.007812 C 19.421875 17.121094 19.65625 16.167969 19.28125 15.34375 C 18.671875 14.507812 17.5625 14.886719 16.683594 14.804688 C 15.921875 14.835938 17.644531 14.09375 17.71875 13.734375 C 20.335938 11.320312 20.90625 7.066406 18.96875 4.070312 C 17.554688 1.753906 14.90625 0.273438 12.191406 0.296875 Z M 12.191406 0.296875 "/>
</g>
</svg>
