<?xml version="1.0" encoding="UTF-8" standalone="no"?>
<svg
   width="49.04"
   height="56.126"
   viewBox="0 0 49.04 56.126"
   version="1.1"
   id="svg12"
   sodipodi:docname="penguin.svg"
   xmlns:inkscape="http://www.inkscape.org/namespaces/inkscape"
   xmlns:sodipodi="http://sodipodi.sourceforge.net/DTD/sodipodi-0.dtd"
   xmlns="http://www.w3.org/2000/svg"
   xmlns:svg="http://www.w3.org/2000/svg">
  <sodipodi:namedview
     id="namedview12"
     pagecolor="#ffffff"
     bordercolor="#666666"
     borderopacity="1.0"
     inkscape:showpageshadow="2"
     inkscape:pageopacity="0.0"
     inkscape:pagecheckerboard="0"
     inkscape:deskcolor="#d1d1d1" />
  <defs
     id="defs1">
    <clipPath
       id="clip-0">
      <path
         clip-rule="nonzero"
         d="M 7 0.109375 L 41 0.109375 L 41 55 L 7 55 Z M 7 0.109375 "
         id="path1" />
    </clipPath>
  </defs>
  <path
     id="path2"
     d="M 24.050781 0.6640625 C 16.967085 0.6640625 10.93653 9.1887095 8.5722656 21.337891 C 7.7056173 22.177269 6.8129993 23.130813 5.9335938 24.179688 C 2.1835937 28.648438 0.0937495 33.070312 1.2734375 34.058594 C 2.1719279 34.813803 4.7161469 33.33935 7.5390625 30.609375 C 7.5042643 31.643477 7.4917841 32.689639 7.5078125 33.75 C 7.5078125 38.073373 7.8829418 41.492166 8.578125 44.207031 C 8.2478703 44.450364 7.716682 44.475136 7.3125 44.359375 C 4.726562 43.613281 2.726562 44.957031 5.03125 47.261719 C 5.589844 47.828125 7.7304693 49.441406 4.6132812 49.621094 C 2.5859383 49.738281 2.3906252 51.878906 4.8945312 52.53125 C 7.4492193 53.195312 10.816406 53.648438 14.597656 53.5 C 15.047226 53.482046 15.428429 53.380384 15.746094 53.210938 C 18.120297 54.09866 20.924416 54.324219 24.050781 54.324219 C 27.17591 54.324219 29.97989 54.09866 32.353516 53.210938 C 32.67185 53.380384 33.053618 53.482046 33.503906 53.5 C 37.292969 53.648438 40.648438 53.195312 43.203125 52.53125 C 45.703125 51.878906 45.511719 49.738281 43.484375 49.621094 C 40.371094 49.441406 42.480469 47.828125 43.066406 47.261719 C 45.378906 44.957031 43.371094 43.613281 40.785156 44.359375 C 40.383533 44.475531 39.850032 44.450748 39.519531 44.205078 C 40.214361 41.490502 40.589844 38.072402 40.589844 33.75 C 40.606098 32.689639 40.593215 31.643477 40.558594 30.609375 C 43.382585 33.33935 45.929635 34.813803 46.828125 34.058594 C 48.003906 33.070312 45.917969 28.648438 42.164062 24.179688 C 41.285656 23.132004 40.39497 22.178538 39.529297 21.339844 C 37.166143 9.1894732 31.131941 0.6640625 24.050781 0.6640625 z " />
  <g
     clip-path="url(#clip-0)"
     id="g4" />
</svg>
