<?xml version="1.0" encoding="UTF-8"?>
<svg xmlns="http://www.w3.org/2000/svg" xmlns:xlink="http://www.w3.org/1999/xlink" width="92.41" height="61.228" viewBox="0 0 92.41 61.228">
<path fill-rule="nonzero" fill="rgb(0%, 0%, 0%)" fill-opacity="1" d="M 68.847656 37.820312 C 70.03125 36.828125 67.929688 32.375 64.15625 27.875 C 60.378906 23.371094 56.355469 20.53125 55.171875 21.523438 C 53.988281 22.519531 56.089844 26.972656 59.867188 31.472656 C 63.640625 35.972656 67.664062 38.816406 68.847656 37.820312 Z M 68.847656 37.820312 "/>
<path fill-rule="nonzero" fill="rgb(0%, 0%, 0%)" fill-opacity="1" d="M 36.65625 21.523438 C 35.472656 20.53125 31.449219 23.371094 27.671875 27.875 C 23.894531 32.375 21.796875 36.828125 22.980469 37.820312 C 24.164062 38.816406 28.183594 35.972656 31.960938 31.472656 C 35.738281 26.972656 37.839844 22.519531 36.65625 21.523438 Z M 36.65625 21.523438 "/>
<path fill-rule="nonzero" fill="rgb(0%, 0%, 0%)" fill-opacity="1" d="M 62.570312 37.511719 C 62.570312 55.988281 55.851562 58.226562 45.914062 58.226562 C 35.976562 58.226562 29.257812 55.988281 29.257812 37.511719 C 28.976562 19.035156 36.535156 4.199219 45.914062 4.199219 C 55.292969 4.199219 62.851562 19.035156 62.570312 37.511719 Z M 62.570312 37.511719 "/>
<path fill-rule="nonzero" fill="rgb(94.999695%, 94.999695%, 94.999695%)" fill-opacity="1" d="M 59.351562 46.46875 C 59.351562 41.058594 53.335938 36.671875 45.914062 36.671875 C 38.492188 36.671875 32.476562 41.058594 32.476562 46.46875 C 32.476562 51.878906 38.492188 56.265625 45.914062 56.265625 C 53.335938 56.265625 59.351562 51.878906 59.351562 46.46875 Z M 59.351562 46.46875 "/>
<path fill-rule="nonzero" fill="rgb(98.234558%, 73.919678%, 3.529358%)" fill-opacity="1" d="M 38.496094 52.234375 C 37.992188 50.652344 35.472656 46.429688 32.757812 44.976562 C 29.929688 43.460938 29.789062 45.4375 30.40625 46.582031 C 31.1875 48.105469 29.875 48.421875 29.0625 48.191406 C 26.457031 47.441406 24.441406 48.796875 26.765625 51.117188 C 27.324219 51.683594 29.480469 53.308594 26.347656 53.488281 C 24.300781 53.609375 24.105469 55.761719 26.625 56.421875 C 29.203125 57.089844 32.589844 57.546875 36.394531 57.398438 C 38.859375 57.300781 39.277344 54.703125 38.496094 52.234375 Z M 38.496094 52.234375 "/>
<path fill-rule="nonzero" fill="rgb(98.234558%, 73.919678%, 3.529358%)" fill-opacity="1" d="M 53.332031 52.234375 C 53.835938 50.652344 56.339844 46.429688 59.042969 44.976562 C 61.898438 43.460938 62.027344 45.4375 61.421875 46.582031 C 60.636719 48.105469 61.960938 48.421875 62.765625 48.191406 C 65.371094 47.441406 67.390625 48.796875 65.0625 51.117188 C 64.472656 51.683594 62.347656 53.308594 65.480469 53.488281 C 67.523438 53.609375 67.71875 55.761719 65.203125 56.421875 C 62.625 57.089844 59.25 57.546875 55.429688 57.398438 C 52.96875 57.300781 52.542969 54.703125 53.332031 52.234375 Z M 53.332031 52.234375 "/>
<path fill-rule="nonzero" fill="rgb(94.999695%, 94.999695%, 94.999695%)" fill-opacity="1" d="M 43.773438 17.839844 C 44.175781 15.558594 43.265625 13.488281 41.742188 13.21875 C 40.222656 12.953125 38.660156 14.585938 38.257812 16.871094 C 37.855469 19.152344 38.761719 21.222656 40.285156 21.492188 C 41.808594 21.757812 43.367188 20.125 43.773438 17.839844 Z M 43.773438 17.839844 "/>
<path fill-rule="nonzero" fill="rgb(0%, 0%, 0%)" fill-opacity="1" d="M 42.851562 17.828125 C 42.910156 16.726562 42.511719 15.808594 41.960938 15.78125 C 41.40625 15.75 40.914062 16.621094 40.855469 17.722656 C 40.796875 18.824219 41.199219 19.742188 41.75 19.769531 C 42.300781 19.800781 42.792969 18.929688 42.851562 17.828125 Z M 42.851562 17.828125 "/>
<path fill-rule="nonzero" fill="rgb(94.999695%, 94.999695%, 94.999695%)" fill-opacity="1" d="M 53.570312 16.871094 C 53.167969 14.585938 51.605469 12.953125 50.082031 13.21875 C 48.5625 13.488281 47.652344 15.558594 48.054688 17.839844 C 48.457031 20.125 50.019531 21.757812 51.542969 21.492188 C 53.0625 21.222656 53.972656 19.152344 53.570312 16.871094 Z M 53.570312 16.871094 "/>
<path fill-rule="nonzero" fill="rgb(0%, 0%, 0%)" fill-opacity="1" d="M 50.972656 17.722656 C 50.914062 16.621094 50.417969 15.75 49.867188 15.78125 C 49.316406 15.808594 48.917969 16.726562 48.976562 17.828125 C 49.03125 18.929688 49.527344 19.800781 50.078125 19.769531 C 50.628906 19.742188 51.027344 18.824219 50.972656 17.722656 Z M 50.972656 17.722656 "/>
<path fill-rule="nonzero" fill="rgb(100%, 50%, 0%)" fill-opacity="1" d="M 54.957031 22.417969 C 50.019531 26.152344 48.898438 23.050781 45.914062 23.070312 C 42.929688 23.050781 41.808594 26.152344 36.871094 22.417969 C 42.367188 33.171875 49.460938 33.171875 54.957031 22.417969 Z M 54.957031 22.417969 "/>
</svg>
