<?xml version="1.0" encoding="UTF-8"?>
<svg xmlns="http://www.w3.org/2000/svg" xmlns:xlink="http://www.w3.org/1999/xlink" width="43.427" height="61.512" viewBox="0 0 43.427 61.512">
<defs>
<clipPath id="clip-0">
<path clip-rule="nonzero" d="M 8 34 L 42.863281 34 L 42.863281 60.871094 L 8 60.871094 Z M 8 34 "/>
</clipPath>
<clipPath id="clip-1">
<path clip-rule="nonzero" d="M 23 0.160156 L 32 0.160156 L 32 12 L 23 12 Z M 23 0.160156 "/>
</clipPath>
<clipPath id="clip-2">
<path clip-rule="nonzero" d="M 3 0.160156 L 12 0.160156 L 12 12 L 3 12 Z M 3 0.160156 "/>
</clipPath>
<clipPath id="clip-3">
<path clip-rule="nonzero" d="M 0 15 L 41 15 L 41 60.871094 L 0 60.871094 Z M 0 15 "/>
</clipPath>
</defs>
<g clip-path="url(#clip-0)">
<path fill="none" stroke-width="0.79701" stroke-linecap="butt" stroke-linejoin="miter" stroke="rgb(96.862793%, 63.816833%, 54.374695%)" stroke-opacity="1" stroke-miterlimit="10" d="M 23.897584 16.524551 C 24.404181 11.517945 19.860637 10.231663 18.095462 12.17098 C 16.334245 14.10634 15.910761 17.15384 18.570397 17.830622 C 21.364598 18.543024 21.993886 15.954629 21.131088 14.027185 C 18.174618 7.643267 10.041357 10.09314 7.476708 12.012669 C 5.576968 13.548292 5.070371 17.22508 9.047951 17.94144 C 17.007069 19.378118 14.541365 8.640631 5.945043 9.416358 C 2.292002 9.744854 2.292002 14.84249 2.292002 14.84249 " transform="matrix(0.986977, 0, 0, -0.986977, 17.542534, 63.668731)"/>
</g>
<path fill-rule="nonzero" fill="rgb(96.862793%, 80.39093%, 75.686646%)" fill-opacity="1" d="M 34.328125 41.285156 C 34.328125 52.476562 27.335938 59.191406 17.542969 59.191406 C 7.75 59.191406 0.753906 52.476562 0.753906 41.285156 C 0.753906 27.296875 7.75 21.703125 17.542969 21.703125 C 27.335938 21.703125 34.328125 27.296875 34.328125 42.683594 Z M 34.328125 41.285156 "/>
<path fill-rule="nonzero" fill="rgb(96.862793%, 63.816833%, 54.374695%)" fill-opacity="1" d="M 10.820312 36.1875 C 9.167969 34.0625 7.132812 33.871094 6.285156 35.753906 C 5.4375 37.636719 6.09375 40.882812 7.75 43.003906 C 8.277344 43.679688 8.867188 44.183594 9.457031 44.46875 C 9.835938 44.019531 10.554688 42.507812 10.554688 42.507812 C 10.554688 42.507812 12.535156 43.21875 13.035156 42.796875 C 13.035156 42.796875 12.480469 38.308594 10.820312 36.1875 Z M 10.820312 36.1875 "/>
<path fill-rule="nonzero" fill="rgb(96.862793%, 63.816833%, 54.374695%)" fill-opacity="1" d="M 24.261719 36.1875 C 25.917969 34.0625 27.953125 33.871094 28.800781 35.753906 C 29.648438 37.636719 28.992188 40.882812 27.335938 43.003906 C 26.804688 43.679688 26.21875 44.183594 25.628906 44.46875 C 25.25 44.019531 24.53125 42.507812 24.53125 42.507812 C 24.53125 42.507812 22.550781 43.21875 22.050781 42.796875 C 22.050781 42.796875 22.601562 38.308594 24.261719 36.1875 Z M 24.261719 36.1875 "/>
<path fill-rule="nonzero" fill="rgb(96.862793%, 80.39093%, 75.686646%)" fill-opacity="1" d="M 31.53125 17.785156 C 31.53125 10.058594 25.269531 3.796875 17.542969 3.796875 C 9.816406 3.796875 3.554688 10.058594 3.554688 17.785156 C 3.554688 25.511719 9.816406 31.773438 17.542969 31.773438 C 25.269531 31.773438 31.53125 25.511719 31.53125 17.785156 Z M 31.53125 17.785156 "/>
<path fill-rule="nonzero" fill="rgb(50%, 50%, 50%)" fill-opacity="1" d="M 15.585938 12.75 C 15.585938 12.441406 15.332031 12.191406 15.023438 12.191406 C 14.714844 12.191406 14.464844 12.441406 14.464844 12.75 C 14.464844 13.058594 14.714844 13.308594 15.023438 13.308594 C 15.332031 13.308594 15.585938 13.058594 15.585938 12.75 Z M 15.585938 12.75 "/>
<path fill-rule="nonzero" fill="rgb(50%, 50%, 50%)" fill-opacity="1" d="M 20.621094 12.75 C 20.621094 12.441406 20.371094 12.191406 20.058594 12.191406 C 19.75 12.191406 19.5 12.441406 19.5 12.75 C 19.5 13.058594 19.75 13.308594 20.058594 13.308594 C 20.371094 13.308594 20.621094 13.058594 20.621094 12.75 Z M 20.621094 12.75 "/>
<path fill-rule="nonzero" fill="rgb(96.862793%, 63.816833%, 54.374695%)" fill-opacity="1" d="M 22.578125 18.34375 C 22.578125 16.183594 20.324219 14.429688 17.542969 14.429688 C 14.761719 14.429688 12.507812 16.183594 12.507812 18.34375 C 12.507812 20.507812 14.761719 22.261719 17.542969 22.261719 C 20.324219 22.261719 22.578125 20.507812 22.578125 18.34375 Z M 22.578125 18.34375 "/>
<path fill-rule="nonzero" fill="rgb(50%, 50%, 50%)" fill-opacity="1" d="M 16.84375 18.34375 C 16.84375 17.804688 16.40625 17.367188 15.863281 17.367188 C 15.324219 17.367188 14.882812 17.804688 14.882812 18.34375 C 14.882812 18.886719 15.324219 19.324219 15.863281 19.324219 C 16.40625 19.324219 16.84375 18.886719 16.84375 18.34375 Z M 16.84375 18.34375 "/>
<path fill-rule="nonzero" fill="rgb(50%, 50%, 50%)" fill-opacity="1" d="M 20.199219 18.34375 C 20.199219 17.804688 19.761719 17.367188 19.222656 17.367188 C 18.679688 17.367188 18.242188 17.804688 18.242188 18.34375 C 18.242188 18.886719 18.679688 19.324219 19.222656 19.324219 C 19.761719 19.324219 20.199219 18.886719 20.199219 18.34375 Z M 20.199219 18.34375 "/>
<path fill="none" stroke-width="0.3985" stroke-linecap="butt" stroke-linejoin="miter" stroke="rgb(50%, 50%, 50%)" stroke-opacity="1" stroke-miterlimit="10" d="M 2.976699 41.387395 C 1.29068 39.970506 -1.167108 39.970506 -2.853127 41.387395 " transform="matrix(0.986977, 0, 0, -0.986977, 17.542534, 63.668731)"/>
<path fill-rule="nonzero" fill="rgb(96.862793%, 63.816833%, 54.374695%)" fill-opacity="1" d="M 26.539062 59.472656 C 27.019531 57.679688 25.957031 55.839844 24.167969 55.359375 C 22.375 54.878906 20.535156 55.945312 20.054688 57.734375 C 19.902344 58.304688 19.902344 58.902344 20.054688 59.472656 L 22.019531 59.472656 C 22.871094 58.980469 23.6875 58.980469 24.535156 59.472656 Z M 26.539062 59.472656 "/>
<path fill-rule="nonzero" fill="rgb(96.862793%, 63.816833%, 54.374695%)" fill-opacity="1" d="M 8.546875 59.472656 C 8.066406 57.679688 9.128906 55.839844 10.917969 55.359375 C 12.710938 54.878906 14.550781 55.945312 15.03125 57.734375 C 15.183594 58.304688 15.183594 58.902344 15.03125 59.472656 L 13.066406 59.472656 C 12.214844 58.980469 11.398438 58.980469 10.546875 59.472656 Z M 8.546875 59.472656 "/>
<g clip-path="url(#clip-1)">
<path fill-rule="nonzero" fill="rgb(96.862793%, 63.816833%, 54.374695%)" fill-opacity="1" d="M 23.699219 6.617188 C 23.699219 3.28125 31.378906 0.578125 31.378906 0.578125 C 31.378906 0.578125 32.371094 11.628906 27.953125 11.628906 C 25.628906 11.628906 23.699219 9.949219 23.699219 6.617188 Z M 23.699219 6.617188 "/>
</g>
<path fill-rule="nonzero" fill="rgb(96.862793%, 80.39093%, 75.686646%)" fill-opacity="1" d="M 23.699219 6.617188 C 24.816406 3.28125 30.691406 1.558594 30.691406 2.117188 C 30.691406 2.117188 31.25 10.511719 27.953125 10.511719 C 25.628906 11.070312 23.699219 11.070312 23.699219 6.617188 Z M 23.699219 6.617188 "/>
<g clip-path="url(#clip-2)">
<path fill-rule="nonzero" fill="rgb(96.862793%, 63.816833%, 54.374695%)" fill-opacity="1" d="M 11.386719 6.617188 C 11.386719 3.28125 3.703125 0.578125 3.703125 0.578125 C 3.703125 0.578125 2.714844 11.628906 7.132812 11.628906 C 9.453125 11.628906 11.386719 9.949219 11.386719 6.617188 Z M 11.386719 6.617188 "/>
</g>
<path fill-rule="nonzero" fill="rgb(96.862793%, 80.39093%, 75.686646%)" fill-opacity="1" d="M 11.386719 6.617188 C 10.269531 3.28125 4.394531 1.558594 4.394531 2.117188 C 4.394531 2.117188 3.832031 10.511719 7.132812 10.511719 C 9.453125 11.070312 11.386719 11.070312 11.386719 6.617188 Z M 11.386719 6.617188 "/>
<g clip-path="url(#clip-3)">
<path fill="none" stroke-width="0.3985" stroke-linecap="butt" stroke-linejoin="miter" stroke="rgb(100%, 0%, 0%)" stroke-opacity="1" stroke-miterlimit="10" d="M 17.573034 23.529841 C 17.573034 34.330654 9.704945 43.085288 0.00044044 43.085288 C -9.708021 43.085288 -17.57611 34.330654 -17.57611 23.529841 C -17.57611 12.725071 -9.708021 3.970437 0.00044044 3.970437 C 9.704945 3.970437 17.573034 12.725071 17.573034 23.529841 Z M 17.573034 23.529841 " transform="matrix(0.986977, 0, 0, -0.986977, 17.542534, 63.668731)"/>
</g>
</svg>
