<?xml version="1.0" encoding="UTF-8"?>
<svg xmlns="http://www.w3.org/2000/svg" xmlns:xlink="http://www.w3.org/1999/xlink" width="92.41" height="61.512" viewBox="0 0 92.41 61.512">
<defs>
<clipPath id="clip-0">
<path clip-rule="nonzero" d="M 37 34 L 81 34 L 81 61.027344 L 37 61.027344 Z M 37 34 "/>
</clipPath>
</defs>
<g clip-path="url(#clip-0)">
<path fill="none" stroke-width="0.79701" stroke-linecap="butt" stroke-linejoin="miter" stroke="rgb(96.862793%, 63.816833%, 54.374695%)" stroke-opacity="1" stroke-miterlimit="10" d="M 23.9008 16.525284 C 24.404767 11.517115 19.861192 10.233575 18.097309 12.170697 C 16.333425 14.103882 15.912141 17.155243 18.569778 17.828511 C 21.365218 18.541151 21.995176 15.954385 21.132921 14.025137 C 18.176054 7.646808 10.041716 10.091834 7.478573 12.013207 C 5.576886 13.548731 5.068982 17.222176 9.049532 17.942691 C 17.006693 19.375846 14.541981 8.638993 5.946987 9.418566 C 2.293228 9.745357 2.293228 14.844083 2.293228 14.844083 " transform="matrix(0.992129, 0, 0, -0.992129, 45.912322, 63.840527)"/>
</g>
<path fill-rule="nonzero" fill="rgb(96.862793%, 80.39093%, 75.686646%)" fill-opacity="1" d="M 62.785156 41.339844 C 62.785156 52.589844 55.753906 59.339844 45.914062 59.339844 C 36.070312 59.339844 29.039062 52.589844 29.039062 41.339844 C 29.039062 27.28125 36.070312 21.65625 45.914062 21.65625 C 55.753906 21.65625 62.785156 27.28125 62.785156 42.746094 Z M 62.785156 41.339844 "/>
<path fill-rule="nonzero" fill="rgb(96.862793%, 63.816833%, 54.374695%)" fill-opacity="1" d="M 39.15625 36.214844 C 37.492188 34.082031 35.449219 33.886719 34.59375 35.777344 C 33.742188 37.671875 34.402344 40.933594 36.070312 43.066406 C 36.601562 43.746094 37.191406 44.253906 37.785156 44.542969 C 38.164062 44.089844 38.886719 42.570312 38.886719 42.570312 C 38.886719 42.570312 40.878906 43.28125 41.382812 42.859375 C 41.382812 42.859375 40.824219 38.347656 39.15625 36.214844 Z M 39.15625 36.214844 "/>
<path fill-rule="nonzero" fill="rgb(96.862793%, 63.816833%, 54.374695%)" fill-opacity="1" d="M 52.667969 36.214844 C 54.332031 34.082031 56.378906 33.886719 57.230469 35.777344 C 58.082031 37.671875 57.421875 40.933594 55.753906 43.066406 C 55.222656 43.746094 54.632812 44.253906 54.039062 44.542969 C 53.660156 44.089844 52.9375 42.570312 52.9375 42.570312 C 52.9375 42.570312 50.945312 43.28125 50.441406 42.859375 C 50.441406 42.859375 51 38.347656 52.667969 36.214844 Z M 52.667969 36.214844 "/>
<path fill-rule="nonzero" fill="rgb(96.862793%, 80.39093%, 75.686646%)" fill-opacity="1" d="M 59.972656 17.71875 C 59.972656 9.953125 53.679688 3.65625 45.914062 3.65625 C 38.144531 3.65625 31.851562 9.953125 31.851562 17.71875 C 31.851562 25.484375 38.144531 31.78125 45.914062 31.78125 C 53.679688 31.78125 59.972656 25.484375 59.972656 17.71875 Z M 59.972656 17.71875 "/>
<path fill-rule="nonzero" fill="rgb(50%, 50%, 50%)" fill-opacity="1" d="M 43.945312 12.65625 C 43.945312 12.34375 43.691406 12.09375 43.382812 12.09375 C 43.070312 12.09375 42.820312 12.34375 42.820312 12.65625 C 42.820312 12.964844 43.070312 13.21875 43.382812 13.21875 C 43.691406 13.21875 43.945312 12.964844 43.945312 12.65625 Z M 43.945312 12.65625 "/>
<path fill-rule="nonzero" fill="rgb(50%, 50%, 50%)" fill-opacity="1" d="M 49.007812 12.65625 C 49.007812 12.34375 48.753906 12.09375 48.441406 12.09375 C 48.132812 12.09375 47.878906 12.34375 47.878906 12.65625 C 47.878906 12.964844 48.132812 13.21875 48.441406 13.21875 C 48.753906 13.21875 49.007812 12.964844 49.007812 12.65625 Z M 49.007812 12.65625 "/>
<path fill-rule="nonzero" fill="rgb(96.862793%, 63.816833%, 54.374695%)" fill-opacity="1" d="M 50.972656 18.28125 C 50.972656 16.105469 48.707031 14.34375 45.914062 14.34375 C 43.117188 14.34375 40.851562 16.105469 40.851562 18.28125 C 40.851562 20.453125 43.117188 22.21875 45.914062 22.21875 C 48.707031 22.21875 50.972656 20.453125 50.972656 18.28125 Z M 50.972656 18.28125 "/>
<path fill-rule="nonzero" fill="rgb(50%, 50%, 50%)" fill-opacity="1" d="M 45.210938 18.28125 C 45.210938 17.738281 44.769531 17.296875 44.226562 17.296875 C 43.679688 17.296875 43.242188 17.738281 43.242188 18.28125 C 43.242188 18.824219 43.679688 19.265625 44.226562 19.265625 C 44.769531 19.265625 45.210938 18.824219 45.210938 18.28125 Z M 45.210938 18.28125 "/>
<path fill-rule="nonzero" fill="rgb(50%, 50%, 50%)" fill-opacity="1" d="M 48.585938 18.28125 C 48.585938 17.738281 48.144531 17.296875 47.601562 17.296875 C 47.054688 17.296875 46.617188 17.738281 46.617188 18.28125 C 46.617188 18.824219 47.054688 19.265625 47.601562 19.265625 C 48.144531 19.265625 48.585938 18.824219 48.585938 18.28125 Z M 48.585938 18.28125 "/>
<path fill="none" stroke-width="0.3985" stroke-linecap="butt" stroke-linejoin="miter" stroke="rgb(50%, 50%, 50%)" stroke-opacity="1" stroke-miterlimit="10" d="M 2.97437 41.385017 C 1.289232 39.971548 -1.167606 39.971548 -2.852745 41.385017 " transform="matrix(0.992129, 0, 0, -0.992129, 45.912322, 63.840527)"/>
<path fill-rule="nonzero" fill="rgb(96.862793%, 63.816833%, 54.374695%)" fill-opacity="1" d="M 54.957031 59.621094 C 55.4375 57.820312 54.371094 55.972656 52.570312 55.488281 C 50.769531 55.007812 48.917969 56.074219 48.4375 57.875 C 48.285156 58.449219 48.285156 59.050781 48.4375 59.621094 L 50.414062 59.621094 C 51.265625 59.128906 52.089844 59.128906 52.941406 59.621094 Z M 54.957031 59.621094 "/>
<path fill-rule="nonzero" fill="rgb(96.862793%, 63.816833%, 54.374695%)" fill-opacity="1" d="M 36.867188 59.621094 C 36.386719 57.820312 37.453125 55.972656 39.253906 55.488281 C 41.054688 55.007812 42.90625 56.074219 43.386719 57.875 C 43.539062 58.449219 43.539062 59.050781 43.386719 59.621094 L 41.414062 59.621094 C 40.558594 59.128906 39.734375 59.128906 38.882812 59.621094 Z M 36.867188 59.621094 "/>
<path fill-rule="nonzero" fill="rgb(96.862793%, 63.816833%, 54.374695%)" fill-opacity="1" d="M 52.097656 6.492188 C 52.097656 3.136719 59.820312 0.421875 59.820312 0.421875 C 59.820312 0.421875 60.816406 11.53125 56.378906 11.53125 C 54.042969 11.53125 52.097656 9.839844 52.097656 6.492188 Z M 52.097656 6.492188 "/>
<path fill-rule="nonzero" fill="rgb(96.862793%, 80.39093%, 75.686646%)" fill-opacity="1" d="M 52.097656 6.492188 C 53.222656 3.136719 59.128906 1.40625 59.128906 1.96875 C 59.128906 1.96875 59.691406 10.40625 56.378906 10.40625 C 54.042969 10.96875 52.097656 10.96875 52.097656 6.492188 Z M 52.097656 6.492188 "/>
<path fill-rule="nonzero" fill="rgb(96.862793%, 63.816833%, 54.374695%)" fill-opacity="1" d="M 39.726562 6.492188 C 39.726562 3.136719 32.003906 0.421875 32.003906 0.421875 C 32.003906 0.421875 31.007812 11.53125 35.449219 11.53125 C 37.78125 11.53125 39.726562 9.839844 39.726562 6.492188 Z M 39.726562 6.492188 "/>
<path fill-rule="nonzero" fill="rgb(96.862793%, 80.39093%, 75.686646%)" fill-opacity="1" d="M 39.726562 6.492188 C 38.601562 3.136719 32.695312 1.40625 32.695312 1.96875 C 32.695312 1.96875 32.132812 10.40625 35.449219 10.40625 C 37.78125 10.96875 39.726562 10.96875 39.726562 6.492188 Z M 39.726562 6.492188 "/>
</svg>
