<?xml version="1.0" encoding="UTF-8" standalone="no"?>
<svg
   width="43.427"
   height="61.512"
   viewBox="0 0 43.427 61.512"
   version="1.1"
   id="svg22"
   sodipodi:docname="pig.svg"
   xmlns:inkscape="http://www.inkscape.org/namespaces/inkscape"
   xmlns:sodipodi="http://sodipodi.sourceforge.net/DTD/sodipodi-0.dtd"
   xmlns="http://www.w3.org/2000/svg"
   xmlns:svg="http://www.w3.org/2000/svg">
  <sodipodi:namedview
     id="namedview22"
     pagecolor="#ffffff"
     bordercolor="#666666"
     borderopacity="1.0"
     inkscape:showpageshadow="2"
     inkscape:pageopacity="0.0"
     inkscape:pagecheckerboard="0"
     inkscape:deskcolor="#d1d1d1" />
  <defs
     id="defs4">
    <clipPath
       id="clip-0">
      <path
         clip-rule="nonzero"
         d="M 8 34 L 42.863281 34 L 42.863281 60.871094 L 8 60.871094 Z M 8 34 "
         id="path1" />
    </clipPath>
    <clipPath
       id="clip-1">
      <path
         clip-rule="nonzero"
         d="M 23 0.160156 L 32 0.160156 L 32 12 L 23 12 Z M 23 0.160156 "
         id="path2" />
    </clipPath>
    <clipPath
       id="clip-2">
      <path
         clip-rule="nonzero"
         d="M 3 0.160156 L 12 0.160156 L 12 12 L 3 12 Z M 3 0.160156 "
         id="path3" />
    </clipPath>
    <clipPath
       id="clip-3">
      <path
         clip-rule="nonzero"
         d="M 0 15 L 41 15 L 41 60.871094 L 0 60.871094 Z M 0 15 "
         id="path4" />
    </clipPath>
  </defs>
  <g
     clip-path="url(#clip-0)"
     id="g5">
    <path
       id="path5"
       d="M -14.022018 63.923076 C -14.022018 63.923076 -14.726506 56.04629 -12.312251 53.506167 C -13.494013 51.436859 -14.172414 49.043011 -14.172414 46.489001 C -14.172414 43.507934 -13.250568 40.742893 -11.679005 38.460619 C -12.980389 37.232289 -14.070989 35.701758 -14.924394 33.853749 C -16.602552 30.856879 -17.576115 27.321061 -17.576115 23.529848 C -17.576115 19.840983 -16.657272 16.391496 -15.062917 13.447372 C -15.051993 13.4272 -15.042242 13.406151 -15.031255 13.386026 C -13.873297 11.021734 -12.243082 9.0893352 -10.242326 7.6393115 C -9.8005189 7.2860733 -9.3440843 6.955153 -8.8729299 6.6478845 C -9.2294772 5.9311476 -9.3381287 5.0864976 -9.1143552 4.2514413 L -7.0879656 4.2514413 C -6.2251663 4.7501226 -5.3979877 4.7501226 -4.5351895 4.2514413 L -2.9560304 4.2514413 C -1.9944116 4.0701776 -1.0076083 3.970438 0.00044048646 3.970438 C 1.0078635 3.970438 1.9938373 4.0702533 2.9549325 4.2514413 L 4.5360705 4.2514413 C 5.3988697 4.7501226 6.2260481 4.7501226 7.0848888 4.2514413 L 9.1152362 4.2514413 C 9.3391746 5.0871128 9.2309893 5.9327878 8.8738109 6.6498634 C 9.3389099 6.9533996 9.7908672 7.2790625 10.227376 7.6274381 C 11.179505 8.315875 12.048241 9.112395 12.821709 10.013987 C 15.010825 9.7150785 17.379081 9.9874402 19.191775 11.468476 C 21.253217 10.774471 24.318587 12.363928 23.897591 16.524555 L 21.420013 16.330623 C 21.179251 17.462109 20.283331 18.267351 18.570402 17.830627 C 17.447048 17.544774 16.874961 16.835787 16.720134 15.966507 L 16.195727 15.92495 C 17.082616 18.26247 17.573038 20.83247 17.573038 23.529848 C 17.573038 28.212787 16.091698 32.50932 13.625141 35.876181 C 13.023975 36.815256 12.355175 37.648764 11.616561 38.373548 C 13.225599 40.672677 14.173295 43.469254 14.173295 46.489001 C 14.173295 49.043011 13.494895 51.436859 12.313132 53.506167 C 14.726489 56.04629 14.018941 63.923076 14.018941 63.923076 C 14.018941 63.923076 8.0725422 61.829753 6.5763124 59.045097 C 4.6106924 60.076596 2.3746537 60.661855 0.00044048646 60.661855 C -2.3737731 60.661855 -4.6098114 60.076596 -6.5754315 59.045097 C -8.0723796 61.829778 -14.022018 63.923076 -14.022018 63.923076 z "
       transform="matrix(0.986977, 0, 0, -0.986977, 17.542534, 63.668731)" />
  </g>
  <g
     clip-path="url(#clip-1)"
     id="g18" />
  <g
     clip-path="url(#clip-2)"
     id="g20" />
  <g
     clip-path="url(#clip-3)"
     id="g22" />
</svg>
