<?xml version="1.0" encoding="UTF-8" standalone="no"?>
<svg
   width="43.37"
   height="61.512"
   viewBox="0 0 43.37 61.512"
   version="1.1"
   id="svg20"
   sodipodi:docname="pig.svg"
   xmlns:inkscape="http://www.inkscape.org/namespaces/inkscape"
   xmlns:sodipodi="http://sodipodi.sourceforge.net/DTD/sodipodi-0.dtd"
   xmlns="http://www.w3.org/2000/svg"
   xmlns:svg="http://www.w3.org/2000/svg">
  <sodipodi:namedview
     id="namedview20"
     pagecolor="#ffffff"
     bordercolor="#666666"
     borderopacity="1.0"
     inkscape:showpageshadow="2"
     inkscape:pageopacity="0.0"
     inkscape:pagecheckerboard="0"
     inkscape:deskcolor="#d1d1d1" />
  <defs
     id="defs3">
    <clipPath
       id="clip-0">
      <path
         clip-rule="nonzero"
         d="M 8 34 L 42.75 34 L 42.75 60.832031 L 8 60.832031 Z M 8 34 "
         id="path1" />
    </clipPath>
    <clipPath
       id="clip-1">
      <path
         clip-rule="nonzero"
         d="M 23 0.199219 L 32 0.199219 L 32 12 L 23 12 Z M 23 0.199219 "
         id="path2" />
    </clipPath>
    <clipPath
       id="clip-2">
      <path
         clip-rule="nonzero"
         d="M 3 0.199219 L 12 0.199219 L 12 12 L 3 12 Z M 3 0.199219 "
         id="path3" />
    </clipPath>
  </defs>
  <g
     clip-path="url(#clip-0)"
     id="g4">
    <path
       id="path4"
       d="M -14.019525 63.923603 C -14.019525 63.923603 -14.722744 56.052878 -12.313457 53.508859 C -13.496021 51.439304 -14.174082 49.044655 -14.174082 46.4904 C -14.174082 43.507475 -13.25009 40.742511 -11.677397 38.459397 C -15.020416 35.302708 -17.007621 30.183266 -17.007621 22.676781 C -17.007621 15.126 -13.862427 9.5903269 -8.8319686 6.7316818 C -9.2230157 5.9979281 -9.3483112 5.1200551 -9.1173041 4.2528303 L -7.0882521 4.2528303 C -6.2243193 4.748205 -5.3960552 4.748205 -4.5360852 4.2528303 L -2.5466631 4.2528303 C -2.508366 4.3952167 -2.4787954 4.5391154 -2.4594773 4.6847964 C -1.6607315 4.588154 -0.84068171 4.5342027 0.0015408113 4.5342027 C 0.84274211 4.5342027 1.660744 4.5883101 2.4585959 4.6847964 C 2.477914 4.5391154 2.5074846 4.3952167 2.5457818 4.2528303 L 4.5352038 4.2528303 C 5.3951728 4.748205 6.2234379 4.748205 7.0873707 4.2528303 L 9.1164227 4.2528303 C 9.3493237 5.1200551 9.2245443 5.9979281 8.8330688 6.7316818 C 10.343463 7.5903447 11.685825 8.6888195 12.82182 10.013039 C 15.012224 9.714196 17.381268 9.9871581 19.194312 11.469439 C 21.255249 10.777289 24.319812 12.364611 23.898383 16.526217 L 21.419532 16.33203 C 21.177973 17.46265 20.282189 18.267046 18.568159 17.830041 C 17.445502 17.545612 16.874199 16.836471 16.719423 15.967435 L 16.035807 15.913935 C 16.617056 17.770778 16.94445 19.8343 16.994851 22.078369 C 16.865608 29.924162 14.882586 35.166518 11.617071 38.372211 C 13.22646 40.671921 14.173201 43.469365 14.173201 46.4904 C 14.173201 49.044042 13.494474 51.437663 12.312576 53.506878 C 14.725582 56.048752 14.018644 63.923603 14.018644 63.923603 C 14.018644 63.923603 8.0707672 61.830103 6.5741632 59.045159 C 4.6092147 60.076004 2.3744533 60.66206 0.0015408113 60.66206 C -2.3732021 60.66206 -4.6091361 60.076515 -6.5750446 59.045159 C -8.0716485 61.830103 -14.019525 63.923603 -14.019525 63.923603 z M 16.994851 22.078369 C 16.999321 21.807006 17.00674 21.539625 17.00674 21.261992 L 17.00674 22.676781 C 17.00674 22.474883 16.999321 22.277378 16.994851 22.078369 z "
       transform="matrix(0.985682, 0, 0, -0.985682, 17.463325, 63.625532)" />
  </g>
  <g
     clip-path="url(#clip-1)"
     id="g17" />
  <g
     clip-path="url(#clip-2)"
     id="g19" />
</svg>
