<?xml version="1.0" encoding="UTF-8"?>
<svg xmlns="http://www.w3.org/2000/svg" xmlns:xlink="http://www.w3.org/1999/xlink" width="40.318" height="30.283" viewBox="0 0 40.318 30.283">
<defs>
<clipPath id="clip-0">
<path clip-rule="nonzero" d="M 0.132812 0 L 39.519531 0 L 39.519531 29.582031 L 0.132812 29.582031 Z M 0.132812 0 "/>
</clipPath>
</defs>
<g clip-path="url(#clip-0)">
<path fill-rule="nonzero" fill="rgb(75%, 75%, 75%)" fill-opacity="1" d="M 12.421875 0.113281 C 10.925781 0.265625 11.675781 2.125 10.933594 2.996094 C 10.070312 4.792969 7.636719 5.574219 5.941406 4.460938 C 5.027344 3.863281 4.171875 2.257812 2.960938 3.328125 C 2.21875 3.796875 1.332031 4.0625 0.707031 4.683594 C 0.136719 5.464844 0.839844 6.320312 1.03125 7.117188 C 3.074219 12.890625 5.128906 18.65625 7.171875 24.429688 C 6.316406 24.304688 5.210938 24.722656 5.328125 25.769531 C 5.367188 26.699219 5.226562 27.644531 5.425781 28.550781 C 5.910156 29.582031 7.136719 29.222656 8.042969 29.289062 C 16.460938 29.289062 24.882812 29.289062 33.308594 29.289062 C 34.410156 29.316406 34.644531 28.144531 34.542969 27.28125 C 34.460938 26.449219 34.777344 25.476562 34.179688 24.789062 C 33.945312 24.074219 32.324219 24.878906 32.84375 24.015625 C 35.019531 17.859375 37.21875 11.703125 39.386719 5.546875 C 39.519531 4.46875 38.339844 4.144531 37.617188 3.695312 C 36.910156 3.363281 36.132812 2.605469 35.351562 3.207031 C 34.527344 4.253906 33.296875 5.082031 31.902344 4.964844 C 29.96875 4.851562 28.414062 3.039062 28.445312 1.128906 C 28.445312 0.140625 27.375 0.0507812 26.628906 0.113281 C 25.753906 0.171875 24.84375 0 23.984375 0.230469 C 23.222656 0.847656 23.363281 2.117188 22.480469 2.722656 C 21.035156 4.253906 18.320312 4.070312 17.074219 2.382812 C 16.320312 1.742188 16.652344 0.140625 15.40625 0.113281 C 14.40625 0.113281 13.417969 0.113281 12.421875 0.113281 Z M 12.421875 0.113281 "/>
</g>
</svg>
