<?xml version="1.0" encoding="UTF-8" standalone="no"?>
<svg
   width="35.433"
   height="59.743"
   viewBox="0 0 35.433 59.743"
   version="1.1"
   id="svg23"
   sodipodi:docname="rhino.svg"
   xmlns:inkscape="http://www.inkscape.org/namespaces/inkscape"
   xmlns:sodipodi="http://sodipodi.sourceforge.net/DTD/sodipodi-0.dtd"
   xmlns="http://www.w3.org/2000/svg"
   xmlns:svg="http://www.w3.org/2000/svg">
  <sodipodi:namedview
     id="namedview23"
     pagecolor="#ffffff"
     bordercolor="#666666"
     borderopacity="1.0"
     inkscape:showpageshadow="2"
     inkscape:pageopacity="0.0"
     inkscape:pagecheckerboard="0"
     inkscape:deskcolor="#d1d1d1" />
  <defs
     id="defs2">
    <clipPath
       id="clip-0">
      <path
         clip-rule="nonzero"
         d="M 7 0.34375 L 13 0.34375 L 13 8 L 7 8 Z M 7 0.34375 "
         id="path1" />
    </clipPath>
    <clipPath
       id="clip-1">
      <path
         clip-rule="nonzero"
         d="M 22 0.34375 L 28 0.34375 L 28 8 L 22 8 Z M 22 0.34375 "
         id="path2" />
    </clipPath>
  </defs>
  <g
     clip-path="url(#clip-0)"
     id="g3">
    <path
       id="path3"
       d="M 7.7089844 0.69335938 C 7.5933609 0.69328312 7.5273438 0.7197265 7.5273438 0.7734375 C 7.5273438 0.7734375 7.171885 6.5891692 9.1464844 7.1640625 C 8.0415007 8.7773113 7.3945312 10.72883 7.3945312 12.832031 C 7.3945312 14.164598 7.6557472 15.436101 8.1269531 16.599609 C 7.6562763 17.245942 7.3945312 17.951425 7.3945312 18.691406 C 7.3945312 19.235395 7.5376354 19.760835 7.7988281 20.257812 C 4.0967048 24.41112 2.09375 31.261469 2.09375 39.617188 C 2.09375 46.334062 4.1174323 51.128009 7.8554688 53.882812 C 6.6001727 54.808498 5.760271 56.380981 5.7207031 58.175781 C 5.720488 58.181647 5.7208898 58.187482 5.7207031 58.193359 C 5.7199699 58.231692 5.71875 58.270066 5.71875 58.308594 L 15.207031 58.308594 C 15.207031 57.67144 15.106607 57.060213 14.921875 56.494141 C 15.726901 56.587379 16.564562 56.636719 17.4375 56.636719 C 18.311821 56.636719 19.150783 56.587674 19.957031 56.494141 C 19.785443 57.020764 19.686796 57.586502 19.673828 58.175781 C 19.672233 58.219548 19.671875 58.264191 19.671875 58.308594 L 26.367188 58.308594 L 29.15625 58.308594 C 29.15625 58.264191 29.15527 58.219924 29.154297 58.175781 C 29.114742 56.381589 28.276073 54.808624 27.021484 53.882812 C 30.650335 51.209281 32.659861 46.611782 32.775391 40.203125 C 32.660046 31.377067 30.660824 24.471298 27.048828 20.314453 C 27.32915 19.801145 27.480469 19.255729 27.480469 18.691406 C 27.480469 17.951425 27.218724 17.245942 26.748047 16.599609 C 27.219253 15.436101 27.480469 14.164598 27.480469 12.832031 C 27.480469 10.729402 26.83295 8.7790102 25.728516 7.1660156 C 27.708464 6.5946135 27.347656 0.7734375 27.347656 0.7734375 C 27.347656 0.34990131 23.293425 1.6300038 22.417969 4.1132812 C 20.949596 3.2726426 19.250841 2.7890625 17.4375 2.7890625 C 15.624159 2.7890625 13.925404 3.2726426 12.457031 4.1132812 C 11.692596 1.9449222 8.5051057 0.69388441 7.7089844 0.69335938 z M 32.775391 40.203125 C 32.778909 40.472324 32.785156 40.738968 32.785156 41.011719 L 32.785156 39.617188 C 32.785156 39.815348 32.778903 40.00831 32.775391 40.203125 z " />
  </g>
  <g
     clip-path="url(#clip-1)"
     id="g4" />
</svg>
