<?xml version="1.0" encoding="UTF-8" standalone="no"?>
<svg
   width="35.433"
   height="59.743"
   viewBox="0 0 35.433 59.743"
   version="1.1"
   id="svg25"
   sodipodi:docname="rhino.svg"
   xmlns:inkscape="http://www.inkscape.org/namespaces/inkscape"
   xmlns:sodipodi="http://sodipodi.sourceforge.net/DTD/sodipodi-0.dtd"
   xmlns="http://www.w3.org/2000/svg"
   xmlns:svg="http://www.w3.org/2000/svg">
  <sodipodi:namedview
     id="namedview25"
     pagecolor="#ffffff"
     bordercolor="#666666"
     borderopacity="1.0"
     inkscape:showpageshadow="2"
     inkscape:pageopacity="0.0"
     inkscape:pagecheckerboard="0"
     inkscape:deskcolor="#d1d1d1" />
  <defs
     id="defs3">
    <clipPath
       id="clip-0">
      <path
         clip-rule="nonzero"
         d="M 7 0.34375 L 13 0.34375 L 13 8 L 7 8 Z M 7 0.34375 "
         id="path1" />
    </clipPath>
    <clipPath
       id="clip-1">
      <path
         clip-rule="nonzero"
         d="M 22 0.34375 L 28 0.34375 L 28 8 L 22 8 Z M 22 0.34375 "
         id="path2" />
    </clipPath>
    <clipPath
       id="clip-2">
      <path
         clip-rule="nonzero"
         d="M 0 15 L 34.875 15 L 34.875 58 L 0 58 Z M 0 15 "
         id="path3" />
    </clipPath>
  </defs>
  <g
     clip-path="url(#clip-0)"
     id="g4">
    <path
       id="path4"
       d="M 7.7089844 0.69335938 C 7.5933609 0.69328312 7.5273438 0.7197265 7.5273438 0.7734375 C 7.5273438 0.7734375 7.171885 6.5891692 9.1464844 7.1640625 C 8.0415007 8.7773113 7.3945312 10.72883 7.3945312 12.832031 C 7.3945312 14.164598 7.6557472 15.436101 8.1269531 16.599609 C 7.6562763 17.245942 7.3945312 17.951425 7.3945312 18.691406 C 7.3945312 19.099131 7.4756053 19.496113 7.625 19.878906 C 3.4298376 23.681131 0.69921875 29.853535 0.69921875 36.828125 C 0.69921875 41.76398 2.0704121 46.297134 4.3574219 49.875 C 5.1081248 51.22041 6.0382133 52.369983 7.140625 53.318359 C 7.1420096 53.319551 7.1431461 53.321075 7.1445312 53.322266 C 7.3571282 53.529827 7.5742701 53.731004 7.7949219 53.925781 C 6.5727124 54.856949 5.7596417 56.409529 5.7207031 58.175781 C 5.720488 58.181647 5.7208898 58.187482 5.7207031 58.193359 C 5.7199699 58.231692 5.71875 58.270066 5.71875 58.308594 L 15.207031 58.308594 C 15.207031 58.051791 15.189844 57.799817 15.158203 57.552734 C 15.904129 57.67976 16.663638 57.75 17.4375 57.75 C 18.212676 57.75 18.973514 57.680185 19.720703 57.552734 C 19.694579 57.757095 19.678475 57.964625 19.673828 58.175781 C 19.672233 58.219548 19.671875 58.264191 19.671875 58.308594 L 29.15625 58.308594 C 29.15625 56.488 28.332291 54.882264 27.080078 53.927734 C 27.301501 53.73239 27.519102 53.530474 27.732422 53.322266 C 27.733739 53.32098 27.735012 53.319645 27.736328 53.318359 C 28.835992 52.372658 29.763726 51.227227 30.513672 49.886719 C 32.805942 46.307069 34.179688 41.769291 34.179688 36.828125 C 34.179688 29.853535 31.448244 23.681131 27.251953 19.878906 C 27.40117 19.496329 27.480469 19.098882 27.480469 18.691406 C 27.480469 17.951425 27.218724 17.245942 26.748047 16.599609 C 27.219253 15.436101 27.480469 14.164598 27.480469 12.832031 C 27.480469 10.729402 26.83295 8.7790102 25.728516 7.1660156 C 27.708464 6.5946135 27.347656 0.7734375 27.347656 0.7734375 C 27.347656 0.34990131 23.293425 1.6300038 22.417969 4.1132812 C 20.949596 3.2726426 19.250841 2.7890625 17.4375 2.7890625 C 15.624159 2.7890625 13.925404 3.2726426 12.457031 4.1132812 C 11.692596 1.9449222 8.5051057 0.69388441 7.7089844 0.69335938 z " />
  </g>
  <g
     clip-path="url(#clip-1)"
     id="g5" />
  <g
     clip-path="url(#clip-2)"
     id="g25" />
</svg>
