<?xml version="1.0" encoding="UTF-8"?>
<svg xmlns="http://www.w3.org/2000/svg" xmlns:xlink="http://www.w3.org/1999/xlink" width="92.41" height="61.228" viewBox="0 0 92.41 61.228">
<path fill-rule="nonzero" fill="rgb(50.749207%, 50.749207%, 50.749207%)" fill-opacity="1" d="M 40.953125 5.355469 C 40.15625 2.792969 35.96875 1.464844 35.96875 1.898438 C 35.96875 1.898438 35.574219 8.355469 37.921875 8.355469 C 39.574219 8.785156 40.953125 8.785156 40.953125 5.355469 Z M 40.953125 5.355469 "/>
<path fill-rule="nonzero" fill="rgb(50.749207%, 50.749207%, 50.749207%)" fill-opacity="1" d="M 50.875 5.355469 C 51.671875 2.792969 55.855469 1.464844 55.855469 1.898438 C 55.855469 1.898438 56.253906 8.355469 53.90625 8.355469 C 52.25 8.785156 50.875 8.785156 50.875 5.355469 Z M 50.875 5.355469 "/>
<path fill-rule="nonzero" fill="rgb(72.499084%, 72.499084%, 72.499084%)" fill-opacity="1" d="M 61.308594 40.871094 C 61.308594 52.066406 55.710938 57.945312 45.914062 57.945312 C 36.117188 57.945312 30.515625 52.066406 30.515625 40.871094 C 30.515625 26.875 36.117188 17.074219 45.914062 17.074219 C 55.710938 17.074219 61.308594 26.875 61.308594 42.269531 Z M 61.308594 40.871094 "/>
<path fill-rule="nonzero" fill="rgb(50.749207%, 50.749207%, 50.749207%)" fill-opacity="1" d="M 54.3125 28.554688 C 52.300781 28.554688 50.671875 31.5625 50.671875 35.269531 C 50.671875 38.980469 52.300781 41.988281 54.3125 41.988281 C 56.320312 41.988281 57.953125 38.980469 57.953125 35.269531 C 57.953125 31.5625 56.320312 28.554688 54.3125 28.554688 Z M 54.3125 28.554688 "/>
<path fill-rule="nonzero" fill="rgb(50.749207%, 50.749207%, 50.749207%)" fill-opacity="1" d="M 37.515625 41.988281 C 39.527344 41.988281 41.15625 38.980469 41.15625 35.269531 C 41.15625 31.5625 39.527344 28.554688 37.515625 28.554688 C 35.503906 28.554688 33.875 31.5625 33.875 35.269531 C 33.875 38.980469 35.503906 41.988281 37.515625 41.988281 Z M 37.515625 41.988281 "/>
<path fill-rule="nonzero" fill="rgb(72.499084%, 72.499084%, 72.499084%)" fill-opacity="1" d="M 55.992188 13.996094 C 55.992188 8.429688 51.480469 3.917969 45.914062 3.917969 C 40.347656 3.917969 35.835938 8.429688 35.835938 13.996094 C 35.835938 19.5625 40.347656 24.074219 45.914062 24.074219 C 51.480469 24.074219 55.992188 19.5625 55.992188 13.996094 Z M 55.992188 13.996094 "/>
<path fill-rule="nonzero" fill="rgb(100%, 100%, 100%)" fill-opacity="1" d="M 45.074219 12.035156 C 45.074219 10.179688 44.070312 8.675781 42.835938 8.675781 C 41.597656 8.675781 40.59375 10.179688 40.59375 12.035156 C 40.59375 13.890625 41.597656 15.394531 42.835938 15.394531 C 44.070312 15.394531 45.074219 13.890625 45.074219 12.035156 Z M 45.074219 12.035156 "/>
<path fill-rule="nonzero" fill="rgb(100%, 100%, 100%)" fill-opacity="1" d="M 51.234375 12.035156 C 51.234375 10.179688 50.230469 8.675781 48.992188 8.675781 C 47.757812 8.675781 46.753906 10.179688 46.753906 12.035156 C 46.753906 13.890625 47.757812 15.394531 48.992188 15.394531 C 50.230469 15.394531 51.234375 13.890625 51.234375 12.035156 Z M 51.234375 12.035156 "/>
<path fill-rule="nonzero" fill="rgb(0%, 0%, 0%)" fill-opacity="1" d="M 44.09375 13.4375 C 44.09375 12.355469 43.59375 11.476562 42.972656 11.476562 C 42.355469 11.476562 41.855469 12.355469 41.855469 13.4375 C 41.855469 14.519531 42.355469 15.394531 42.972656 15.394531 C 43.59375 15.394531 44.09375 14.519531 44.09375 13.4375 Z M 44.09375 13.4375 "/>
<path fill-rule="nonzero" fill="rgb(0%, 0%, 0%)" fill-opacity="1" d="M 49.972656 13.4375 C 49.972656 12.355469 49.472656 11.476562 48.851562 11.476562 C 48.234375 11.476562 47.734375 12.355469 47.734375 13.4375 C 47.734375 14.519531 48.234375 15.394531 48.851562 15.394531 C 49.472656 15.394531 49.972656 14.519531 49.972656 13.4375 Z M 49.972656 13.4375 "/>
<path fill-rule="nonzero" fill="rgb(60.174561%, 60.174561%, 60.174561%)" fill-opacity="1" d="M 55.992188 19.875 C 55.992188 16.78125 51.480469 14.277344 45.914062 14.277344 C 40.347656 14.277344 35.835938 16.78125 35.835938 19.875 C 35.835938 22.96875 40.347656 25.472656 45.914062 25.472656 C 51.480469 25.472656 55.992188 22.96875 55.992188 19.875 Z M 55.992188 19.875 "/>
<path fill-rule="nonzero" fill="rgb(100%, 99.743652%, 95.001221%)" fill-opacity="1" d="M 45.914062 13.125 C 45.265625 14.632812 44.617188 16.144531 44.117188 17.707031 C 43.992188 18.105469 43.886719 18.527344 44.015625 18.941406 C 44.226562 19.820312 45.109375 20.472656 45.914062 20.40625 C 46.71875 20.472656 47.601562 19.820312 47.8125 18.941406 C 47.941406 18.527344 47.835938 18.105469 47.710938 17.707031 C 47.210938 16.144531 46.558594 14.632812 45.914062 13.125 Z M 45.914062 13.125 "/>
<path fill="none" stroke-width="0.3985" stroke-linecap="butt" stroke-linejoin="miter" stroke="rgb(36.248779%, 36.248779%, 36.248779%)" stroke-opacity="1" stroke-miterlimit="10" d="M 3.544524 42.521334 C 1.436242 40.753224 -1.637184 40.753224 -3.745467 42.521334 " transform="matrix(0.987548, 0, 0, -0.987548, 45.913673, 63.265312)"/>
<path fill-rule="nonzero" fill="rgb(50.749207%, 50.749207%, 50.749207%)" fill-opacity="1" d="M 43.675781 59.625 C 43.675781 56.6875 41.542969 54.308594 38.914062 54.308594 C 36.285156 54.308594 34.15625 56.6875 34.15625 59.625 Z M 43.675781 59.625 "/>
<path fill-rule="nonzero" fill="rgb(72.499084%, 72.499084%, 72.499084%)" fill-opacity="1" d="M 43.675781 59.625 C 43.675781 58.390625 43.046875 57.386719 42.273438 57.386719 C 41.5 57.386719 40.875 58.390625 40.875 59.625 Z M 43.675781 59.625 "/>
<path fill-rule="nonzero" fill="rgb(72.499084%, 72.499084%, 72.499084%)" fill-opacity="1" d="M 40.316406 59.625 C 40.316406 58.078125 39.6875 56.828125 38.914062 56.828125 C 38.140625 56.828125 37.515625 58.078125 37.515625 59.625 Z M 40.316406 59.625 "/>
<path fill-rule="nonzero" fill="rgb(72.499084%, 72.499084%, 72.499084%)" fill-opacity="1" d="M 36.957031 59.625 C 36.957031 58.390625 36.328125 57.386719 35.554688 57.386719 C 34.78125 57.386719 34.15625 58.390625 34.15625 59.625 Z M 36.957031 59.625 "/>
<path fill-rule="nonzero" fill="rgb(50.749207%, 50.749207%, 50.749207%)" fill-opacity="1" d="M 48.152344 59.625 C 48.152344 56.6875 50.285156 54.308594 52.914062 54.308594 C 55.539062 54.308594 57.671875 56.6875 57.671875 59.625 Z M 48.152344 59.625 "/>
<path fill-rule="nonzero" fill="rgb(72.499084%, 72.499084%, 72.499084%)" fill-opacity="1" d="M 48.152344 59.625 C 48.152344 58.390625 48.78125 57.386719 49.554688 57.386719 C 50.324219 57.386719 50.953125 58.390625 50.953125 59.625 Z M 48.152344 59.625 "/>
<path fill-rule="nonzero" fill="rgb(72.499084%, 72.499084%, 72.499084%)" fill-opacity="1" d="M 51.511719 59.625 C 51.511719 58.078125 52.140625 56.828125 52.914062 56.828125 C 53.683594 56.828125 54.3125 58.078125 54.3125 59.625 Z M 51.511719 59.625 "/>
<path fill-rule="nonzero" fill="rgb(72.499084%, 72.499084%, 72.499084%)" fill-opacity="1" d="M 54.871094 59.625 C 54.871094 58.390625 55.5 57.386719 56.273438 57.386719 C 57.042969 57.386719 57.671875 58.390625 57.671875 59.625 Z M 54.871094 59.625 "/>
</svg>
