<?xml version="1.0" encoding="UTF-8"?>
<svg xmlns="http://www.w3.org/2000/svg" xmlns:xlink="http://www.w3.org/1999/xlink" width="30.112" height="37.443" viewBox="0 0 30.112 37.443">
<defs>
<clipPath id="clip-0">
<path clip-rule="nonzero" d="M 0 0.265625 L 29.25 0.265625 L 29.25 36.636719 L 0 36.636719 Z M 0 0.265625 "/>
</clipPath>
</defs>
<g clip-path="url(#clip-0)">
<path fill-rule="nonzero" fill="rgb(75%, 75%, 75%)" fill-opacity="1" d="M 1.285156 0.347656 C 0.199219 0.347656 0.00390625 1.496094 0.09375 2.335938 C 0.09375 6.5 0.09375 10.664062 0.09375 14.828125 C 1.703125 15.628906 3.316406 16.4375 4.925781 17.238281 C 4.710938 20.054688 3.578125 22.699219 2.679688 25.351562 C 1.820312 27.820312 0.710938 30.214844 0.109375 32.769531 C 0.09375 33.726562 0.078125 34.683594 0.117188 35.644531 C 0.308594 36.617188 1.375 36.636719 2.160156 36.59375 C 10.75 36.59375 19.332031 36.59375 27.914062 36.59375 C 29.011719 36.617188 29.242188 35.453125 29.144531 34.59375 C 29.128906 33.652344 29.253906 32.679688 28.824219 31.792969 C 27.296875 27.339844 25.378906 22.996094 24.394531 18.378906 C 24.066406 17.578125 24.320312 17.015625 25.132812 16.816406 C 26.46875 16.148438 27.808594 15.488281 29.144531 14.828125 C 29.144531 10.390625 29.144531 5.964844 29.144531 1.527344 C 29.144531 0.4375 27.957031 0.261719 27.105469 0.347656 C 25.882812 0.363281 24.652344 0.3125 23.429688 0.371094 C 22.429688 0.535156 22.40625 1.617188 22.453125 2.410156 C 22.453125 3.320312 22.453125 4.222656 22.453125 5.128906 C 21.238281 5.128906 20.027344 5.128906 18.8125 5.128906 C 18.792969 3.847656 18.835938 2.570312 18.789062 1.296875 C 18.613281 0.296875 17.53125 0.304688 16.746094 0.347656 C 14.945312 0.363281 13.136719 0.3125 11.335938 0.371094 C 10.351562 0.5625 10.34375 1.628906 10.386719 2.410156 C 10.386719 3.320312 10.386719 4.222656 10.386719 5.128906 C 9.171875 5.128906 7.957031 5.128906 6.742188 5.128906 C 6.726562 3.847656 6.777344 2.570312 6.71875 1.296875 C 6.527344 0.3125 5.464844 0.304688 4.679688 0.347656 C 3.546875 0.347656 2.414062 0.347656 1.285156 0.347656 Z M 1.285156 0.347656 "/>
</g>
</svg>
