<?xml version="1.0" encoding="UTF-8" standalone="no"?>
<svg
   width="39.685"
   height="63.78"
   viewBox="0 0 39.685 63.78"
   version="1.1"
   id="svg22"
   sodipodi:docname="sheep.svg"
   xmlns:inkscape="http://www.inkscape.org/namespaces/inkscape"
   xmlns:sodipodi="http://sodipodi.sourceforge.net/DTD/sodipodi-0.dtd"
   xmlns="http://www.w3.org/2000/svg"
   xmlns:svg="http://www.w3.org/2000/svg">
  <sodipodi:namedview
     id="namedview22"
     pagecolor="#ffffff"
     bordercolor="#666666"
     borderopacity="1.0"
     inkscape:showpageshadow="2"
     inkscape:pageopacity="0.0"
     inkscape:pagecheckerboard="0"
     inkscape:deskcolor="#d1d1d1" />
  <defs
     id="defs3">
    <clipPath
       id="clip-0">
      <path
         clip-rule="nonzero"
         d="M 0 3 L 39 3 L 39 63.417969 L 0 63.417969 Z M 0 3 "
         id="path1" />
    </clipPath>
    <clipPath
       id="clip-1">
      <path
         clip-rule="nonzero"
         d="M 10 0.140625 L 30 0.140625 L 30 13 L 10 13 Z M 10 0.140625 "
         id="path2" />
    </clipPath>
    <clipPath
       id="clip-2">
      <path
         clip-rule="nonzero"
         d="M 10 0.140625 L 30 0.140625 L 30 13 L 10 13 Z M 10 0.140625 "
         id="path3" />
    </clipPath>
  </defs>
  <path
     id="path4"
     d="M 14.455078 0.51171875 C 13.438746 0.49461004 12.365723 1.1181641 12.003906 2.171875 C 11.5625 3.46875 12.25 4.8632807 13.546875 5.3085938 C 12.967399 5.1109126 12.298638 5.1684386 11.71875 5.4355469 C 9.4380623 3.5388956 5.7773438 2.25 5.7773438 2.25 C 5.7773438 2.25 5.1014657 9.7842593 7.34375 12.443359 C 7.3635416 13.225776 7.7209545 13.947029 8.265625 14.292969 C 7.121094 13.832031 5.5624995 14.394531 5.0546875 15.667969 C 4.5468745 16.941406 5.1601562 18.371094 6.1757812 18.800781 C 4.9843752 18.476562 3.5 19.210938 3.140625 20.535156 C 2.78125 21.859375 3.5546877 23.207031 4.6523438 23.523438 C 3.4335937 23.3125 2.027344 24.1875 1.796875 25.539062 C 1.5625 26.890625 2.460938 28.160156 3.609375 28.371094 C 2.375 28.265625 1.0507807 29.253906 0.93359375 30.617188 C 0.81249975 31.984375 1.8125003 33.175781 2.9882812 33.289062 C 1.7539062 33.277344 0.50781175 34.367188 0.49609375 35.738281 C 0.48437475 37.109375 1.574219 38.21875 2.78125 38.238281 C 1.546875 38.300781 0.37109425 39.460938 0.44140625 40.832031 C 0.51171925 42.203125 1.6640625 43.242188 2.7265625 43.210938 C 1.5078125 43.417969 0.47265575 44.707031 0.69921875 46.058594 C 0.92968775 47.410156 2.1953118 48.3125 2.9960938 48.257812 C 1.8476558 48.714844 1.1054693 50.195312 1.6132812 51.46875 C 2.1210942 52.742188 3.5507812 53.359375 3.9726562 53.480469 C 3.0898443 54.34375 2.9726558 55.992188 3.9335938 56.972656 C 4.8906248 57.953125 6.4453118 57.972656 6.9179688 57.980469 C 6.5156247 59.148438 7.1523445 60.675781 8.4453125 61.121094 C 9.1914666 61.37955 9.964856 61.257559 10.5625 60.96875 C 10.523706 61.309703 10.546416 61.663483 10.640625 62.015625 L 12.230469 62.015625 C 12.632033 62.436434 13.167969 62.735402 13.785156 62.78125 C 14.58181 62.84043 15.307658 62.516139 15.800781 62.015625 L 16.074219 62.015625 C 16.113644 61.868674 16.138988 61.719688 16.154297 61.570312 C 16.308196 61.311628 16.407443 61.029959 16.433594 60.738281 C 16.472656 61.976562 17.613281 63.175781 18.984375 63.132812 C 20.351562 63.085938 21.417969 61.953125 21.460938 61.132812 C 21.738281 62.335938 23.085938 63.292969 24.421875 62.984375 C 25.219072 62.800764 25.808332 62.268154 26.220703 61.783203 C 26.384619 61.842153 26.549262 61.919162 26.714844 62.015625 L 28.730469 62.015625 C 28.73624 61.994054 28.740853 61.972754 28.746094 61.951172 C 29.273834 61.96822 29.808969 61.835435 30.257812 61.5 C 31.359375 60.683594 31.585938 59.144531 31.613281 58.65625 C 32.707031 59.226562 34.3125 58.824219 34.945312 57.609375 C 35.582031 56.390625 35.113281 54.910156 34.445312 54.445312 C 35.652344 54.714844 37.097656 53.910156 37.394531 52.570312 C 37.695312 51.234375 36.863281 49.921875 35.832031 49.660156 C 37.0625 49.761719 38.382812 48.765625 38.496094 47.398438 C 38.605469 46.03125 37.601562 44.84375 36.417969 44.738281 C 37.65625 44.738281 38.890625 43.640625 38.890625 42.265625 C 38.890625 40.895856 37.791121 39.798994 36.421875 39.796875 L 36.617188 39.097656 C 37.851562 39.007812 39.003906 37.820312 38.902344 36.453125 C 38.804688 35.085938 37.628906 34.066406 36.464844 34.140625 C 37.6875 33.949219 38.738281 32.671875 38.527344 31.316406 C 38.3125 29.960938 37.058594 29.042969 35.929688 29.207031 C 37.128906 28.902344 38.054688 27.53125 37.71875 26.203125 C 37.382812 24.875 36.046875 24.078125 34.984375 24.324219 C 36.140625 23.894531 36.914062 22.429688 36.433594 21.144531 C 35.953125 19.859375 34.539062 19.214844 33.582031 19.535156 C 34.664062 18.945312 35.226562 17.390625 34.570312 16.183594 C 33.914062 14.980469 32.421875 14.542969 31.644531 14.882812 C 32.411551 14.239404 32.701533 13.043402 32.316406 12.052734 C 34.209439 9.1163848 33.59375 2.25 33.59375 2.25 C 33.59375 2.25 30.267005 3.4216269 27.980469 5.1738281 C 27.926232 5.2153908 27.875275 5.2585723 27.822266 5.3007812 C 27.790308 5.2556522 27.754747 5.2119202 27.724609 5.1660156 C 27.462494 4.766777 27.276855 4.3344727 27.292969 3.796875 C 27.292969 2.5625 26.195312 1.328125 24.820312 1.328125 C 23.449219 1.328125 22.351562 2.425781 22.351562 3.796875 C 22.351562 2.5625 21.25 1.328125 19.878906 1.328125 C 18.507812 1.328125 17.410156 2.4257812 15.140625 0.62890625 C 14.921631 0.55419931 14.689616 0.51566691 14.455078 0.51171875 z " />
  <g
     clip-path="url(#clip-0)"
     id="g8" />
  <g
     clip-path="url(#clip-1)"
     id="g11" />
  <g
     clip-path="url(#clip-2)"
     id="g22" />
</svg>
