<?xml version="1.0" encoding="UTF-8"?>
<svg xmlns="http://www.w3.org/2000/svg" xmlns:xlink="http://www.w3.org/1999/xlink" width="92.41" height="63.78" viewBox="0 0 92.41 63.78">
<defs>
<clipPath id="clip-0">
<path clip-rule="nonzero" d="M 32 58 L 46 58 L 46 63.46875 L 32 63.46875 Z M 32 58 "/>
</clipPath>
<clipPath id="clip-1">
<path clip-rule="nonzero" d="M 46 58 L 60 58 L 60 63.46875 L 46 63.46875 Z M 46 58 "/>
</clipPath>
<clipPath id="clip-2">
<path clip-rule="nonzero" d="M 26 3 L 66 3 L 66 63.46875 L 26 63.46875 Z M 26 3 "/>
</clipPath>
<clipPath id="clip-3">
<path clip-rule="nonzero" d="M 36 0.09375 L 56 0.09375 L 56 13 L 36 13 Z M 36 0.09375 "/>
</clipPath>
<clipPath id="clip-4">
<path clip-rule="nonzero" d="M 36 0.09375 L 56 0.09375 L 56 13 L 36 13 Z M 36 0.09375 "/>
</clipPath>
</defs>
<g clip-path="url(#clip-0)">
<path fill-rule="nonzero" fill="rgb(75%, 75%, 75%)" fill-opacity="1" d="M 45.207031 60.933594 C 45.207031 59.535156 42.308594 58.398438 38.730469 58.398438 C 35.152344 58.398438 32.25 59.535156 32.25 60.933594 C 32.25 62.332031 35.152344 63.46875 38.730469 63.46875 C 42.308594 63.46875 45.207031 62.332031 45.207031 60.933594 Z M 45.207031 60.933594 "/>
</g>
<g clip-path="url(#clip-1)">
<path fill-rule="nonzero" fill="rgb(75%, 75%, 75%)" fill-opacity="1" d="M 59.574219 60.933594 C 59.574219 59.535156 56.671875 58.398438 53.09375 58.398438 C 49.515625 58.398438 46.617188 59.535156 46.617188 60.933594 C 46.617188 62.332031 49.515625 63.46875 53.09375 63.46875 C 56.671875 63.46875 59.574219 62.332031 59.574219 60.933594 Z M 59.574219 60.933594 "/>
</g>
<path fill-rule="nonzero" fill="rgb(48.249817%, 40.603638%, 31.063843%)" fill-opacity="1" d="M 52.109375 8.285156 C 52.109375 4.925781 59.84375 2.207031 59.84375 2.207031 C 59.84375 2.207031 60.839844 13.332031 56.394531 13.332031 C 54.054688 13.332031 52.109375 11.636719 52.109375 8.285156 Z M 52.109375 8.285156 "/>
<path fill-rule="nonzero" fill="rgb(71.537781%, 65.301514%, 57.522583%)" fill-opacity="1" d="M 52.109375 8.285156 C 53.234375 4.925781 59.148438 3.191406 59.148438 3.753906 C 59.148438 3.753906 59.714844 12.203125 56.394531 12.203125 C 54.054688 12.769531 52.109375 12.769531 52.109375 8.285156 Z M 52.109375 8.285156 "/>
<path fill-rule="nonzero" fill="rgb(48.249817%, 40.603638%, 31.063843%)" fill-opacity="1" d="M 39.714844 8.285156 C 39.714844 4.925781 31.980469 2.207031 31.980469 2.207031 C 31.980469 2.207031 30.984375 13.332031 35.429688 13.332031 C 37.769531 13.332031 39.714844 11.636719 39.714844 8.285156 Z M 39.714844 8.285156 "/>
<path fill-rule="nonzero" fill="rgb(71.537781%, 65.301514%, 57.522583%)" fill-opacity="1" d="M 39.714844 8.285156 C 38.589844 4.925781 32.671875 3.191406 32.671875 3.753906 C 32.671875 3.753906 32.109375 12.203125 35.429688 12.203125 C 37.769531 12.769531 39.714844 12.769531 39.714844 8.285156 Z M 39.714844 8.285156 "/>
<g clip-path="url(#clip-2)">
<path fill-rule="nonzero" fill="rgb(38.249207%, 32.18689%, 24.624634%)" fill-opacity="1" d="M 62.671875 39.808594 C 64.042969 39.808594 65.144531 40.910156 65.144531 42.285156 C 65.144531 43.65625 63.910156 44.757812 62.671875 44.757812 C 63.855469 44.867188 64.863281 46.054688 64.75 47.421875 C 64.636719 48.789062 63.316406 49.789062 62.082031 49.6875 C 63.113281 49.949219 63.949219 51.265625 63.648438 52.605469 C 63.347656 53.945312 61.902344 54.75 60.695312 54.480469 C 61.363281 54.945312 61.832031 56.429688 61.195312 57.648438 C 60.5625 58.867188 58.953125 59.269531 57.855469 58.699219 C 57.832031 59.1875 57.605469 60.726562 56.5 61.546875 C 55.398438 62.367188 53.777344 62.03125 53.039062 61.039062 C 52.820312 61.402344 51.996094 62.722656 50.65625 63.03125 C 49.320312 63.339844 47.96875 62.382812 47.691406 61.175781 C 47.644531 62 46.582031 63.136719 45.207031 63.179688 C 43.835938 63.222656 42.695312 62.019531 42.65625 60.785156 C 42.554688 61.914062 41.375 62.933594 40.003906 62.828125 C 38.632812 62.726562 37.628906 61.410156 37.71875 60.179688 C 37.355469 60.933594 35.953125 61.617188 34.65625 61.167969 C 33.359375 60.71875 32.722656 59.191406 33.125 58.019531 C 32.652344 58.011719 31.09375 57.996094 30.132812 57.011719 C 29.175781 56.03125 29.289062 54.375 30.175781 53.511719 C 29.75 53.390625 28.320312 52.773438 27.8125 51.5 C 27.304688 50.222656 28.046875 48.742188 29.195312 48.285156 C 28.394531 48.339844 27.125 47.4375 26.898438 46.082031 C 26.667969 44.726562 27.707031 43.433594 28.925781 43.230469 C 27.863281 43.261719 26.707031 42.21875 26.636719 40.84375 C 26.566406 39.472656 27.746094 38.308594 28.980469 38.246094 C 27.773438 38.226562 26.683594 37.117188 26.695312 35.742188 C 26.707031 34.371094 27.953125 33.28125 29.191406 33.289062 C 28.011719 33.175781 27.011719 31.984375 27.128906 30.617188 C 27.25 29.25 28.578125 28.257812 29.808594 28.367188 C 28.660156 28.15625 27.761719 26.882812 27.996094 25.527344 C 28.226562 24.175781 29.632812 23.300781 30.855469 23.511719 C 29.753906 23.195312 28.980469 21.84375 29.339844 20.519531 C 29.703125 19.191406 31.1875 18.457031 32.378906 18.78125 C 31.363281 18.351562 30.75 16.921875 31.257812 15.644531 C 31.769531 14.371094 33.328125 13.804688 34.476562 14.265625 C 33.605469 13.714844 33.210938 12.210938 33.902344 11.023438 C 34.597656 9.835938 36.21875 9.511719 37.289062 10.136719 C 36.691406 9.484375 36.625 7.925781 37.558594 6.917969 C 38.488281 5.90625 40.144531 5.9375 41.054688 6.777344 C 40.949219 6.152344 41.425781 4.671875 42.648438 4.042969 C 43.871094 3.417969 45.414062 4.015625 45.980469 5.117188 C 46.417969 4.929688 47.570312 3.882812 48.941406 3.949219 C 50.3125 4.015625 51.355469 5.308594 51.292969 6.542969 C 51.726562 6.632812 53.242188 6.269531 54.414062 6.988281 C 55.585938 7.703125 55.878906 9.335938 55.230469 10.390625 C 55.753906 10.1875 57.304688 10.320312 58.191406 11.371094 C 59.074219 12.421875 58.835938 14.0625 57.890625 14.859375 C 58.667969 14.515625 60.160156 14.953125 60.816406 16.160156 C 61.476562 17.367188 60.914062 18.925781 59.828125 19.519531 C 60.785156 19.195312 62.203125 19.84375 62.683594 21.128906 C 63.164062 22.414062 62.390625 23.878906 61.234375 24.3125 C 62.296875 24.066406 63.636719 24.863281 63.972656 26.195312 C 64.3125 27.527344 63.382812 28.898438 62.183594 29.203125 C 63.308594 29.039062 64.566406 29.957031 64.78125 31.316406 C 64.992188 32.671875 63.941406 33.953125 62.71875 34.144531 C 63.882812 34.070312 65.058594 35.089844 65.160156 36.460938 C 65.257812 37.828125 64.105469 39.015625 62.871094 39.105469 L 62.675781 39.808594 L 62.671875 39.808594 "/>
</g>
<path fill-rule="nonzero" fill="rgb(77.877808%, 70.826721%, 62.124634%)" fill-opacity="1" d="M 39.144531 38.054688 C 37.480469 35.914062 35.429688 35.722656 34.578125 37.617188 C 33.722656 39.511719 34.386719 42.78125 36.054688 44.917969 C 36.585938 45.597656 37.175781 46.105469 37.773438 46.394531 C 38.152344 45.941406 38.875 44.417969 38.875 44.417969 C 38.875 44.417969 40.871094 45.132812 41.375 44.710938 C 41.375 44.710938 40.816406 40.191406 39.144531 38.054688 Z M 39.144531 38.054688 "/>
<path fill-rule="nonzero" fill="rgb(77.877808%, 70.826721%, 62.124634%)" fill-opacity="1" d="M 52.675781 38.054688 C 54.34375 35.914062 56.394531 35.722656 57.246094 37.617188 C 58.097656 39.511719 57.4375 42.78125 55.769531 44.917969 C 55.238281 45.597656 54.648438 46.105469 54.050781 46.394531 C 53.671875 45.941406 52.949219 44.417969 52.949219 44.417969 C 52.949219 44.417969 50.953125 45.132812 50.449219 44.710938 C 50.449219 44.710938 51.007812 40.191406 52.675781 38.054688 Z M 52.675781 38.054688 "/>
<g clip-path="url(#clip-3)">
<path fill-rule="nonzero" fill="rgb(38.249207%, 32.18689%, 24.624634%)" fill-opacity="1" d="M 38.167969 9.953125 C 36.867188 9.507812 36.179688 8.109375 36.621094 6.8125 C 37.066406 5.511719 38.59375 4.867188 39.761719 5.265625 C 38.464844 4.824219 37.777344 3.425781 38.21875 2.125 C 38.664062 0.824219 40.1875 0.183594 41.359375 0.582031 C 43.632812 2.382812 44.734375 1.28125 46.105469 1.28125 C 47.480469 1.28125 48.582031 2.515625 48.582031 3.753906 C 48.582031 2.382812 49.683594 1.28125 51.054688 1.28125 C 52.429688 1.28125 53.53125 2.515625 53.53125 3.753906 C 53.484375 5.191406 54.882812 5.878906 55.328125 7.179688 C 55.769531 8.476562 54.953125 9.917969 53.78125 10.320312 C 53.269531 11.324219 52.167969 12.425781 50.792969 12.425781 C 49.421875 12.425781 48.320312 11.1875 48.320312 9.953125 C 48.320312 11.324219 47.21875 12.425781 45.84375 12.425781 C 44.46875 12.425781 43.371094 11.1875 43.371094 9.953125 C 43.371094 11.324219 42.269531 12.425781 40.894531 12.425781 C 39.519531 12.425781 38.417969 11.1875 38.417969 9.953125 Z M 38.167969 9.953125 L 38.167969 9.953125 "/>
</g>
<path fill-rule="nonzero" fill="rgb(77.877808%, 70.826721%, 62.124634%)" fill-opacity="1" d="M 57.179688 15.019531 C 57.179688 23.472656 51.546875 30.511719 45.910156 33.046875 C 40.277344 30.511719 34.644531 23.472656 34.644531 15.019531 C 36.335938 0.9375 55.488281 0.9375 57.179688 15.019531 Z M 57.179688 15.019531 "/>
<path fill-rule="nonzero" fill="rgb(48.249817%, 40.603638%, 31.063843%)" fill-opacity="1" d="M 52.109375 8.285156 C 52.109375 4.925781 59.84375 2.207031 59.84375 2.207031 C 59.84375 2.207031 60.839844 13.332031 56.394531 13.332031 C 54.054688 13.332031 52.109375 11.636719 52.109375 8.285156 Z M 52.109375 8.285156 "/>
<path fill-rule="nonzero" fill="rgb(71.537781%, 65.301514%, 57.522583%)" fill-opacity="1" d="M 52.109375 8.285156 C 53.234375 4.925781 59.148438 3.191406 59.148438 3.753906 C 59.148438 3.753906 59.714844 12.203125 56.394531 12.203125 C 54.054688 12.769531 52.109375 12.769531 52.109375 8.285156 Z M 52.109375 8.285156 "/>
<path fill-rule="nonzero" fill="rgb(48.249817%, 40.603638%, 31.063843%)" fill-opacity="1" d="M 39.714844 8.285156 C 39.714844 4.925781 31.980469 2.207031 31.980469 2.207031 C 31.980469 2.207031 30.984375 13.332031 35.429688 13.332031 C 37.769531 13.332031 39.714844 11.636719 39.714844 8.285156 Z M 39.714844 8.285156 "/>
<path fill-rule="nonzero" fill="rgb(71.537781%, 65.301514%, 57.522583%)" fill-opacity="1" d="M 39.714844 8.285156 C 38.589844 4.925781 32.671875 3.191406 32.671875 3.753906 C 32.671875 3.753906 32.109375 12.203125 35.429688 12.203125 C 37.769531 12.769531 39.714844 12.769531 39.714844 8.285156 Z M 39.714844 8.285156 "/>
<path fill-rule="nonzero" fill="rgb(24.125671%, 22.213745%, 19.828796%)" fill-opacity="1" d="M 53.234375 18.964844 C 53.234375 18.03125 52.480469 17.273438 51.546875 17.273438 C 50.613281 17.273438 49.855469 18.03125 49.855469 18.964844 C 49.855469 19.898438 50.613281 20.65625 51.546875 20.65625 C 52.480469 20.65625 53.234375 19.898438 53.234375 18.964844 Z M 53.234375 18.964844 "/>
<path fill-rule="nonzero" fill="rgb(24.125671%, 22.213745%, 19.828796%)" fill-opacity="1" d="M 41.96875 18.964844 C 41.96875 18.03125 41.210938 17.273438 40.277344 17.273438 C 39.34375 17.273438 38.589844 18.03125 38.589844 18.964844 C 38.589844 19.898438 39.34375 20.65625 40.277344 20.65625 C 41.210938 20.65625 41.96875 19.898438 41.96875 18.964844 Z M 41.96875 18.964844 "/>
<path fill="none" stroke-width="0.79701" stroke-linecap="round" stroke-linejoin="miter" stroke="rgb(24.125671%, 22.213745%, 19.828796%)" stroke-opacity="1" stroke-miterlimit="10" d="M 4.534867 40.533834 C 3.088189 38.025735 -0.119662 37.168736 -2.627761 38.615414 C -3.425793 39.075363 -4.086232 39.739734 -4.546182 40.533834 M -0.00172621 37.8449 L -0.00172621 33.308307 " transform="matrix(0.993656, 0, 0, -0.993656, 45.911872, 65.721997)"/>
<path fill-rule="nonzero" fill="rgb(77.877808%, 70.826721%, 62.124634%)" fill-opacity="1" d="M 54.96875 62.058594 C 55.371094 60.558594 54.480469 59.011719 52.976562 58.609375 C 51.476562 58.207031 49.929688 59.097656 49.527344 60.601562 C 49.402344 61.078125 49.402344 61.582031 49.527344 62.058594 L 50.417969 62.058594 C 51.273438 61.566406 52.097656 61.566406 52.953125 62.058594 Z M 54.96875 62.058594 "/>
<path fill-rule="nonzero" fill="rgb(77.877808%, 70.826721%, 62.124634%)" fill-opacity="1" d="M 36.855469 62.058594 C 36.449219 60.558594 37.34375 59.011719 38.84375 58.609375 C 40.347656 58.207031 41.894531 59.097656 42.296875 60.601562 C 42.421875 61.078125 42.421875 61.582031 42.296875 62.058594 L 41.40625 62.058594 C 40.550781 61.566406 39.726562 61.566406 38.871094 62.058594 Z M 36.855469 62.058594 "/>
<g clip-path="url(#clip-4)">
<path fill-rule="nonzero" fill="rgb(38.249207%, 32.18689%, 24.624634%)" fill-opacity="1" d="M 38.167969 9.953125 C 36.867188 9.507812 36.179688 8.109375 36.621094 6.8125 C 37.066406 5.511719 38.59375 4.867188 39.761719 5.265625 C 38.464844 4.824219 37.777344 3.425781 38.21875 2.125 C 38.664062 0.824219 40.1875 0.183594 41.359375 0.582031 C 43.632812 2.382812 44.734375 1.28125 46.105469 1.28125 C 47.480469 1.28125 48.582031 2.515625 48.582031 3.753906 C 48.582031 2.382812 49.683594 1.28125 51.054688 1.28125 C 52.429688 1.28125 53.53125 2.515625 53.53125 3.753906 C 53.484375 5.191406 54.882812 5.878906 55.328125 7.179688 C 55.769531 8.476562 54.953125 9.917969 53.78125 10.320312 C 53.269531 11.324219 52.167969 12.425781 50.792969 12.425781 C 49.421875 12.425781 48.320312 11.1875 48.320312 9.953125 C 48.320312 11.324219 47.21875 12.425781 45.84375 12.425781 C 44.46875 12.425781 43.371094 11.1875 43.371094 9.953125 C 43.371094 11.324219 42.269531 12.425781 40.894531 12.425781 C 39.519531 12.425781 38.417969 11.1875 38.417969 9.953125 Z M 38.167969 9.953125 L 38.167969 9.953125 "/>
</g>
</svg>
