<?xml version="1.0" encoding="UTF-8" standalone="no"?>
<svg
   width="39.685"
   height="60.945"
   viewBox="0 0 39.685 60.945"
   version="1.1"
   id="svg32"
   sodipodi:docname="sloth.svg"
   xmlns:inkscape="http://www.inkscape.org/namespaces/inkscape"
   xmlns:sodipodi="http://sodipodi.sourceforge.net/DTD/sodipodi-0.dtd"
   xmlns="http://www.w3.org/2000/svg"
   xmlns:svg="http://www.w3.org/2000/svg">
  <sodipodi:namedview
     id="namedview32"
     pagecolor="#ffffff"
     bordercolor="#666666"
     borderopacity="1.0"
     inkscape:showpageshadow="2"
     inkscape:pageopacity="0.0"
     inkscape:pagecheckerboard="0"
     inkscape:deskcolor="#d1d1d1" />
  <defs
     id="defs3">
    <clipPath
       id="clip-0">
      <path
         clip-rule="nonzero"
         d="M 16 0.210938 L 22 0.210938 L 22 6 L 16 6 Z M 16 0.210938 "
         id="path1" />
    </clipPath>
    <clipPath
       id="clip-1">
      <path
         clip-rule="nonzero"
         d="M 13 58 L 18 58 L 18 60.679688 L 13 60.679688 Z M 13 58 "
         id="path2" />
    </clipPath>
    <clipPath
       id="clip-2">
      <path
         clip-rule="nonzero"
         d="M 22 58 L 27 58 L 27 60.679688 L 22 60.679688 Z M 22 58 "
         id="path3" />
    </clipPath>
  </defs>
  <path
     id="path4"
     d="M 16.953125 0.703125 C 15.75323 1.1483489 16.204725 4.1827439 16.421875 5.3300781 C 10.328587 6.5998828 5.625 11.330492 5.625 17.085938 C 5.625 19.49066 6.234613 21.571912 7.4355469 23.257812 C 6.7788628 25.084029 6.2330924 27.070064 5.8125 29.183594 C 5.7520832 29.180329 5.6886816 29.179688 5.625 29.179688 C 4.5 29.179688 4.21875 30.304688 3.9375 31.148438 C 2.53125 34.242188 1.96875 37.335938 1.6875 40.710938 C 1.6875 41.554688 1.6875 42.398438 1.96875 43.242188 C 2.808818 44.362278 3.9281643 45.340841 5.1523438 46.181641 C 5.4114858 48.050482 5.8044135 49.628048 6.3203125 50.955078 C 5.2193304 51.125037 4.3893253 51.596445 4.03125 52.363281 C 3.179688 54.191406 5.339844 57.007812 8.859375 58.648438 C 11.010335 59.651104 13.169099 59.982711 14.71875 59.671875 C 14.818385 59.716688 14.921242 59.761506 15.027344 59.804688 C 16.035156 60.210938 16.925781 60.367188 17.011719 60.148438 C 17.081718 59.973438 16.5989 59.607548 15.873047 59.255859 C 16.096282 59.126016 16.288986 58.972064 16.449219 58.794922 C 17.10356 58.902195 17.587306 58.869906 17.640625 58.6875 C 17.688337 58.524275 17.378008 58.281123 16.873047 58.048828 C 16.900089 57.959713 16.923027 57.868146 16.9375 57.775391 C 17.819815 57.83389 18.732093 57.863281 19.6875 57.863281 C 20.641587 57.863281 21.552375 57.833765 22.433594 57.775391 C 22.448067 57.868146 22.471005 57.959713 22.498047 58.048828 C 21.993086 58.281123 21.682757 58.524275 21.730469 58.6875 C 21.783788 58.869906 22.267534 58.902195 22.921875 58.794922 C 23.082108 58.972064 23.274812 59.126016 23.498047 59.255859 C 22.772193 59.607548 22.289376 59.973438 22.359375 60.148438 C 22.449219 60.367188 23.335938 60.210938 24.34375 59.804688 C 24.449852 59.761506 24.552709 59.716688 24.652344 59.671875 C 26.201995 59.982711 28.360758 59.651104 30.511719 58.648438 C 34.03125 57.007812 36.191406 54.191406 35.339844 52.363281 C 34.981768 51.596445 34.151763 51.125037 33.050781 50.955078 C 33.566625 49.628048 33.959621 48.050482 34.21875 46.181641 C 35.442929 45.340841 36.562276 44.362278 37.402344 43.242188 C 37.683594 42.398438 37.683594 41.554688 37.683594 40.710938 C 37.402344 37.335938 36.839844 34.242188 35.433594 31.148438 C 35.152344 30.304688 34.871094 29.179688 33.746094 29.179688 C 33.695023 29.179688 33.64509 29.179957 33.595703 29.181641 C 33.182855 27.038948 32.645159 25.026514 31.990234 23.179688 C 33.154663 21.507642 33.746094 19.453808 33.746094 17.085938 C 33.746094 10.872513 28.263989 5.8548418 21.472656 5.0957031 C 20.954569 4.7326831 20.088266 3.8974052 20.09375 2.3671875 C 19.324672 2.5110224 19.405684 4.1769213 19.494141 4.9960938 C 19.285065 4.9986001 19.07632 5.0051091 18.869141 5.015625 C 18.029582 4.3834118 16.742522 3.0197543 16.953125 0.703125 z " />
  <g
     clip-path="url(#clip-0)"
     id="g6" />
  <g
     clip-path="url(#clip-1)"
     id="g29" />
  <g
     clip-path="url(#clip-2)"
     id="g32" />
</svg>
