<?xml version="1.0" encoding="UTF-8"?>
<svg xmlns="http://www.w3.org/2000/svg" xmlns:xlink="http://www.w3.org/1999/xlink" width="92.41" height="61.512" viewBox="0 0 92.41 61.512">
<path fill-rule="nonzero" fill="rgb(56.077576%, 52.157593%, 41.175842%)" fill-opacity="1" d="M 60.816406 39.933594 C 60.816406 55.683594 54.910156 57.652344 45.914062 57.652344 C 36.914062 57.652344 31.007812 55.683594 31.007812 39.933594 C 31.007812 24.1875 36.914062 11.25 45.914062 11.25 C 55.191406 11.25 60.816406 24.1875 60.816406 39.933594 Z M 60.816406 39.933594 "/>
<path fill-rule="nonzero" fill="rgb(76.252747%, 72.521973%, 62.069702%)" fill-opacity="1" d="M 56.035156 43.027344 C 56.035156 50.058594 52.097656 52.308594 45.914062 52.308594 C 39.726562 52.308594 35.789062 50.058594 35.789062 43.027344 C 35.789062 35.71875 39.726562 31.21875 45.914062 31.21875 C 52.097656 31.21875 56.035156 35.71875 56.035156 43.027344 Z M 56.035156 43.027344 "/>
<path fill-rule="nonzero" fill="rgb(66.07666%, 61.457825%, 48.516846%)" fill-opacity="1" d="M 42.738281 5.558594 C 42.738281 5.558594 41.695312 1.042969 43.179688 0.492188 C 42.871094 3.886719 45.78125 5.234375 45.78125 5.234375 C 45.78125 5.234375 45.296875 2.34375 46.320312 2.15625 C 46.3125 4.332031 48.078125 5.105469 48.078125 5.105469 Z M 42.738281 5.558594 "/>
<path fill-rule="nonzero" fill="rgb(66.07666%, 61.457825%, 48.516846%)" fill-opacity="1" d="M 59.972656 16.875 C 59.972656 10.125 53.503906 4.78125 45.914062 4.78125 C 38.320312 4.78125 31.851562 10.125 31.851562 16.875 C 31.851562 23.625 36.632812 27.84375 45.914062 27.84375 C 55.191406 27.84375 59.972656 23.625 59.972656 16.875 Z M 59.972656 16.875 "/>
<path fill-rule="nonzero" fill="rgb(83.039856%, 80.137634%, 72.0047%)" fill-opacity="1" d="M 57.160156 16.875 C 57.160156 10.40625 49.285156 5.0625 45.914062 9.5625 C 42.539062 5.0625 34.664062 10.40625 34.664062 16.875 C 34.664062 23.0625 38.882812 25.03125 45.914062 25.03125 C 52.941406 25.03125 57.160156 23.0625 57.160156 16.875 Z M 57.160156 16.875 "/>
<path fill-rule="nonzero" fill="rgb(39.646912%, 37.983704%, 33.323669%)" fill-opacity="1" d="M 56.558594 20.710938 C 54.382812 19.226562 51.054688 16.894531 49.785156 15.371094 C 49.242188 14.726562 50.480469 12.539062 51.273438 12.832031 C 53.429688 13.636719 56.027344 15.679688 57.144531 17.347656 C 57.523438 17.921875 56.558594 20.710938 56.558594 20.710938 Z M 56.558594 20.710938 "/>
<path fill-rule="nonzero" fill="rgb(39.646912%, 37.983704%, 33.323669%)" fill-opacity="1" d="M 35.269531 20.710938 C 37.441406 19.226562 40.769531 16.894531 42.039062 15.371094 C 42.582031 14.726562 41.34375 12.539062 40.550781 12.832031 C 38.394531 13.636719 35.796875 15.679688 34.679688 17.347656 C 34.300781 17.921875 35.269531 20.710938 35.269531 20.710938 Z M 35.269531 20.710938 "/>
<path fill-rule="nonzero" fill="rgb(0%, 0%, 0%)" fill-opacity="1" d="M 52.464844 14.625 C 52.464844 14.003906 51.960938 13.5 51.339844 13.5 C 50.71875 13.5 50.214844 14.003906 50.214844 14.625 C 50.214844 15.246094 50.71875 15.75 51.339844 15.75 C 51.960938 15.75 52.464844 15.246094 52.464844 14.625 Z M 52.464844 14.625 "/>
<path fill-rule="nonzero" fill="rgb(0%, 0%, 0%)" fill-opacity="1" d="M 41.609375 14.625 C 41.609375 14.003906 41.105469 13.5 40.484375 13.5 C 39.863281 13.5 39.359375 14.003906 39.359375 14.625 C 39.359375 15.246094 39.863281 15.75 40.484375 15.75 C 41.105469 15.75 41.609375 15.246094 41.609375 14.625 Z M 41.609375 14.625 "/>
<path fill-rule="nonzero" fill="rgb(100%, 100%, 100%)" fill-opacity="1" d="M 40.457031 14.203125 C 40.457031 14.109375 40.378906 14.035156 40.289062 14.035156 C 40.195312 14.035156 40.117188 14.109375 40.117188 14.203125 C 40.117188 14.296875 40.195312 14.371094 40.289062 14.371094 C 40.378906 14.371094 40.457031 14.296875 40.457031 14.203125 Z M 40.457031 14.203125 "/>
<path fill-rule="nonzero" fill="rgb(100%, 100%, 100%)" fill-opacity="1" d="M 51.3125 14.203125 C 51.3125 14.109375 51.238281 14.035156 51.144531 14.035156 C 51.050781 14.035156 50.976562 14.109375 50.976562 14.203125 C 50.976562 14.296875 51.050781 14.371094 51.144531 14.371094 C 51.238281 14.371094 51.3125 14.296875 51.3125 14.203125 Z M 51.3125 14.203125 "/>
<path fill-rule="nonzero" fill="rgb(26.429749%, 25.689697%, 23.620605%)" fill-opacity="1" d="M 48.105469 17.015625 C 48.105469 16.269531 47.125 15.664062 45.914062 15.664062 C 44.699219 15.664062 43.71875 16.269531 43.71875 17.015625 C 43.71875 17.761719 44.699219 18.363281 45.914062 18.363281 C 47.125 18.363281 48.105469 17.761719 48.105469 17.015625 Z M 48.105469 17.015625 "/>
<path fill="none" stroke-width="0.3985" stroke-linecap="butt" stroke-linejoin="miter" stroke="rgb(26.429749%, 25.689697%, 23.620605%)" stroke-opacity="1" stroke-miterlimit="10" d="M 3.261789 43.936348 C 2.21842 42.696118 0.59234 42.105532 -1.002242 42.385076 C -2.053485 42.570126 -3.00236 43.12134 -3.687439 43.936348 " transform="matrix(0.992129, 0, 0, -0.992129, 45.912322, 63.840527)"/>
<path fill-rule="nonzero" fill="rgb(66.07666%, 61.457825%, 48.516846%)" fill-opacity="1" d="M 31.851562 28.96875 C 30.726562 28.96875 30.445312 30.09375 30.164062 30.9375 C 28.757812 34.03125 28.195312 37.125 27.914062 40.496094 C 27.914062 41.339844 27.914062 42.183594 28.195312 43.027344 C 29.882812 45.277344 32.695312 46.964844 35.226562 48.089844 C 37.195312 48.652344 39.445312 49.214844 41.414062 48.652344 C 42.539062 48.652344 43.101562 47.246094 42.257812 46.683594 C 41.132812 44.714844 39.164062 43.308594 37.476562 42.183594 C 36.351562 41.621094 35.226562 41.058594 34.101562 40.496094 C 34.382812 37.964844 34.382812 35.4375 34.101562 33.1875 C 33.820312 31.78125 33.539062 30.375 32.414062 29.25 C 32.414062 28.96875 32.132812 28.96875 31.851562 28.96875 Z M 31.851562 28.96875 "/>
<path fill-rule="nonzero" fill="rgb(66.07666%, 61.457825%, 48.516846%)" fill-opacity="1" d="M 59.972656 28.96875 C 61.097656 28.96875 61.378906 30.09375 61.660156 30.9375 C 63.066406 34.03125 63.628906 37.125 63.910156 40.496094 C 63.910156 41.339844 63.910156 42.183594 63.628906 43.027344 C 61.941406 45.277344 59.128906 46.964844 56.597656 48.089844 C 54.628906 48.652344 52.378906 49.214844 50.414062 48.652344 C 49.285156 48.652344 48.726562 47.246094 49.570312 46.683594 C 50.691406 44.714844 52.664062 43.308594 54.347656 42.183594 C 55.472656 41.621094 56.597656 41.058594 57.722656 40.496094 C 57.441406 37.964844 57.441406 35.4375 57.722656 33.1875 C 58.003906 31.78125 58.285156 30.375 59.410156 29.25 C 59.410156 28.96875 59.691406 28.96875 59.972656 28.96875 Z M 59.972656 28.96875 "/>
<path fill-rule="nonzero" fill="rgb(33.039856%, 31.884766%, 28.649902%)" fill-opacity="1" d="M 49.96875 46.234375 C 48.945312 46.609375 48.191406 47.109375 48.28125 47.359375 C 48.371094 47.605469 49.273438 47.507812 50.292969 47.132812 C 51.316406 46.761719 52.070312 46.257812 51.980469 46.011719 C 51.890625 45.761719 50.988281 45.863281 49.96875 46.234375 Z M 49.96875 46.234375 "/>
<path fill-rule="nonzero" fill="rgb(33.039856%, 31.884766%, 28.649902%)" fill-opacity="1" d="M 50.5 47.433594 C 49.53125 47.925781 48.832031 48.496094 48.9375 48.703125 C 49.042969 48.910156 49.914062 48.679688 50.886719 48.1875 C 51.855469 47.691406 52.554688 47.125 52.449219 46.914062 C 52.339844 46.707031 51.46875 46.941406 50.5 47.433594 Z M 50.5 47.433594 "/>
<path fill-rule="nonzero" fill="rgb(33.039856%, 31.884766%, 28.649902%)" fill-opacity="1" d="M 51.0625 48.660156 C 50.273438 49.210938 49.722656 49.78125 49.828125 49.933594 C 49.933594 50.085938 50.660156 49.761719 51.449219 49.210938 C 52.238281 48.660156 52.789062 48.085938 52.683594 47.933594 C 52.578125 47.78125 51.851562 48.105469 51.0625 48.660156 Z M 51.0625 48.660156 "/>
<path fill-rule="nonzero" fill="rgb(33.039856%, 31.884766%, 28.649902%)" fill-opacity="1" d="M 41.53125 47.132812 C 42.550781 47.507812 43.453125 47.605469 43.542969 47.359375 C 43.632812 47.109375 42.878906 46.609375 41.859375 46.234375 C 40.835938 45.863281 39.933594 45.761719 39.84375 46.011719 C 39.753906 46.257812 40.507812 46.761719 41.53125 47.132812 Z M 41.53125 47.132812 "/>
<path fill-rule="nonzero" fill="rgb(33.039856%, 31.884766%, 28.649902%)" fill-opacity="1" d="M 40.941406 48.1875 C 41.910156 48.679688 42.78125 48.910156 42.886719 48.703125 C 42.992188 48.496094 42.292969 47.925781 41.324219 47.433594 C 40.355469 46.941406 39.484375 46.707031 39.378906 46.914062 C 39.269531 47.125 39.972656 47.691406 40.941406 48.1875 Z M 40.941406 48.1875 "/>
<path fill-rule="nonzero" fill="rgb(33.039856%, 31.884766%, 28.649902%)" fill-opacity="1" d="M 40.375 49.210938 C 41.164062 49.761719 41.890625 50.085938 41.996094 49.933594 C 42.105469 49.78125 41.550781 49.210938 40.761719 48.660156 C 39.972656 48.105469 39.246094 47.78125 39.140625 47.933594 C 39.035156 48.085938 39.585938 48.660156 40.375 49.210938 Z M 40.375 49.210938 "/>
<path fill-rule="nonzero" fill="rgb(66.07666%, 61.457825%, 48.516846%)" fill-opacity="1" d="M 61.566406 52.152344 C 60.710938 50.320312 57.167969 50.167969 53.648438 51.808594 C 50.128906 53.449219 47.96875 56.261719 48.820312 58.09375 C 49.675781 59.921875 53.21875 60.078125 56.738281 58.4375 C 60.257812 56.792969 62.417969 53.980469 61.566406 52.152344 Z M 61.566406 52.152344 "/>
<path fill-rule="nonzero" fill="rgb(66.07666%, 61.457825%, 48.516846%)" fill-opacity="1" d="M 43.003906 58.09375 C 43.855469 56.261719 41.695312 53.449219 38.175781 51.808594 C 34.65625 50.167969 31.113281 50.320312 30.257812 52.152344 C 29.40625 53.980469 31.566406 56.792969 35.085938 58.4375 C 38.605469 60.078125 42.148438 59.921875 43.003906 58.09375 Z M 43.003906 58.09375 "/>
<path fill-rule="nonzero" fill="rgb(33.039856%, 31.884766%, 28.649902%)" fill-opacity="1" d="M 44.335938 56.730469 C 44.386719 56.4375 43.558594 56.050781 42.488281 55.863281 C 41.417969 55.671875 40.507812 55.753906 40.457031 56.046875 C 40.40625 56.335938 41.234375 56.726562 42.304688 56.914062 C 43.375 57.101562 44.285156 57.019531 44.335938 56.730469 Z M 44.335938 56.730469 "/>
<path fill-rule="nonzero" fill="rgb(33.039856%, 31.884766%, 28.649902%)" fill-opacity="1" d="M 43.867188 58.476562 C 43.941406 58.222656 43.152344 57.773438 42.105469 57.476562 C 41.0625 57.175781 40.15625 57.136719 40.082031 57.390625 C 40.007812 57.644531 40.796875 58.09375 41.84375 58.394531 C 42.886719 58.695312 43.792969 58.730469 43.867188 58.476562 Z M 43.867188 58.476562 "/>
<path fill-rule="nonzero" fill="rgb(33.039856%, 31.884766%, 28.649902%)" fill-opacity="1" d="M 43.238281 59.9375 C 43.324219 59.722656 42.578125 59.214844 41.570312 58.808594 C 40.5625 58.402344 39.675781 58.246094 39.585938 58.460938 C 39.5 58.679688 40.246094 59.183594 41.253906 59.589844 C 42.261719 60 43.152344 60.152344 43.238281 59.9375 Z M 43.238281 59.9375 "/>
<path fill-rule="nonzero" fill="rgb(33.039856%, 31.884766%, 28.649902%)" fill-opacity="1" d="M 51.367188 56.046875 C 51.316406 55.753906 50.40625 55.671875 49.335938 55.863281 C 48.265625 56.050781 47.4375 56.4375 47.488281 56.730469 C 47.539062 57.019531 48.449219 57.101562 49.519531 56.914062 C 50.589844 56.726562 51.417969 56.335938 51.367188 56.046875 Z M 51.367188 56.046875 "/>
<path fill-rule="nonzero" fill="rgb(33.039856%, 31.884766%, 28.649902%)" fill-opacity="1" d="M 51.742188 57.390625 C 51.667969 57.136719 50.761719 57.175781 49.71875 57.476562 C 48.671875 57.773438 47.882812 58.222656 47.957031 58.476562 C 48.03125 58.730469 48.9375 58.695312 49.980469 58.394531 C 51.027344 58.09375 51.816406 57.644531 51.742188 57.390625 Z M 51.742188 57.390625 "/>
<path fill-rule="nonzero" fill="rgb(33.039856%, 31.884766%, 28.649902%)" fill-opacity="1" d="M 52.238281 58.460938 C 52.152344 58.246094 51.261719 58.402344 50.253906 58.808594 C 49.246094 59.214844 48.5 59.722656 48.585938 59.9375 C 48.675781 60.152344 49.5625 60 50.570312 59.589844 C 51.578125 59.183594 52.324219 58.679688 52.238281 58.460938 Z M 52.238281 58.460938 "/>
</svg>
