<?xml version="1.0" encoding="UTF-8"?>
<svg xmlns="http://www.w3.org/2000/svg" xmlns:xlink="http://www.w3.org/1999/xlink" width="92.41" height="64.063" viewBox="0 0 92.41 64.063">
<defs>
<clipPath id="clip-0">
<path clip-rule="nonzero" d="M 29 35 L 63 35 L 63 63.140625 L 29 63.140625 Z M 29 35 "/>
</clipPath>
</defs>
<path fill-rule="nonzero" fill="rgb(94.999695%, 94.999695%, 94.999695%)" fill-opacity="1" d="M 65.269531 38.828125 C 66.6875 37.636719 65.425781 33.796875 62.453125 30.253906 C 59.476562 26.707031 55.914062 24.796875 54.496094 25.988281 C 53.078125 27.175781 54.339844 31.015625 57.316406 34.5625 C 60.289062 38.109375 63.851562 40.019531 65.269531 38.828125 Z M 65.269531 38.828125 "/>
<path fill-rule="nonzero" fill="rgb(94.999695%, 94.999695%, 94.999695%)" fill-opacity="1" d="M 37.332031 25.988281 C 35.914062 24.796875 32.351562 26.707031 29.378906 30.253906 C 26.402344 33.796875 25.140625 37.636719 26.558594 38.828125 C 27.976562 40.019531 31.539062 38.109375 34.511719 34.5625 C 37.488281 31.015625 38.75 27.175781 37.332031 25.988281 Z M 37.332031 25.988281 "/>
<g clip-path="url(#clip-0)">
<path fill-rule="nonzero" fill="rgb(94.999695%, 94.999695%, 94.999695%)" fill-opacity="1" d="M 62.675781 49.171875 C 62.675781 41.457031 55.171875 35.203125 45.914062 35.203125 C 36.65625 35.203125 29.152344 41.457031 29.152344 49.171875 C 29.152344 56.886719 36.65625 63.140625 45.914062 63.140625 C 55.171875 63.140625 62.675781 56.886719 62.675781 49.171875 Z M 62.675781 49.171875 "/>
</g>
<path fill-rule="nonzero" fill="rgb(94.999695%, 94.999695%, 94.999695%)" fill-opacity="1" d="M 59.882812 32.40625 C 59.882812 26.234375 53.628906 21.230469 45.914062 21.230469 C 38.199219 21.230469 31.945312 26.234375 31.945312 32.40625 C 31.945312 38.578125 38.199219 43.582031 45.914062 43.582031 C 53.628906 43.582031 59.882812 38.578125 59.882812 32.40625 Z M 59.882812 32.40625 "/>
<path fill-rule="nonzero" fill="rgb(94.999695%, 94.999695%, 94.999695%)" fill-opacity="1" d="M 57.089844 15.644531 C 57.089844 9.472656 52.085938 4.46875 45.914062 4.46875 C 39.742188 4.46875 34.738281 9.472656 34.738281 15.644531 C 34.738281 21.816406 39.742188 26.820312 45.914062 26.820312 C 52.085938 26.820312 57.089844 21.816406 57.089844 15.644531 Z M 57.089844 15.644531 "/>
<path fill-rule="nonzero" fill="rgb(0%, 0%, 0%)" fill-opacity="1" d="M 46.363281 21.230469 C 46.363281 20.984375 46.160156 20.785156 45.914062 20.785156 C 45.667969 20.785156 45.46875 20.984375 45.46875 21.230469 C 45.46875 21.480469 45.667969 21.679688 45.914062 21.679688 C 46.160156 21.679688 46.363281 21.480469 46.363281 21.230469 Z M 46.363281 21.230469 "/>
<path fill-rule="nonzero" fill="rgb(0%, 0%, 0%)" fill-opacity="1" d="M 47.480469 21.035156 C 47.480469 20.789062 47.277344 20.589844 47.03125 20.589844 C 46.785156 20.589844 46.585938 20.789062 46.585938 21.035156 C 46.585938 21.285156 46.785156 21.484375 47.03125 21.484375 C 47.277344 21.484375 47.480469 21.285156 47.480469 21.035156 Z M 47.480469 21.035156 "/>
<path fill-rule="nonzero" fill="rgb(0%, 0%, 0%)" fill-opacity="1" d="M 45.242188 21.035156 C 45.242188 20.789062 45.042969 20.589844 44.796875 20.589844 C 44.550781 20.589844 44.351562 20.789062 44.351562 21.035156 C 44.351562 21.285156 44.550781 21.484375 44.796875 21.484375 C 45.042969 21.484375 45.242188 21.285156 45.242188 21.035156 Z M 45.242188 21.035156 "/>
<path fill-rule="nonzero" fill="rgb(0%, 0%, 0%)" fill-opacity="1" d="M 48.597656 20.617188 C 48.597656 20.371094 48.394531 20.171875 48.148438 20.171875 C 47.902344 20.171875 47.703125 20.371094 47.703125 20.617188 C 47.703125 20.863281 47.902344 21.066406 48.148438 21.066406 C 48.394531 21.066406 48.597656 20.863281 48.597656 20.617188 Z M 48.597656 20.617188 "/>
<path fill-rule="nonzero" fill="rgb(0%, 0%, 0%)" fill-opacity="1" d="M 44.125 20.617188 C 44.125 20.371094 43.925781 20.171875 43.679688 20.171875 C 43.433594 20.171875 43.230469 20.371094 43.230469 20.617188 C 43.230469 20.863281 43.433594 21.066406 43.679688 21.066406 C 43.925781 21.066406 44.125 20.863281 44.125 20.617188 Z M 44.125 20.617188 "/>
<path fill-rule="nonzero" fill="rgb(0%, 0%, 0%)" fill-opacity="1" d="M 49.714844 20.03125 C 49.714844 19.785156 49.511719 19.582031 49.265625 19.582031 C 49.019531 19.582031 48.820312 19.785156 48.820312 20.03125 C 48.820312 20.277344 49.019531 20.476562 49.265625 20.476562 C 49.511719 20.476562 49.714844 20.277344 49.714844 20.03125 Z M 49.714844 20.03125 "/>
<path fill-rule="nonzero" fill="rgb(0%, 0%, 0%)" fill-opacity="1" d="M 43.007812 20.03125 C 43.007812 19.785156 42.808594 19.582031 42.5625 19.582031 C 42.316406 19.582031 42.113281 19.785156 42.113281 20.03125 C 42.113281 20.277344 42.316406 20.476562 42.5625 20.476562 C 42.808594 20.476562 43.007812 20.277344 43.007812 20.03125 Z M 43.007812 20.03125 "/>
<path fill-rule="nonzero" fill="rgb(0%, 0%, 0%)" fill-opacity="1" d="M 42.703125 12.851562 C 42.703125 12.234375 42.199219 11.734375 41.582031 11.734375 C 40.96875 11.734375 40.464844 12.234375 40.464844 12.851562 C 40.464844 13.46875 40.96875 13.96875 41.582031 13.96875 C 42.199219 13.96875 42.703125 13.46875 42.703125 12.851562 Z M 42.703125 12.851562 "/>
<path fill-rule="nonzero" fill="rgb(0%, 0%, 0%)" fill-opacity="1" d="M 51.363281 12.851562 C 51.363281 12.234375 50.863281 11.734375 50.246094 11.734375 C 49.628906 11.734375 49.128906 12.234375 49.128906 12.851562 C 49.128906 13.46875 49.628906 13.96875 50.246094 13.96875 C 50.863281 13.96875 51.363281 13.46875 51.363281 12.851562 Z M 51.363281 12.851562 "/>
<path fill-rule="nonzero" fill="rgb(100%, 50%, 0%)" fill-opacity="1" d="M 45.914062 15.085938 C 45.144531 15.085938 44.515625 15.710938 44.515625 16.484375 C 44.515625 17.253906 45.144531 17.878906 45.914062 17.878906 M 45.914062 17.878906 L 50.105469 17.320312 L 45.914062 15.085938 "/>
<path fill-rule="nonzero" fill="rgb(0%, 0%, 0%)" fill-opacity="1" d="M 47.03125 31.011719 C 47.03125 30.394531 46.53125 29.894531 45.914062 29.894531 C 45.296875 29.894531 44.796875 30.394531 44.796875 31.011719 C 44.796875 31.628906 45.296875 32.128906 45.914062 32.128906 C 46.53125 32.128906 47.03125 31.628906 47.03125 31.011719 Z M 47.03125 31.011719 "/>
<path fill-rule="nonzero" fill="rgb(0%, 0%, 0%)" fill-opacity="1" d="M 47.03125 36.597656 C 47.03125 35.980469 46.53125 35.480469 45.914062 35.480469 C 45.296875 35.480469 44.796875 35.980469 44.796875 36.597656 C 44.796875 37.214844 45.296875 37.714844 45.914062 37.714844 C 46.53125 37.714844 47.03125 37.214844 47.03125 36.597656 Z M 47.03125 36.597656 "/>
<path fill-rule="nonzero" fill="rgb(0%, 0%, 0%)" fill-opacity="1" d="M 47.03125 42.1875 C 47.03125 41.570312 46.53125 41.070312 45.914062 41.070312 C 45.296875 41.070312 44.796875 41.570312 44.796875 42.1875 C 44.796875 42.804688 45.296875 43.304688 45.914062 43.304688 C 46.53125 43.304688 47.03125 42.804688 47.03125 42.1875 Z M 47.03125 42.1875 "/>
</svg>
