<?xml version="1.0" encoding="UTF-8"?>
<svg xmlns="http://www.w3.org/2000/svg" xmlns:xlink="http://www.w3.org/1999/xlink" width="92.41" height="71.054" viewBox="0 0 92.41 71.054">
<defs>
<clipPath id="clip-0">
<path clip-rule="nonzero" d="M 29 42 L 63 42 L 63 70.121094 L 29 70.121094 Z M 29 42 "/>
</clipPath>
</defs>
<path fill-rule="nonzero" fill="rgb(94.999695%, 94.999695%, 94.999695%)" fill-opacity="1" d="M 65.296875 45.777344 C 66.714844 44.585938 65.453125 40.742188 62.472656 37.191406 C 59.492188 33.640625 55.925781 31.726562 54.507812 32.917969 C 53.085938 34.109375 54.351562 37.957031 57.328125 41.507812 C 60.308594 45.058594 63.875 46.96875 65.296875 45.777344 Z M 65.296875 45.777344 "/>
<path fill-rule="nonzero" fill="rgb(94.999695%, 94.999695%, 94.999695%)" fill-opacity="1" d="M 37.320312 32.917969 C 35.902344 31.726562 32.335938 33.640625 29.355469 37.191406 C 26.375 40.742188 25.113281 44.585938 26.53125 45.777344 C 27.953125 46.96875 31.519531 45.058594 34.5 41.507812 C 37.476562 37.957031 38.742188 34.109375 37.320312 32.917969 Z M 37.320312 32.917969 "/>
<g clip-path="url(#clip-0)">
<path fill-rule="nonzero" fill="rgb(94.999695%, 94.999695%, 94.999695%)" fill-opacity="1" d="M 62.699219 56.132812 C 62.699219 48.410156 55.183594 42.144531 45.914062 42.144531 C 36.644531 42.144531 29.128906 48.410156 29.128906 56.132812 C 29.128906 63.859375 36.644531 70.121094 45.914062 70.121094 C 55.183594 70.121094 62.699219 63.859375 62.699219 56.132812 Z M 62.699219 56.132812 "/>
</g>
<path fill-rule="nonzero" fill="rgb(94.999695%, 94.999695%, 94.999695%)" fill-opacity="1" d="M 59.902344 39.347656 C 59.902344 33.167969 53.640625 28.160156 45.914062 28.160156 C 38.1875 28.160156 31.925781 33.167969 31.925781 39.347656 C 31.925781 45.527344 38.1875 50.539062 45.914062 50.539062 C 53.640625 50.539062 59.902344 45.527344 59.902344 39.347656 Z M 59.902344 39.347656 "/>
<path fill-rule="nonzero" fill="rgb(94.999695%, 94.999695%, 94.999695%)" fill-opacity="1" d="M 57.101562 22.5625 C 57.101562 16.382812 52.09375 11.375 45.914062 11.375 C 39.734375 11.375 34.722656 16.382812 34.722656 22.5625 C 34.722656 28.742188 39.734375 33.753906 45.914062 33.753906 C 52.09375 33.753906 57.101562 28.742188 57.101562 22.5625 Z M 57.101562 22.5625 "/>
<path fill-rule="nonzero" fill="rgb(0%, 0%, 0%)" fill-opacity="1" d="M 46.363281 28.160156 C 46.363281 27.910156 46.160156 27.710938 45.914062 27.710938 C 45.667969 27.710938 45.464844 27.910156 45.464844 28.160156 C 45.464844 28.40625 45.667969 28.605469 45.914062 28.605469 C 46.160156 28.605469 46.363281 28.40625 46.363281 28.160156 Z M 46.363281 28.160156 "/>
<path fill-rule="nonzero" fill="rgb(0%, 0%, 0%)" fill-opacity="1" d="M 47.480469 27.964844 C 47.480469 27.714844 47.28125 27.515625 47.03125 27.515625 C 46.785156 27.515625 46.585938 27.714844 46.585938 27.964844 C 46.585938 28.210938 46.785156 28.410156 47.03125 28.410156 C 47.28125 28.410156 47.480469 28.210938 47.480469 27.964844 Z M 47.480469 27.964844 "/>
<path fill-rule="nonzero" fill="rgb(0%, 0%, 0%)" fill-opacity="1" d="M 45.242188 27.964844 C 45.242188 27.714844 45.042969 27.515625 44.796875 27.515625 C 44.546875 27.515625 44.347656 27.714844 44.347656 27.964844 C 44.347656 28.210938 44.546875 28.410156 44.796875 28.410156 C 45.042969 28.410156 45.242188 28.210938 45.242188 27.964844 Z M 45.242188 27.964844 "/>
<path fill-rule="nonzero" fill="rgb(0%, 0%, 0%)" fill-opacity="1" d="M 48.601562 27.542969 C 48.601562 27.296875 48.398438 27.09375 48.152344 27.09375 C 47.90625 27.09375 47.703125 27.296875 47.703125 27.542969 C 47.703125 27.789062 47.90625 27.992188 48.152344 27.992188 C 48.398438 27.992188 48.601562 27.789062 48.601562 27.542969 Z M 48.601562 27.542969 "/>
<path fill-rule="nonzero" fill="rgb(0%, 0%, 0%)" fill-opacity="1" d="M 44.125 27.542969 C 44.125 27.296875 43.921875 27.09375 43.675781 27.09375 C 43.429688 27.09375 43.226562 27.296875 43.226562 27.542969 C 43.226562 27.789062 43.429688 27.992188 43.675781 27.992188 C 43.921875 27.992188 44.125 27.789062 44.125 27.542969 Z M 44.125 27.542969 "/>
<path fill-rule="nonzero" fill="rgb(0%, 0%, 0%)" fill-opacity="1" d="M 49.71875 26.957031 C 49.71875 26.707031 49.519531 26.507812 49.269531 26.507812 C 49.023438 26.507812 48.824219 26.707031 48.824219 26.957031 C 48.824219 27.203125 49.023438 27.402344 49.269531 27.402344 C 49.519531 27.402344 49.71875 27.203125 49.71875 26.957031 Z M 49.71875 26.957031 "/>
<path fill-rule="nonzero" fill="rgb(0%, 0%, 0%)" fill-opacity="1" d="M 43.003906 26.957031 C 43.003906 26.707031 42.804688 26.507812 42.558594 26.507812 C 42.308594 26.507812 42.109375 26.707031 42.109375 26.957031 C 42.109375 27.203125 42.308594 27.402344 42.558594 27.402344 C 42.804688 27.402344 43.003906 27.203125 43.003906 26.957031 Z M 43.003906 26.957031 "/>
<path fill-rule="nonzero" fill="rgb(0%, 0%, 0%)" fill-opacity="1" d="M 42.695312 19.765625 C 42.695312 19.148438 42.195312 18.648438 41.578125 18.648438 C 40.960938 18.648438 40.460938 19.148438 40.460938 19.765625 C 40.460938 20.382812 40.960938 20.886719 41.578125 20.886719 C 42.195312 20.886719 42.695312 20.382812 42.695312 19.765625 Z M 42.695312 19.765625 "/>
<path fill-rule="nonzero" fill="rgb(0%, 0%, 0%)" fill-opacity="1" d="M 51.367188 19.765625 C 51.367188 19.148438 50.867188 18.648438 50.25 18.648438 C 49.632812 18.648438 49.132812 19.148438 49.132812 19.765625 C 49.132812 20.382812 49.632812 20.886719 50.25 20.886719 C 50.867188 20.886719 51.367188 20.382812 51.367188 19.765625 Z M 51.367188 19.765625 "/>
<path fill-rule="nonzero" fill="rgb(100%, 50%, 0%)" fill-opacity="1" d="M 45.914062 22.003906 C 45.140625 22.003906 44.515625 22.628906 44.515625 23.402344 C 44.515625 24.175781 45.140625 24.800781 45.914062 24.800781 M 45.914062 24.800781 L 50.109375 24.242188 L 45.914062 22.003906 "/>
<path fill-rule="nonzero" fill="rgb(0%, 0%, 0%)" fill-opacity="1" d="M 47.03125 37.949219 C 47.03125 37.332031 46.53125 36.832031 45.914062 36.832031 C 45.296875 36.832031 44.796875 37.332031 44.796875 37.949219 C 44.796875 38.566406 45.296875 39.070312 45.914062 39.070312 C 46.53125 39.070312 47.03125 38.566406 47.03125 37.949219 Z M 47.03125 37.949219 "/>
<path fill-rule="nonzero" fill="rgb(0%, 0%, 0%)" fill-opacity="1" d="M 47.03125 43.542969 C 47.03125 42.925781 46.53125 42.425781 45.914062 42.425781 C 45.296875 42.425781 44.796875 42.925781 44.796875 43.542969 C 44.796875 44.164062 45.296875 44.664062 45.914062 44.664062 C 46.53125 44.664062 47.03125 44.164062 47.03125 43.542969 Z M 47.03125 43.542969 "/>
<path fill-rule="nonzero" fill="rgb(0%, 0%, 0%)" fill-opacity="1" d="M 47.03125 49.140625 C 47.03125 48.523438 46.53125 48.019531 45.914062 48.019531 C 45.296875 48.019531 44.796875 48.523438 44.796875 49.140625 C 44.796875 49.757812 45.296875 50.257812 45.914062 50.257812 C 46.53125 50.257812 47.03125 49.757812 47.03125 49.140625 Z M 47.03125 49.140625 "/>
<path fill-rule="nonzero" fill="rgb(9.999084%, 9.999084%, 9.999084%)" fill-opacity="1" d="M 59.234375 16.191406 C 59.367188 14.652344 53.488281 12.882812 46.101562 12.234375 C 38.714844 11.589844 32.617188 12.3125 32.480469 13.851562 C 32.347656 15.390625 38.226562 17.164062 45.613281 17.808594 C 53 18.457031 59.097656 17.730469 59.234375 16.191406 Z M 59.234375 16.191406 "/>
<path fill-rule="nonzero" fill="rgb(9.999084%, 9.999084%, 9.999084%)" fill-opacity="1" d="M 36.675781 14.070312 L 54.230469 15.605469 L 57 3.214844 L 36.378906 1.410156 Z M 36.675781 14.070312 "/>
<path fill-rule="nonzero" fill="rgb(9.999084%, 9.999084%, 9.999084%)" fill-opacity="1" d="M 57.035156 3.128906 C 57.144531 1.898438 52.617188 0.496094 46.921875 0 C 41.226562 -0.5 36.523438 0.09375 36.414062 1.328125 C 36.308594 2.558594 40.835938 3.960938 46.53125 4.457031 C 52.226562 4.957031 56.929688 4.363281 57.035156 3.128906 Z M 57.035156 3.128906 "/>
</svg>
