<?xml version="1.0" encoding="UTF-8"?>
<svg xmlns="http://www.w3.org/2000/svg" xmlns:xlink="http://www.w3.org/1999/xlink" width="42.52" height="60.378" viewBox="0 0 42.52 60.378">
<defs>
<clipPath id="clip-0">
<path clip-rule="nonzero" d="M 4 31 L 38 31 L 38 59.734375 L 4 59.734375 Z M 4 31 "/>
</clipPath>
<clipPath id="clip-1">
<path clip-rule="nonzero" d="M 9 0.03125 L 33 0.03125 L 33 24 L 9 24 Z M 9 0.03125 "/>
</clipPath>
</defs>
<path fill-rule="nonzero" fill="rgb(94.999695%, 94.999695%, 94.999695%)" fill-opacity="1" d="M 40.441406 35.339844 C 41.867188 34.148438 40.601562 30.296875 37.613281 26.738281 C 34.628906 23.179688 31.054688 21.265625 29.632812 22.457031 C 28.210938 23.652344 29.476562 27.503906 32.460938 31.0625 C 35.445312 34.621094 39.019531 36.535156 40.441406 35.339844 Z M 40.441406 35.339844 "/>
<path fill-rule="nonzero" fill="rgb(94.999695%, 94.999695%, 94.999695%)" fill-opacity="1" d="M 12.414062 22.457031 C 10.988281 21.265625 7.417969 23.179688 4.429688 26.738281 C 1.445312 30.296875 0.179688 34.148438 1.601562 35.339844 C 3.023438 36.535156 6.597656 34.621094 9.585938 31.0625 C 12.570312 27.503906 13.835938 23.652344 12.414062 22.457031 Z M 12.414062 22.457031 "/>
<g clip-path="url(#clip-0)">
<path fill-rule="nonzero" fill="rgb(94.999695%, 94.999695%, 94.999695%)" fill-opacity="1" d="M 37.839844 45.71875 C 37.839844 37.976562 30.3125 31.703125 21.023438 31.703125 C 11.734375 31.703125 4.203125 37.976562 4.203125 45.71875 C 4.203125 53.457031 11.734375 59.734375 21.023438 59.734375 C 30.3125 59.734375 37.839844 53.457031 37.839844 45.71875 Z M 37.839844 45.71875 "/>
</g>
<path fill-rule="nonzero" fill="rgb(94.999695%, 94.999695%, 94.999695%)" fill-opacity="1" d="M 35.039062 28.898438 C 35.039062 22.707031 28.761719 17.6875 21.023438 17.6875 C 13.28125 17.6875 7.007812 22.707031 7.007812 28.898438 C 7.007812 35.09375 13.28125 40.113281 21.023438 40.113281 C 28.761719 40.113281 35.039062 35.09375 35.039062 28.898438 Z M 35.039062 28.898438 "/>
<g clip-path="url(#clip-1)">
<path fill-rule="nonzero" fill="rgb(94.999695%, 94.999695%, 94.999695%)" fill-opacity="1" d="M 32.234375 12.082031 C 32.234375 5.890625 27.214844 0.871094 21.023438 0.871094 C 14.832031 0.871094 9.8125 5.890625 9.8125 12.082031 C 9.8125 18.273438 14.832031 23.292969 21.023438 23.292969 C 27.214844 23.292969 32.234375 18.273438 32.234375 12.082031 Z M 32.234375 12.082031 "/>
</g>
<path fill-rule="nonzero" fill="rgb(0%, 0%, 0%)" fill-opacity="1" d="M 21.472656 17.6875 C 21.472656 17.441406 21.269531 17.238281 21.023438 17.238281 C 20.773438 17.238281 20.574219 17.441406 20.574219 17.6875 C 20.574219 17.9375 20.773438 18.136719 21.023438 18.136719 C 21.269531 18.136719 21.472656 17.9375 21.472656 17.6875 Z M 21.472656 17.6875 "/>
<path fill-rule="nonzero" fill="rgb(0%, 0%, 0%)" fill-opacity="1" d="M 22.59375 17.492188 C 22.59375 17.242188 22.390625 17.042969 22.144531 17.042969 C 21.894531 17.042969 21.695312 17.242188 21.695312 17.492188 C 21.695312 17.738281 21.894531 17.941406 22.144531 17.941406 C 22.390625 17.941406 22.59375 17.738281 22.59375 17.492188 Z M 22.59375 17.492188 "/>
<path fill-rule="nonzero" fill="rgb(0%, 0%, 0%)" fill-opacity="1" d="M 20.351562 17.492188 C 20.351562 17.242188 20.148438 17.042969 19.902344 17.042969 C 19.652344 17.042969 19.453125 17.242188 19.453125 17.492188 C 19.453125 17.738281 19.652344 17.941406 19.902344 17.941406 C 20.148438 17.941406 20.351562 17.738281 20.351562 17.492188 Z M 20.351562 17.492188 "/>
<path fill-rule="nonzero" fill="rgb(0%, 0%, 0%)" fill-opacity="1" d="M 23.714844 17.070312 C 23.714844 16.824219 23.511719 16.621094 23.265625 16.621094 C 23.015625 16.621094 22.816406 16.824219 22.816406 17.070312 C 22.816406 17.320312 23.015625 17.519531 23.265625 17.519531 C 23.511719 17.519531 23.714844 17.320312 23.714844 17.070312 Z M 23.714844 17.070312 "/>
<path fill-rule="nonzero" fill="rgb(0%, 0%, 0%)" fill-opacity="1" d="M 19.230469 17.070312 C 19.230469 16.824219 19.027344 16.621094 18.78125 16.621094 C 18.53125 16.621094 18.332031 16.824219 18.332031 17.070312 C 18.332031 17.320312 18.53125 17.519531 18.78125 17.519531 C 19.027344 17.519531 19.230469 17.320312 19.230469 17.070312 Z M 19.230469 17.070312 "/>
<path fill-rule="nonzero" fill="rgb(0%, 0%, 0%)" fill-opacity="1" d="M 24.835938 16.484375 C 24.835938 16.234375 24.632812 16.035156 24.386719 16.035156 C 24.136719 16.035156 23.9375 16.234375 23.9375 16.484375 C 23.9375 16.730469 24.136719 16.929688 24.386719 16.929688 C 24.632812 16.929688 24.835938 16.730469 24.835938 16.484375 Z M 24.835938 16.484375 "/>
<path fill-rule="nonzero" fill="rgb(0%, 0%, 0%)" fill-opacity="1" d="M 18.109375 16.484375 C 18.109375 16.234375 17.90625 16.035156 17.660156 16.035156 C 17.410156 16.035156 17.210938 16.234375 17.210938 16.484375 C 17.210938 16.730469 17.410156 16.929688 17.660156 16.929688 C 17.90625 16.929688 18.109375 16.730469 18.109375 16.484375 Z M 18.109375 16.484375 "/>
<path fill-rule="nonzero" fill="rgb(0%, 0%, 0%)" fill-opacity="1" d="M 17.800781 9.277344 C 17.800781 8.660156 17.296875 8.15625 16.679688 8.15625 C 16.058594 8.15625 15.558594 8.660156 15.558594 9.277344 C 15.558594 9.898438 16.058594 10.398438 16.679688 10.398438 C 17.296875 10.398438 17.800781 9.898438 17.800781 9.277344 Z M 17.800781 9.277344 "/>
<path fill-rule="nonzero" fill="rgb(0%, 0%, 0%)" fill-opacity="1" d="M 26.488281 9.277344 C 26.488281 8.660156 25.988281 8.15625 25.367188 8.15625 C 24.75 8.15625 24.246094 8.660156 24.246094 9.277344 C 24.246094 9.898438 24.75 10.398438 25.367188 10.398438 C 25.988281 10.398438 26.488281 9.898438 26.488281 9.277344 Z M 26.488281 9.277344 "/>
<path fill-rule="nonzero" fill="rgb(100%, 50%, 0%)" fill-opacity="1" d="M 21.023438 11.519531 C 20.25 11.519531 19.621094 12.148438 19.621094 12.921875 C 19.621094 13.695312 20.25 14.324219 21.023438 14.324219 M 21.023438 14.324219 L 25.226562 13.765625 L 21.023438 11.519531 "/>
<path fill-rule="nonzero" fill="rgb(0%, 0%, 0%)" fill-opacity="1" d="M 22.144531 27.5 C 22.144531 26.878906 21.640625 26.378906 21.023438 26.378906 C 20.402344 26.378906 19.902344 26.878906 19.902344 27.5 C 19.902344 28.117188 20.402344 28.621094 21.023438 28.621094 C 21.640625 28.621094 22.144531 28.117188 22.144531 27.5 Z M 22.144531 27.5 "/>
<path fill-rule="nonzero" fill="rgb(0%, 0%, 0%)" fill-opacity="1" d="M 22.144531 33.105469 C 22.144531 32.484375 21.640625 31.984375 21.023438 31.984375 C 20.402344 31.984375 19.902344 32.484375 19.902344 33.105469 C 19.902344 33.722656 20.402344 34.226562 21.023438 34.226562 C 21.640625 34.226562 22.144531 33.722656 22.144531 33.105469 Z M 22.144531 33.105469 "/>
<path fill-rule="nonzero" fill="rgb(0%, 0%, 0%)" fill-opacity="1" d="M 22.144531 38.710938 C 22.144531 38.089844 21.640625 37.589844 21.023438 37.589844 C 20.402344 37.589844 19.902344 38.089844 19.902344 38.710938 C 19.902344 39.328125 20.402344 39.832031 21.023438 39.832031 C 21.640625 39.832031 22.144531 39.328125 22.144531 38.710938 Z M 22.144531 38.710938 "/>
</svg>
