<?xml version="1.0" encoding="UTF-8" standalone="no"?>
<svg
   width="42.52"
   height="60.378"
   viewBox="0 0 42.52 60.378"
   version="1.1"
   id="svg20"
   sodipodi:docname="snowman.svg"
   xmlns:inkscape="http://www.inkscape.org/namespaces/inkscape"
   xmlns:sodipodi="http://sodipodi.sourceforge.net/DTD/sodipodi-0.dtd"
   xmlns="http://www.w3.org/2000/svg"
   xmlns:svg="http://www.w3.org/2000/svg">
  <sodipodi:namedview
     id="namedview20"
     pagecolor="#ffffff"
     bordercolor="#666666"
     borderopacity="1.0"
     inkscape:showpageshadow="2"
     inkscape:pageopacity="0.0"
     inkscape:pagecheckerboard="0"
     inkscape:deskcolor="#d1d1d1" />
  <defs
     id="defs2">
    <clipPath
       id="clip-0">
      <path
         clip-rule="nonzero"
         d="M 4 31 L 38 31 L 38 59.734375 L 4 59.734375 Z M 4 31 "
         id="path1" />
    </clipPath>
    <clipPath
       id="clip-1">
      <path
         clip-rule="nonzero"
         d="M 9 0.03125 L 33 0.03125 L 33 24 L 9 24 Z M 9 0.03125 "
         id="path2" />
    </clipPath>
  </defs>
  <path
     id="path3"
     d="M 21.023438 0.87109375 C 14.832031 0.87109375 9.8125 5.8906252 9.8125 12.082031 C 9.8125 15.062637 10.977671 17.769197 12.875 19.777344 C 11.52443 20.550709 10.351432 21.511073 9.4179688 22.611328 C 7.8792623 23.333104 6.0676905 24.787666 4.4296875 26.738281 C 1.4453115 30.296875 0.1796885 34.148438 1.6015625 35.339844 C 2.762742 36.315999 5.3597085 35.217199 7.9003906 32.84375 C 8.3335975 33.766326 8.9157813 34.629476 9.6210938 35.417969 C 6.2912737 37.978546 4.203125 41.644535 4.203125 45.71875 C 4.203125 53.457031 11.734375 59.734375 21.023438 59.734375 C 30.3125 59.734375 37.839844 53.457031 37.839844 45.71875 C 37.839844 41.644455 35.752737 37.978552 32.423828 35.417969 C 33.129318 34.629515 33.711135 33.766275 34.144531 32.84375 C 36.683085 35.217199 39.280228 36.315999 40.441406 35.339844 C 41.867188 34.148438 40.601562 30.296875 37.613281 26.738281 C 35.977419 24.787666 34.16564 23.333104 32.626953 22.611328 C 31.693388 21.5113 30.520235 20.55258 29.169922 19.779297 C 31.06837 17.770948 32.234375 15.063629 32.234375 12.082031 C 32.234375 5.8906252 27.214844 0.87109375 21.023438 0.87109375 z " />
  <g
     clip-path="url(#clip-0)"
     id="g5" />
  <g
     clip-path="url(#clip-1)"
     id="g7" />
</svg>
