<?xml version="1.0" encoding="UTF-8" standalone="no"?>
<svg
   width="47.574"
   height="59.168"
   viewBox="0 0 47.574 59.168"
   version="1.1"
   id="svg20"
   sodipodi:docname="squirrel.svg"
   xmlns:inkscape="http://www.inkscape.org/namespaces/inkscape"
   xmlns:sodipodi="http://sodipodi.sourceforge.net/DTD/sodipodi-0.dtd"
   xmlns="http://www.w3.org/2000/svg"
   xmlns:svg="http://www.w3.org/2000/svg">
  <sodipodi:namedview
     id="namedview20"
     pagecolor="#ffffff"
     bordercolor="#666666"
     borderopacity="1.0"
     inkscape:showpageshadow="2"
     inkscape:pageopacity="0.0"
     inkscape:pagecheckerboard="0"
     inkscape:deskcolor="#d1d1d1" />
  <defs
     id="defs1">
    <clipPath
       id="clip-0">
      <path
         clip-rule="nonzero"
         d="M 0.121094 13 L 29 13 L 29 56 L 0.121094 56 Z M 0.121094 13 "
         id="path1" />
    </clipPath>
  </defs>
  <path
     id="path2"
     d="M 10.650391 0.97851562 C 10.176361 0.99800207 9.7929688 1.234375 9.7929688 1.234375 C 9.7929688 1.234375 10.304688 2.773438 9.5664062 5.21875 C 9.5951011 5.2907545 9.625572 5.3611212 9.65625 5.4296875 C 7.7621507 6.9671811 6.5507813 9.3143114 6.5507812 11.945312 C 6.5507812 12.289102 6.5730471 12.62794 6.6132812 12.960938 C 5.7203226 13.729347 5.1523437 14.865077 5.1523438 16.136719 C 5.1523438 18.221995 6.6728859 19.943588 8.6660156 20.267578 C 4.2961757 28.020767 0.95703125 40.123066 0.95703125 46.886719 C 0.95703125 49.565942 2.4848676 51.618343 4.8261719 53.044922 C 2.7781249 53.465338 1.3789063 54.3047 1.3789062 55.273438 C 1.3789062 56.660156 4.2578118 57.789062 7.8085938 57.789062 C 11.193917 57.789062 13.967521 56.762233 14.21875 55.464844 C 14.696734 55.478276 15.174359 55.478276 15.652344 55.464844 C 15.903573 56.762233 18.677177 57.789062 22.0625 57.789062 C 25.613281 57.789062 28.492188 56.660156 28.492188 55.273438 C 28.492188 54.3047 27.092969 53.465338 25.044922 53.044922 C 26.603772 52.0951 27.802903 50.868394 28.429688 49.363281 C 36.130023 45.907711 42.993501 38.470214 39.503906 31.507812 C 38.996094 29.722656 37.730469 27.652344 39.300781 26.453125 C 41.003906 26.777344 41.59375 28.820312 42.316406 30.421875 C 42.316406 30.421875 44.800781 26.941406 45.230469 24.867188 C 47.035156 15.679688 35.816406 9.6601565 29.519531 13.070312 C 23.985465 16.852916 24.282967 23.978574 25.517578 29.595703 C 25.461259 29.62708 25.404954 29.65853 25.349609 29.691406 C 24.164275 26.291096 22.750319 23.008413 21.205078 20.267578 C 23.198208 19.943588 24.71875 18.221995 24.71875 16.136719 C 24.71875 14.865077 24.150771 13.729347 23.257812 12.960938 C 23.298048 12.62794 23.320312 12.289102 23.320312 11.945312 C 23.320312 9.3134238 22.108806 6.9651999 20.212891 5.4277344 C 20.243034 5.3599152 20.272592 5.2899283 20.300781 5.21875 C 19.566406 2.773438 20.074219 1.234375 20.074219 1.234375 C 20.074219 1.234375 18.074219 2.5e-07 17.566406 2.9414062 C 17.441871 3.2539056 17.347123 3.5746434 17.279297 3.8925781 C 16.534638 3.6760651 15.748237 3.5585937 14.933594 3.5585938 C 14.120542 3.5585938 13.335257 3.6765289 12.591797 3.8925781 C 12.523971 3.5746434 12.429223 3.2539056 12.304688 2.9414062 C 12.019043 1.2868654 11.259857 0.95346162 10.650391 0.97851562 z " />
  <g
     clip-path="url(#clip-0)"
     id="g5" />
</svg>
