<?xml version="1.0" encoding="UTF-8"?>
<svg xmlns="http://www.w3.org/2000/svg" xmlns:xlink="http://www.w3.org/1999/xlink" width="92.41" height="61.512" viewBox="0 0 92.41 61.512">
<path fill-rule="nonzero" fill="rgb(75%, 75%, 75%)" fill-opacity="1" d="M 67.003906 38.246094 C 67.003906 34.363281 63.855469 31.214844 59.972656 31.214844 C 56.089844 31.214844 52.941406 34.363281 52.941406 38.246094 C 52.941406 42.128906 56.089844 45.277344 59.972656 45.277344 C 63.855469 45.277344 67.003906 42.128906 67.003906 38.246094 Z M 67.003906 38.246094 "/>
<path fill-rule="nonzero" fill="rgb(46.148682%, 35.749817%, 28.849792%)" fill-opacity="1" d="M 45.207031 57.933594 C 45.207031 56.535156 42.3125 55.402344 38.742188 55.402344 C 35.167969 55.402344 32.273438 56.535156 32.273438 57.933594 C 32.273438 59.332031 35.167969 60.464844 38.742188 60.464844 C 42.3125 60.464844 45.207031 59.332031 45.207031 57.933594 Z M 45.207031 57.933594 "/>
<path fill-rule="nonzero" fill="rgb(46.148682%, 35.749817%, 28.849792%)" fill-opacity="1" d="M 59.550781 57.933594 C 59.550781 56.535156 56.65625 55.402344 53.085938 55.402344 C 49.511719 55.402344 46.617188 56.535156 46.617188 57.933594 C 46.617188 59.332031 49.511719 60.464844 53.085938 60.464844 C 56.65625 60.464844 59.550781 59.332031 59.550781 57.933594 Z M 59.550781 57.933594 "/>
<path fill-rule="nonzero" fill="rgb(46.148682%, 35.749817%, 28.849792%)" fill-opacity="1" d="M 73.460938 32.933594 C 73.460938 32.933594 75.960938 29.429688 76.390625 27.34375 C 78.207031 18.101562 66.921875 12.042969 60.585938 15.476562 C 54.363281 19.726562 55.464844 28.183594 57.023438 34.027344 C 58.339844 38.183594 61.207031 44.132812 57.96875 46.996094 C 56.726562 48.082031 52.367188 51.59375 46.257812 52.675781 C 54.441406 58.128906 76.347656 45.433594 70.628906 34.027344 C 70.117188 32.230469 68.84375 30.144531 70.425781 28.941406 C 72.136719 29.269531 72.730469 31.320312 73.460938 32.933594 Z M 73.460938 32.933594 "/>
<path fill-rule="nonzero" fill="rgb(63.999939%, 44.999695%, 35.998535%)" fill-opacity="1" d="M 59.972656 49.496094 C 59.972656 61.027344 31.851562 61.027344 31.851562 49.496094 C 31.851562 39.652344 38.882812 18.5625 45.914062 15.75 C 52.941406 18.5625 59.972656 39.652344 59.972656 49.496094 Z M 59.972656 49.496094 "/>
<path fill-rule="nonzero" fill="rgb(69.398499%, 53.248596%, 45.599365%)" fill-opacity="1" d="M 55.753906 49.496094 C 55.753906 57.371094 36.070312 57.371094 36.070312 49.496094 C 36.070312 43.871094 41.132812 29.808594 45.914062 29.808594 C 50.691406 29.808594 55.753906 43.871094 55.753906 49.496094 Z M 55.753906 49.496094 "/>
<path fill-rule="nonzero" fill="rgb(46.148682%, 35.749817%, 28.849792%)" fill-opacity="1" d="M 51.3125 7.574219 C 50.570312 5.117188 51.085938 3.566406 51.085938 3.566406 C 51.085938 3.566406 49.070312 2.324219 48.558594 5.285156 C 47.925781 6.871094 48.03125 8.664062 48.789062 9.300781 C 49.546875 9.933594 50.683594 9.160156 51.3125 7.574219 Z M 51.3125 7.574219 "/>
<path fill-rule="nonzero" fill="rgb(46.148682%, 35.749817%, 28.849792%)" fill-opacity="1" d="M 40.511719 7.574219 C 41.253906 5.117188 40.742188 3.566406 40.742188 3.566406 C 40.742188 3.566406 42.753906 2.324219 43.265625 5.285156 C 43.898438 6.871094 43.792969 8.664062 43.035156 9.300781 C 42.277344 9.933594 41.140625 9.160156 40.511719 7.574219 Z M 40.511719 7.574219 "/>
<path fill-rule="nonzero" fill="rgb(63.999939%, 44.999695%, 35.998535%)" fill-opacity="1" d="M 54.347656 14.34375 C 54.347656 9.683594 50.570312 5.90625 45.914062 5.90625 C 41.253906 5.90625 37.476562 9.683594 37.476562 14.34375 C 37.476562 19.003906 41.253906 22.78125 45.914062 22.78125 C 50.570312 22.78125 54.347656 19.003906 54.347656 14.34375 Z M 55.753906 18.5625 C 55.753906 16.230469 53.867188 14.34375 51.535156 14.34375 C 49.207031 14.34375 47.320312 16.230469 47.320312 18.5625 C 47.320312 20.890625 49.207031 22.777344 51.535156 22.777344 C 53.867188 22.777344 55.753906 20.890625 55.753906 18.5625 Z M 44.507812 18.5625 C 44.507812 16.230469 42.617188 14.34375 40.289062 14.34375 C 37.957031 14.34375 36.070312 16.230469 36.070312 18.5625 C 36.070312 20.890625 37.957031 22.777344 40.289062 22.777344 C 42.617188 22.777344 44.507812 20.890625 44.507812 18.5625 Z M 44.507812 18.5625 "/>
<path fill-rule="nonzero" fill="rgb(40.380859%, 27.897644%, 19.619751%)" fill-opacity="1" d="M 47.601562 16.875 C 47.601562 16.40625 46.84375 16.03125 45.914062 16.03125 C 44.980469 16.03125 44.226562 16.40625 44.226562 16.875 C 44.226562 17.339844 44.980469 17.71875 45.914062 17.71875 C 46.84375 17.71875 47.601562 17.339844 47.601562 16.875 Z M 47.601562 16.875 "/>
<path fill-rule="nonzero" fill="rgb(100%, 100%, 100%)" fill-opacity="1" d="M 49.289062 13.5 C 49.289062 12.410156 48.65625 11.53125 47.882812 11.53125 C 47.105469 11.53125 46.476562 12.410156 46.476562 13.5 C 46.476562 14.585938 47.105469 15.46875 47.882812 15.46875 C 48.65625 15.46875 49.289062 14.585938 49.289062 13.5 Z M 49.289062 13.5 "/>
<path fill-rule="nonzero" fill="rgb(100%, 100%, 100%)" fill-opacity="1" d="M 45.351562 13.5 C 45.351562 12.410156 44.71875 11.53125 43.945312 11.53125 C 43.167969 11.53125 42.539062 12.410156 42.539062 13.5 C 42.539062 14.585938 43.167969 15.46875 43.945312 15.46875 C 44.71875 15.46875 45.351562 14.585938 45.351562 13.5 Z M 45.351562 13.5 "/>
<path fill-rule="nonzero" fill="rgb(0%, 0%, 0%)" fill-opacity="1" d="M 48.359375 14.0625 C 48.359375 13.640625 48.144531 13.300781 47.882812 13.300781 C 47.617188 13.300781 47.402344 13.640625 47.402344 14.0625 C 47.402344 14.480469 47.617188 14.820312 47.882812 14.820312 C 48.144531 14.820312 48.359375 14.480469 48.359375 14.0625 Z M 48.359375 14.0625 "/>
<path fill-rule="nonzero" fill="rgb(0%, 0%, 0%)" fill-opacity="1" d="M 44.421875 14.0625 C 44.421875 13.640625 44.207031 13.300781 43.945312 13.300781 C 43.679688 13.300781 43.464844 13.640625 43.464844 14.0625 C 43.464844 14.480469 43.679688 14.820312 43.945312 14.820312 C 44.207031 14.820312 44.421875 14.480469 44.421875 14.0625 Z M 44.421875 14.0625 "/>
<path fill-rule="nonzero" fill="rgb(100%, 100%, 100%)" fill-opacity="1" d="M 45.210938 19.488281 L 45.210938 18.644531 L 45.773438 18.644531 L 45.773438 19.488281 Z M 45.210938 19.488281 "/>
<path fill-rule="nonzero" fill="rgb(100%, 100%, 100%)" fill-opacity="1" d="M 46.613281 19.488281 L 46.613281 18.644531 L 46.050781 18.644531 L 46.050781 19.488281 Z M 46.613281 19.488281 "/>
<path fill="none" stroke-width="0.3985" stroke-linecap="butt" stroke-linejoin="miter" stroke="rgb(40.380859%, 27.897644%, 19.619751%)" stroke-opacity="1" stroke-miterlimit="10" d="M -4.250465 45.636717 C -4.250465 45.636717 -4.250465 43.085386 0.00175437 45.636717 C 4.250036 43.085386 4.250036 45.636717 4.250036 45.636717 " transform="matrix(0.992129, 0, 0, -0.992129, 45.912322, 63.558762)"/>
<path fill-rule="nonzero" fill="rgb(46.148682%, 35.749817%, 28.849792%)" fill-opacity="1" d="M 53.652344 33.839844 C 52.046875 33.253906 49.796875 35.382812 48.628906 38.59375 C 47.460938 41.804688 47.816406 44.882812 49.421875 45.46875 C 51.027344 46.050781 53.273438 43.921875 54.445312 40.710938 C 55.613281 37.5 55.257812 34.421875 53.652344 33.839844 Z M 53.652344 33.839844 "/>
<path fill-rule="nonzero" fill="rgb(46.148682%, 35.749817%, 28.849792%)" fill-opacity="1" d="M 42.402344 45.46875 C 44.007812 44.882812 44.363281 41.804688 43.195312 38.59375 C 42.027344 35.382812 39.777344 33.253906 38.171875 33.839844 C 36.566406 34.421875 36.210938 37.5 37.378906 40.710938 C 38.550781 43.921875 40.796875 46.050781 42.402344 45.46875 Z M 42.402344 45.46875 "/>
</svg>
