<?xml version="1.0" encoding="UTF-8"?>
<svg xmlns="http://www.w3.org/2000/svg" xmlns:xlink="http://www.w3.org/1999/xlink" width="92.41" height="61.795" viewBox="0 0 92.41 61.795">
<path fill-rule="nonzero" fill="rgb(73.399353%, 63.598633%, 53.799438%)" fill-opacity="1" d="M 66.410156 52.785156 C 67.910156 50.996094 64.296875 45.496094 58.335938 40.496094 C 52.378906 35.496094 46.332031 32.890625 44.832031 34.679688 C 43.332031 36.464844 46.945312 41.96875 52.90625 46.96875 C 58.863281 51.96875 64.910156 54.570312 66.410156 52.785156 Z M 66.410156 52.785156 "/>
<path fill-rule="nonzero" fill="rgb(61.999512%, 47.999573%, 33.999634%)" fill-opacity="1" d="M 71.054688 44.734375 C 71.855469 42.542969 66.578125 38.609375 59.265625 35.949219 C 51.957031 33.289062 45.386719 32.910156 44.589844 35.101562 C 43.789062 37.292969 49.066406 41.226562 56.378906 43.890625 C 63.6875 46.550781 70.257812 46.929688 71.054688 44.734375 Z M 71.054688 44.734375 "/>
<path fill-rule="nonzero" fill="rgb(73.399353%, 63.598633%, 53.799438%)" fill-opacity="1" d="M 72.671875 35.582031 C 72.671875 33.25 66.363281 31.359375 58.585938 31.359375 C 50.808594 31.359375 44.503906 33.25 44.503906 35.582031 C 44.503906 37.917969 50.808594 39.808594 58.585938 39.808594 C 66.363281 39.808594 72.671875 37.917969 72.671875 35.582031 Z M 72.671875 35.582031 "/>
<path fill-rule="nonzero" fill="rgb(61.999512%, 47.999573%, 33.999634%)" fill-opacity="1" d="M 71.054688 26.433594 C 70.257812 24.238281 63.6875 24.617188 56.378906 27.277344 C 49.066406 29.9375 43.789062 33.875 44.589844 36.066406 C 45.386719 38.257812 51.957031 37.878906 59.265625 35.21875 C 66.578125 32.558594 71.855469 28.625 71.054688 26.433594 Z M 71.054688 26.433594 "/>
<path fill-rule="nonzero" fill="rgb(73.399353%, 63.598633%, 53.799438%)" fill-opacity="1" d="M 66.410156 18.382812 C 64.910156 16.597656 58.863281 19.199219 52.90625 24.199219 C 46.945312 29.199219 43.332031 34.703125 44.832031 36.488281 C 46.332031 38.277344 52.378906 35.671875 58.335938 30.671875 C 64.296875 25.671875 67.910156 20.171875 66.410156 18.382812 Z M 66.410156 18.382812 "/>
<path fill-rule="nonzero" fill="rgb(61.999512%, 47.999573%, 33.999634%)" fill-opacity="1" d="M 59.289062 12.410156 C 57.269531 11.242188 52.480469 15.757812 48.589844 22.496094 C 44.703125 29.230469 43.1875 35.636719 45.207031 36.804688 C 47.226562 37.96875 52.019531 33.457031 55.90625 26.71875 C 59.796875 19.984375 61.3125 13.578125 59.289062 12.410156 Z M 59.289062 12.410156 "/>
<path fill-rule="nonzero" fill="rgb(73.399353%, 63.598633%, 53.799438%)" fill-opacity="1" d="M 50.558594 9.230469 C 48.261719 8.828125 45.300781 14.707031 43.953125 22.367188 C 42.601562 30.027344 43.367188 36.566406 45.667969 36.972656 C 47.964844 37.375 50.921875 31.496094 52.273438 23.835938 C 53.625 16.175781 52.855469 9.636719 50.558594 9.230469 Z M 50.558594 9.230469 "/>
<path fill-rule="nonzero" fill="rgb(61.999512%, 47.999573%, 33.999634%)" fill-opacity="1" d="M 41.265625 9.230469 C 38.96875 9.636719 38.199219 16.175781 39.550781 23.835938 C 40.902344 31.496094 43.859375 37.375 46.15625 36.972656 C 48.453125 36.566406 49.222656 30.027344 47.871094 22.367188 C 46.519531 14.707031 43.5625 8.828125 41.265625 9.230469 Z M 41.265625 9.230469 "/>
<path fill-rule="nonzero" fill="rgb(73.399353%, 63.598633%, 53.799438%)" fill-opacity="1" d="M 32.53125 12.410156 C 30.511719 13.578125 32.027344 19.984375 35.914062 26.71875 C 39.804688 33.457031 44.59375 37.96875 46.617188 36.804688 C 48.636719 35.636719 47.121094 29.230469 43.234375 22.496094 C 39.34375 15.757812 34.554688 11.242188 32.53125 12.410156 Z M 32.53125 12.410156 "/>
<path fill-rule="nonzero" fill="rgb(61.999512%, 47.999573%, 33.999634%)" fill-opacity="1" d="M 25.414062 18.382812 C 23.914062 20.171875 27.527344 25.671875 33.488281 30.671875 C 39.445312 35.671875 45.492188 38.277344 46.992188 36.488281 C 48.492188 34.703125 44.875 29.199219 38.917969 24.199219 C 32.960938 19.199219 26.914062 16.597656 25.414062 18.382812 Z M 25.414062 18.382812 "/>
<path fill-rule="nonzero" fill="rgb(73.399353%, 63.598633%, 53.799438%)" fill-opacity="1" d="M 20.765625 26.433594 C 19.96875 28.625 25.246094 32.558594 32.554688 35.21875 C 39.867188 37.878906 46.4375 38.257812 47.234375 36.066406 C 48.035156 33.875 42.753906 29.9375 35.445312 27.277344 C 28.136719 24.617188 21.566406 24.238281 20.765625 26.433594 Z M 20.765625 26.433594 "/>
<path fill-rule="nonzero" fill="rgb(61.999512%, 47.999573%, 33.999634%)" fill-opacity="1" d="M 19.152344 35.582031 C 19.152344 37.917969 25.457031 39.808594 33.238281 39.808594 C 41.015625 39.808594 47.320312 37.917969 47.320312 35.582031 C 47.320312 33.25 41.015625 31.359375 33.238281 31.359375 C 25.457031 31.359375 19.152344 33.25 19.152344 35.582031 Z M 19.152344 35.582031 "/>
<path fill-rule="nonzero" fill="rgb(73.399353%, 63.598633%, 53.799438%)" fill-opacity="1" d="M 20.765625 44.734375 C 21.566406 46.929688 28.136719 46.550781 35.445312 43.890625 C 42.753906 41.226562 48.035156 37.292969 47.234375 35.101562 C 46.4375 32.910156 39.867188 33.289062 32.554688 35.949219 C 25.246094 38.609375 19.96875 42.542969 20.765625 44.734375 Z M 20.765625 44.734375 "/>
<path fill-rule="nonzero" fill="rgb(61.999512%, 47.999573%, 33.999634%)" fill-opacity="1" d="M 25.414062 52.785156 C 26.914062 54.570312 32.960938 51.96875 38.917969 46.96875 C 44.875 41.96875 48.492188 36.464844 46.992188 34.679688 C 45.492188 32.890625 39.445312 35.496094 33.488281 40.496094 C 27.527344 45.496094 23.914062 50.996094 25.414062 52.785156 Z M 25.414062 52.785156 "/>
<path fill-rule="nonzero" fill="rgb(100%, 54.998779%, 0%)" fill-opacity="1" d="M 52.109375 52.484375 C 52.109375 49.371094 51.730469 46.851562 51.261719 46.851562 C 50.796875 46.851562 50.417969 49.371094 50.417969 52.484375 C 50.417969 55.59375 50.796875 58.117188 51.261719 58.117188 C 51.730469 58.117188 52.109375 55.59375 52.109375 52.484375 Z M 52.109375 52.484375 "/>
<path fill-rule="nonzero" fill="rgb(100%, 54.998779%, 0%)" fill-opacity="1" d="M 41.40625 52.484375 C 41.40625 49.371094 41.027344 46.851562 40.558594 46.851562 C 40.09375 46.851562 39.714844 49.371094 39.714844 52.484375 C 39.714844 55.59375 40.09375 58.117188 40.558594 58.117188 C 41.027344 58.117188 41.40625 55.59375 41.40625 52.484375 Z M 41.40625 52.484375 "/>
<path fill-rule="nonzero" fill="rgb(100%, 54.998779%, 0%)" fill-opacity="1" d="M 51.6875 58.117188 C 51.6875 56.5625 51.308594 55.300781 50.839844 55.300781 C 50.375 55.300781 49.996094 56.5625 49.996094 58.117188 C 49.996094 59.671875 50.375 60.933594 50.839844 60.933594 C 51.308594 60.933594 51.6875 59.671875 51.6875 58.117188 Z M 51.6875 58.117188 "/>
<path fill-rule="nonzero" fill="rgb(100%, 54.998779%, 0%)" fill-opacity="1" d="M 53.042969 57.546875 C 52.511719 56.085938 51.726562 55.027344 51.285156 55.1875 C 50.847656 55.347656 50.921875 56.664062 51.457031 58.125 C 51.988281 59.585938 52.773438 60.640625 53.214844 60.484375 C 53.652344 60.324219 53.574219 59.007812 53.042969 57.546875 Z M 53.042969 57.546875 "/>
<path fill-rule="nonzero" fill="rgb(100%, 54.998779%, 0%)" fill-opacity="1" d="M 54.304688 56.730469 C 53.304688 55.539062 52.203125 54.816406 51.847656 55.113281 C 51.488281 55.414062 52.011719 56.625 53.011719 57.816406 C 54.011719 59.007812 55.109375 59.730469 55.46875 59.429688 C 55.824219 59.128906 55.304688 57.921875 54.304688 56.730469 Z M 54.304688 56.730469 "/>
<path fill-rule="nonzero" fill="rgb(100%, 54.998779%, 0%)" fill-opacity="1" d="M 41.828125 58.117188 C 41.828125 56.5625 41.449219 55.300781 40.984375 55.300781 C 40.515625 55.300781 40.136719 56.5625 40.136719 58.117188 C 40.136719 59.671875 40.515625 60.933594 40.984375 60.933594 C 41.449219 60.933594 41.828125 59.671875 41.828125 58.117188 Z M 41.828125 58.117188 "/>
<path fill-rule="nonzero" fill="rgb(100%, 54.998779%, 0%)" fill-opacity="1" d="M 40.367188 58.125 C 40.898438 56.664062 40.976562 55.347656 40.539062 55.1875 C 40.097656 55.027344 39.3125 56.085938 38.78125 57.546875 C 38.246094 59.007812 38.171875 60.324219 38.609375 60.484375 C 39.050781 60.640625 39.835938 59.585938 40.367188 58.125 Z M 40.367188 58.125 "/>
<path fill-rule="nonzero" fill="rgb(100%, 54.998779%, 0%)" fill-opacity="1" d="M 38.8125 57.816406 C 39.8125 56.625 40.335938 55.414062 39.976562 55.113281 C 39.621094 54.816406 38.519531 55.539062 37.519531 56.730469 C 36.519531 57.921875 35.996094 59.128906 36.355469 59.429688 C 36.714844 59.730469 37.8125 59.007812 38.8125 57.816406 Z M 38.8125 57.816406 "/>
<path fill-rule="nonzero" fill="rgb(52.49939%, 34.999084%, 17.498779%)" fill-opacity="1" d="M 53.796875 48.257812 C 53.796875 46.703125 52.539062 45.441406 50.980469 45.441406 C 49.425781 45.441406 48.164062 46.703125 48.164062 48.257812 C 48.164062 49.816406 49.425781 51.074219 50.980469 51.074219 C 52.539062 51.074219 53.796875 49.816406 53.796875 48.257812 Z M 53.796875 48.257812 "/>
<path fill-rule="nonzero" fill="rgb(52.49939%, 34.999084%, 17.498779%)" fill-opacity="1" d="M 43.660156 48.257812 C 43.660156 46.703125 42.398438 45.441406 40.84375 45.441406 C 39.285156 45.441406 38.023438 46.703125 38.023438 48.257812 C 38.023438 49.816406 39.285156 51.074219 40.84375 51.074219 C 42.398438 51.074219 43.660156 49.816406 43.660156 48.257812 Z M 43.660156 48.257812 "/>
<path fill-rule="nonzero" fill="rgb(52.49939%, 34.999084%, 17.498779%)" fill-opacity="1" d="M 59.996094 35.582031 C 59.996094 27.804688 53.691406 21.5 45.910156 21.5 C 38.132812 21.5 31.828125 27.804688 31.828125 35.582031 C 31.828125 43.363281 38.132812 49.667969 45.910156 49.667969 C 53.691406 49.667969 59.996094 43.363281 59.996094 35.582031 Z M 59.996094 35.582031 "/>
<path fill-rule="nonzero" fill="rgb(61.999512%, 47.999573%, 33.999634%)" fill-opacity="1" d="M 48.730469 13.050781 L 43.09375 13.050781 L 43.09375 32.765625 C 43.09375 34.324219 44.355469 35.582031 45.914062 35.582031 C 47.46875 35.582031 48.730469 34.324219 48.730469 32.765625 Z M 48.730469 13.050781 "/>
<path fill-rule="nonzero" fill="rgb(61.999512%, 47.999573%, 33.999634%)" fill-opacity="1" d="M 48.445312 7.980469 C 48.445312 7.980469 49.574219 2.628906 47.882812 2.066406 C 48.445312 6.007812 44.785156 7.417969 44.785156 7.417969 C 44.785156 7.417969 45.347656 4.035156 44.222656 3.753906 C 44.222656 6.570312 42.25 7.417969 42.25 7.417969 Z M 48.445312 7.980469 "/>
<path fill-rule="nonzero" fill="rgb(61.999512%, 47.999573%, 33.999634%)" fill-opacity="1" d="M 53.796875 14.457031 C 53.796875 10.101562 50.269531 6.570312 45.910156 6.570312 C 41.554688 6.570312 38.023438 10.101562 38.023438 14.457031 C 38.023438 18.8125 41.554688 22.34375 45.910156 22.34375 C 50.269531 22.34375 53.796875 18.8125 53.796875 14.457031 Z M 53.796875 14.457031 "/>
<path fill-rule="nonzero" fill="rgb(22.499084%, 14.99939%, 7.499695%)" fill-opacity="1" d="M 50.25 13.613281 C 50.25 13.148438 49.871094 12.769531 49.40625 12.769531 C 48.9375 12.769531 48.558594 13.148438 48.558594 13.613281 C 48.558594 14.082031 48.9375 14.457031 49.40625 14.457031 C 49.871094 14.457031 50.25 14.082031 50.25 13.613281 Z M 50.25 13.613281 "/>
<path fill-rule="nonzero" fill="rgb(22.499084%, 14.99939%, 7.499695%)" fill-opacity="1" d="M 43.265625 13.613281 C 43.265625 13.148438 42.886719 12.769531 42.417969 12.769531 C 41.953125 12.769531 41.574219 13.148438 41.574219 13.613281 C 41.574219 14.082031 41.953125 14.457031 42.417969 14.457031 C 42.886719 14.457031 43.265625 14.082031 43.265625 13.613281 Z M 43.265625 13.613281 "/>
<path fill-rule="nonzero" fill="rgb(98.234558%, 73.919678%, 3.529358%)" fill-opacity="1" d="M 45.910156 19.246094 L 44.484375 16.183594 C 45.390625 15.761719 46.433594 15.761719 47.339844 16.183594 Z M 45.910156 19.246094 "/>
<path fill-rule="nonzero" fill="rgb(69.999695%, 0%, 0%)" fill-opacity="1" d="M 46.445312 15.78125 C 42.617188 13.585938 42.136719 20.09375 43.515625 20.597656 C 44.972656 21.132812 43.96875 16.234375 46.4375 15.78125 Z M 46.445312 15.78125 "/>
<path fill-rule="nonzero" fill="rgb(41.999817%, 27.999878%, 13.999939%)" fill-opacity="1" d="M 58.585938 49.667969 C 62.339844 44.308594 62.945312 37.355469 60.183594 31.429688 C 58.363281 27.527344 55.226562 24.390625 51.328125 22.574219 Z M 58.585938 49.667969 "/>
<path fill-rule="nonzero" fill="rgb(41.999817%, 27.999878%, 13.999939%)" fill-opacity="1" d="M 33.238281 49.667969 C 29.484375 44.308594 28.878906 37.355469 31.640625 31.429688 C 33.460938 27.527344 36.597656 24.390625 40.496094 22.574219 Z M 33.238281 49.667969 "/>
</svg>
