<?xml version="1.0" encoding="UTF-8" standalone="no"?>
<svg
   width="58.311"
   height="63.27"
   viewBox="0 0 58.311 63.27"
   version="1.1"
   id="svg19"
   sodipodi:docname="wolf.svg"
   xmlns:inkscape="http://www.inkscape.org/namespaces/inkscape"
   xmlns:sodipodi="http://sodipodi.sourceforge.net/DTD/sodipodi-0.dtd"
   xmlns="http://www.w3.org/2000/svg"
   xmlns:svg="http://www.w3.org/2000/svg">
  <sodipodi:namedview
     id="namedview19"
     pagecolor="#ffffff"
     bordercolor="#666666"
     borderopacity="1.0"
     inkscape:showpageshadow="2"
     inkscape:pageopacity="0.0"
     inkscape:pagecheckerboard="0"
     inkscape:deskcolor="#d1d1d1" />
  <defs
     id="defs1">
    <clipPath
       id="clip-0">
      <path
         clip-rule="nonzero"
         d="M 26 20 L 57.628906 20 L 57.628906 56 L 26 56 Z M 26 20 "
         id="path1" />
    </clipPath>
  </defs>
  <path
     id="path2"
     d="M 13.257812 1.2695312 C 13.257812 1.2695312 12.66199 7.9210545 14.455078 10.910156 C 13.921654 11.85496 13.465858 12.889878 13.105469 14.015625 C 13.105469 15.183938 13.407909 16.464144 13.935547 17.787109 C 12.447572 21.497188 11.369436 25.860692 10.830078 30.640625 C 9.3748825 31.809263 7.8152029 33.335801 6.3125 35.125 C 2.136719 40.105469 5e-07 45.1875 1.5390625 46.480469 C 2.9119862 47.630944 6.7343858 45.386433 10.501953 41.373047 C 10.844432 49.873789 12.84708 54.434226 16.066406 56.835938 C 14.523969 57.296416 13.527344 58.022871 13.527344 58.839844 C 13.527344 60.234375 16.410156 61.363281 19.96875 61.363281 C 23.046596 61.363281 25.620134 60.519108 26.259766 59.388672 C 26.544693 59.392848 26.822767 59.402344 27.113281 59.402344 C 27.403796 59.402344 27.681869 59.392848 27.966797 59.388672 C 28.606429 60.519108 31.179967 61.363281 34.257812 61.363281 C 37.816406 61.363281 40.703125 60.234375 40.703125 58.839844 C 40.703125 58.022456 39.705048 57.294426 38.160156 56.833984 C 38.692951 56.436403 39.193972 55.982641 39.658203 55.458984 C 44.935433 54.222365 47.95667 50.718887 49.910156 46.283203 C 51.135906 46.850607 52.120475 46.955622 52.6875 46.480469 C 53.625435 45.692508 53.191465 43.495275 51.769531 40.773438 C 53.731727 33.330417 54.342114 24.97157 57.632812 20.238281 C 50.261079 19.415832 45.992963 22.566983 42.921875 27.298828 C 42.320824 23.817911 41.424592 20.613539 40.291016 17.787109 C 40.818653 16.464144 41.121094 15.183938 41.121094 14.015625 C 40.760737 12.888999 40.305185 11.853604 39.771484 10.908203 C 41.563518 7.9184053 40.96875 1.2695312 40.96875 1.2695312 C 40.96875 1.2695312 36.518086 2.8377207 34.388672 5.0585938 L 34.351562 5.0039062 L 33.4375 4.9375 C 33.235111 4.8405264 33.030204 4.7511541 32.824219 4.6640625 L 32.214844 3.7851562 L 30.851562 3.6875 L 29.933594 2.515625 L 28.703125 3.1054688 L 27.472656 2.515625 L 26.242188 3.1054688 L 25.011719 2.515625 L 23.996094 3.3320312 L 22.632812 3.4296875 L 21.925781 4.4550781 C 21.828726 4.4917335 21.731135 4.5276141 21.634766 4.5664062 L 20.496094 4.6484375 L 19.835938 5.0546875 C 17.705374 2.8354267 13.257812 1.2695312 13.257812 1.2695312 z " />
  <g
     clip-path="url(#clip-0)"
     id="g8" />
</svg>
