<?xml version="1.0" encoding="UTF-8"?>
<svg xmlns="http://www.w3.org/2000/svg" xmlns:xlink="http://www.w3.org/1999/xlink" width="92.41" height="63.27" viewBox="0 0 92.41 63.27">
<path fill-rule="nonzero" fill="rgb(70.748901%, 70.748901%, 70.748901%)" fill-opacity="1" d="M 45.210938 58.847656 C 45.210938 57.457031 42.328125 56.328125 38.765625 56.328125 C 35.207031 56.328125 32.320312 57.457031 32.320312 58.847656 C 32.320312 60.242188 35.207031 61.371094 38.765625 61.371094 C 42.328125 61.371094 45.210938 60.242188 45.210938 58.847656 Z M 45.210938 58.847656 "/>
<path fill-rule="nonzero" fill="rgb(70.748901%, 70.748901%, 70.748901%)" fill-opacity="1" d="M 59.503906 58.847656 C 59.503906 57.457031 56.621094 56.328125 53.058594 56.328125 C 49.5 56.328125 46.613281 57.457031 46.613281 58.847656 C 46.613281 60.242188 49.5 61.371094 53.058594 61.371094 C 56.621094 61.371094 59.503906 60.242188 59.503906 58.847656 Z M 59.503906 58.847656 "/>
<path fill-rule="nonzero" fill="rgb(54.998779%, 54.998779%, 54.998779%)" fill-opacity="1" d="M 52.078125 7.308594 C 52.078125 3.96875 59.773438 1.261719 59.773438 1.261719 C 59.773438 1.261719 60.765625 12.328125 56.339844 12.328125 C 54.015625 12.328125 52.078125 10.644531 52.078125 7.308594 Z M 52.078125 7.308594 "/>
<path fill-rule="nonzero" fill="rgb(75.248718%, 75.248718%, 75.248718%)" fill-opacity="1" d="M 52.078125 7.308594 C 53.199219 3.96875 59.085938 2.242188 59.085938 2.800781 C 59.085938 2.800781 59.644531 11.207031 56.339844 11.207031 C 54.015625 11.769531 52.078125 11.769531 52.078125 7.308594 Z M 52.078125 7.308594 "/>
<path fill-rule="nonzero" fill="rgb(54.998779%, 54.998779%, 54.998779%)" fill-opacity="1" d="M 39.75 7.308594 C 39.75 3.96875 32.054688 1.261719 32.054688 1.261719 C 32.054688 1.261719 31.0625 12.328125 35.484375 12.328125 C 37.8125 12.328125 39.75 10.644531 39.75 7.308594 Z M 39.75 7.308594 "/>
<path fill-rule="nonzero" fill="rgb(75.248718%, 75.248718%, 75.248718%)" fill-opacity="1" d="M 39.75 7.308594 C 38.628906 3.96875 32.742188 2.242188 32.742188 2.800781 C 32.742188 2.800781 32.183594 11.207031 35.484375 11.207031 C 37.8125 11.769531 39.75 11.769531 39.75 7.308594 Z M 39.75 7.308594 "/>
<path fill-rule="nonzero" fill="rgb(40.000916%, 40.000916%, 40.000916%)" fill-opacity="1" d="M 76.4375 20.234375 C 55.535156 17.902344 59.542969 47.464844 45.230469 54.699219 C 75.816406 62.546875 68.703125 31.363281 76.4375 20.234375 Z M 76.4375 20.234375 "/>
<path fill-rule="nonzero" fill="rgb(63.999939%, 63.999939%, 63.999939%)" fill-opacity="1" d="M 35.464844 28.453125 C 33.921875 27.160156 29.285156 30.148438 25.109375 35.125 C 20.929688 40.105469 18.792969 45.191406 20.332031 46.484375 C 21.875 47.777344 26.511719 44.789062 30.691406 39.808594 C 34.867188 34.832031 37.007812 29.746094 35.464844 28.453125 Z M 35.464844 28.453125 "/>
<path fill-rule="nonzero" fill="rgb(63.999939%, 63.999939%, 63.999939%)" fill-opacity="1" d="M 71.492188 46.484375 C 73.035156 45.191406 70.898438 40.105469 66.71875 35.125 C 62.539062 30.148438 57.902344 27.160156 56.363281 28.453125 C 54.820312 29.746094 56.957031 34.832031 61.136719 39.808594 C 65.316406 44.789062 69.953125 47.777344 71.492188 46.484375 Z M 71.492188 46.484375 "/>
<path fill-rule="nonzero" fill="rgb(54.998779%, 54.998779%, 54.998779%)" fill-opacity="1" d="M 62.585938 38.671875 C 62.585938 57.167969 55.863281 59.410156 45.914062 59.410156 C 35.964844 59.410156 29.238281 57.167969 29.238281 38.671875 C 28.960938 20.175781 36.523438 5.324219 45.914062 5.324219 C 55.300781 5.324219 62.867188 20.175781 62.585938 38.671875 Z M 62.585938 38.671875 "/>
<path fill-rule="nonzero" fill="rgb(68.824768%, 67.573547%, 66.323853%)" fill-opacity="1" d="M 59.925781 14.011719 C 59.925781 20.175781 51.519531 29.425781 45.914062 31.945312 C 40.308594 29.425781 31.902344 20.175781 31.902344 14.011719 C 36.386719 0 55.441406 0 59.925781 14.011719 Z M 59.925781 14.011719 "/>
<path fill-rule="nonzero" fill="rgb(80.599976%, 75.59967%, 70.600891%)" fill-opacity="1" d="M 32.082031 15.570312 C 32.082031 15.570312 40.542969 14.578125 42.070312 15.878906 C 43.953125 30.824219 43.953125 30.824219 43.953125 30.824219 C 38.65625 27.550781 33.023438 20.554688 32.082031 15.570312 Z M 59.742188 15.570312 C 59.742188 15.570312 51.285156 14.578125 49.753906 15.878906 C 47.875 30.824219 47.875 30.824219 47.875 30.824219 C 53.171875 27.550781 58.804688 20.554688 59.742188 15.570312 Z M 59.742188 15.570312 "/>
<path fill-rule="nonzero" fill="rgb(100%, 100%, 100%)" fill-opacity="1" d="M 41.671875 17.398438 C 41.671875 17.398438 40.445312 18.296875 39.351562 17.980469 C 38.261719 17.664062 37.710938 16.253906 37.710938 16.253906 C 37.710938 16.253906 38.929688 15.351562 40.023438 15.671875 C 41.117188 15.988281 41.671875 17.398438 41.671875 17.398438 Z M 41.671875 17.398438 "/>
<path fill-rule="nonzero" fill="rgb(100%, 100%, 100%)" fill-opacity="1" d="M 50.15625 17.398438 C 50.15625 17.398438 51.378906 18.296875 52.472656 17.980469 C 53.566406 17.664062 54.117188 16.253906 54.117188 16.253906 C 54.117188 16.253906 52.898438 15.351562 51.804688 15.671875 C 50.710938 15.988281 50.15625 17.398438 50.15625 17.398438 Z M 50.15625 17.398438 "/>
<path fill-rule="nonzero" fill="rgb(0%, 0%, 0%)" fill-opacity="1" d="M 52.777344 16.953125 C 52.777344 16.566406 52.464844 16.253906 52.078125 16.253906 C 51.691406 16.253906 51.378906 16.566406 51.378906 16.953125 C 51.378906 17.339844 51.691406 17.652344 52.078125 17.652344 C 52.464844 17.652344 52.777344 17.339844 52.777344 16.953125 Z M 52.777344 16.953125 "/>
<path fill-rule="nonzero" fill="rgb(0%, 0%, 0%)" fill-opacity="1" d="M 40.449219 16.953125 C 40.449219 16.566406 40.136719 16.253906 39.75 16.253906 C 39.363281 16.253906 39.046875 16.566406 39.046875 16.953125 C 39.046875 17.339844 39.363281 17.652344 39.75 17.652344 C 40.136719 17.652344 40.449219 17.339844 40.449219 16.953125 Z M 40.449219 16.953125 "/>
<path fill-rule="nonzero" fill="rgb(40.000916%, 40.000916%, 40.000916%)" fill-opacity="1" d="M 45.914062 19.617188 L 45.449219 19.117188 L 45.644531 17.765625 L 44.714844 16.765625 L 44.910156 15.414062 L 43.980469 14.417969 L 44.175781 13.066406 L 43.246094 12.066406 L 43.441406 10.714844 L 42.152344 10.085938 L 41.71875 8.792969 L 40.4375 8.320312 L 40.003906 7.027344 L 38.71875 6.554688 L 38.285156 5.261719 L 39.296875 4.640625 L 40.65625 4.542969 L 41.433594 3.421875 L 42.796875 3.324219 L 43.808594 2.507812 L 45.039062 3.097656 L 46.273438 2.507812 L 47.503906 3.097656 L 48.734375 2.507812 L 49.652344 3.679688 L 51.015625 3.777344 L 51.792969 4.898438 L 53.152344 4.996094 L 53.929688 6.121094 L 52.605469 7.070312 L 51.324219 7.539062 L 50.890625 8.835938 L 49.609375 9.304688 L 49.175781 10.601562 L 48.171875 11.398438 L 48.367188 12.75 L 47.4375 13.75 L 47.632812 15.101562 L 46.703125 16.097656 L 46.898438 17.449219 L 45.96875 18.449219 L 46.066406 19.125 L 45.914062 19.617188 "/>
<path fill-rule="nonzero" fill="rgb(27.500916%, 27.500916%, 27.500916%)" fill-opacity="1" d="M 47.875 29.703125 C 47.875 28.929688 46.996094 28.304688 45.914062 28.304688 C 44.828125 28.304688 43.953125 28.929688 43.953125 29.703125 C 43.953125 30.476562 44.828125 31.105469 45.914062 31.105469 C 46.996094 31.105469 47.875 30.476562 47.875 29.703125 Z M 47.875 29.703125 "/>
</svg>
